<svg width="208" height="211" viewBox="0 0 208 211" fill="none" xmlns="http://www.w3.org/2000/svg">
<path d="M175.425 118.125C175.363 118.813 175.271 118.563 175.425 118.125Z" fill="#E94228"/>
<path d="M57.4325 155.771C57.6421 155.993 57.8437 156.227 58.0533 156.57C57.8477 156.107 57.6401 155.897 57.4325 155.771Z" fill="#E94228"/>
<path d="M15.0626 151.026C15.0266 150.89 15.0686 150.813 14.9049 150.695C14.8889 150.725 14.8809 150.749 14.877 150.777C14.9788 150.795 15.0566 150.851 15.0626 151.026Z" fill="#E94228"/>
<path d="M12.4555 146.285C12.4315 146.331 12.4196 146.379 12.4016 146.425L12.5074 146.562L12.4555 146.285Z" fill="#E94228"/>
<path d="M9.39329 149.962C9.49111 149.724 9.51307 149.519 9.4971 149.327C9.44121 149.316 9.38933 149.294 9.31946 149.304L9.39329 149.962Z" fill="#E94228"/>
<path d="M7.1875 79.1846L7.31921 79.2387L7.26133 79.0525L7.1875 79.1846Z" fill="#E94228"/>
<path d="M21.4066 165.919C21.3767 165.89 21.3447 165.864 21.3088 165.846C21.0413 165.71 21.201 165.824 21.4066 165.919Z" fill="#E94228"/>
<path d="M11.188 153.199L11.198 153.195L11.1421 153.108L11.188 153.199Z" fill="#E94228"/>
<path d="M12.8448 147.309C13.0744 147.502 13.7232 147.221 13.3419 146.906L12.8448 147.309Z" fill="#E94228"/>
<path d="M6.75435 132.276C6.99789 132.025 7.05779 131.543 6.71244 131.348C6.73639 131.715 6.61861 132.123 6.75435 132.276Z" fill="#E94228"/>
<path d="M10.3835 84.8655L10.2457 85.1168L10.3236 85.4857L10.3835 84.8655Z" fill="#E94228"/>
<path d="M52.2443 196.982L52.3082 196.854L51.9888 196.816L52.2443 196.982Z" fill="#E94228"/>
<path d="M122.37 159.842C122.362 159.862 122.354 159.882 122.346 159.902L122.523 159.79L122.37 159.842Z" fill="#E94228"/>
<path d="M181.404 170.749C181.085 170.99 180.933 171.026 180.588 171.453C180.643 171.439 180.693 171.419 180.755 171.389C180.847 171.198 181.013 170.994 181.404 170.749Z" fill="#E94228"/>
<path d="M39.3128 41.0008C38.8776 40.8091 40.8598 39.3333 38.3905 41.0049C38.7858 40.935 39.0712 40.9549 39.3128 41.0008Z" fill="#E94228"/>
<path d="M181.927 176.162C182.536 175.724 183.262 175.083 183.953 174.428C183.953 174.428 183.452 174.869 182.953 175.311C182.44 175.736 181.927 176.162 181.927 176.162Z" fill="#E94228"/>
<path d="M175.836 181.199C175.335 181.323 174.864 181.531 174.403 181.778C174.341 181.88 174.259 181.984 174.24 182.08L175.836 181.199Z" fill="#E94228"/>
<path d="M206.874 132.51C207.009 131.648 207.333 130.523 206.898 130.565C206.898 130.565 206.904 130.779 206.91 130.994C206.902 131.208 206.896 131.422 206.896 131.422C206.86 131.482 206.828 131.516 206.796 131.55C206.874 131.58 206.882 132.057 206.874 132.51Z" fill="#E94228"/>
<path d="M206.792 131.545V131.552L206.794 131.548L206.792 131.545Z" fill="#E94228"/>
<path d="M207.155 124.652C207.265 123.812 207.433 123.542 207.714 124.415C207.61 121.287 207.095 122.4 207.051 119.6C207.249 119.602 207.343 120.165 207.584 120.45C207.371 119.742 207.155 119.037 207.007 118.216C206.997 118.174 206.992 118.123 206.982 118.079C207.087 117.031 207.195 115.983 207.259 114.925C207.97 103.231 205.822 91.7145 201.867 81.1804C193.723 60.2041 177.958 42.7632 157.617 33.2172C149.554 29.3725 141.008 27.1088 132.47 25.9709C131.404 25.2104 130.396 24.4837 129.466 23.9328C126.955 22.4256 125.282 21.4215 125.282 21.4215C125.282 21.4215 124.044 21.0702 121.833 20.7029C120.731 20.5072 119.391 20.2677 117.856 19.9942C116.319 19.7367 114.564 19.6009 112.664 19.3833C105.052 18.6188 94.7817 18.7226 84.7487 20.7368C74.6997 22.6432 65.034 26.5059 58.3087 30.3805C57.105 30.9774 56.071 31.6501 55.0869 32.2909C54.8912 32.259 54.6297 32.3389 53.6316 32.8619C52.4079 33.0076 54.3702 31.8897 54.3702 31.8897C52.0586 32.7541 53.3841 32.9756 53.1804 33.5126C53.0946 33.5665 53.0048 33.6264 52.9209 33.6783C50.5494 34.7403 51.6254 33.6124 50.5574 33.6583C48.9045 34.6445 47.8845 35.8681 46.6009 36.4371C46.4512 36.3732 46.1817 36.4511 46.4033 36.1776C45.4391 37.1817 43.4529 38.098 41.786 39.1799C41.6723 39.144 41.5685 39.0721 41.5026 38.8945C41.5026 39.13 41.4207 39.3236 41.3029 39.5033C40.8219 39.8427 40.3987 40.204 40.0393 40.5872C39.8776 40.711 39.7239 40.8447 39.5902 40.9905C39.4764 41.0064 39.3706 41.0184 39.3207 41.0005C39.3486 41.0065 39.3586 41.0224 39.3846 41.0304C38.9254 41.1961 38.62 41.0604 38.2567 41.1302C38.3964 41.3917 38.3785 41.6492 38.3186 41.9027C38.0052 42.1623 37.6918 42.4178 37.3863 42.6993C37.3424 42.3779 37.5001 41.9766 37.1428 41.6892C37.3843 42.0046 37.0809 42.4058 36.9412 42.7352C34.6595 43.0267 38.3884 41.8569 36.1367 42.0026C34.6156 43.0107 33.869 43.7233 33.1124 44.408C32.3718 45.1147 31.5733 45.7375 30.184 46.9093C29.8246 47.7397 30.7489 47.1508 30.3936 47.9773C30.3916 47.9812 30.3856 47.9852 30.3856 47.9852C30.3896 47.7617 30.4794 47.604 29.9724 48.0751C30.0642 48.0931 30.136 48.139 30.2159 48.1709C29.9624 48.4564 29.7228 48.7059 29.4973 48.9235C29.0641 48.7139 30.156 48.67 29.082 48.3087C28.028 48.9874 28.2416 49.4385 27.2375 50.1592C27.2535 50.2729 27.2894 50.3508 27.3333 50.4106C26.2035 50.8778 25.429 50.8598 24.2412 52.8621C24.1015 53.2972 24.0695 53.6905 23.9398 54.1277C23.3329 54.2574 23.5685 54.5529 23.6184 54.8663C23.5585 54.9681 23.4847 55.0758 23.4068 55.1876L22.9157 54.8862C22.6642 55.2395 22.4406 55.6388 22.223 56.048L22.217 55.2615C20.8037 56.9503 20.9794 57.3855 20.668 58.1141C20.6061 58.0602 20.5242 58.0303 20.3805 58.0762C20.119 58.5493 19.7796 58.9885 19.4103 59.4097C19.8176 58.6631 20.5322 57.8186 20.2248 58.0861C19.053 58.9585 19.037 59.3637 18.9971 59.8468C18.8773 59.9706 18.7695 60.1023 18.6438 60.2221C18.3523 60.5235 18.0509 60.7831 17.7515 61.0705L17.7215 61.0665C17.7035 61.0925 17.6876 61.1224 17.6696 61.1484C17.3263 61.4758 16.983 61.827 16.6436 62.1225L16.7054 62.6675C16.6316 62.7853 16.5577 62.8971 16.4859 63.0148C16.428 62.9849 16.3681 62.951 16.3681 62.8751C16.0507 63.1087 16.1804 63.1565 16.3541 63.2244C16.2982 63.3142 16.2423 63.3981 16.1865 63.4879C16.1705 63.5159 16.1565 63.5498 16.1385 63.5777C16.1126 63.5358 16.0866 63.488 16.0866 63.4281C16.0547 63.5778 16.0148 63.7374 15.9688 63.9051C15.5736 64.6298 15.1983 65.3743 14.807 66.1229C14.6274 66.4703 14.4457 66.8256 14.2641 67.177C14.1523 67.2867 14.0365 67.3886 13.9168 67.4704L13.8928 67.171C13.5674 67.5004 13.6493 67.8617 13.7351 68.203C13.6273 68.4106 13.5235 68.6163 13.4157 68.8239C13.3019 69.0674 13.1881 69.3129 13.0743 69.5545C12.717 70.0855 12.3836 70.6284 12.0702 71.1794C12.0343 70.9738 11.9385 70.886 11.5552 71.3451C11.2657 71.9499 10.9803 72.5907 10.6928 73.2175C10.4772 73.4671 10.2657 73.7246 10.0101 73.9122C10.5092 74.4372 9.40927 75.2097 9.48313 75.8226C9.34938 76.112 9.20961 76.3995 9.07387 76.6889C8.60675 76.9544 8.36127 77.0203 7.56677 77.9925C7.35517 78.3338 7.81629 78.789 7.86619 79.2741C7.84224 79.326 7.82027 79.3779 7.79632 79.4298L7.31523 79.2342L7.55678 79.9628C7.52085 80.0426 7.48489 80.1225 7.44895 80.2023L6.80217 80.2702L6.75428 80.8131C6.8541 80.6514 7.1056 80.5576 7.26729 80.6075C7.11558 80.9449 6.96389 81.2823 6.81417 81.6177C6.47281 81.987 6.06358 82.2385 5.8919 82.1866L5.66632 84.1528V84.1548C5.45072 84.0311 5.48867 83.7037 5.43677 83.4122C5.64438 84.582 4.75808 83.3643 4.94971 84.4363C5.12937 84.3664 5.2691 84.6239 5.3789 84.6838C4.87185 84.9992 4.56242 86.0273 4.47259 86.8278L4.11529 86.5503C3.5843 87.8877 3.41257 89.4967 2.92949 91.0238C3.23691 90.6006 3.74 90.7823 3.8478 91.1276C3.83981 91.1935 3.83379 91.2474 3.8258 91.3133L3.20497 91.3213C3.47845 91.6766 3.56832 91.0698 3.80387 91.485C3.79189 91.5788 3.77589 91.6866 3.76391 91.7824C3.50839 92.0599 3.06126 91.7864 2.94947 91.449L3.00734 92.2156C2.80972 92.2096 2.74784 92.0159 2.51828 91.9121C2.84366 92.3014 1.60602 92.9881 2.19291 93.577L1.99528 93.573C1.63596 95.146 1.69583 95.9066 1.44231 97.1882C1.98728 97.3199 1.75375 97.795 2.11706 98.2542C1.80365 99.1624 1.22475 100.147 1.11097 101.3C1.27466 102.143 1.54811 101.602 1.82958 102.005C1.31455 101.993 1.20279 103.141 0.921324 102.504C0.847464 103.891 0.703722 104.269 1.0311 106.051C1.24869 105.88 1.35049 105.676 1.52017 105.802C1.58604 106.123 1.26867 106.501 1.02513 106.437L0.977188 106.349C1.65391 108.331 -0.783456 110.818 0.266557 112.425L0.210633 112.337L0.821477 113.958C0.759594 114.705 0.422234 113.517 0.124797 114.074C1.03907 115.805 0.098854 116.861 0.71968 118.274C-0.482047 119.28 0.599923 121.209 0.661806 122.774C0.649828 122.961 0.641847 123.157 0.627873 123.341C0.59793 123.51 0.569964 123.68 0.496104 123.834L0.58194 123.8C0.536027 124.299 0.48813 124.798 0.420258 125.259C1.34451 126.084 0.458208 131.328 1.73978 131.593C1.64796 135.096 1.14492 134.158 1.61203 139.073C1.79169 140.38 2.67798 140.872 3.08721 142.435L2.49233 142.598L3.60625 144.608L3.14709 145.918C3.14709 145.918 3.2689 146.281 3.39266 146.645C3.52841 147.004 3.66211 147.363 3.66211 147.363C3.53236 146.768 3.62223 146.046 3.81386 146.094C4.65028 148.321 4.87387 151.797 4.62434 151.943C4.62434 151.943 5.16532 153.252 5.70829 154.562C6.26124 155.863 6.87606 157.139 6.87606 157.139C6.60058 157.105 6.2053 156.242 5.80406 155.588C7.40503 158.223 5.37687 156.32 6.84609 158.736C6.85408 158.338 7.25735 158.796 7.39309 158.812C7.55478 160.217 8.66667 163.165 9.81849 165.193L9.24755 164.962C10.8445 168.867 13.3279 172.859 15.877 176.839C15.1265 175.302 15.9668 175.25 16.7653 176.364L16.5178 177.181C17.3343 177.708 15.9469 175.837 17.3442 177.103C18.2246 178.614 17.3702 178.51 16.6436 177.772C16.6436 177.772 16.9809 178.191 17.3203 178.61C17.6796 179.013 18.0389 179.419 18.0389 179.419C17.9531 179.632 17.5758 179.281 17.2964 179.315C18.1547 179.78 18.8993 182.766 20.3087 183.309L20.2328 183.525C21.694 185.409 22.8858 186.673 24.0336 187.825C25.1355 189.016 26.2993 189.995 27.6867 191.354C28.1099 191.017 29.1399 192.133 30.3177 192.53C31.3118 193.536 32.3499 194.622 33.5476 195.648C34.1365 196.171 34.7374 196.714 35.3821 197.227C36.0489 197.712 36.7416 198.193 37.4662 198.656C39.6301 199.744 38.3046 198.648 39.3865 198.946C39.2687 199.465 42.2831 201.092 40.5503 200.547C42.3789 201.501 43.5087 202.178 44.8781 202.677C45.5529 202.938 46.2616 203.214 47.102 203.541C47.9384 203.878 48.9265 204.216 50.1842 204.537C49.733 204.148 49.18 203.846 49.5493 203.796C50.4516 204.04 51.4617 204.729 51.2541 204.914L51.0046 204.878C52.4279 205.21 53.8831 205.747 55.4022 206.23C56.9114 206.741 58.4226 207.426 59.9577 207.881C62.9939 208.959 66.0042 209.679 68.3558 209.49L68.0922 209.504C68.0922 209.504 68.3917 209.512 68.8428 209.524C69.294 209.514 69.8948 209.5 70.4957 209.488C71.6914 209.46 72.8892 209.432 72.8892 209.432C75.0611 209.723 71.5497 209.693 73.1407 210.158C75.7398 209.917 77.7519 209.991 79.6643 210.119C81.5707 210.154 83.3813 210.296 85.4733 209.919C88.835 211.372 96.9936 208.987 101.439 209.242L101.136 208.931C102.202 208.406 102.519 208.913 103.362 208.859C103.2 208.605 102.096 208.741 102.761 208.438C112.159 206.525 122.234 205.026 131.756 202.525C135.225 201.543 133.167 200.203 137.719 199.596L136.704 200.625C143.336 197.632 150.74 195.65 156.886 191.907C156.569 192.228 156.645 192.412 156.016 192.713C157.597 192.518 161.036 190.25 160.863 189.883C161.871 189.41 161.258 190.078 161.959 189.935C163.426 189.44 164.999 187.569 165.917 187.549C166.075 187.545 165.628 187.903 165.408 188.076C166.149 187.38 169.403 185.753 168.297 185.769C170.722 184.563 172.471 182.764 174.403 181.782C175.178 180.475 178.282 179.247 178.068 178.257C178.497 179.111 182.2 175.811 183.125 174.302C182.893 174.895 184.4 173.494 184.171 174.226C185.612 172.899 186.714 171.462 186.153 171.39C189.507 169.585 190.347 165.499 192.691 164.818C195.914 159.937 198.492 155.21 200.594 150.453C201.384 151.062 197.979 155.578 198.885 155.843C201.057 151.314 201.562 148.411 203.5 143.922C204.053 142.768 203.62 144.732 203.612 145.197C205.043 140.444 206.636 136.017 206.792 131.551C206.145 132.226 206.053 127.85 205.742 127.696C206.245 128.467 206.45 127.413 206.63 126.451C206.776 125.493 206.96 124.624 207.656 125.834C207.6 125.255 207.433 124.53 207.155 124.652ZM15.7333 151.831C15.8311 151.523 14.7372 151.256 14.8769 150.779C14.6454 150.737 14.2641 150.907 14.0705 150.541C14.1144 150.463 14.2381 150.445 14.2381 150.445C14.0585 150.549 13.6832 150.022 13.4815 150.555C14.0245 148.946 11.9245 147.788 12.4016 146.427C11.9125 145.784 11.3516 144.988 10.9883 144.359C11.116 144.349 11.1659 144.277 11.1939 144.415C11.116 143.353 9.9223 144.329 9.84445 143.105C10.1998 142.307 10.3934 143.522 10.4733 143.089C11.5971 142.415 9.77856 141.898 10.1778 140.895L10.3196 141.035C10.5012 140.335 9.31545 139.917 9.028 139.003C9.028 139.003 9.15373 139.005 9.21362 138.937C8.30734 138.59 7.72447 137.478 7.27332 136.653C7.84025 136.763 7.65459 136.965 8.08977 136.63C7.89414 136.26 7.34518 137.017 6.95392 136.274C7.13358 135.927 7.18347 135.284 7.68252 135.043L7.94801 135.769C8.50296 135.17 7.62063 134.827 7.61265 134.4L7.92608 134.356C7.46894 133.266 6.71234 133.472 6.37299 132.238L6.18535 132.428C6.1095 132.392 6.06759 132.36 6.01569 132.326C5.99174 132.106 5.96776 131.889 5.94381 131.657C5.96576 131.583 5.96776 131.507 5.91785 131.419C5.90787 131.324 5.89591 131.224 5.88593 131.126L6.44286 130.813C6.30113 130.613 6.02766 130.264 5.74819 129.868C5.72224 129.637 5.69828 129.409 5.67034 129.16C6.03964 129.549 6.361 130.018 6.66443 130.339C6.5726 129.896 6.27319 128.854 5.84201 128.707C5.95579 128.868 6.19533 129.05 6.11548 129.253C5.91785 129.144 5.7901 128.968 5.63439 128.822C5.60046 128.515 5.56851 128.214 5.53059 127.874L5.99571 128.681C5.95579 127.862 5.70226 127.275 5.39285 126.754C5.54256 126.002 4.89779 124.662 5.7382 124.045C4.97964 122.548 5.5805 120.885 5.25712 119.075C5.10141 119.181 4.9956 119.238 4.91176 119.274C4.92773 118.965 4.95371 118.654 4.97567 118.344C5.04354 118.294 5.10541 118.222 5.15532 118.093C5.09344 118.177 5.03553 118.218 4.98164 118.238C5.00958 117.833 5.02753 117.428 5.06546 117.025C5.0994 117.061 5.13334 117.097 5.18724 117.085C5.24912 116.138 5.69027 116.661 5.9937 116.029C5.56252 116.176 5.35691 115.731 5.50463 115.19L5.11938 115.747C5.13535 115.388 5.15131 115.028 5.16129 114.669C5.38886 114.396 5.58446 114.1 5.26108 113.493L5.66035 113.905C5.44076 113.372 5.50266 112.15 5.10342 111.309C5.09144 111.13 5.0994 110.952 5.08343 110.774C5.20121 110.85 5.43475 110.988 5.41679 111.647C5.53257 110.699 5.75619 108.862 5.93985 107.351C6.13747 105.844 6.14345 104.638 5.52462 104.904C5.9019 104.93 6.05759 103.894 6.11548 102.568C6.19133 101.612 6.24526 100.51 6.28319 99.5477C6.42692 99.2962 6.5427 99.0367 6.64451 98.8251L6.80217 98.9708C6.7862 98.879 6.77025 98.8071 6.75428 98.7233L6.82014 98.7472C7.30322 97.0724 6.86209 95.691 6.85011 94.0441C7.03177 93.8445 7.18149 94.0641 6.91999 94.657C7.1775 94.0321 7.24333 93.6409 7.2573 93.3075C8.01587 92.2236 8.35925 90.1794 9.21563 88.9118C8.98607 89.1135 8.57681 88.6643 8.5828 88.3429C8.87025 88.0135 8.33726 87.0813 9.08185 87.4007L9.02398 87.5324C9.87836 87.5005 9.87236 86.6342 10.1498 86.0493L9.20765 85.5961C9.21164 85.5901 9.21365 85.5841 9.21764 85.5781C11.2518 84.5401 10.3395 81.2444 11.9445 80.913C11.8447 80.4259 12.0462 79.9627 11.9983 79.4956L12.5034 79.7492C12.747 79.3839 12.9366 79.0884 13.1143 78.789C13.2201 78.7391 13.3019 78.767 13.3598 78.8828C13.256 79.1303 13.1382 79.3898 13.0404 79.6314C11.7368 82.452 10.9963 84.9473 10.3615 86.6541C10.062 87.5145 9.82644 88.1912 9.66674 88.6523C9.533 89.1234 9.46114 89.3729 9.46114 89.3729C9.46114 89.3729 9.32544 89.9938 9.07192 91.1576C8.83637 92.3254 8.41911 94.0202 8.04183 96.214C7.40503 100.622 6.45683 106.96 6.79419 114.709C7.03573 122.428 8.41112 131.535 11.5172 140.606C12.9845 144.956 14.843 149.296 17.0268 153.526C16.4998 152.919 15.5277 153.25 15.1105 152.376C15.6515 152.428 15.6235 151.863 16.2743 152.316C16.0827 152.004 15.9688 151.691 15.7333 151.831ZM13.6413 75.3155C13.7451 75.3355 13.8369 75.3095 13.9247 75.2616L14.0405 75.2876C13.9187 75.5431 13.797 75.7967 13.6812 76.0402C13.5854 75.8845 13.5115 75.7308 13.4656 75.583C13.5255 75.4952 13.5734 75.4054 13.6413 75.3155ZM16.2583 72.0278C16.2902 71.9479 16.3182 71.8681 16.3441 71.7862C16.4419 71.874 16.5657 72.0038 16.4959 72.1815C16.5478 72.0996 16.6276 71.9978 16.7154 71.888C15.7792 73.6367 14.9328 75.3395 14.1962 76.9625C14.1623 76.8547 14.1144 76.7449 14.0505 76.6331C14.0864 76.4814 14.1184 76.3336 14.1543 76.1819C14.282 75.7088 14.4417 75.2457 14.6154 74.7946C15.2163 73.8963 16.1086 73.1676 16.2583 72.0278ZM25.6505 57.9085C25.7124 57.8186 25.7703 57.7388 25.8322 57.651C25.8921 57.641 25.944 57.637 25.9999 57.629C25.7563 57.9385 25.5248 58.2598 25.2852 58.5732C25.2613 58.5672 25.2194 58.5673 25.1874 58.5653C25.3431 58.3457 25.5028 58.1281 25.6505 57.9085ZM35.6137 44.1026C35.472 44.1126 35.3642 44.1006 35.2703 44.0826C35.3881 43.9449 35.3462 43.903 35.0408 44.0088C35.0089 43.9928 34.9769 43.9789 34.9509 43.9649C35.2384 43.7812 35.6656 43.5097 36.0629 43.2622C36.1527 43.6594 35.6157 43.4878 35.6137 44.1026ZM18.8374 66.5262C18.8554 66.5601 18.6997 66.8755 18.3983 67.4065C18.3623 67.4804 18.3184 67.5602 18.2825 67.6341C18.2785 67.6201 18.2765 67.6062 18.2745 67.5922C18.3104 67.5303 18.3484 67.4644 18.3823 67.4065C18.4282 67.3067 18.4402 67.2428 18.5081 67.121C18.4102 67.2069 18.3204 67.2907 18.2326 67.3785C18.2106 67.133 18.2605 66.8935 18.4322 66.4803C18.6139 66.3505 18.9053 66.5821 18.6278 66.7278C18.7356 66.6579 18.7955 66.5921 18.8374 66.5262ZM17.7176 69.6083C17.8633 69.3388 18.025 69.0394 18.2346 68.6541C18.2306 68.6242 18.2246 68.5743 18.2226 68.5424C18.2765 68.6581 18.3204 68.7799 18.3104 68.9396C17.993 69.6143 17.7675 69.77 17.6158 69.8C17.6517 69.7441 17.6856 69.6822 17.7176 69.6083ZM17.991 68.3887C18.017 68.227 18.0409 68.0713 18.0669 67.9415L18.1408 68.0153C18.1028 68.1351 18.0669 68.2569 17.991 68.3887ZM28.2975 54.2853C28.3853 54.0717 28.557 54.1077 28.7227 54.1696C28.6728 54.2514 28.6269 54.3293 28.6049 54.3991C28.6488 54.3293 28.7127 54.2534 28.7626 54.1835C28.7826 54.1915 28.8025 54.1955 28.8205 54.2035C28.6508 54.4011 28.4812 54.5948 28.3115 54.7944C28.3315 54.6287 28.3295 54.459 28.2975 54.2853ZM175.415 122.464C174.798 124.259 174.036 125.541 173.183 125.014L173.221 124.219C173.193 124.203 173.169 124.213 173.143 124.201C173.714 120.446 174.08 116.595 174.128 112.613C174.132 106.347 173.433 99.7853 171.407 93.3175C169.447 86.8877 166.109 80.5217 161.875 75.2197C159.821 72.6466 157.585 70.309 155.217 68.1771C160.629 71.9699 165.728 77.0503 167.71 82.5598C167.71 82.5598 168.478 83.023 169.221 83.526C169.934 84.057 170.644 84.586 170.644 84.586C171.447 88.6004 173.371 93.0101 174.733 98.0306C176.102 102.999 176.729 108.674 175.058 113.619C175.258 114.877 175.435 115.855 175.469 116.593C175.477 117.334 175.457 117.825 175.429 118.125C175.587 117.669 176.014 117.009 177.04 116.929C176.723 117.659 176.473 118.592 176.256 119.572C175.994 120.548 175.685 121.562 175.415 122.464ZM92.514 175.426C92.4961 175.55 92.4142 175.684 92.0888 175.831C92.0888 175.831 91.8613 175.795 91.51 175.732C91.3203 175.608 91.1746 175.476 91.0768 175.336C91.5499 175.394 92.029 175.43 92.514 175.426C92.518 175.388 92.4821 175.356 92.4681 175.322C92.5679 175.352 92.6678 175.372 92.7676 175.402C92.6838 175.406 92.5979 175.426 92.514 175.426ZM113.147 170.523C112.345 170.555 111.82 170.603 111.119 170.735C111.187 170.507 111.237 170.342 111.237 170.342C110.821 170.416 110.512 170.498 110.252 170.587L110.284 170.527C110.137 170.537 110.025 170.617 109.923 170.721C109.27 171.044 109.27 171.456 109.252 171.967C109.127 172.182 108.977 172.352 108.763 172.388L108.448 171.577C107.053 171.765 105.617 171.08 104.278 171.913C104.298 171.789 104.33 171.545 104.553 171.51C103.895 171.492 102.042 170.957 102.266 172.112C102.256 171.384 100.84 172.015 100.06 172.29L100.207 171.741C99.5368 172.416 99.4969 172.609 98.5826 172.757C98.377 172.657 98.4349 172.3 98.7044 172.46C98.0276 172.1 98.1054 172.923 97.277 172.53L97.6344 172.214C96.9177 172.087 96.9537 172.282 96.5005 172.647C96.0095 172.823 95.1331 172.336 95.1131 171.805C94.9694 172.09 94.5063 172.422 94.103 172.202C94.101 172.184 94.117 172.178 94.117 172.162C94.4025 171.863 94.634 171.655 95.0073 171.434C95.5223 171.833 96.0035 172.126 97.2751 171.733C97.9677 171.306 98.1693 170.39 100.04 170.727L99.4749 171.536C100.717 171.51 101.024 171.102 101.351 170.853C101.675 170.555 102.018 170.414 103.306 170.362C102.938 170.803 101.465 170.957 101.848 170.995C103.617 171.34 102.924 170.33 104.15 170.062L104.579 170.655C106.733 169.974 108.861 168.731 110.885 167.355C111.053 167.302 111.225 167.22 111.388 167.19C111.376 167.166 111.368 167.144 111.356 167.12C111.935 167.22 112.586 167.329 112.792 167.629C112.806 167.675 111.113 167.996 111.113 167.996C112.125 168.587 113.321 167.529 114.179 167.343L114.173 167.679C114.409 167.583 114.596 167.487 114.782 167.389L115.189 167.423L115.013 167.276C115.684 166.898 116.062 166.523 116.435 166.158C116.606 165.986 116.79 165.81 116.986 165.629C118.142 165.423 117.732 165.615 117.802 165.301C118.018 165.13 118.259 165.11 118.545 165.11H118.509C118.559 165.11 118.601 164.688 118.659 164.665C118.659 164.665 118.764 164.579 118.92 164.718C118.748 164.82 118.597 164.826 118.511 164.928C118.671 164.936 118.882 164.828 119.102 164.738C119.204 164.828 119.313 164.898 119.427 164.992C119.437 165 119.447 164.996 119.457 165.004C118.746 165.782 118.012 166.547 117.213 167.288C116.004 168.465 114.642 169.593 113.165 170.641L113.147 170.523ZM80.5467 170.901C80.5467 170.901 80.2812 170.929 79.86 170.975C79.8959 170.851 79.9419 170.727 80.1355 170.627C81.3192 170.705 81.2673 171.508 81.433 172.045C81.2474 172.088 81.0617 172.13 80.8761 172.17C81.0078 171.633 81.6087 171.406 80.5467 170.901ZM56.9693 155.717C56.9693 155.648 57.3326 155.616 57.6121 155.771C56.8994 154.973 56.1169 154.671 55.8434 152.799C55.8434 152.799 56.2946 152.839 56.8295 152.883C57.6859 153.681 58.5383 154.456 59.4386 155.194C59.4167 155.23 59.3807 155.268 59.3588 155.304C59.3927 155.262 59.4187 155.242 59.4486 155.218C59.5644 155.314 59.6742 155.416 59.792 155.51C59.8359 155.745 59.8279 156.063 59.756 156.346C59.4047 156.893 59.6263 157.857 59.4686 158.331C58.5583 157.488 58.9635 156.62 56.9673 155.721L56.9693 155.717ZM91.8473 174.432C91.6477 174.36 91.3922 174.294 91.1207 174.23C91.1047 174.027 91.2145 173.849 91.3802 173.899C91.2584 174.005 91.6297 174.21 91.8473 174.432ZM91.5558 167.389C92.9432 167.439 94.3406 167.457 95.7499 167.399C95.8477 167.393 95.9476 167.379 96.0454 167.371C95.9236 167.431 95.8058 167.489 95.6801 167.549C94.3566 167.681 92.3184 167.31 91.9251 167.884C91.2125 167.591 91.3901 167.471 91.5558 167.389ZM63.6986 158.358C63.7505 158.392 63.7984 158.428 63.8503 158.462C63.7824 158.474 63.7026 158.482 63.6646 158.504C63.6746 158.454 63.6866 158.404 63.6986 158.358ZM95.0553 167.691C95.195 167.669 95.3387 167.659 95.4804 167.645C95.3726 167.695 95.2548 167.745 95.143 167.797C95.1151 167.759 95.0892 167.719 95.0553 167.691ZM119.695 163.084C119.832 162.956 119.972 162.778 120.116 162.477L120.99 162.678C121.365 162.155 121.886 161.053 122.346 159.902L115.904 163.95C115.808 163.98 115.718 164.01 115.628 164.04L121.839 160.021L122.37 159.842C122.531 159.432 122.683 159.021 122.819 158.626C122.901 158.572 122.982 158.516 123.064 158.462C122.984 159.622 122.324 161.157 121.827 162.213C122.509 161.451 123.781 159.305 123.577 158.628C123.497 159.037 123.402 159.574 123.092 159.862C123.132 159.369 123.21 158.846 123.302 158.305C124.278 157.664 125.348 157.023 126.568 156.38C125.136 158.147 123.763 159.908 122.326 161.688C121.958 162.121 121.591 162.559 121.216 162.998C120.727 163.018 120.216 163.04 119.695 163.084ZM65.553 163.571C64.6547 162.908 63.7764 162.179 62.8961 161.465C63.1596 160.778 63.3772 159.738 63.6027 158.76C63.7724 159.179 64.7186 159.896 64.0439 160.297C65.1698 160.089 65.8006 161.65 66.9723 161.97C66.8765 161.984 66.6869 162.014 66.653 161.916C67.0323 162.379 66.9624 162.706 67.1221 163.102C67.713 162.582 68.5034 163.086 69.1842 163.048C69.246 164.078 68.244 163.459 67.9425 164.142C68.3238 163.658 69.3399 164.475 69.4856 163.916C69.6153 164.625 69.7092 164.391 69.5215 165.076C70.2142 164.379 70.0306 165.277 70.7612 165.098C71.0946 165.976 70.348 165.976 71.2503 166.256C71.4179 166.743 70.5596 166.557 70.5596 166.557C71.2982 167.102 71.3421 166.228 71.7493 166C72.7454 166.451 71.8352 166.727 71.917 167.248C72.5878 167.485 73.3902 167.224 73.7795 167.535C73.7435 167.657 73.8035 167.745 73.6218 167.811C74.2566 167.729 74.8794 168.268 75.5541 168.551C75.7777 168.96 76.0093 169.36 76.1909 169.819C76.1909 169.819 75.9534 169.887 75.6739 169.877C75.6739 169.877 76.2009 169.982 77.0553 170.108C77.0553 170.158 77.0493 170.186 77.0513 170.252C77.8917 170.867 78.3129 170.775 78.9776 171.072C78.7521 171.098 78.5405 171.122 78.2889 171.152C78.1532 171.156 78.0055 171.16 77.8677 171.162C73.7515 169.07 69.5914 166.575 65.553 163.571ZM51.6833 70.9538C51.7651 70.832 51.845 70.7102 51.9268 70.5885C51.8809 70.6863 51.811 70.8021 51.6833 70.9538ZM23.4108 61.1124C23.4287 61.0765 23.4567 61.0526 23.4766 61.0186C23.4547 61.0506 23.4327 61.0805 23.4108 61.1124ZM30.1241 52.7103C30.0043 52.844 29.8845 52.9758 29.7648 53.1116C29.7728 53.0637 29.7787 53.0157 29.7767 52.9678C29.8765 52.862 29.9804 52.7542 30.0822 52.6484C30.1001 52.6644 30.1141 52.6863 30.1241 52.7103ZM20.5082 63.8812C20.638 63.8632 20.7638 63.8632 20.8676 63.9111C20.8217 63.8492 20.7817 63.7674 20.7518 63.6795C21.4804 63.0727 22.0993 62.5756 22.4087 62.5177C21.3926 63.9929 20.4364 65.4882 19.5241 66.9813C19.1828 66.6779 19.8096 65.7117 18.8514 66.4982C19.0191 66.1848 18.6458 65.8834 19.2387 65.4602L19.3484 65.9213C19.7976 65.3604 19.608 65.2985 19.5002 64.7336C19.5022 64.7176 19.5201 64.7016 19.5241 64.6856C19.8575 64.4221 20.1888 64.1487 20.5082 63.8812ZM17.458 70.0615C17.5778 70.0595 17.7275 69.9357 17.8952 69.7421C17.7814 69.9437 17.6636 70.1454 17.5519 70.347C17.5379 70.2572 17.4999 70.1753 17.4301 70.1034C17.4381 70.0895 17.4481 70.0795 17.458 70.0615ZM13.9547 77.0443L14.0625 77.2439C13.9607 77.4695 13.8688 77.687 13.771 77.9106C13.8289 77.6291 13.8908 77.3417 13.9547 77.0443ZM17.2225 153.911C17.3522 154.162 17.4919 154.41 17.6257 154.659C17.4879 154.6 17.3263 154.586 17.1347 154.675L17.2225 153.911ZM18.2306 155.765C18.4402 156.145 18.6418 156.526 18.8554 156.903C18.4961 156.841 18.3723 156.244 17.991 156.021C18.1228 155.949 18.1866 155.861 18.2306 155.765ZM20.2687 159.564C20.3605 159.762 20.4364 159.977 20.5222 160.179C20.3546 160.049 20.2168 159.888 20.1988 159.616L20.2687 159.564ZM39.4384 41.0564C39.4684 41.0644 39.4864 41.0803 39.5143 41.0903C39.4624 41.1542 39.4065 41.212 39.3646 41.2819C39.3706 41.216 39.3925 41.1163 39.4384 41.0564ZM38.2467 42.2022C38.1589 42.4377 38.0651 42.6713 37.9912 42.9049L37.9173 42.9748C37.1588 42.9847 37.7217 42.6034 38.2467 42.2022ZM36.9392 42.7492C36.8773 42.8969 36.8633 43.0266 36.9372 43.1285C36.9092 43.1544 36.8833 43.1804 36.8554 43.2063C36.538 43.1883 36.4441 43.2083 36.2744 43.1305C36.6158 42.9209 36.8753 42.7691 36.9392 42.7492ZM68.6233 204.337C66.7927 204.138 64.9362 204.088 63.8762 204.365C63.5528 204.152 63.1595 203.725 64.0379 203.824C59.3807 202.854 53.4021 202.168 50.1223 200.223L50.5754 200.072C49.715 199.836 48.9385 199.956 48.0362 199.227C48.14 199.139 48.4854 199.105 48.1181 198.918C47.6689 198.786 45.7026 198.477 44.7743 197.69L45.8104 197.88C41.9457 195.321 39.167 195.115 35.8812 192.849C36.1487 192.502 35.5957 191.713 34.8112 190.871C34.0706 189.971 33.1144 188.993 32.4736 188.346L32.6054 188.296C28.7387 184.585 25.6406 182.269 22.3149 178.387C21.7479 176.845 20.3466 174.594 18.8753 172.098C17.4401 169.583 15.9569 166.806 15.1205 164.411C15.2961 165.184 14.4517 164.593 13.9946 163.804C13.6552 162.654 12.0742 161.035 12.9106 160.886L13.0544 161.287C13.4696 160.135 12.2918 157.995 11.7009 156.181L10.605 156.242C10.4652 153.623 9.32339 150.573 8.4191 147.705C8.36121 147.535 8.31735 147.377 8.26345 147.212C8.31336 147.2 8.36122 147.168 8.41112 147.09C8.60276 148.024 9.44718 148.533 9.49708 149.332C10.2636 149.461 9.97018 150.867 10.8046 150.577C9.98815 150.954 10.9024 152.378 11.6171 152.625C11.2777 152.601 11.6451 153.196 11.1979 153.198C11.5672 153.755 12.0363 154.18 12.3696 153.839C12.1141 155.448 14.4138 155.428 13.6253 156.767C15.0326 158.203 16.5058 159.369 17.6996 160.664C16.945 161.159 16.4559 159.169 15.7393 159.788C17.0568 160.916 18.2446 161.203 19.071 162.654C19.2347 163.074 18.6198 162.706 18.4122 162.686C19.6958 163.794 20.4703 165.188 21.7998 165.996C21.7339 166.048 21.5603 165.99 21.4086 165.922C21.6242 166.122 21.7639 166.521 22.0454 166.222L21.7738 166.084C21.8457 165.695 22.3069 165.725 22.768 165.812C22.9377 166.289 23.1113 166.773 23.279 167.242C23.3049 167.306 23.3309 167.365 23.3568 167.429C23.253 167.509 23.1094 167.585 22.8718 167.649C23.0295 167.727 23.2611 167.739 23.4328 167.613C23.4727 167.709 23.5106 167.801 23.5505 167.896C23.4966 167.968 23.3848 168.01 23.1852 168.008C23.4088 168.172 23.5765 168.254 23.7162 168.298C23.9158 168.783 24.1214 169.278 24.313 169.741L25.4589 170.613C25.6006 170.885 25.5028 171.244 25.2453 171.009C25.7024 172.302 25.6006 170.883 26.1096 171.332C26.5029 171.981 26.3272 172.376 25.922 172.055C26.7764 172.931 27.9462 174.185 28.9842 175.524C29.9983 176.883 31.1461 178.145 31.6472 179.343L31.208 179.071C32.2461 180.75 33.4558 180.031 34.2822 181.672L33.9708 181.493C35.3163 183.096 36.8294 184.709 38.4124 186.056C39.179 186.757 39.9096 187.451 40.5623 188.148C41.2391 188.817 41.8718 189.446 42.3669 190.118C43.3451 189.835 45.4451 192.971 46.3873 192.095C48.0622 193.867 47.3236 193.752 50.0205 195.84C50.785 196.333 51.5655 195.868 52.5896 196.305L52.3161 196.856L53.939 197.029C53.939 197.029 54.0288 197.291 54.1187 197.552C54.2145 197.806 54.3103 198.057 54.3103 198.057L55.3264 198.367C54.9651 198.155 54.6517 197.74 54.7894 197.61C56.3744 198.057 58.183 199.7 58.0992 200.008C58.0992 200.008 59.0194 200.329 59.9776 200.541C60.9238 200.774 61.87 201.01 61.87 201.01C61.7003 201.209 61.0675 201.05 60.5285 201.008C62.6845 201.185 60.6404 201.748 62.6166 201.91C62.429 201.686 62.8741 201.619 62.958 201.517C63.6846 202.255 65.7427 202.904 67.3017 203.236L66.8825 203.547C67.8447 203.902 68.8788 204.194 69.9388 204.447C69.5036 204.413 69.0644 204.375 68.6233 204.337ZM184.35 168.801C184.72 167.805 183.51 168.667 184.774 166.902C184.043 167.683 183.3 168.304 183.488 168.511C182.897 168.799 181.755 170.999 180.755 171.39C180.538 171.821 180.727 172.248 179.791 173.027C179.637 173.055 179.665 172.879 179.665 172.879C179.793 173.027 178.402 174.324 179.493 173.955C176.617 175.107 173.183 178.854 170.313 180.207C176.529 175.209 182.264 169.689 187.48 163.894C186.177 165.691 186.339 166.87 184.35 168.801ZM189.103 162.341C188.886 162.493 188.674 162.636 188.522 162.742C189.006 162.195 189.463 161.636 189.938 161.083C189.836 161.355 189.79 161.6 189.876 161.772C189.876 161.772 189.503 162.069 189.103 162.341ZM192.667 157.987C192.555 157.845 192.375 157.897 192.17 158.009L191.102 156.558C194.731 150.841 195.986 149.775 196.97 148.896C196.068 150.921 195.565 153.09 193.701 155.598L194.575 154.58C194.677 155.296 193.299 156.797 192.667 157.987ZM200.248 144.682C199.999 145.603 199.755 146.581 199.114 147.463L198.398 147.09C198.565 146.756 198.723 146.417 198.889 146.082C198.885 146.104 198.883 146.12 198.879 146.142C198.879 146.142 198.901 146.074 198.921 146.016C199.27 145.301 199.629 144.594 199.961 143.868C199.899 144.395 199.835 144.82 199.835 144.82C200.118 144.117 200.304 143.345 200.476 142.662C200.608 142.363 200.733 142.063 200.861 141.762C200.787 142.698 200.795 142.528 201.322 142.105C200.665 142.856 200.458 143.742 200.248 144.682Z" fill="#E94228"/>
<path d="M2.35864 142.636L2.49638 142.6L2.29272 142.201L2.35864 142.636Z" fill="#E94228"/>
<path d="M206.874 132.509C206.856 132.631 206.842 132.753 206.838 132.863C206.802 133.7 206.858 133.134 206.874 132.509Z" fill="#E94228"/>
<path d="M184.175 174.234L184.171 174.224L183.953 174.429L184.175 174.234Z" fill="#E94228"/>
<path d="M10.3315 152.923L10.5551 153.736L11.0721 154.562C11.0721 154.562 10.8805 154.155 10.6889 153.748C10.4973 153.342 10.3315 152.923 10.3315 152.923Z" fill="#E94228"/>
<circle cx="134.5" cy="101.444" r="8.5" fill="black"/>
<path d="M80.0889 3.75138C81.4435 3.58269 85.5176 2.90284 89.7015 2.6447C93.244 2.42613 103.347 1.7067 109.895 2.13099C113.48 2.36327 116.535 3.06642 119.439 3.74882C122.178 4.39259 124.888 5.44848 127.193 7.32192C128.459 8.35049 129.667 9.36914 130.603 10.4733C131.563 11.607 131.717 14.2968 131.464 17.4456C131.136 21.5322 126.278 23.6768 122.278 25.8084C117.505 28.3519 114.521 28.4511 111.707 28.8831C108.532 29.3704 105.831 29.8211 103.102 30.3297C100.371 30.8385 97.6527 31.1808 94.2458 31.7789C90.0368 32.5177 80.8455 32.3769 74.5632 31.8683C71.5109 31.6212 69.1908 30.506 67.9998 29.6575C67.408 29.2359 67.1461 28.4716 66.9723 27.7866C66.7985 27.1017 66.7985 26.4269 67.3045 25.8263C69.7439 22.9311 73.597 22.8385 77.3465 22.2404C82.4082 21.433 88.9015 21.6423 95.4777 21.2181C109.019 20.3445 112.446 21.9797 115.858 22.5778C119.08 23.1426 122.158 24.0244 125.146 24.7068C128.294 25.4259 131.359 26.0691 134.347 26.7515C137.495 27.4706 140.223 28.1138 142.953 29.3048C145.75 30.5253 148.402 32.3667 151.047 34.4983C152.36 35.5566 153.181 36.9724 154.032 38.0765C154.87 39.1636 154.72 41.0566 154.551 42.9275C154.249 46.2735 151.152 49.0615 148.596 50.8583C145.847 52.791 142.81 54.1835 139.482 54.8659C136.643 55.4481 133.946 56.2281 130.199 56.4863C121.392 57.093 108.05 56.5757 103.449 56.3176C100.348 56.1436 94.9538 55.216 90.4095 54.3598C87.4002 53.7928 84.3623 52.9976 80.2755 51.8909C76.8551 50.9646 74.1389 49.5931 70.9006 48.3127C67.7609 47.0712 64.6005 45.6776 61.5283 44.0546C57.945 42.263 55.9003 41.2406 54.4563 40.5608C53.687 40.2183 52.8436 39.8809 50.441 40.0445" stroke="black" stroke-width="4"/>
<path d="M59.4353 88.2461C60.157 88.5541 61.812 89.5899 63.4731 90.2136C65.2576 90.8836 66.7892 91.9728 68.4503 93.1673C69.9779 94.2658 71.7664 94.8782 73.4275 95.7088C75.0887 96.5394 76.333 97.7775 77.3191 99.6953C77.6355 100.311 77.4778 101.293 77.2725 101.974C76.6184 104.144 74.479 104.833 72.5099 106.075C69.4844 107.985 67.6353 108.255 65.9742 109.034C64.313 109.502 62.6581 110.121 60.9969 110.9C60.5801 111.057 60.1695 111.16 59.1243 111.266" stroke="black" stroke-width="4" stroke-linecap="round"/>
<path d="M106.097 110.955C105.375 111.057 103.72 111.677 102.059 112.817C100.423 113.94 99.981 115.82 99.5657 117.481C99.3588 118.309 99.2531 119.553 99.3557 121.003C99.4938 122.952 101.424 124.219 102.67 125.571C104.019 126.714 105.263 127.336 106.091 127.699C106.507 127.856 106.918 127.958 107.963 128.064" stroke="black" stroke-width="4" stroke-linecap="round"/>
<path d="M82.1439 139.574C83.4878 139.263 85.1427 139.057 89.3858 138.9C93.122 138.762 97.8968 138.846 100.384 139.003C103.597 139.206 107.745 139.468 110.287 139.625C112.415 139.885 114.284 139.987 117.678 140.143C120.661 140.196 126.205 140.196 131.605 139.885" stroke="black" stroke-width="4" stroke-linecap="round"/>
<path d="M81.9829 139.337C81.6406 142.5 81.8665 149.825 82.267 151.652C82.6867 153.568 83.2356 155.643 83.6926 157.471C84.1831 159.434 84.9471 161.462 85.7446 163.29C86.5618 165.163 87.569 166.939 88.767 168.483C90.0396 170.122 91.4436 172.073 92.9309 173.617C94.4739 175.218 96.0097 176.639 97.7211 177.726C99.6473 178.949 101.712 179.836 103.822 180.353C106.99 181.129 110.256 180.753 112.782 180.469C114.86 180.236 117.115 178.932 118.886 177.962C120.588 177.03 121.455 175.058 122.653 173.514C123.891 171.919 124.762 169.924 125.508 168.096C126.31 166.132 127.274 164.105 127.563 162.277C127.856 160.429 128.417 158.628 128.59 156.8C128.775 154.847 129.102 152.809 129.559 150.981C129.903 148.25 130.016 145.046 130.243 144.136C130.358 143.677 130.471 143.225 130.245 142.417" stroke="black" stroke-width="4" stroke-linecap="round"/>
<path d="M82.6675 149.605C82.6675 149.38 87.8634 149.263 96.0183 149.32C104.082 149.376 113.234 149.38 116.086 149.207C118.5 149.06 120.764 148.695 123.499 148.295C124.748 148.236 126.781 148.236 127.885 148.01C128.989 147.785 129.102 147.333 129.218 146.867" stroke="black" stroke-width="4" stroke-linecap="round"/>
</svg>
