<svg width="225" height="229" viewBox="0 0 225 229" fill="none" xmlns="http://www.w3.org/2000/svg">
<path d="M175.425 136.711C175.363 137.399 175.272 137.15 175.425 136.711Z" fill="#F9CC3A"/>
<path d="M57.4324 174.358C57.642 174.58 57.8436 174.813 58.0532 175.157C57.8476 174.694 57.64 174.484 57.4324 174.358Z" fill="#F9CC3A"/>
<path d="M15.0626 169.613C15.0266 169.477 15.0686 169.4 14.9049 169.282C14.8889 169.312 14.8809 169.336 14.877 169.364C14.9788 169.382 15.0566 169.438 15.0626 169.613Z" fill="#F9CC3A"/>
<path d="M12.4555 164.872C12.4315 164.918 12.4196 164.966 12.4016 165.012L12.5074 165.149L12.4555 164.872Z" fill="#F9CC3A"/>
<path d="M9.39342 168.549C9.49123 168.311 9.51319 168.106 9.49722 167.914C9.44133 167.902 9.38945 167.88 9.31958 167.89L9.39342 168.549Z" fill="#F9CC3A"/>
<path d="M7.1875 97.7715L7.31921 97.8256L7.26133 97.6394L7.1875 97.7715Z" fill="#F9CC3A"/>
<path d="M21.4066 184.505C21.3767 184.477 21.3447 184.451 21.3088 184.433C21.0413 184.297 21.201 184.411 21.4066 184.505Z" fill="#F9CC3A"/>
<path d="M11.188 171.786L11.198 171.782L11.1421 171.695L11.188 171.786Z" fill="#F9CC3A"/>
<path d="M12.8447 165.896C13.0743 166.089 13.7231 165.808 13.3418 165.493L12.8447 165.896Z" fill="#F9CC3A"/>
<path d="M6.75435 150.863C6.99789 150.612 7.05779 150.13 6.71244 149.935C6.73639 150.302 6.61861 150.709 6.75435 150.863Z" fill="#F9CC3A"/>
<path d="M10.3833 103.452L10.2456 103.704L10.3235 104.073L10.3833 103.452Z" fill="#F9CC3A"/>
<path d="M52.2443 215.569L52.3082 215.441L51.9888 215.403L52.2443 215.569Z" fill="#F9CC3A"/>
<path d="M122.37 178.429C122.362 178.449 122.354 178.469 122.346 178.489L122.523 178.377L122.37 178.429Z" fill="#F9CC3A"/>
<path d="M181.404 189.336C181.084 189.577 180.933 189.613 180.587 190.04C180.643 190.026 180.693 190.006 180.755 189.976C180.847 189.785 181.013 189.581 181.404 189.336Z" fill="#F9CC3A"/>
<path d="M39.3126 59.5878C38.8775 59.396 40.8597 57.9202 38.3904 59.5918C38.7856 59.5219 39.0711 59.5418 39.3126 59.5878Z" fill="#F9CC3A"/>
<path d="M181.927 194.748C182.536 194.311 183.263 193.67 183.953 193.015C183.953 193.015 183.452 193.456 182.953 193.898C182.44 194.323 181.927 194.748 181.927 194.748Z" fill="#F9CC3A"/>
<path d="M175.836 199.786C175.335 199.91 174.864 200.118 174.403 200.365C174.341 200.467 174.259 200.571 174.24 200.667L175.836 199.786Z" fill="#F9CC3A"/>
<path d="M206.874 151.097C207.009 150.234 207.333 149.11 206.898 149.152C206.898 149.152 206.904 149.366 206.91 149.581C206.902 149.795 206.896 150.009 206.896 150.009C206.86 150.069 206.828 150.103 206.796 150.137C206.874 150.167 206.882 150.644 206.874 151.097Z" fill="#F9CC3A"/>
<path d="M206.792 150.132V150.139L206.794 150.135L206.792 150.132Z" fill="#F9CC3A"/>
<path d="M207.155 143.239C207.265 142.399 207.433 142.129 207.714 143.002C207.61 139.874 207.095 140.987 207.051 138.187C207.249 138.189 207.343 138.752 207.584 139.037C207.371 138.328 207.155 137.624 207.007 136.803C206.997 136.761 206.992 136.709 206.982 136.666C207.087 135.618 207.195 134.57 207.259 133.512C207.97 121.818 205.822 110.301 201.867 99.7673C193.723 78.791 177.958 61.3501 157.617 51.8041C149.554 47.9594 141.008 45.6957 132.47 44.5578C131.404 43.7973 130.396 43.0706 129.466 42.5197C126.955 41.0125 125.282 40.0084 125.282 40.0084C125.282 40.0084 124.044 39.6571 121.833 39.2898C120.731 39.0941 119.391 38.8546 117.856 38.5811C116.319 38.3236 114.564 38.1878 112.664 37.9703C105.052 37.2057 94.7817 37.3095 84.7487 39.3237C74.6997 41.2301 65.034 45.0928 58.3087 48.9675C57.105 49.5643 56.071 50.2371 55.0869 50.8778C54.8912 50.8459 54.6297 50.9258 53.6316 51.4488C52.4079 51.5945 54.3702 50.4766 54.3702 50.4766C52.0586 51.341 53.3841 51.5625 53.1804 52.0995C53.0946 52.1534 53.0048 52.2133 52.9209 52.2652C50.5494 53.3272 51.6254 52.1993 50.5574 52.2452C48.9045 53.2314 47.8845 54.4551 46.6009 55.024C46.4512 54.9601 46.1817 55.038 46.4033 54.7645C45.4391 55.7686 43.4529 56.6849 41.786 57.7668C41.6723 57.7309 41.5685 57.659 41.5026 57.4814C41.5026 57.7169 41.4207 57.9105 41.3029 58.0902C40.8219 58.4296 40.3987 58.7909 40.0393 59.1742C39.8776 59.2979 39.7239 59.4317 39.5902 59.5774C39.4764 59.5934 39.3706 59.6053 39.3207 59.5874C39.3486 59.5934 39.3586 59.6094 39.3846 59.6173C38.9254 59.783 38.62 59.6473 38.2567 59.7171C38.3964 59.9786 38.3785 60.2361 38.3186 60.4897C38.0052 60.7492 37.6918 61.0047 37.3863 61.2862C37.3424 60.9648 37.5001 60.5635 37.1428 60.2761C37.3843 60.5915 37.0809 60.9928 36.9412 61.3221C34.6595 61.6136 38.3884 60.4438 36.1367 60.5895C34.6156 61.5976 33.869 62.3102 33.1124 62.9949C32.3718 63.7016 31.5733 64.3244 30.184 65.4962C29.8246 66.3266 30.7489 65.7377 30.3936 66.5642C30.3916 66.5682 30.3856 66.5721 30.3856 66.5721C30.3896 66.3486 30.4794 66.1909 29.9724 66.662C30.0642 66.68 30.136 66.7259 30.2159 66.7578C29.9624 67.0433 29.7228 67.2928 29.4973 67.5104C29.0641 67.3008 30.156 67.2569 29.082 66.8956C28.028 67.5743 28.2416 68.0254 27.2375 68.7461C27.2535 68.8599 27.2894 68.9377 27.3333 68.9976C26.2035 69.4647 25.429 69.4468 24.2412 71.449C24.1015 71.8841 24.0695 72.2774 23.9398 72.7146C23.3329 72.8443 23.5685 73.1398 23.6184 73.4532C23.5585 73.555 23.4847 73.6627 23.4068 73.7745L22.9157 73.4731C22.6642 73.8264 22.4406 74.2257 22.223 74.6349L22.217 73.8484C20.8037 75.5372 20.9794 75.9724 20.668 76.701C20.6061 76.6471 20.5242 76.6172 20.3805 76.6631C20.119 77.1362 19.7796 77.5754 19.4103 77.9966C19.8176 77.25 20.5322 76.4055 20.2248 76.673C19.053 77.5454 19.037 77.9507 18.9971 78.4337C18.8773 78.5575 18.7695 78.6892 18.6438 78.809C18.3523 79.1104 18.0509 79.37 17.7515 79.6574L17.7215 79.6534C17.7035 79.6794 17.6876 79.7093 17.6696 79.7353C17.3263 80.0627 16.983 80.414 16.6436 80.7094L16.7054 81.2544C16.6316 81.3722 16.5577 81.484 16.4859 81.6018C16.428 81.5718 16.3681 81.5379 16.3681 81.462C16.0507 81.6956 16.1804 81.7435 16.3541 81.8113C16.2982 81.9012 16.2423 81.985 16.1865 82.0749C16.1705 82.1028 16.1565 82.1367 16.1385 82.1647C16.1126 82.1227 16.0866 82.0749 16.0866 82.015C16.0547 82.1647 16.0148 82.3244 15.9688 82.492C15.5736 83.2167 15.1983 83.9612 14.807 84.7098C14.6274 85.0572 14.4457 85.4125 14.2641 85.7639C14.1523 85.8737 14.0365 85.9755 13.9168 86.0573L13.8928 85.7579C13.5674 86.0873 13.6493 86.4486 13.7351 86.7899C13.6273 86.9975 13.5235 87.2032 13.4157 87.4108C13.3019 87.6543 13.1881 87.8998 13.0743 88.1414C12.717 88.6724 12.3836 89.2153 12.0702 89.7663C12.0343 89.5607 11.9385 89.4729 11.5552 89.932C11.2657 90.5369 10.9803 91.1776 10.6928 91.8044C10.4772 92.054 10.2657 92.3115 10.0101 92.4991C10.5092 93.0241 9.40927 93.7967 9.48313 94.4095C9.34938 94.699 9.20961 94.9864 9.07387 95.2758C8.60675 95.5413 8.36127 95.6072 7.56677 96.5794C7.35517 96.9208 7.81629 97.3759 7.86619 97.861C7.84224 97.9129 7.82027 97.9648 7.79632 98.0167L7.31523 97.8211L7.55678 98.5497C7.52085 98.6295 7.48489 98.7094 7.44895 98.7892L6.80217 98.8571L6.75428 99.4001C6.8541 99.2384 7.1056 99.1445 7.26729 99.1945C7.11558 99.5318 6.96389 99.8692 6.81417 100.205C6.47281 100.574 6.06358 100.825 5.8919 100.773L5.66632 102.74V102.742C5.45072 102.618 5.48867 102.291 5.43677 101.999C5.64438 103.169 4.75808 101.951 4.94971 103.023C5.12937 102.953 5.2691 103.211 5.3789 103.271C4.87185 103.586 4.56242 104.614 4.47259 105.415L4.11529 105.137C3.5843 106.475 3.41257 108.084 2.92949 109.611C3.23691 109.188 3.74 109.369 3.8478 109.715C3.83981 109.78 3.83379 109.834 3.8258 109.9L3.20497 109.908C3.47845 110.264 3.56832 109.657 3.80387 110.072C3.79189 110.166 3.77589 110.273 3.76391 110.369C3.50839 110.647 3.06126 110.373 2.94947 110.036L3.00734 110.803C2.80972 110.797 2.74784 110.603 2.51828 110.499C2.84366 110.888 1.60602 111.575 2.19291 112.164L1.99528 112.16C1.63596 113.733 1.69583 114.494 1.44231 115.775C1.98728 115.907 1.75375 116.382 2.11706 116.841C1.80365 117.749 1.22475 118.733 1.11097 119.887C1.27466 120.73 1.54811 120.189 1.82958 120.592C1.31455 120.58 1.20279 121.728 0.921324 121.091C0.847464 122.478 0.703722 122.856 1.0311 124.638C1.24869 124.467 1.35049 124.263 1.52017 124.389C1.58604 124.71 1.26867 125.087 1.02513 125.024L0.977188 124.936C1.65391 126.918 -0.783456 129.405 0.266557 131.012L0.210633 130.924L0.821477 132.545C0.759594 133.292 0.422234 132.104 0.124797 132.661C1.03907 134.392 0.098854 135.448 0.71968 136.861C-0.482047 137.867 0.599923 139.796 0.661806 141.361C0.649828 141.548 0.641847 141.744 0.627873 141.928C0.59793 142.097 0.569964 142.267 0.496104 142.421L0.58194 142.387C0.536027 142.886 0.48813 143.385 0.420258 143.846C1.34451 144.67 0.458208 149.915 1.73978 150.18C1.64796 153.683 1.14492 152.745 1.61203 157.66C1.79169 158.967 2.67798 159.458 3.08721 161.022L2.49233 161.185L3.60625 163.195L3.14709 164.505C3.14709 164.505 3.2689 164.868 3.39266 165.232C3.52841 165.591 3.66211 165.95 3.66211 165.95C3.53236 165.355 3.62223 164.633 3.81386 164.681C4.65028 166.908 4.87387 170.384 4.62434 170.53C4.62434 170.53 5.16532 171.839 5.70829 173.149C6.26124 174.45 6.87606 175.726 6.87606 175.726C6.60058 175.692 6.2053 174.829 5.80406 174.175C7.40503 176.81 5.37687 174.907 6.84609 177.323C6.85408 176.925 7.25735 177.383 7.39309 177.399C7.55478 178.804 8.66667 181.752 9.81849 183.78L9.24755 183.549C10.8445 187.453 13.3279 191.446 15.877 195.426C15.1265 193.889 15.9668 193.837 16.7653 194.951L16.5178 195.768C17.3343 196.295 15.9469 194.424 17.3442 195.69C18.2246 197.201 17.3702 197.097 16.6436 196.359C16.6436 196.359 16.9809 196.778 17.3203 197.197C17.6796 197.6 18.0389 198.006 18.0389 198.006C17.9531 198.219 17.5758 197.868 17.2964 197.902C18.1547 198.367 18.8993 201.353 20.3087 201.896L20.2328 202.112C21.694 203.996 22.8858 205.26 24.0336 206.412C25.1355 207.603 26.2993 208.582 27.6867 209.941C28.1099 209.604 29.1399 210.719 30.3177 211.117C31.3118 212.123 32.3499 213.209 33.5476 214.235C34.1365 214.758 34.7374 215.301 35.3821 215.814C36.0489 216.299 36.7416 216.78 37.4662 217.243C39.6301 218.331 38.3046 217.235 39.3865 217.533C39.2687 218.052 42.2831 219.679 40.5503 219.134C42.3789 220.088 43.5087 220.764 44.8781 221.264C45.5529 221.525 46.2616 221.801 47.102 222.128C47.9384 222.465 48.9265 222.803 50.1842 223.124C49.733 222.735 49.18 222.433 49.5493 222.383C50.4516 222.627 51.4617 223.316 51.2541 223.501L51.0046 223.465C52.4279 223.797 53.8831 224.334 55.4022 224.817C56.9114 225.328 58.4226 226.013 59.9577 226.468C62.9939 227.546 66.0042 228.266 68.3558 228.077L68.0922 228.091C68.0922 228.091 68.3917 228.099 68.8428 228.111C69.294 228.101 69.8948 228.087 70.4957 228.075C71.6914 228.047 72.8892 228.019 72.8892 228.019C75.0611 228.31 71.5497 228.28 73.1407 228.745C75.7398 228.504 77.7519 228.578 79.6643 228.705C81.5707 228.741 83.3813 228.883 85.4733 228.506C88.835 229.959 96.9936 227.574 101.439 227.829L101.136 227.518C102.202 226.993 102.519 227.5 103.362 227.446C103.2 227.192 102.096 227.328 102.761 227.025C112.159 225.112 122.234 223.613 131.756 221.112C135.225 220.13 133.167 218.79 137.719 218.183L136.704 219.211C143.336 216.219 150.74 214.237 156.886 210.494C156.569 210.815 156.645 210.999 156.016 211.3C157.597 211.105 161.036 208.837 160.863 208.47C161.871 207.997 161.258 208.665 161.959 208.522C163.426 208.027 164.999 206.156 165.917 206.136C166.075 206.132 165.628 206.489 165.408 206.663C166.149 205.966 169.403 204.34 168.297 204.355C170.722 203.15 172.471 201.351 174.403 200.369C175.178 199.062 178.282 197.834 178.068 196.844C178.497 197.698 182.2 194.398 183.125 192.889C182.893 193.482 184.4 192.081 184.171 192.813C185.612 191.486 186.714 190.049 186.153 189.977C189.507 188.172 190.347 184.086 192.691 183.405C195.914 178.524 198.492 173.797 200.594 169.04C201.384 169.649 197.979 174.165 198.885 174.43C201.057 169.901 201.562 166.998 203.5 162.509C204.053 161.355 203.62 163.319 203.612 163.784C205.043 159.031 206.636 154.604 206.792 150.138C206.145 150.813 206.053 146.437 205.742 146.283C206.245 147.054 206.45 146 206.63 145.038C206.776 144.08 206.96 143.211 207.656 144.421C207.6 143.842 207.433 143.117 207.155 143.239ZM15.7333 170.418C15.8311 170.11 14.7372 169.843 14.8769 169.366C14.6454 169.324 14.2641 169.493 14.0705 169.128C14.1144 169.05 14.2381 169.032 14.2381 169.032C14.0585 169.136 13.6832 168.609 13.4815 169.142C14.0245 167.533 11.9245 166.375 12.4016 165.014C11.9125 164.371 11.3516 163.575 10.9883 162.946C11.116 162.936 11.1659 162.864 11.1939 163.002C11.116 161.94 9.9223 162.916 9.84445 161.692C10.1998 160.894 10.3934 162.109 10.4733 161.676C11.5971 161.002 9.77856 160.484 10.1778 159.482L10.3196 159.622C10.5012 158.921 9.31545 158.504 9.028 157.59C9.028 157.59 9.15373 157.592 9.21362 157.524C8.30734 157.177 7.72447 156.065 7.27332 155.24C7.84025 155.35 7.65459 155.552 8.08977 155.216C7.89414 154.847 7.34518 155.604 6.95392 154.861C7.13358 154.514 7.18347 153.871 7.68252 153.63L7.94801 154.356C8.50296 153.757 7.62063 153.414 7.61265 152.987L7.92608 152.943C7.46894 151.853 6.71234 152.058 6.37299 150.825L6.18535 151.014C6.1095 150.979 6.06759 150.947 6.01569 150.913C5.99174 150.693 5.96776 150.475 5.94381 150.244C5.96576 150.17 5.96776 150.094 5.91785 150.006C5.90787 149.911 5.89591 149.811 5.88593 149.713L6.44286 149.399C6.30113 149.2 6.02766 148.851 5.74819 148.455C5.72224 148.224 5.69828 147.996 5.67034 147.747C6.03964 148.136 6.361 148.605 6.66443 148.926C6.5726 148.483 6.27319 147.441 5.84201 147.293C5.95579 147.455 6.19533 147.637 6.11548 147.84C5.91785 147.731 5.7901 147.555 5.63439 147.409C5.60046 147.102 5.56851 146.8 5.53059 146.461L5.99571 147.268C5.95579 146.449 5.70226 145.862 5.39285 145.341C5.54256 144.589 4.89779 143.249 5.7382 142.632C4.97964 141.135 5.5805 139.472 5.25712 137.662C5.10141 137.767 4.9956 137.825 4.91176 137.861C4.92773 137.552 4.95371 137.24 4.97567 136.931C5.04354 136.881 5.10541 136.809 5.15532 136.68C5.09344 136.763 5.03553 136.805 4.98164 136.825C5.00958 136.42 5.02753 136.015 5.06546 135.612C5.0994 135.648 5.13334 135.683 5.18724 135.671C5.24912 134.725 5.69027 135.248 5.9937 134.615C5.56252 134.763 5.35691 134.318 5.50463 133.777L5.11938 134.334C5.13535 133.975 5.15131 133.615 5.16129 133.256C5.38886 132.983 5.58446 132.687 5.26108 132.08L5.66035 132.491C5.44076 131.958 5.50266 130.737 5.10342 129.896C5.09144 129.717 5.0994 129.539 5.08343 129.361C5.20121 129.437 5.43475 129.575 5.41679 130.234C5.53257 129.286 5.75619 127.449 5.93985 125.938C6.13747 124.431 6.14345 123.225 5.52462 123.49C5.9019 123.516 6.05759 122.48 6.11548 121.155C6.19133 120.199 6.24526 119.097 6.28319 118.135C6.42692 117.883 6.5427 117.624 6.64451 117.412L6.80217 117.558C6.7862 117.466 6.77025 117.394 6.75428 117.31L6.82014 117.334C7.30322 115.659 6.86209 114.278 6.85011 112.631C7.03177 112.431 7.18149 112.651 6.91999 113.244C7.1775 112.619 7.24333 112.228 7.2573 111.894C8.01587 110.81 8.35925 108.766 9.21563 107.499C8.98607 107.7 8.57681 107.251 8.5828 106.93C8.87025 106.6 8.33726 105.668 9.08185 105.988L9.02398 106.119C9.87836 106.087 9.87236 105.221 10.1498 104.636L9.20765 104.183C9.21164 104.177 9.21365 104.171 9.21764 104.165C11.2518 103.127 10.3395 99.8313 11.9445 99.4999C11.8447 99.0128 12.0462 98.5497 11.9983 98.0825L12.5034 98.3361C12.747 97.9708 12.9366 97.6753 13.1143 97.3759C13.2201 97.326 13.3019 97.3539 13.3598 97.4697C13.256 97.7172 13.1382 97.9767 13.0404 98.2183C11.7368 101.039 10.9963 103.534 10.3615 105.241C10.062 106.101 9.82644 106.778 9.66674 107.239C9.533 107.71 9.46114 107.96 9.46114 107.96C9.46114 107.96 9.32544 108.581 9.07192 109.745C8.83637 110.912 8.41911 112.607 8.04183 114.801C7.40503 119.209 6.45683 125.547 6.79419 133.296C7.03573 141.015 8.41112 150.122 11.5172 159.193C12.9845 163.543 14.843 167.883 17.0268 172.113C16.4998 171.506 15.5277 171.837 15.1105 170.963C15.6515 171.015 15.6235 170.45 16.2743 170.903C16.0827 170.591 15.9688 170.278 15.7333 170.418ZM13.6413 93.9025C13.7451 93.9224 13.8369 93.8965 13.9247 93.8485L14.0405 93.8745C13.9187 94.13 13.797 94.3836 13.6812 94.6271C13.5854 94.4714 13.5115 94.3177 13.4656 94.17C13.5255 94.0821 13.5734 93.9923 13.6413 93.9025ZM16.2583 90.6147C16.2902 90.5348 16.3182 90.455 16.3441 90.3731C16.4419 90.461 16.5657 90.5907 16.4959 90.7684C16.5478 90.6865 16.6276 90.5847 16.7154 90.4749C15.7792 92.2236 14.9328 93.9264 14.1962 95.5494C14.1623 95.4416 14.1144 95.3318 14.0505 95.22C14.0864 95.0683 14.1184 94.9205 14.1543 94.7688C14.282 94.2957 14.4417 93.8326 14.6154 93.3815C15.2163 92.4832 16.1086 91.7545 16.2583 90.6147ZM25.6505 76.4954C25.7124 76.4056 25.7703 76.3257 25.8322 76.2379C25.8921 76.2279 25.944 76.2239 25.9999 76.216C25.7563 76.5254 25.5248 76.8467 25.2852 77.1601C25.2613 77.1542 25.2194 77.1542 25.1874 77.1522C25.3431 76.9326 25.5028 76.715 25.6505 76.4954ZM35.6137 62.6895C35.472 62.6995 35.3642 62.6875 35.2703 62.6696C35.3881 62.5318 35.3462 62.4899 35.0408 62.5957C35.0089 62.5798 34.9769 62.5658 34.9509 62.5518C35.2384 62.3681 35.6656 62.0966 36.0629 61.8491C36.1527 62.2463 35.6157 62.0747 35.6137 62.6895ZM18.8374 85.1131C18.8554 85.1471 18.6997 85.4624 18.3983 85.9934C18.3623 86.0673 18.3184 86.1471 18.2825 86.221C18.2785 86.207 18.2765 86.1931 18.2745 86.1791C18.3104 86.1172 18.3484 86.0513 18.3823 85.9934C18.4282 85.8936 18.4402 85.8297 18.5081 85.7079C18.4102 85.7938 18.3204 85.8776 18.2326 85.9655C18.2106 85.7199 18.2605 85.4804 18.4322 85.0672C18.6139 84.9374 18.9053 85.169 18.6278 85.3147C18.7356 85.2448 18.7955 85.179 18.8374 85.1131ZM17.7176 88.1952C17.8633 87.9258 18.025 87.6263 18.2346 87.2411C18.2306 87.2111 18.2246 87.1612 18.2226 87.1293C18.2765 87.245 18.3204 87.3668 18.3104 87.5265C17.993 88.2012 17.7675 88.357 17.6158 88.3869C17.6517 88.331 17.6856 88.2691 17.7176 88.1952ZM17.991 86.9756C18.017 86.8139 18.0409 86.6582 18.0669 86.5284L18.1408 86.6022C18.1028 86.722 18.0669 86.8438 17.991 86.9756ZM28.2975 72.8722C28.3853 72.6586 28.557 72.6946 28.7227 72.7565C28.6728 72.8383 28.6269 72.9162 28.6049 72.986C28.6488 72.9162 28.7127 72.8403 28.7626 72.7704C28.7826 72.7784 28.8025 72.7824 28.8205 72.7904C28.6508 72.9881 28.4812 73.1817 28.3115 73.3813C28.3315 73.2156 28.3295 73.0459 28.2975 72.8722ZM175.415 141.051C174.798 142.846 174.036 144.127 173.183 143.6L173.221 142.806C173.193 142.79 173.169 142.8 173.143 142.788C173.714 139.033 174.08 135.182 174.128 131.2C174.132 124.934 173.433 118.372 171.407 111.904C169.447 105.475 166.109 99.1086 161.875 93.8066C159.821 91.2335 157.585 88.896 155.217 86.764C160.629 90.5568 165.728 95.6372 167.71 101.147C167.71 101.147 168.478 101.61 169.221 102.113C169.934 102.644 170.644 103.173 170.644 103.173C171.447 107.187 173.371 111.597 174.733 116.617C176.102 121.586 176.729 127.261 175.058 132.206C175.258 133.464 175.435 134.442 175.469 135.18C175.477 135.921 175.457 136.412 175.429 136.711C175.587 136.256 176.014 135.596 177.04 135.516C176.723 136.246 176.473 137.179 176.256 138.159C175.994 139.135 175.685 140.149 175.415 141.051ZM92.514 194.013C92.4961 194.137 92.4142 194.271 92.0888 194.418C92.0888 194.418 91.8613 194.382 91.51 194.319C91.3203 194.195 91.1746 194.063 91.0768 193.923C91.5499 193.981 92.029 194.017 92.514 194.013C92.518 193.975 92.4821 193.943 92.4681 193.909C92.5679 193.939 92.6678 193.959 92.7676 193.989C92.6838 193.993 92.5979 194.013 92.514 194.013ZM113.147 189.11C112.345 189.142 111.82 189.19 111.119 189.322C111.187 189.094 111.237 188.929 111.237 188.929C110.821 189.003 110.512 189.084 110.252 189.174L110.284 189.114C110.137 189.124 110.025 189.204 109.923 189.308C109.27 189.631 109.27 190.043 109.252 190.554C109.127 190.769 108.977 190.939 108.763 190.975L108.448 190.164C107.053 190.352 105.617 189.667 104.278 190.5C104.298 190.376 104.33 190.132 104.553 190.096C103.895 190.078 102.042 189.544 102.266 190.699C102.256 189.971 100.84 190.602 100.06 190.877L100.207 190.328C99.5368 191.003 99.4969 191.196 98.5826 191.344C98.377 191.244 98.4349 190.887 98.7044 191.047C98.0276 190.687 98.1054 191.51 97.277 191.117L97.6344 190.801C96.9177 190.673 96.9537 190.869 96.5005 191.234C96.0095 191.41 95.1331 190.923 95.1131 190.392C94.9694 190.677 94.5063 191.009 94.103 190.789C94.101 190.771 94.117 190.765 94.117 190.749C94.4025 190.45 94.634 190.242 95.0073 190.021C95.5223 190.42 96.0035 190.713 97.2751 190.32C97.9677 189.893 98.1693 188.977 100.04 189.314L99.4749 190.122C100.717 190.096 101.024 189.689 101.351 189.44C101.675 189.142 102.018 189.001 103.306 188.949C102.938 189.39 101.465 189.544 101.848 189.581C103.617 189.927 102.924 188.917 104.15 188.649L104.579 189.242C106.733 188.561 108.861 187.318 110.885 185.942C111.053 185.888 111.225 185.807 111.388 185.777C111.376 185.753 111.368 185.731 111.356 185.707C111.935 185.807 112.586 185.916 112.792 186.216C112.806 186.262 111.113 186.583 111.113 186.583C112.125 187.174 113.321 186.116 114.179 185.93L114.173 186.266C114.409 186.17 114.596 186.074 114.782 185.976L115.189 186.01L115.013 185.863C115.684 185.485 116.062 185.11 116.435 184.745C116.606 184.573 116.79 184.397 116.986 184.216C118.142 184.01 117.732 184.202 117.802 183.888C118.018 183.717 118.259 183.697 118.545 183.697H118.509C118.559 183.697 118.601 183.275 118.659 183.251C118.659 183.251 118.764 183.166 118.92 183.305C118.748 183.407 118.597 183.413 118.511 183.515C118.671 183.523 118.882 183.415 119.102 183.325C119.204 183.415 119.313 183.485 119.427 183.579C119.437 183.587 119.447 183.583 119.457 183.591C118.746 184.369 118.012 185.134 117.213 185.874C116.004 187.052 114.642 188.18 113.165 189.228L113.147 189.11ZM80.5467 189.488C80.5467 189.488 80.2812 189.516 79.86 189.562C79.8959 189.438 79.9419 189.314 80.1355 189.214C81.3192 189.292 81.2673 190.094 81.433 190.631C81.2474 190.675 81.0617 190.717 80.8761 190.757C81.0078 190.22 81.6087 189.993 80.5467 189.488ZM56.9693 174.304C56.9693 174.235 57.3326 174.203 57.6121 174.358C56.8994 173.56 56.1169 173.258 55.8434 171.386C55.8434 171.386 56.2946 171.426 56.8295 171.47C57.6859 172.268 58.5383 173.043 59.4386 173.781C59.4167 173.817 59.3807 173.855 59.3588 173.891C59.3927 173.849 59.4187 173.829 59.4486 173.805C59.5644 173.901 59.6742 174.003 59.792 174.097C59.8359 174.332 59.8279 174.65 59.756 174.933C59.4047 175.48 59.6263 176.444 59.4686 176.917C58.5583 176.075 58.9635 175.207 56.9673 174.308L56.9693 174.304ZM91.8473 193.019C91.6477 192.947 91.3922 192.881 91.1207 192.817C91.1047 192.614 91.2145 192.436 91.3802 192.486C91.2584 192.592 91.6297 192.797 91.8473 193.019ZM91.5558 185.976C92.9432 186.026 94.3406 186.044 95.7499 185.986C95.8477 185.98 95.9476 185.966 96.0454 185.958C95.9236 186.018 95.8058 186.076 95.6801 186.136C94.3566 186.268 92.3184 185.896 91.9251 186.471C91.2125 186.178 91.3901 186.058 91.5558 185.976ZM63.6986 176.945C63.7505 176.979 63.7984 177.015 63.8503 177.049C63.7824 177.061 63.7026 177.069 63.6646 177.091C63.6746 177.041 63.6866 176.991 63.6986 176.945ZM95.0553 186.278C95.195 186.256 95.3387 186.246 95.4804 186.232C95.3726 186.282 95.2548 186.332 95.143 186.384C95.1151 186.346 95.0892 186.306 95.0553 186.278ZM119.695 181.67C119.832 181.543 119.972 181.365 120.116 181.064L120.99 181.265C121.365 180.742 121.886 179.64 122.346 178.488L115.904 182.537C115.808 182.567 115.718 182.597 115.628 182.627L121.839 178.608L122.37 178.429C122.531 178.019 122.683 177.608 122.819 177.213C122.901 177.159 122.982 177.103 123.064 177.049C122.984 178.209 122.324 179.744 121.827 180.8C122.509 180.038 123.781 177.892 123.577 177.215C123.497 177.624 123.402 178.161 123.092 178.449C123.132 177.955 123.21 177.432 123.302 176.891C124.278 176.251 125.348 175.61 126.568 174.967C125.136 176.734 123.763 178.494 122.326 180.275C121.958 180.708 121.591 181.145 121.216 181.585C120.727 181.605 120.216 181.627 119.695 181.67ZM65.553 182.158C64.6547 181.495 63.7764 180.766 62.8961 180.052C63.1596 179.365 63.3772 178.325 63.6027 177.347C63.7724 177.766 64.7186 178.482 64.0439 178.884C65.1698 178.676 65.8006 180.237 66.9723 180.557C66.8765 180.571 66.6869 180.6 66.653 180.503C67.0323 180.966 66.9624 181.293 67.1221 181.688C67.713 181.169 68.5034 181.672 69.1842 181.635C69.246 182.665 68.244 182.046 67.9425 182.728C68.3238 182.245 69.3399 183.062 69.4856 182.503C69.6153 183.212 69.7092 182.978 69.5215 183.663C70.2142 182.966 70.0306 183.864 70.7612 183.685C71.0946 184.563 70.348 184.563 71.2503 184.842C71.4179 185.33 70.5596 185.144 70.5596 185.144C71.2982 185.689 71.3421 184.814 71.7493 184.587C72.7454 185.038 71.8352 185.314 71.917 185.835C72.5878 186.072 73.3902 185.811 73.7795 186.122C73.7435 186.244 73.8035 186.332 73.6218 186.397C74.2566 186.316 74.8794 186.855 75.5541 187.138C75.7777 187.547 76.0093 187.947 76.1909 188.406C76.1909 188.406 75.9534 188.474 75.6739 188.464C75.6739 188.464 76.2009 188.569 77.0553 188.695C77.0553 188.745 77.0493 188.773 77.0513 188.839C77.8917 189.454 78.3129 189.362 78.9776 189.659C78.7521 189.685 78.5405 189.709 78.2889 189.739C78.1532 189.743 78.0055 189.747 77.8677 189.749C73.7515 187.657 69.5914 185.162 65.553 182.158ZM51.6833 89.5407C51.7651 89.4189 51.845 89.2972 51.9268 89.1754C51.8809 89.2732 51.811 89.389 51.6833 89.5407ZM23.4108 79.6994C23.4287 79.6634 23.4567 79.6395 23.4766 79.6055C23.4547 79.6375 23.4327 79.6674 23.4108 79.6994ZM30.1241 71.2972C30.0043 71.431 29.8845 71.5628 29.7648 71.6985C29.7728 71.6506 29.7787 71.6026 29.7767 71.5547C29.8765 71.4489 29.9804 71.3411 30.0822 71.2353C30.1001 71.2513 30.1141 71.2733 30.1241 71.2972ZM20.5082 82.4681C20.638 82.4501 20.7638 82.4501 20.8676 82.498C20.8217 82.4361 20.7817 82.3543 20.7518 82.2665C21.4804 81.6596 22.0993 81.1625 22.4087 81.1047C21.3926 82.5799 20.4364 84.0751 19.5241 85.5683C19.1828 85.2648 19.8096 84.2986 18.8514 85.0852C19.0191 84.7718 18.6458 84.4703 19.2387 84.0471L19.3484 84.5082C19.7976 83.9473 19.608 83.8854 19.5002 83.3205C19.5022 83.3045 19.5201 83.2885 19.5241 83.2725C19.8575 83.009 20.1888 82.7356 20.5082 82.4681ZM17.458 88.6484C17.5778 88.6464 17.7275 88.5227 17.8952 88.329C17.7814 88.5306 17.6636 88.7323 17.5519 88.9339C17.5379 88.8441 17.4999 88.7622 17.4301 88.6903C17.4381 88.6764 17.4481 88.6664 17.458 88.6484ZM13.9547 95.6312L14.0625 95.8308C13.9607 96.0564 13.8688 96.274 13.771 96.4975C13.8289 96.2161 13.8908 95.9286 13.9547 95.6312ZM17.2225 172.498C17.3522 172.749 17.4919 172.997 17.6257 173.246C17.4879 173.186 17.3263 173.173 17.1347 173.262L17.2225 172.498ZM18.2306 174.352C18.4402 174.732 18.6418 175.113 18.8554 175.49C18.4961 175.428 18.3723 174.831 17.991 174.608C18.1228 174.536 18.1866 174.448 18.2306 174.352ZM20.2687 178.151C20.3605 178.349 20.4364 178.564 20.5222 178.766C20.3546 178.636 20.2168 178.474 20.1988 178.203L20.2687 178.151ZM39.4384 59.6433C39.4684 59.6513 39.4864 59.6673 39.5143 59.6772C39.4624 59.7411 39.4065 59.799 39.3646 59.8688C39.3706 59.803 39.3925 59.7032 39.4384 59.6433ZM38.2467 60.7891C38.1589 61.0246 38.0651 61.2582 37.9912 61.4918L37.9173 61.5617C37.1588 61.5716 37.7217 61.1903 38.2467 60.7891ZM36.9392 61.3361C36.8773 61.4838 36.8633 61.6136 36.9372 61.7154C36.9092 61.7413 36.8833 61.7673 36.8554 61.7932C36.538 61.7753 36.4441 61.7952 36.2744 61.7174C36.6158 61.5078 36.8753 61.356 36.9392 61.3361ZM68.6233 222.924C66.7927 222.725 64.9362 222.675 63.8762 222.952C63.5528 222.739 63.1595 222.312 64.0379 222.411C59.3807 221.441 53.4021 220.754 50.1223 218.81L50.5754 218.658C49.715 218.423 48.9385 218.543 48.0362 217.814C48.14 217.726 48.4854 217.692 48.1181 217.505C47.6689 217.373 45.7026 217.063 44.7743 216.277L45.8104 216.467C41.9457 213.907 39.167 213.702 35.8812 211.436C36.1487 211.089 35.5957 210.3 34.8112 209.458C34.0706 208.558 33.1144 207.579 32.4736 206.933L32.6054 206.883C28.7387 203.172 25.6406 200.856 22.3149 196.973C21.7479 195.432 20.3466 193.181 18.8753 190.685C17.4401 188.17 15.9569 185.393 15.1205 182.998C15.2961 183.77 14.4517 183.18 13.9946 182.391C13.6552 181.241 12.0742 179.622 12.9106 179.473L13.0544 179.874C13.4696 178.722 12.2918 176.582 11.7009 174.767L10.605 174.829C10.4652 172.21 9.32339 169.16 8.4191 166.292C8.36121 166.122 8.31735 165.964 8.26345 165.798C8.31336 165.786 8.36122 165.755 8.41112 165.677C8.60276 166.611 9.44718 167.12 9.49708 167.918C10.2636 168.048 9.97018 169.454 10.8046 169.164C9.98815 169.541 10.9024 170.965 11.6171 171.212C11.2777 171.188 11.6451 171.783 11.1979 171.785C11.5672 172.342 12.0363 172.767 12.3696 172.426C12.1141 174.035 14.4138 174.015 13.6253 175.354C15.0326 176.79 16.5058 177.955 17.6996 179.251C16.945 179.746 16.4559 177.756 15.7393 178.375C17.0568 179.503 18.2446 179.79 19.071 181.241C19.2347 181.66 18.6198 181.293 18.4122 181.273C19.6958 182.381 20.4703 183.774 21.7998 184.583C21.7339 184.635 21.5603 184.577 21.4086 184.509C21.6242 184.709 21.7639 185.108 22.0454 184.808L21.7738 184.671C21.8457 184.281 22.3069 184.311 22.768 184.399C22.9377 184.876 23.1113 185.359 23.279 185.829C23.3049 185.892 23.3309 185.952 23.3568 186.016C23.253 186.096 23.1094 186.172 22.8718 186.236C23.0295 186.314 23.2611 186.326 23.4328 186.2C23.4727 186.296 23.5106 186.387 23.5505 186.483C23.4966 186.555 23.3848 186.597 23.1852 186.595C23.4088 186.759 23.5765 186.841 23.7162 186.885C23.9158 187.37 24.1214 187.865 24.313 188.328L25.4589 189.2C25.6006 189.472 25.5028 189.831 25.2453 189.595C25.7024 190.889 25.6006 189.47 26.1096 189.919C26.5029 190.568 26.3272 190.963 25.922 190.641C26.7764 191.518 27.9462 192.771 28.9842 194.111C29.9983 195.47 31.1461 196.732 31.6472 197.93L31.208 197.658C32.2461 199.337 33.4558 198.618 34.2822 200.259L33.9708 200.08C35.3163 201.683 36.8294 203.296 38.4124 204.643C39.179 205.344 39.9096 206.038 40.5623 206.735C41.2391 207.404 41.8718 208.033 42.3669 208.705C43.3451 208.422 45.4451 211.558 46.3873 210.682C48.0622 212.454 47.3236 212.338 50.0205 214.426C50.785 214.92 51.5655 214.454 52.5896 214.892L52.3161 215.443L53.939 215.616C53.939 215.616 54.0288 215.878 54.1187 216.139C54.2145 216.393 54.3103 216.644 54.3103 216.644L55.3264 216.954C54.9651 216.742 54.6517 216.327 54.7894 216.197C56.3744 216.644 58.183 218.287 58.0992 218.595C58.0992 218.595 59.0194 218.916 59.9776 219.128C60.9238 219.361 61.87 219.597 61.87 219.597C61.7003 219.796 61.0675 219.637 60.5285 219.595C62.6845 219.772 60.6404 220.335 62.6166 220.497C62.429 220.273 62.8741 220.206 62.958 220.104C63.6846 220.842 65.7427 221.491 67.3017 221.822L66.8825 222.134C67.8447 222.489 68.8788 222.781 69.9388 223.034C69.5036 223 69.0644 222.962 68.6233 222.924ZM184.35 187.388C184.72 186.391 183.51 187.254 184.774 185.489C184.043 186.27 183.3 186.891 183.488 187.098C182.897 187.386 181.755 189.585 180.755 189.977C180.538 190.408 180.727 190.835 179.791 191.614C179.637 191.642 179.665 191.466 179.665 191.466C179.793 191.614 178.402 192.911 179.493 192.542C176.617 193.694 173.183 197.441 170.313 198.794C176.529 193.796 182.264 188.276 187.48 182.481C186.177 184.278 186.339 185.457 184.35 187.388ZM189.103 180.928C188.886 181.08 188.674 181.223 188.522 181.329C189.006 180.782 189.463 180.223 189.938 179.67C189.836 179.942 189.79 180.187 189.876 180.359C189.876 180.359 189.503 180.656 189.103 180.928ZM192.667 176.574C192.555 176.432 192.375 176.484 192.17 176.596L191.102 175.145C194.731 169.428 195.986 168.362 196.97 167.483C196.068 169.507 195.565 171.677 193.701 174.185L194.575 173.167C194.677 173.883 193.299 175.384 192.667 176.574ZM200.248 163.269C199.999 164.189 199.755 165.168 199.114 166.05L198.398 165.677C198.565 165.343 198.723 165.004 198.889 164.669C198.885 164.691 198.883 164.707 198.879 164.729C198.879 164.729 198.901 164.661 198.921 164.603C199.27 163.888 199.629 163.181 199.961 162.455C199.899 162.982 199.835 163.407 199.835 163.407C200.118 162.704 200.304 161.932 200.476 161.249C200.608 160.95 200.733 160.65 200.861 160.349C200.787 161.285 200.795 161.115 201.322 160.692C200.665 161.443 200.458 162.329 200.248 163.269Z" fill="#F9CC3A"/>
<path d="M2.35864 161.223L2.49638 161.187L2.29272 160.788L2.35864 161.223Z" fill="#F9CC3A"/>
<path d="M206.874 151.096C206.856 151.218 206.842 151.34 206.838 151.45C206.802 152.286 206.858 151.721 206.874 151.096Z" fill="#F9CC3A"/>
<path d="M184.175 192.821L184.171 192.811L183.953 193.016L184.175 192.821Z" fill="#F9CC3A"/>
<path d="M10.3315 171.51L10.5551 172.323L11.0721 173.149C11.0721 173.149 10.8805 172.742 10.6889 172.335C10.4973 171.929 10.3315 171.51 10.3315 171.51Z" fill="#F9CC3A"/>
<path d="M8.81516 71.1282C8.38151 71.9826 9.24234 75.8531 10.1064 79.5295C10.9506 83.1213 13.9802 86.4292 17.7537 90.2091C20.6628 93.1232 24.7633 93.5618 34.773 93.5683C40.4532 93.572 44.1808 90.5586 48.7115 88.6104C53.1443 86.7043 57.773 83.4389 63.9154 79.235C71.3411 74.1528 79.7794 65.0959 86.5658 58.8564C90.9194 54.8537 93.5917 51.9438 97.7955 47.4131C101.105 43.8465 102.873 39.6461 103.957 35.5458C104.518 33.424 104.394 31.439 103.643 29.7173C102.759 27.6881 100.517 26.6882 98.6887 26.0409C97.7473 25.7077 96.6467 25.8209 95.4557 26.4617C89.8774 29.463 88.4396 35.2966 86.4914 38.8597C84.4024 42.6803 83.4687 46.2998 83.4622 57.2771C83.4591 62.5622 88.1936 65.7172 92.2939 67.9923C96.3095 70.2204 102.834 70.481 107.831 69.2998C111.585 68.4123 115.378 66.3904 118.834 64.6622C122.291 62.9341 125.734 60.7852 129.19 58.7302C132.815 56.5751 134.588 52.1639 135.566 48.3807C135.811 47.4316 135.676 46.3386 135.249 45.6817C134.404 44.3829 132.232 44.5911 130.511 44.9115C128.572 45.2722 127.054 47.1736 125.546 48.5716C122.782 51.1341 123.378 60.9147 125.847 66.0506C127.507 69.5017 132.634 70.6881 137.378 71.6654C146.062 73.4544 150.109 70.0538 153.249 68.0085C156.386 65.9642 158.537 62.947 160.482 60.8823C162.346 58.9029 159.197 67.0117 159.297 74.8726C159.364 80.0829 162.847 83.1929 165.009 86.4356C167.104 89.5786 178.096 89.2512 184.747 87.8563C186.541 87.4801 187.235 85.1606 187.883 83.2253C188.233 82.1792 188.103 80.8628 187.676 80.0958C186.89 78.6861 184.019 78.8952 181.219 79.4292C178.408 79.9655 177.533 82.9858 176.996 84.8143C176.383 86.9018 175.805 90.0926 176.125 93.8628C176.548 98.8309 181.397 101.316 184.96 103.484C188.612 105.706 192.401 105.86 197.468 106.186C201.473 106.445 205.346 105.652 211.488 104.144C215.494 102.203 218.083 100.474 219.805 99.0796C220.672 98.112 221.527 96.6169 222.407 95.0764" stroke="black" stroke-width="4" stroke-linecap="round"/>
<path d="M162.213 36.8239C161.786 38.3255 160.491 41.7689 160.591 45.6556C160.638 47.4461 163.067 48.0407 164.789 48.3644C166.484 48.683 168.245 47.8336 169.86 46.5423C172.789 44.2002 174.07 40.2932 175.048 36.7301C175.307 35.7847 175.158 34.688 174.731 33.9242C174.303 33.1605 173.449 32.7333 172.582 32.4065C171.714 32.0796 170.86 31.866 168.685 32.9404" stroke="black" stroke-width="4" stroke-linecap="round"/>
<path d="M166.096 29.057C166.096 26.9146 166.524 22.1703 166.53 17.1023C166.535 13.1008 163.948 9.87257 161.682 6.41626C160.599 4.76314 159.417 3.38715 157.695 2.63311C156.042 1.90917 153.598 1.87257 150.906 2.19296C148.656 2.46067 147.546 4.66869 146.685 6.39037C145.825 8.11205 145.385 11.5554 145.705 15.7593C145.893 18.2279 147.967 19.5554 148.511 20.6363C148.948 21.505 144.543 19.9955 140.88 20.3159C139.325 20.4519 138.498 21.2771 137.844 22.1412C136.508 23.9067 136.109 26.0279 135.786 27.8563C135.12 31.6181 138.472 34.6492 141.488 36.8175C143.21 37.6783 144.944 38.3321 147.627 38.6557C149.456 38.7657 152.232 38.7657 155.74 37.4712" stroke="black" stroke-width="4" stroke-linecap="round"/>
<path d="M178.394 35.5295C184.802 36.1768 199.52 37.4584 202.763 40.6946C205.5 43.4263 204.931 46.7399 204.504 48.248C203.556 51.5956 198.044 50.8434 189.753 50.8499C187.883 50.8514 187.041 50.2091 186.921 50.4162C185.276 53.2631 192.4 54.7269 194.999 56.9858C196.311 58.126 195.87 60.5457 195.549 62.591C195.39 63.6071 194.588 64.4227 193.831 64.9696C190.951 67.0498 182.769 66.5974 177.65 64.7722C176.038 63.8013 174.303 62.934 172.688 61.9664C171.928 61.4259 171.287 60.7851 169.98 60.125" stroke="black" stroke-width="4" stroke-linecap="round"/>
<path d="M58.6533 115.788C58.6533 115.361 58.6533 114.287 58.9737 112.672C59.6595 109.215 63.8183 107.387 67.0546 105.439C70.2876 103.493 74.3814 103.491 77.951 104.348C80.6533 106.72 82.3814 108.876 83.1355 110.597C83.4623 111.465 83.6759 112.319 83.2487 113.199" stroke="black" stroke-width="4" stroke-linecap="round"/>
<path d="M123.378 113.846C122.951 113.846 122.731 112.778 123.051 110.84C123.64 107.279 128.323 105.445 131.779 104.141C135.112 102.883 139.533 102.843 142.786 104.775C145.164 107.581 146.245 110.17 146.676 111.892C146.892 112.759 147.106 113.613 147.973 113.846" stroke="black" stroke-width="4" stroke-linecap="round"/>
<path d="M95.5463 118.377C95.1192 118.377 94.8991 121.154 95.2195 125.681C95.4014 128.252 97.4816 129.374 98.8797 130.452C100.256 131.513 103.08 131.322 106.097 131.002C108.449 130.752 109.566 128.526 110.32 126.804C110.647 125.937 110.86 125.083 110.97 123.575C111.08 122.067 111.08 119.931 109.786 119.672" stroke="black" stroke-width="4" stroke-linecap="round"/>
<path d="M73.54 136.5C73.9672 138.002 76.1161 141.018 78.8151 143.503C81.6236 146.09 85.6048 147.063 89.061 148.685C92.3121 150.21 95.9607 150.52 99.417 151.384C105.291 152.852 114.084 151.18 117.54 149.345C121.192 147.406 124.012 144.927 126.605 142.335C129.197 139.743 131.352 136.733 132.226 133.704C131.805 133.264 130.524 133.264 129.203 133.264" stroke="black" stroke-width="4" stroke-linecap="round"/>
<path d="M74.1873 139.089C74.1873 142.727 74.6144 150.507 75.3717 154.177C76.2951 158.651 77.6306 162.157 79.4656 165.507C81.2406 168.747 83.883 171.439 87.1193 173.28C90.2404 175.056 97.8636 174.688 103.407 173.4C107.83 172.372 111.275 167.374 114.2 164.235C116.753 161.495 118.407 158.092 120.673 154.636C122.776 151.427 124.88 148.384 127.145 145.465C128.116 143.853 128.983 142.118 129.737 140.397C130.064 139.529 130.278 138.675 130.498 137.147" stroke="black" stroke-width="4" stroke-linecap="round" stroke-linejoin="round"/>
<path d="M58.0059 92.4873C59.2939 91.8466 62.3036 89.6912 65.7599 88.0699C66.6272 87.743 67.4816 87.5294 68.3489 87.3126C69.2162 87.0958 70.0706 86.8822 70.3036 86.6621" stroke="black" stroke-width="4" stroke-linecap="round"/>
<path d="M134.381 86.6621C136.097 86.6621 139.974 87.0893 143.43 88.811C144.297 89.4582 145.152 90.3126 145.912 91.0731C146.673 91.8336 147.313 92.4744 148.621 93.7818" stroke="black" stroke-width="4" stroke-linecap="round"/>
</svg>
