<svg width="208" height="192" viewBox="0 0 208 192" fill="none" xmlns="http://www.w3.org/2000/svg">
<path d="M175.425 99.1807C175.363 99.8687 175.272 99.6194 175.425 99.1807Z" fill="#5F91D6"/>
<path d="M57.4324 136.827C57.642 137.049 57.8436 137.283 58.0532 137.626C57.8476 137.163 57.64 136.953 57.4324 136.827Z" fill="#5F91D6"/>
<path d="M15.0626 132.082C15.0266 131.947 15.0686 131.869 14.9049 131.751C14.8889 131.781 14.8809 131.805 14.877 131.833C14.9788 131.851 15.0566 131.907 15.0626 132.082Z" fill="#5F91D6"/>
<path d="M12.4555 127.341C12.4315 127.387 12.4196 127.435 12.4016 127.481L12.5074 127.619L12.4555 127.341Z" fill="#5F91D6"/>
<path d="M9.39342 131.018C9.49123 130.781 9.51319 130.575 9.49722 130.384C9.44133 130.372 9.38945 130.35 9.31958 130.36L9.39342 131.018Z" fill="#5F91D6"/>
<path d="M7.1875 60.2408L7.31921 60.2949L7.26133 60.1086L7.1875 60.2408Z" fill="#5F91D6"/>
<path d="M21.4066 146.975C21.3767 146.947 21.3447 146.921 21.3088 146.903C21.0413 146.766 21.201 146.881 21.4066 146.975Z" fill="#5F91D6"/>
<path d="M11.188 134.255L11.198 134.251L11.1421 134.165L11.188 134.255Z" fill="#5F91D6"/>
<path d="M12.8447 128.365C13.0743 128.558 13.7231 128.277 13.3418 127.962L12.8447 128.365Z" fill="#5F91D6"/>
<path d="M6.75435 113.332C6.99789 113.081 7.05779 112.6 6.71244 112.404C6.73639 112.771 6.61861 113.179 6.75435 113.332Z" fill="#5F91D6"/>
<path d="M10.3833 65.9216L10.2456 66.1729L10.3235 66.5419L10.3833 65.9216Z" fill="#5F91D6"/>
<path d="M52.2443 178.038L52.3082 177.91L51.9888 177.872L52.2443 178.038Z" fill="#5F91D6"/>
<path d="M122.37 140.898C122.362 140.918 122.354 140.938 122.346 140.958L122.523 140.846L122.37 140.898Z" fill="#5F91D6"/>
<path d="M181.404 151.805C181.084 152.046 180.933 152.082 180.587 152.509C180.643 152.495 180.693 152.475 180.755 152.445C180.847 152.254 181.013 152.05 181.404 151.805Z" fill="#5F91D6"/>
<path d="M39.3126 22.057C38.8775 21.8653 40.8597 20.3894 38.3904 22.061C38.7856 21.9911 39.0711 22.0111 39.3126 22.057Z" fill="#5F91D6"/>
<path d="M181.927 157.218C182.536 156.78 183.263 156.139 183.953 155.484C183.953 155.484 183.452 155.926 182.953 156.367C182.44 156.792 181.927 157.218 181.927 157.218Z" fill="#5F91D6"/>
<path d="M175.836 162.255C175.335 162.379 174.864 162.587 174.403 162.835C174.341 162.936 174.259 163.04 174.24 163.136L175.836 162.255Z" fill="#5F91D6"/>
<path d="M206.874 113.566C207.009 112.704 207.333 111.579 206.898 111.621C206.898 111.621 206.904 111.835 206.91 112.051C206.902 112.264 206.896 112.478 206.896 112.478C206.86 112.538 206.828 112.572 206.796 112.606C206.874 112.636 206.882 113.113 206.874 113.566Z" fill="#5F91D6"/>
<path d="M206.792 112.601V112.609L206.794 112.604L206.792 112.601Z" fill="#5F91D6"/>
<path d="M207.155 105.708C207.265 104.868 207.433 104.598 207.714 105.471C207.61 102.343 207.095 103.457 207.051 100.656C207.249 100.658 207.343 101.221 207.584 101.506C207.371 100.798 207.155 100.093 207.007 99.2725C206.997 99.2306 206.992 99.1787 206.982 99.1348C207.087 98.0868 207.195 97.0388 207.259 95.9808C207.97 84.2869 205.822 72.7707 201.867 62.2366C193.723 41.2603 177.958 23.8193 157.617 14.2734C149.554 10.4286 141.008 8.16491 132.47 7.02706C131.404 6.2665 130.396 5.53989 129.466 4.98893C126.955 3.48178 125.282 2.47769 125.282 2.47769C125.282 2.47769 124.044 2.12632 121.833 1.75901C120.731 1.56338 119.391 1.32382 117.856 1.05033C116.319 0.792821 114.564 0.657078 112.664 0.439489C105.052 -0.325064 94.7817 -0.221242 84.7487 1.79295C74.6997 3.69934 65.034 7.56202 58.3087 11.4367C57.105 12.0336 56.071 12.7063 55.0869 13.3471C54.8912 13.3151 54.6297 13.395 53.6316 13.918C52.4079 14.0637 54.3702 12.9459 54.3702 12.9459C52.0586 13.8102 53.3841 14.0318 53.1804 14.5688C53.0946 14.6227 53.0048 14.6826 52.9209 14.7345C50.5494 15.7965 51.6254 14.6686 50.5574 14.7145C48.9045 15.7006 47.8845 16.9243 46.6009 17.4932C46.4512 17.4293 46.1817 17.5073 46.4033 17.2338C45.4391 18.2379 43.4529 19.1541 41.786 20.2361C41.6723 20.2002 41.5685 20.1283 41.5026 19.9506C41.5026 20.1862 41.4207 20.3798 41.3029 20.5594C40.8219 20.8988 40.3987 21.2601 40.0393 21.6434C39.8776 21.7672 39.7239 21.9009 39.5902 22.0466C39.4764 22.0626 39.3706 22.0746 39.3207 22.0566C39.3486 22.0626 39.3586 22.0786 39.3846 22.0866C38.9254 22.2523 38.62 22.1165 38.2567 22.1864C38.3964 22.4479 38.3785 22.7054 38.3186 22.9589C38.0052 23.2184 37.6918 23.474 37.3863 23.7554C37.3424 23.434 37.5001 23.0328 37.1428 22.7453C37.3843 23.0607 37.0809 23.462 36.9412 23.7914C34.6595 24.0828 38.3884 22.913 36.1367 23.0587C34.6156 24.0668 33.869 24.7795 33.1124 25.4642C32.3718 26.1708 31.5733 26.7936 30.184 27.9654C29.8246 28.7958 30.7489 28.207 30.3936 29.0334C30.3916 29.0374 30.3856 29.0414 30.3856 29.0414C30.3896 28.8178 30.4794 28.6601 29.9724 29.1312C30.0642 29.1492 30.136 29.1951 30.2159 29.2271C29.9624 29.5125 29.7228 29.762 29.4973 29.9796C29.0641 29.77 30.156 29.7261 29.082 29.3648C28.028 30.0435 28.2416 30.4947 27.2375 31.2153C27.2535 31.3291 27.2894 31.4069 27.3333 31.4668C26.2035 31.9339 25.429 31.916 24.2412 33.9182C24.1015 34.3534 24.0695 34.7466 23.9398 35.1838C23.3329 35.3136 23.5685 35.609 23.6184 35.9224C23.5585 36.0242 23.4847 36.132 23.4068 36.2438L22.9157 35.9423C22.6642 36.2957 22.4406 36.6949 22.223 37.1041L22.217 36.3177C20.8037 38.0065 20.9794 38.4416 20.668 39.1702C20.6061 39.1163 20.5242 39.0864 20.3805 39.1323C20.119 39.6054 19.7796 40.0446 19.4103 40.4658C19.8176 39.7192 20.5322 38.8748 20.2248 39.1423C19.053 40.0146 19.037 40.4199 18.9971 40.903C18.8773 41.0267 18.7695 41.1585 18.6438 41.2782C18.3523 41.5797 18.0509 41.8392 17.7515 42.1267L17.7215 42.1227C17.7035 42.1486 17.6876 42.1786 17.6696 42.2045C17.3263 42.5319 16.983 42.8832 16.6436 43.1786L16.7054 43.7236C16.6316 43.8414 16.5577 43.9532 16.4859 44.071C16.428 44.0411 16.3681 44.0071 16.3681 43.9312C16.0507 44.1648 16.1804 44.2127 16.3541 44.2806C16.2982 44.3704 16.2423 44.4543 16.1865 44.5441C16.1705 44.572 16.1565 44.6059 16.1385 44.6339C16.1126 44.592 16.0866 44.5441 16.0866 44.4842C16.0547 44.6339 16.0148 44.7936 15.9688 44.9613C15.5736 45.6859 15.1983 46.4305 14.807 47.1791C14.6274 47.5264 14.4457 47.8818 14.2641 48.2331C14.1523 48.3429 14.0365 48.4447 13.9168 48.5266L13.8928 48.2271C13.5674 48.5565 13.6493 48.9178 13.7351 49.2592C13.6273 49.4668 13.5235 49.6724 13.4157 49.88C13.3019 50.1236 13.1881 50.3691 13.0743 50.6106C12.717 51.1416 12.3836 51.6846 12.0702 52.2355C12.0343 52.0299 11.9385 51.9421 11.5552 52.4012C11.2657 53.0061 10.9803 53.6469 10.6928 54.2737C10.4772 54.5232 10.2657 54.7807 10.0101 54.9683C10.5092 55.4934 9.40927 56.2659 9.48313 56.8787C9.34938 57.1682 9.20961 57.4556 9.07387 57.7451C8.60675 58.0106 8.36127 58.0765 7.56677 59.0486C7.35517 59.39 7.81629 59.8451 7.86619 60.3302C7.84224 60.3821 7.82027 60.434 7.79632 60.4859L7.31523 60.2903L7.55678 61.0189C7.52085 61.0988 7.48489 61.1786 7.44895 61.2585L6.80217 61.3263L6.75428 61.8693C6.8541 61.7076 7.1056 61.6138 7.26729 61.6637C7.11558 62.0011 6.96389 62.3384 6.81417 62.6738C6.47281 63.0431 6.06358 63.2946 5.8919 63.2427L5.66632 65.209V65.211C5.45072 65.0872 5.48867 64.7598 5.43677 64.4684C5.64438 65.6382 4.75808 64.4205 4.94971 65.4925C5.12937 65.4226 5.2691 65.6801 5.3789 65.74C4.87185 66.0554 4.56242 67.0834 4.47259 67.8839L4.11529 67.6064C3.5843 68.9439 3.41257 70.5529 2.92949 72.08C3.23691 71.6568 3.74 71.8384 3.8478 72.1838C3.83981 72.2496 3.83379 72.3036 3.8258 72.3695L3.20497 72.3774C3.47845 72.7328 3.56832 72.1259 3.80387 72.5411C3.79189 72.635 3.77589 72.7427 3.76391 72.8385C3.50839 73.116 3.06126 72.8425 2.94947 72.5052L3.00734 73.2717C2.80972 73.2658 2.74784 73.0721 2.51828 72.9683C2.84366 73.3576 1.60602 74.0443 2.19291 74.6332L1.99528 74.6292C1.63596 76.2022 1.69583 76.9628 1.44231 78.2443C1.98728 78.3761 1.75375 78.8512 2.11706 79.3103C1.80365 80.2186 1.22475 81.2027 1.11097 82.3565C1.27466 83.1989 1.54811 82.658 1.82958 83.0612C1.31455 83.0492 1.20279 84.1971 0.921324 83.5603C0.847464 84.9476 0.703722 85.3249 1.0311 87.1076C1.24869 86.9359 1.35049 86.7323 1.52017 86.858C1.58604 87.1794 1.26867 87.5567 1.02513 87.4928L0.977188 87.405C1.65391 89.3872 -0.783456 91.8745 0.266557 93.4815L0.210633 93.3936L0.821477 95.0146C0.759594 95.7612 0.422234 94.5735 0.124797 95.1304C1.03907 96.8611 0.098854 97.9171 0.71968 99.3304C-0.482047 100.337 0.599923 102.265 0.661806 103.83C0.649828 104.018 0.641847 104.213 0.627873 104.397C0.59793 104.567 0.569964 104.736 0.496104 104.89L0.58194 104.856C0.536027 105.355 0.48813 105.854 0.420258 106.315C1.34451 107.14 0.458208 112.384 1.73978 112.649C1.64796 116.153 1.14492 115.214 1.61203 120.129C1.79169 121.437 2.67798 121.928 3.08721 123.491L2.49233 123.654L3.60625 125.665L3.14709 126.974C3.14709 126.974 3.2689 127.337 3.39266 127.701C3.52841 128.06 3.66211 128.419 3.66211 128.419C3.53236 127.825 3.62223 127.102 3.81386 127.15C4.65028 129.378 4.87387 132.853 4.62434 132.999C4.62434 132.999 5.16532 134.308 5.70829 135.618C6.26124 136.919 6.87606 138.195 6.87606 138.195C6.60058 138.161 6.2053 137.299 5.80406 136.644C7.40503 139.279 5.37687 137.376 6.84609 139.792C6.85408 139.395 7.25735 139.852 7.39309 139.868C7.55478 141.273 8.66667 144.221 9.81849 146.25L9.24755 146.018C10.8445 149.923 13.3279 153.915 15.877 157.896C15.1265 156.359 15.9668 156.307 16.7653 157.421L16.5178 158.237C17.3343 158.764 15.9469 156.894 17.3442 158.159C18.2246 159.67 17.3702 159.567 16.6436 158.828C16.6436 158.828 16.9809 159.247 17.3203 159.666C17.6796 160.07 18.0389 160.475 18.0389 160.475C17.9531 160.688 17.5758 160.337 17.2964 160.371C18.1547 160.836 18.8993 163.822 20.3087 164.365L20.2328 164.581C21.694 166.465 22.8858 167.729 24.0336 168.881C25.1355 170.073 26.2993 171.051 27.6867 172.41C28.1099 172.073 29.1399 173.189 30.3177 173.586C31.3118 174.592 32.3499 175.678 33.5476 176.704C34.1365 177.227 34.7374 177.77 35.3821 178.283C36.0489 178.768 36.7416 179.249 37.4662 179.712C39.6301 180.8 38.3046 179.704 39.3865 180.002C39.2687 180.521 42.2831 182.148 40.5503 181.603C42.3789 182.557 43.5087 183.234 44.8781 183.733C45.5529 183.994 46.2616 184.27 47.102 184.597C47.9384 184.935 48.9265 185.272 50.1842 185.593C49.733 185.204 49.18 184.903 49.5493 184.853C50.4516 185.096 51.4617 185.785 51.2541 185.971L51.0046 185.935C52.4279 186.266 53.8831 186.803 55.4022 187.286C56.9114 187.797 58.4226 188.482 59.9577 188.937C62.9939 190.015 66.0042 190.735 68.3558 190.546L68.0922 190.56C68.0922 190.56 68.3917 190.568 68.8428 190.58C69.294 190.57 69.8948 190.556 70.4957 190.544C71.6914 190.516 72.8892 190.488 72.8892 190.488C75.0611 190.779 71.5497 190.75 73.1407 191.215C75.7398 190.973 77.7519 191.047 79.6643 191.175C81.5707 191.211 83.3813 191.352 85.4733 190.975C88.835 192.428 96.9936 190.043 101.439 190.298L101.136 189.987C102.202 189.462 102.519 189.969 103.362 189.915C103.2 189.662 102.096 189.797 102.761 189.494C112.159 187.582 122.234 186.082 131.756 183.581C135.225 182.599 133.167 181.259 137.719 180.653L136.704 181.681C143.336 178.688 150.74 176.706 156.886 172.963C156.569 173.285 156.645 173.468 156.016 173.77C157.597 173.574 161.036 171.306 160.863 170.939C161.871 170.466 161.258 171.135 161.959 170.991C163.426 170.496 164.999 168.625 165.917 168.605C166.075 168.601 165.628 168.959 165.408 169.132C166.149 168.436 169.403 166.809 168.297 166.825C170.722 165.619 172.471 163.82 174.403 162.838C175.178 161.531 178.282 160.303 178.068 159.313C178.497 160.167 182.2 156.868 183.125 155.358C182.893 155.951 184.4 154.55 184.171 155.283C185.612 153.955 186.714 152.518 186.153 152.446C189.507 150.641 190.347 146.555 192.691 145.874C195.914 140.994 198.492 136.267 200.594 131.51C201.384 132.118 197.979 136.634 198.885 136.899C201.057 132.37 201.562 129.467 203.5 124.978C204.053 123.824 203.62 125.788 203.612 126.253C205.043 121.5 206.636 117.073 206.792 112.607C206.145 113.282 206.053 108.906 205.742 108.753C206.245 109.523 206.45 108.469 206.63 107.507C206.776 106.549 206.96 105.68 207.656 106.89C207.6 106.311 207.433 105.587 207.155 105.708ZM15.7333 132.887C15.8311 132.58 14.7372 132.312 14.8769 131.835C14.6454 131.793 14.2641 131.963 14.0705 131.597C14.1144 131.52 14.2381 131.502 14.2381 131.502C14.0585 131.605 13.6832 131.078 13.4815 131.611C14.0245 130.002 11.9245 128.845 12.4016 127.483C11.9125 126.84 11.3516 126.044 10.9883 125.415C11.116 125.405 11.1659 125.333 11.1939 125.471C11.116 124.409 9.9223 125.385 9.84445 124.161C10.1998 123.363 10.3934 124.579 10.4733 124.145C11.5971 123.471 9.77856 122.954 10.1778 121.952L10.3196 122.091C10.5012 121.391 9.31545 120.973 9.028 120.059C9.028 120.059 9.15373 120.061 9.21362 119.993C8.30734 119.646 7.72447 118.534 7.27332 117.71C7.84025 117.819 7.65459 118.021 8.08977 117.686C7.89414 117.316 7.34518 118.073 6.95392 117.33C7.13358 116.983 7.18347 116.34 7.68252 116.099L7.94801 116.825C8.50296 116.226 7.62063 115.883 7.61265 115.456L7.92608 115.412C7.46894 114.322 6.71234 114.528 6.37299 113.294L6.18535 113.484C6.1095 113.448 6.06759 113.416 6.01569 113.382C5.99174 113.162 5.96776 112.945 5.94381 112.713C5.96576 112.639 5.96776 112.563 5.91785 112.476C5.90787 112.38 5.89591 112.28 5.88593 112.182L6.44286 111.869C6.30113 111.669 6.02766 111.32 5.74819 110.925C5.72224 110.693 5.69828 110.465 5.67034 110.216C6.03964 110.605 6.361 111.074 6.66443 111.396C6.5726 110.952 6.27319 109.91 5.84201 109.763C5.95579 109.924 6.19533 110.106 6.11548 110.31C5.91785 110.2 5.7901 110.024 5.63439 109.879C5.60046 109.571 5.56851 109.27 5.53059 108.93L5.99571 109.737C5.95579 108.918 5.70226 108.331 5.39285 107.81C5.54256 107.058 4.89779 105.718 5.7382 105.102C4.97964 103.604 5.5805 101.941 5.25712 100.131C5.10141 100.237 4.9956 100.295 4.91176 100.331C4.92773 100.021 4.95371 99.7097 4.97567 99.4003C5.04354 99.3504 5.10541 99.2786 5.15532 99.1488C5.09344 99.2327 5.03553 99.2746 4.98164 99.2945C5.00958 98.8893 5.02753 98.4841 5.06546 98.0808C5.0994 98.1168 5.13334 98.1527 5.18724 98.1407C5.24912 97.1945 5.69027 97.7175 5.9937 97.0847C5.56252 97.2324 5.35691 96.7873 5.50463 96.2463L5.11938 96.8032C5.13535 96.4439 5.15131 96.0846 5.16129 95.7252C5.38886 95.4518 5.58446 95.1563 5.26108 94.5495L5.66035 94.9607C5.44076 94.4277 5.50266 93.206 5.10342 92.3656C5.09144 92.186 5.0994 92.0083 5.08343 91.8306C5.20121 91.9065 5.43475 92.0442 5.41679 92.703C5.53257 91.7548 5.75619 89.9182 5.93985 88.4071C6.13747 86.9 6.14345 85.6942 5.52462 85.9597C5.9019 85.9857 6.05759 84.9497 6.11548 83.6242C6.19133 82.668 6.24526 81.5661 6.28319 80.6039C6.42692 80.3524 6.5427 80.0928 6.64451 79.8812L6.80217 80.027C6.7862 79.9351 6.77025 79.8633 6.75428 79.7794L6.82014 79.8034C7.30322 78.1286 6.86209 76.7471 6.85011 75.1003C7.03177 74.9006 7.18149 75.1202 6.91999 75.7131C7.1775 75.0883 7.24333 74.697 7.2573 74.3637C8.01587 73.2797 8.35925 71.2356 9.21563 69.968C8.98607 70.1696 8.57681 69.7205 8.5828 69.3991C8.87025 69.0697 8.33726 68.1375 9.08185 68.4569L9.02398 68.5886C9.87836 68.5566 9.87236 67.6903 10.1498 67.1054L9.20765 66.6522C9.21164 66.6463 9.21365 66.6403 9.21764 66.6343C11.2518 65.5962 10.3395 62.3005 11.9445 61.9691C11.8447 61.4821 12.0462 61.0189 11.9983 60.5518L12.5034 60.8053C12.747 60.44 12.9366 60.1445 13.1143 59.8451C13.2201 59.7952 13.3019 59.8231 13.3598 59.9389C13.256 60.1865 13.1382 60.446 13.0404 60.6875C11.7368 63.5082 10.9963 66.0035 10.3615 67.7102C10.062 68.5706 9.82644 69.2473 9.66674 69.7085C9.533 70.1796 9.46114 70.4291 9.46114 70.4291C9.46114 70.4291 9.32544 71.0499 9.07192 72.2137C8.83637 73.3815 8.41911 75.0763 8.04183 77.2702C7.40503 81.6778 6.45683 88.0159 6.79419 95.7652C7.03573 103.485 8.41112 112.591 11.5172 121.662C12.9845 126.012 14.843 130.352 17.0268 134.582C16.4998 133.975 15.5277 134.306 15.1105 133.432C15.6515 133.484 15.6235 132.919 16.2743 133.372C16.0827 133.061 15.9688 132.747 15.7333 132.887ZM13.6413 56.3717C13.7451 56.3917 13.8369 56.3657 13.9247 56.3178L14.0405 56.3437C13.9187 56.5993 13.797 56.8528 13.6812 57.0963C13.5854 56.9406 13.5115 56.7869 13.4656 56.6392C13.5255 56.5514 13.5734 56.4615 13.6413 56.3717ZM16.2583 53.0839C16.2902 53.0041 16.3182 52.9242 16.3441 52.8424C16.4419 52.9302 16.5657 53.06 16.4959 53.2376C16.5478 53.1558 16.6276 53.054 16.7154 52.9442C15.7792 54.6929 14.9328 56.3957 14.1962 58.0186C14.1623 57.9108 14.1144 57.801 14.0505 57.6892C14.0864 57.5375 14.1184 57.3898 14.1543 57.238C14.282 56.7649 14.4417 56.3019 14.6154 55.8507C15.2163 54.9524 16.1086 54.2238 16.2583 53.0839ZM25.6505 38.9646C25.7124 38.8748 25.7703 38.795 25.8322 38.7071C25.8921 38.6971 25.944 38.6932 25.9999 38.6852C25.7563 38.9946 25.5248 39.316 25.2852 39.6294C25.2613 39.6234 25.2194 39.6234 25.1874 39.6214C25.3431 39.4018 25.5028 39.1842 25.6505 38.9646ZM35.6137 25.1588C35.472 25.1688 35.3642 25.1568 35.2703 25.1388C35.3881 25.0011 35.3462 24.9592 35.0408 25.065C35.0089 25.049 34.9769 25.035 34.9509 25.021C35.2384 24.8374 35.6656 24.5659 36.0629 24.3183C36.1527 24.7156 35.6157 24.5439 35.6137 25.1588ZM18.8374 47.5824C18.8554 47.6163 18.6997 47.9317 18.3983 48.4627C18.3623 48.5365 18.3184 48.6164 18.2825 48.6902C18.2785 48.6763 18.2765 48.6623 18.2745 48.6483C18.3104 48.5865 18.3484 48.5205 18.3823 48.4627C18.4282 48.3628 18.4402 48.299 18.5081 48.1772C18.4102 48.263 18.3204 48.3469 18.2326 48.4347C18.2106 48.1892 18.2605 47.9496 18.4322 47.5364C18.6139 47.4067 18.9053 47.6382 18.6278 47.7839C18.7356 47.7141 18.7955 47.6482 18.8374 47.5824ZM17.7176 50.6645C17.8633 50.395 18.025 50.0956 18.2346 49.7103C18.2306 49.6803 18.2246 49.6304 18.2226 49.5985C18.2765 49.7143 18.3204 49.8361 18.3104 49.9958C17.993 50.6705 17.7675 50.8262 17.6158 50.8561C17.6517 50.8002 17.6856 50.7383 17.7176 50.6645ZM17.991 49.4448C18.017 49.2831 18.0409 49.1274 18.0669 48.9977L18.1408 49.0715C18.1028 49.1913 18.0669 49.3131 17.991 49.4448ZM28.2975 35.3415C28.3853 35.1279 28.557 35.1638 28.7227 35.2257C28.6728 35.3076 28.6269 35.3854 28.6049 35.4553C28.6488 35.3854 28.7127 35.3095 28.7626 35.2397C28.7826 35.2477 28.8025 35.2517 28.8205 35.2597C28.6508 35.4573 28.4812 35.6509 28.3115 35.8505C28.3315 35.6848 28.3295 35.5151 28.2975 35.3415ZM175.415 103.52C174.798 105.315 174.036 106.597 173.183 106.07L173.221 105.275C173.193 105.259 173.169 105.269 173.143 105.257C173.714 101.502 174.08 97.6516 174.128 93.6691C174.132 87.403 173.433 80.8414 171.407 74.3737C169.447 67.9438 166.109 61.5778 161.875 56.2759C159.821 53.7027 157.585 51.3652 155.217 49.2332C160.629 53.0261 165.728 58.1064 167.71 63.616C167.71 63.616 168.478 64.0791 169.221 64.5822C169.934 65.1132 170.644 65.6422 170.644 65.6422C171.447 69.6566 173.371 74.0662 174.733 79.0867C176.102 84.0553 176.729 89.7306 175.058 94.6752C175.258 95.9328 175.435 96.911 175.469 97.6496C175.477 98.3902 175.457 98.8813 175.429 99.1807C175.587 98.7256 176.014 98.0648 177.04 97.985C176.723 98.7156 176.473 99.6479 176.256 100.628C175.994 101.604 175.685 102.618 175.415 103.52ZM92.514 156.482C92.4961 156.606 92.4142 156.74 92.0888 156.888C92.0888 156.888 91.8613 156.852 91.51 156.788C91.3203 156.664 91.1746 156.532 91.0768 156.393C91.5499 156.45 92.029 156.486 92.514 156.482C92.518 156.444 92.4821 156.412 92.4681 156.378C92.5679 156.408 92.6678 156.428 92.7676 156.458C92.6838 156.462 92.5979 156.482 92.514 156.482ZM113.147 151.58C112.345 151.612 111.82 151.659 111.119 151.791C111.187 151.564 111.237 151.398 111.237 151.398C110.821 151.472 110.512 151.554 110.252 151.643L110.284 151.584C110.137 151.594 110.025 151.673 109.923 151.777C109.27 152.101 109.27 152.512 109.252 153.023C109.127 153.238 108.977 153.408 108.763 153.444L108.448 152.634C107.053 152.821 105.617 152.137 104.278 152.969C104.298 152.845 104.33 152.602 104.553 152.566C103.895 152.548 102.042 152.013 102.266 153.169C102.256 152.44 100.84 153.071 100.06 153.346L100.207 152.797C99.5368 153.472 99.4969 153.666 98.5826 153.813C98.377 153.714 98.4349 153.356 98.7044 153.516C98.0276 153.157 98.1054 153.979 97.277 153.586L97.6344 153.27C96.9177 153.143 96.9537 153.338 96.5005 153.704C96.0095 153.879 95.1331 153.392 95.1131 152.861C94.9694 153.147 94.5063 153.478 94.103 153.258C94.101 153.24 94.117 153.234 94.117 153.219C94.4025 152.919 94.634 152.711 95.0073 152.49C95.5223 152.889 96.0035 153.183 97.2751 152.789C97.9677 152.362 98.1693 151.446 100.04 151.783L99.4749 152.592C100.717 152.566 101.024 152.159 101.351 151.909C101.675 151.612 102.018 151.47 103.306 151.418C102.938 151.859 101.465 152.013 101.848 152.051C103.617 152.396 102.924 151.386 104.15 151.118L104.579 151.711C106.733 151.031 108.861 149.787 110.885 148.412C111.053 148.358 111.225 148.276 111.388 148.246C111.376 148.222 111.368 148.2 111.356 148.176C111.935 148.276 112.586 148.386 112.792 148.685C112.806 148.731 111.113 149.052 111.113 149.052C112.125 149.643 113.321 148.585 114.179 148.4L114.173 148.735C114.409 148.639 114.596 148.543 114.782 148.446L115.189 148.479L115.013 148.332C115.684 147.954 116.062 147.579 116.435 147.214C116.606 147.042 116.79 146.867 116.986 146.685C118.142 146.479 117.732 146.671 117.802 146.357C118.018 146.186 118.259 146.166 118.545 146.166H118.509C118.559 146.166 118.601 145.745 118.659 145.721C118.659 145.721 118.764 145.635 118.92 145.775C118.748 145.876 118.597 145.882 118.511 145.984C118.671 145.992 118.882 145.884 119.102 145.795C119.204 145.884 119.313 145.954 119.427 146.048C119.437 146.056 119.447 146.052 119.457 146.06C118.746 146.839 118.012 147.603 117.213 148.344C116.004 149.521 114.642 150.649 113.165 151.697L113.147 151.58ZM80.5467 151.957C80.5467 151.957 80.2812 151.985 79.86 152.031C79.8959 151.907 79.9419 151.783 80.1355 151.683C81.3192 151.761 81.2673 152.564 81.433 153.101C81.2474 153.145 81.0617 153.187 80.8761 153.227C81.0078 152.69 81.6087 152.462 80.5467 151.957ZM56.9693 136.774C56.9693 136.704 57.3326 136.672 57.6121 136.828C56.8994 136.029 56.1169 135.728 55.8434 133.855C55.8434 133.855 56.2946 133.895 56.8295 133.939C57.6859 134.737 58.5383 135.512 59.4386 136.251C59.4167 136.287 59.3807 136.324 59.3588 136.36C59.3927 136.318 59.4187 136.299 59.4486 136.275C59.5644 136.37 59.6742 136.472 59.792 136.566C59.8359 136.802 59.8279 137.119 59.756 137.402C59.4047 137.949 59.6263 138.914 59.4686 139.387C58.5583 138.544 58.9635 137.676 56.9673 136.778L56.9693 136.774ZM91.8473 155.488C91.6477 155.416 91.3922 155.35 91.1207 155.287C91.1047 155.083 91.2145 154.905 91.3802 154.955C91.2584 155.061 91.6297 155.267 91.8473 155.488ZM91.5558 148.446C92.9432 148.495 94.3406 148.513 95.7499 148.455C95.8477 148.45 95.9476 148.436 96.0454 148.428C95.9236 148.487 95.8058 148.545 95.6801 148.605C94.3566 148.737 92.3184 148.366 91.9251 148.941C91.2125 148.647 91.3901 148.527 91.5558 148.446ZM63.6986 139.415C63.7505 139.449 63.7984 139.484 63.8503 139.518C63.7824 139.53 63.7026 139.538 63.6646 139.56C63.6746 139.51 63.6866 139.461 63.6986 139.415ZM95.0553 148.747C95.195 148.725 95.3387 148.715 95.4804 148.701C95.3726 148.751 95.2548 148.801 95.143 148.853C95.1151 148.815 95.0892 148.775 95.0553 148.747ZM119.695 144.14C119.832 144.012 119.972 143.834 120.116 143.533L120.99 143.734C121.365 143.211 121.886 142.11 122.346 140.958L115.904 145.006C115.808 145.036 115.718 145.066 115.628 145.096L121.839 141.077L122.37 140.898C122.531 140.489 122.683 140.077 122.819 139.682C122.901 139.628 122.982 139.572 123.064 139.518C122.984 140.678 122.324 142.213 121.827 143.269C122.509 142.507 123.781 140.361 123.577 139.684C123.497 140.093 123.402 140.63 123.092 140.918C123.132 140.425 123.21 139.902 123.302 139.361C124.278 138.72 125.348 138.079 126.568 137.436C125.136 139.203 123.763 140.964 122.326 142.744C121.958 143.177 121.591 143.615 121.216 144.054C120.727 144.074 120.216 144.096 119.695 144.14ZM65.553 144.627C64.6547 143.964 63.7764 143.235 62.8961 142.521C63.1596 141.834 63.3772 140.794 63.6027 139.816C63.7724 140.235 64.7186 140.952 64.0439 141.353C65.1698 141.145 65.8006 142.706 66.9723 143.026C66.8765 143.04 66.6869 143.07 66.653 142.972C67.0323 143.435 66.9624 143.762 67.1221 144.158C67.713 143.639 68.5034 144.142 69.1842 144.104C69.246 145.134 68.244 144.515 67.9425 145.198C68.3238 144.715 69.3399 145.531 69.4856 144.972C69.6153 145.681 69.7092 145.447 69.5215 146.132C70.2142 145.435 70.0306 146.334 70.7612 146.154C71.0946 147.032 70.348 147.032 71.2503 147.312C71.4179 147.799 70.5596 147.613 70.5596 147.613C71.2982 148.158 71.3421 147.284 71.7493 147.056C72.7454 147.507 71.8352 147.783 71.917 148.304C72.5878 148.541 73.3902 148.28 73.7795 148.591C73.7435 148.713 73.8035 148.801 73.6218 148.867C74.2566 148.785 74.8794 149.324 75.5541 149.607C75.7777 150.017 76.0093 150.416 76.1909 150.875C76.1909 150.875 75.9534 150.943 75.6739 150.933C75.6739 150.933 76.2009 151.039 77.0553 151.164C77.0553 151.214 77.0493 151.242 77.0513 151.308C77.8917 151.923 78.3129 151.831 78.9776 152.129C78.7521 152.154 78.5405 152.178 78.2889 152.208C78.1532 152.212 78.0055 152.216 77.8677 152.218C73.7515 150.126 69.5914 147.631 65.553 144.627ZM51.6833 52.01C51.7651 51.8882 51.845 51.7664 51.9268 51.6446C51.8809 51.7424 51.811 51.8582 51.6833 52.01ZM23.4108 42.1686C23.4287 42.1327 23.4567 42.1087 23.4766 42.0748C23.4547 42.1067 23.4327 42.1366 23.4108 42.1686ZM30.1241 33.7665C30.0043 33.9002 29.8845 34.032 29.7648 34.1677C29.7728 34.1198 29.7787 34.0719 29.7767 34.024C29.8765 33.9182 29.9804 33.8104 30.0822 33.7046C30.1001 33.7205 30.1141 33.7425 30.1241 33.7665ZM20.5082 44.9373C20.638 44.9194 20.7638 44.9193 20.8676 44.9673C20.8217 44.9054 20.7817 44.8235 20.7518 44.7357C21.4804 44.1288 22.0993 43.6318 22.4087 43.5739C21.3926 45.0491 20.4364 46.5443 19.5241 48.0375C19.1828 47.7341 19.8096 46.7679 18.8514 47.5544C19.0191 47.241 18.6458 46.9395 19.2387 46.5163L19.3484 46.9775C19.7976 46.4165 19.608 46.3547 19.5002 45.7897C19.5022 45.7738 19.5201 45.7578 19.5241 45.7418C19.8575 45.4783 20.1888 45.2048 20.5082 44.9373ZM17.458 51.1177C17.5778 51.1157 17.7275 50.9919 17.8952 50.7983C17.7814 50.9999 17.6636 51.2015 17.5519 51.4031C17.5379 51.3133 17.4999 51.2314 17.4301 51.1596C17.4381 51.1456 17.4481 51.1356 17.458 51.1177ZM13.9547 58.1004L14.0625 58.3001C13.9607 58.5256 13.8688 58.7432 13.771 58.9668C13.8289 58.6853 13.8908 58.3979 13.9547 58.1004ZM17.2225 134.967C17.3522 135.219 17.4919 135.466 17.6257 135.716C17.4879 135.656 17.3263 135.642 17.1347 135.732L17.2225 134.967ZM18.2306 136.822C18.4402 137.201 18.6418 137.582 18.8554 137.959C18.4961 137.897 18.3723 137.301 17.991 137.077C18.1228 137.005 18.1866 136.917 18.2306 136.822ZM20.2687 140.62C20.3605 140.818 20.4364 141.034 20.5222 141.235C20.3546 141.105 20.2168 140.944 20.1988 140.672L20.2687 140.62ZM39.4384 22.1125C39.4684 22.1205 39.4864 22.1365 39.5143 22.1465C39.4624 22.2104 39.4065 22.2682 39.3646 22.3381C39.3706 22.2722 39.3925 22.1724 39.4384 22.1125ZM38.2467 23.2583C38.1589 23.4939 38.0651 23.7275 37.9912 23.961L37.9173 24.0309C37.1588 24.0409 37.7217 23.6596 38.2467 23.2583ZM36.9392 23.8053C36.8773 23.953 36.8633 24.0828 36.9372 24.1846C36.9092 24.2106 36.8833 24.2365 36.8554 24.2625C36.538 24.2445 36.4441 24.2645 36.2744 24.1866C36.6158 23.977 36.8753 23.8253 36.9392 23.8053ZM68.6233 185.394C66.7927 185.194 64.9362 185.144 63.8762 185.422C63.5528 185.208 63.1595 184.781 64.0379 184.881C59.3807 183.91 53.4021 183.224 50.1223 181.279L50.5754 181.128C49.715 180.892 48.9385 181.012 48.0362 180.283C48.14 180.195 48.4854 180.162 48.1181 179.974C47.6689 179.842 45.7026 179.533 44.7743 178.746L45.8104 178.936C41.9457 176.377 39.167 176.171 35.8812 173.905C36.1487 173.558 35.5957 172.769 34.8112 171.927C34.0706 171.027 33.1144 170.049 32.4736 169.402L32.6054 169.352C28.7387 165.641 25.6406 163.325 22.3149 159.443C21.7479 157.902 20.3466 155.65 18.8753 153.155C17.4401 150.639 15.9569 147.863 15.1205 145.467C15.2961 146.24 14.4517 145.649 13.9946 144.86C13.6552 143.71 12.0742 142.092 12.9106 141.942L13.0544 142.343C13.4696 141.191 12.2918 139.051 11.7009 137.237L10.605 137.299C10.4652 134.68 9.32339 131.629 8.4191 128.761C8.36121 128.591 8.31735 128.433 8.26345 128.268C8.31336 128.256 8.36122 128.224 8.41112 128.146C8.60276 129.08 9.44718 129.589 9.49708 130.388C10.2636 130.517 9.97018 131.923 10.8046 131.633C9.98815 132.011 10.9024 133.434 11.6171 133.681C11.2777 133.657 11.6451 134.252 11.1979 134.254C11.5672 134.811 12.0363 135.237 12.3696 134.895C12.1141 136.504 14.4138 136.484 13.6253 137.824C15.0326 139.259 16.5058 140.425 17.6996 141.72C16.945 142.215 16.4559 140.225 15.7393 140.844C17.0568 141.972 18.2446 142.259 19.071 143.711C19.2347 144.13 18.6198 143.762 18.4122 143.742C19.6958 144.85 20.4703 146.244 21.7998 147.052C21.7339 147.104 21.5603 147.046 21.4086 146.978C21.6242 147.178 21.7639 147.577 22.0454 147.278L21.7738 147.14C21.8457 146.751 22.3069 146.781 22.768 146.869C22.9377 147.346 23.1113 147.829 23.279 148.298C23.3049 148.362 23.3309 148.422 23.3568 148.485C23.253 148.565 23.1094 148.641 22.8718 148.705C23.0295 148.783 23.2611 148.795 23.4328 148.669C23.4727 148.765 23.5106 148.857 23.5505 148.953C23.4966 149.024 23.3848 149.066 23.1852 149.064C23.4088 149.228 23.5765 149.31 23.7162 149.354C23.9158 149.839 24.1214 150.334 24.313 150.797L25.4589 151.669C25.6006 151.941 25.5028 152.3 25.2453 152.065C25.7024 153.358 25.6006 151.939 26.1096 152.388C26.5029 153.037 26.3272 153.432 25.922 153.111C26.7764 153.987 27.9462 155.241 28.9842 156.58C29.9983 157.94 31.1461 159.201 31.6472 160.399L31.208 160.127C32.2461 161.806 33.4558 161.088 34.2822 162.728L33.9708 162.549C35.3163 164.152 36.8294 165.765 38.4124 167.112C39.179 167.813 39.9096 168.508 40.5623 169.204C41.2391 169.873 41.8718 170.502 42.3669 171.175C43.3451 170.891 45.4451 174.027 46.3873 173.151C48.0622 174.923 47.3236 174.808 50.0205 176.896C50.785 177.389 51.5655 176.924 52.5896 177.361L52.3161 177.912L53.939 178.085C53.939 178.085 54.0288 178.347 54.1187 178.608C54.2145 178.862 54.3103 179.114 54.3103 179.114L55.3264 179.423C54.9651 179.211 54.6517 178.796 54.7894 178.666C56.3744 179.114 58.183 180.756 58.0992 181.064C58.0992 181.064 59.0194 181.385 59.9776 181.597C60.9238 181.83 61.87 182.066 61.87 182.066C61.7003 182.266 61.0675 182.106 60.5285 182.064C62.6845 182.242 60.6404 182.805 62.6166 182.966C62.429 182.743 62.8741 182.675 62.958 182.573C63.6846 183.312 65.7427 183.96 67.3017 184.292L66.8825 184.603C67.8447 184.958 68.8788 185.25 69.9388 185.503C69.5036 185.469 69.0644 185.432 68.6233 185.394ZM184.35 149.857C184.72 148.861 183.51 149.723 184.774 147.958C184.043 148.739 183.3 149.36 183.488 149.567C182.897 149.855 181.755 152.055 180.755 152.446C180.538 152.877 180.727 153.304 179.791 154.083C179.637 154.111 179.665 153.935 179.665 153.935C179.793 154.083 178.402 155.38 179.493 155.011C176.617 156.163 173.183 159.91 170.313 161.263C176.529 156.265 182.264 150.745 187.48 144.95C186.177 146.747 186.339 147.926 184.35 149.857ZM189.103 143.397C188.886 143.549 188.674 143.692 188.522 143.798C189.006 143.251 189.463 142.692 189.938 142.139C189.836 142.411 189.79 142.656 189.876 142.828C189.876 142.828 189.503 143.126 189.103 143.397ZM192.667 139.043C192.555 138.902 192.375 138.953 192.17 139.065L191.102 137.614C194.731 131.897 195.986 130.831 196.97 129.953C196.068 131.977 195.565 134.147 193.701 136.654L194.575 135.636C194.677 136.352 193.299 137.854 192.667 139.043ZM200.248 125.738C199.999 126.659 199.755 127.637 199.114 128.519L198.398 128.146C198.565 127.813 198.723 127.473 198.889 127.138C198.885 127.16 198.883 127.176 198.879 127.198C198.879 127.198 198.901 127.13 198.921 127.072C199.27 126.357 199.629 125.651 199.961 124.924C199.899 125.451 199.835 125.876 199.835 125.876C200.118 125.174 200.304 124.401 200.476 123.718C200.608 123.419 200.733 123.119 200.861 122.818C200.787 123.754 200.795 123.585 201.322 123.161C200.665 123.912 200.458 124.798 200.248 125.738Z" fill="#5F91D6"/>
<path d="M2.35864 123.692L2.49638 123.656L2.29272 123.257L2.35864 123.692Z" fill="#5F91D6"/>
<path d="M206.874 113.565C206.856 113.687 206.842 113.809 206.838 113.919C206.802 114.756 206.858 114.191 206.874 113.565Z" fill="#5F91D6"/>
<path d="M184.175 155.291L184.171 155.281L183.953 155.485L184.175 155.291Z" fill="#5F91D6"/>
<path d="M10.3315 133.979L10.5551 134.792L11.0721 135.619C11.0721 135.619 10.8805 135.211 10.6889 134.804C10.4973 134.398 10.3315 133.979 10.3315 133.979Z" fill="#5F91D6"/>
<path d="M49.3894 28.7836C49.3894 30.1289 49.6874 33.1355 50.439 35.5462C51.285 38.2596 53.4434 40.3587 55.2514 43.0696C56.8485 45.4641 59.6102 46.6879 62.0209 47.2161C64.386 47.7343 67.1313 47.4464 69.6955 46.3945C72.1345 45.394 74.0564 42.9409 76.8419 40.081C79.6703 37.177 80.3857 33.1626 81.8123 29.849C82.1476 29.0701 82.4895 28.4946 82.7174 28.7091C84.9066 30.7682 84.5932 34.9323 85.8008 38.3249C87.7016 43.6649 89.5591 46.2275 91.4416 48.5637C93.2522 50.8106 96.0238 51.9518 98.6625 52.708C102.086 53.6891 106.705 52.5658 110.098 50.9112C112.565 49.7078 114.389 47.4554 116.197 45.3449C118.264 42.9312 118.759 39.9343 118.763 34.3725C118.764 33.1445 118.316 32.5577 118.237 32.6231C116.404 34.1419 119.662 37.65 120.862 40.0607C122.287 42.9209 125.223 44.1237 127.481 45.4081C129.819 46.7386 133.042 47.1394 139.128 47.0694C143.156 47.0231 144.934 43.6903 146.97 41.4331C149.083 39.09 150.206 36.6207 150.963 34.21C151.416 30.7564 151.267 26.6843 150.818 25.2578C150.518 24.5761 150.071 23.9802 149.611 23.3662" stroke="black" stroke-width="4" stroke-linecap="round"/>
<path d="M55.2583 68.0593C56.3057 68.2083 58.7074 68.8087 61.1181 69.8606C63.5305 70.9132 65.9305 71.8154 68.3412 73.3954C70.686 74.9322 73.1536 76.3298 74.5915 78.4336C75.3017 79.4727 75.1219 80.9933 74.8985 82.3453C74.488 84.829 71.2215 85.8102 68.8107 87.3158C66.6266 88.6798 63.9983 89.1238 61.5876 89.7265C60.3867 90.0267 59.1769 90.3292 57.976 90.6294C57.3711 90.7806 56.7752 90.9296 55.2583 91.0831" stroke="black" stroke-width="4" stroke-linecap="round"/>
<path d="M143.742 69.4136C142.695 69.8605 140.293 71.3638 137.507 72.5692C134.908 73.694 132.618 75.4268 130.208 76.6322C127.734 77.8688 125.395 80.0858 123.957 82.4965C123.626 83.0517 123.58 83.6973 123.653 84.3023C123.725 84.9072 124.023 85.5031 124.474 85.9591C126.276 87.779 129.431 87.7694 131.995 88.372C134.414 88.9406 137.106 89.5752 140.794 89.8031C141.629 89.8776 142.225 90.0266 142.83 90.1778C143.435 90.3291 144.031 90.478 145.096 91.083" stroke="black" stroke-width="4" stroke-linecap="round"/>
<path d="M97.6942 93.3403C97.3962 93.3403 96.4979 93.3403 94.9223 93.7873C91.0771 94.878 91.5274 99.0466 91.0737 101.457C90.6202 103.867 92.4213 106.27 94.525 107.782C95.7259 108.383 97.2337 108.689 98.886 108.541C99.6444 108.392 100.24 108.094 101.306 107.787" stroke="black" stroke-width="4" stroke-linecap="round"/>
<path d="M57.064 136.679C57.9623 136.083 60.0616 133.682 61.6484 131.345C63.0862 129.229 66.2283 128.111 69.5419 126.452C72.2693 125.086 75.4107 124.49 78.1194 124.115C82.0072 123.578 84.4397 125.538 87.5253 127.192C89.9447 128.489 92.1143 130.35 94.525 131.26C98.3374 132.698 104.303 131.117 106.789 130.287C109.641 129.333 111.978 127.957 114.314 125.928C116.333 124.175 118.75 122.991 121.535 121.86C125.39 120.296 131.39 121.628 133.801 122.68C136.217 123.734 138.162 125.835 140.198 127.569C142.187 129.262 144.482 131.099 146.744 132.761C147.2 133.212 147.498 133.808 147.949 134.264C148.401 134.72 148.997 135.018 150.513 133.971" stroke="black" stroke-width="4" stroke-linecap="round"/>
<path d="M157.409 94.5623C157.409 95.2341 157.558 96.7357 158.046 98.3139C158.444 99.5996 159.059 100.943 159.661 102.223C160.234 103.442 161.012 104.478 161.952 105.605C163.026 106.894 164.543 107.634 166.682 107.79C168.169 107.898 169.128 106.516 169.957 105.389C170.704 104.372 170.486 102.241 170 100.654C169.583 99.294 168.384 98.4763 167.371 97.6838C166.364 96.8964 165.381 96.2171 164.177 95.6918C163.875 95.5408 163.578 95.392 163.275 95.2409C162.973 95.0898 162.676 94.941 161.918 94.7877" stroke="black" stroke-width="4" stroke-linecap="round"/>
<path d="M46.9331 96.1406C46.41 96.2894 44.1689 98.2284 41.8297 100.605C40.2725 102.187 39.4974 103.797 38.6316 105.342C37.9443 106.568 37.9913 108.009 38.0262 109.4C38.0622 110.832 39.6371 111.842 41.0282 112.747C42.1484 113.476 43.6954 112.527 44.8994 111.738C46.0518 110.983 46.9286 109.749 47.6072 108.358C48.199 107.145 48.4346 105.917 48.7356 104.264C48.8112 103.811 48.8856 103.364 48.9239 102.539C48.9622 101.714 48.9622 100.524 48.9622 99.2971" stroke="black" stroke-width="4" stroke-linecap="round"/>
</svg>
