<svg width="208" height="200" viewBox="0 0 208 200" fill="none" xmlns="http://www.w3.org/2000/svg">
<path d="M175.425 106.98C175.363 107.668 175.272 107.419 175.425 106.98Z" fill="#11CE8F"/>
<path d="M57.4324 144.627C57.642 144.848 57.8436 145.082 58.0532 145.426C57.8476 144.962 57.64 144.753 57.4324 144.627Z" fill="#11CE8F"/>
<path d="M15.0626 139.882C15.0266 139.746 15.0686 139.668 14.9049 139.551C14.8889 139.58 14.8809 139.604 14.877 139.632C14.9788 139.65 15.0566 139.706 15.0626 139.882Z" fill="#11CE8F"/>
<path d="M12.4555 135.141C12.4315 135.186 12.4196 135.234 12.4016 135.28L12.5074 135.418L12.4555 135.141Z" fill="#11CE8F"/>
<path d="M9.39342 138.817C9.49123 138.58 9.51319 138.374 9.49722 138.183C9.44133 138.171 9.38945 138.149 9.31958 138.159L9.39342 138.817Z" fill="#11CE8F"/>
<path d="M7.1875 68.0401L7.31921 68.0942L7.26133 67.908L7.1875 68.0401Z" fill="#11CE8F"/>
<path d="M21.4066 154.774C21.3767 154.746 21.3447 154.72 21.3088 154.702C21.0413 154.566 21.201 154.68 21.4066 154.774Z" fill="#11CE8F"/>
<path d="M11.188 142.054L11.198 142.05L11.1421 141.964L11.188 142.054Z" fill="#11CE8F"/>
<path d="M12.8447 136.164C13.0743 136.358 13.7231 136.077 13.3418 135.761L12.8447 136.164Z" fill="#11CE8F"/>
<path d="M6.75435 121.132C6.99789 120.88 7.05779 120.399 6.71244 120.203C6.73639 120.571 6.61861 120.978 6.75435 121.132Z" fill="#11CE8F"/>
<path d="M10.3833 73.7209L10.2456 73.9722L10.3235 74.3412L10.3833 73.7209Z" fill="#11CE8F"/>
<path d="M52.2443 185.837L52.3082 185.709L51.9888 185.671L52.2443 185.837Z" fill="#11CE8F"/>
<path d="M122.37 148.697C122.362 148.717 122.354 148.737 122.346 148.757L122.523 148.645L122.37 148.697Z" fill="#11CE8F"/>
<path d="M181.404 159.604C181.084 159.846 180.933 159.882 180.587 160.308C180.643 160.295 180.693 160.275 180.755 160.245C180.847 160.053 181.013 159.85 181.404 159.604Z" fill="#11CE8F"/>
<path d="M39.3126 29.8563C38.8775 29.6646 40.8597 28.1887 38.3904 29.8603C38.7856 29.7904 39.0711 29.8104 39.3126 29.8563Z" fill="#11CE8F"/>
<path d="M181.927 165.017C182.536 164.58 183.263 163.939 183.953 163.283C183.953 163.283 183.452 163.725 182.953 164.166C182.44 164.592 181.927 165.017 181.927 165.017Z" fill="#11CE8F"/>
<path d="M175.836 170.055C175.335 170.179 174.864 170.386 174.403 170.634C174.341 170.736 174.259 170.84 174.24 170.935L175.836 170.055Z" fill="#11CE8F"/>
<path d="M206.874 121.366C207.009 120.503 207.333 119.379 206.898 119.421C206.898 119.421 206.904 119.634 206.91 119.85C206.902 120.064 206.896 120.277 206.896 120.277C206.86 120.337 206.828 120.371 206.796 120.405C206.874 120.435 206.882 120.912 206.874 121.366Z" fill="#11CE8F"/>
<path d="M206.792 120.401V120.408L206.794 120.403L206.792 120.401Z" fill="#11CE8F"/>
<path d="M207.155 113.508C207.265 112.667 207.433 112.398 207.714 113.27C207.61 110.142 207.095 111.256 207.051 108.455C207.249 108.457 207.343 109.02 207.584 109.306C207.371 108.597 207.155 107.892 207.007 107.072C206.997 107.03 206.992 106.978 206.982 106.934C207.087 105.886 207.195 104.838 207.259 103.78C207.97 92.0862 205.822 80.57 201.867 70.0359C193.723 49.0596 177.958 31.6186 157.617 22.0727C149.554 18.228 141.008 15.9642 132.47 14.8264C131.404 14.0658 130.396 13.3392 129.466 12.7882C126.955 11.2811 125.282 10.277 125.282 10.277C125.282 10.277 124.044 9.92564 121.833 9.55833C120.731 9.3627 119.391 9.12313 117.856 8.84965C116.319 8.59214 114.564 8.45639 112.664 8.23881C105.052 7.47425 94.7817 7.57807 84.7487 9.59226C74.6997 11.4987 65.034 15.3613 58.3087 19.236C57.105 19.8329 56.071 20.5056 55.0869 21.1464C54.8912 21.1145 54.6297 21.1943 53.6316 21.7173C52.4079 21.8631 54.3702 20.7452 54.3702 20.7452C52.0586 21.6095 53.3841 21.8311 53.1804 22.3681C53.0946 22.422 53.0048 22.4819 52.9209 22.5338C50.5494 23.5958 51.6254 22.4679 50.5574 22.5138C48.9045 23.4999 47.8845 24.7236 46.6009 25.2925C46.4512 25.2287 46.1817 25.3066 46.4033 25.0331C45.4391 26.0372 43.4529 26.9534 41.786 28.0354C41.6723 27.9995 41.5685 27.9276 41.5026 27.7499C41.5026 27.9855 41.4207 28.1791 41.3029 28.3588C40.8219 28.6981 40.3987 29.0594 40.0393 29.4427C39.8776 29.5665 39.7239 29.7002 39.5902 29.8459C39.4764 29.8619 39.3706 29.8739 39.3207 29.8559C39.3486 29.8619 39.3586 29.8779 39.3846 29.8859C38.9254 30.0516 38.62 29.9158 38.2567 29.9857C38.3964 30.2472 38.3785 30.5047 38.3186 30.7582C38.0052 31.0177 37.6918 31.2733 37.3863 31.5547C37.3424 31.2334 37.5001 30.8321 37.1428 30.5446C37.3843 30.86 37.0809 31.2613 36.9412 31.5907C34.6595 31.8821 38.3884 30.7123 36.1367 30.8581C34.6156 31.8662 33.869 32.5788 33.1124 33.2635C32.3718 33.9701 31.5733 34.593 30.184 35.7647C29.8246 36.5952 30.7489 36.0063 30.3936 36.8327C30.3916 36.8367 30.3856 36.8407 30.3856 36.8407C30.3896 36.6171 30.4794 36.4595 29.9724 36.9306C30.0642 36.9485 30.136 36.9944 30.2159 37.0264C29.9624 37.3118 29.7228 37.5613 29.4973 37.7789C29.0641 37.5693 30.156 37.5254 29.082 37.1641C28.028 37.8428 28.2416 38.294 27.2375 39.0146C27.2535 39.1284 27.2894 39.2062 27.3333 39.2661C26.2035 39.7332 25.429 39.7153 24.2412 41.7175C24.1015 42.1527 24.0695 42.546 23.9398 42.9831C23.3329 43.1129 23.5685 43.4083 23.6184 43.7217C23.5585 43.8235 23.4847 43.9313 23.4068 44.0431L22.9157 43.7416C22.6642 44.095 22.4406 44.4942 22.223 44.9035L22.217 44.117C20.8037 45.8058 20.9794 46.2409 20.668 46.9695C20.6061 46.9157 20.5242 46.8857 20.3805 46.9317C20.119 47.4048 19.7796 47.8439 19.4103 48.2651C19.8176 47.5185 20.5322 46.6741 20.2248 46.9416C19.053 47.8139 19.037 48.2192 18.9971 48.7023C18.8773 48.8261 18.7695 48.9578 18.6438 49.0776C18.3523 49.379 18.0509 49.6385 17.7515 49.926L17.7215 49.922C17.7035 49.9479 17.6876 49.9779 17.6696 50.0038C17.3263 50.3312 16.983 50.6825 16.6436 50.978L16.7054 51.5229C16.6316 51.6407 16.5577 51.7525 16.4859 51.8703C16.428 51.8404 16.3681 51.8064 16.3681 51.7306C16.0507 51.9641 16.1804 52.012 16.3541 52.0799C16.2982 52.1697 16.2423 52.2536 16.1865 52.3434C16.1705 52.3714 16.1565 52.4053 16.1385 52.4332C16.1126 52.3913 16.0866 52.3434 16.0866 52.2835C16.0547 52.4332 16.0148 52.5929 15.9688 52.7606C15.5736 53.4852 15.1983 54.2298 14.807 54.9784C14.6274 55.3257 14.4457 55.6811 14.2641 56.0324C14.1523 56.1422 14.0365 56.244 13.9168 56.3259L13.8928 56.0265C13.5674 56.3558 13.6493 56.7171 13.7351 57.0585C13.6273 57.2661 13.5235 57.4717 13.4157 57.6793C13.3019 57.9229 13.1881 58.1684 13.0743 58.4099C12.717 58.9409 12.3836 59.4839 12.0702 60.0349C12.0343 59.8292 11.9385 59.7414 11.5552 60.2006C11.2657 60.8054 10.9803 61.4462 10.6928 62.073C10.4772 62.3225 10.2657 62.58 10.0101 62.7677C10.5092 63.2927 9.40927 64.0652 9.48313 64.6781C9.34938 64.9675 9.20961 65.2549 9.07387 65.5444C8.60675 65.8099 8.36127 65.8758 7.56677 66.848C7.35517 67.1893 7.81629 67.6444 7.86619 68.1295C7.84224 68.1814 7.82027 68.2333 7.79632 68.2852L7.31523 68.0896L7.55678 68.8182C7.52085 68.8981 7.48489 68.9779 7.44895 69.0578L6.80217 69.1256L6.75428 69.6686C6.8541 69.5069 7.1056 69.4131 7.26729 69.463C7.11558 69.8004 6.96389 70.1378 6.81417 70.4731C6.47281 70.8424 6.06358 71.094 5.8919 71.0421L5.66632 73.0083V73.0103C5.45072 72.8866 5.48867 72.5592 5.43677 72.2677C5.64438 73.4375 4.75808 72.2198 4.94971 73.2918C5.12937 73.2219 5.2691 73.4794 5.3789 73.5393C4.87185 73.8547 4.56242 74.8828 4.47259 75.6832L4.11529 75.4057C3.5843 76.7432 3.41257 78.3522 2.92949 79.8793C3.23691 79.4561 3.74 79.6377 3.8478 79.9831C3.83981 80.049 3.83379 80.1029 3.8258 80.1688L3.20497 80.1768C3.47845 80.5321 3.56832 79.9252 3.80387 80.3404C3.79189 80.4343 3.77589 80.542 3.76391 80.6379C3.50839 80.9153 3.06126 80.6419 2.94947 80.3045L3.00734 81.0711C2.80972 81.0651 2.74784 80.8714 2.51828 80.7676C2.84366 81.1569 1.60602 81.8436 2.19291 82.4325L1.99528 82.4285C1.63596 84.0015 1.69583 84.7621 1.44231 86.0436C1.98728 86.1754 1.75375 86.6505 2.11706 87.1096C1.80365 88.0179 1.22475 89.002 1.11097 90.1559C1.27466 90.9983 1.54811 90.4573 1.82958 90.8605C1.31455 90.8485 1.20279 91.9964 0.921324 91.3596C0.847464 92.747 0.703722 93.1243 1.0311 94.9069C1.24869 94.7352 1.35049 94.5316 1.52017 94.6574C1.58604 94.9787 1.26867 95.356 1.02513 95.2921L0.977188 95.2043C1.65391 97.1865 -0.783456 99.6738 0.266557 101.281L0.210633 101.193L0.821477 102.814C0.759594 103.561 0.422234 102.373 0.124797 102.93C1.03907 104.66 0.098854 105.716 0.71968 107.13C-0.482047 108.136 0.599923 110.064 0.661806 111.629C0.649828 111.817 0.641847 112.013 0.627873 112.196C0.59793 112.366 0.569964 112.536 0.496104 112.689L0.58194 112.655C0.536027 113.154 0.48813 113.653 0.420258 114.115C1.34451 114.939 0.458208 120.183 1.73978 120.449C1.64796 123.952 1.14492 123.014 1.61203 127.928C1.79169 129.236 2.67798 129.727 3.08721 131.29L2.49233 131.454L3.60625 133.464L3.14709 134.773C3.14709 134.773 3.2689 135.137 3.39266 135.5C3.52841 135.859 3.66211 136.219 3.66211 136.219C3.53236 135.624 3.62223 134.901 3.81386 134.949C4.65028 137.177 4.87387 140.652 4.62434 140.798C4.62434 140.798 5.16532 142.108 5.70829 143.417C6.26124 144.719 6.87606 145.994 6.87606 145.994C6.60058 145.96 6.2053 145.098 5.80406 144.443C7.40503 147.078 5.37687 145.176 6.84609 147.591C6.85408 147.194 7.25735 147.651 7.39309 147.667C7.55478 149.072 8.66667 152.021 9.81849 154.049L9.24755 153.817C10.8445 157.722 13.3279 161.714 15.877 165.695C15.1265 164.158 15.9668 164.106 16.7653 165.22L16.5178 166.036C17.3343 166.563 15.9469 164.693 17.3442 165.958C18.2246 167.47 17.3702 167.366 16.6436 166.627C16.6436 166.627 16.9809 167.046 17.3203 167.466C17.6796 167.869 18.0389 168.274 18.0389 168.274C17.9531 168.488 17.5758 168.136 17.2964 168.17C18.1547 168.635 18.8993 171.622 20.3087 172.165L20.2328 172.38C21.694 174.265 22.8858 175.528 24.0336 176.68C25.1355 177.872 26.2993 178.85 27.6867 180.209C28.1099 179.872 29.1399 180.988 30.3177 181.385C31.3118 182.391 32.3499 183.477 33.5476 184.503C34.1365 185.026 34.7374 185.569 35.3821 186.082C36.0489 186.568 36.7416 187.049 37.4662 187.512C39.6301 188.6 38.3046 187.504 39.3865 187.801C39.2687 188.32 42.2831 189.947 40.5503 189.402C42.3789 190.356 43.5087 191.033 44.8781 191.532C45.5529 191.794 46.2616 192.069 47.102 192.396C47.9384 192.734 48.9265 193.071 50.1842 193.393C49.733 193.003 49.18 192.702 49.5493 192.652C50.4516 192.896 51.4617 193.584 51.2541 193.77L51.0046 193.734C52.4279 194.065 53.8831 194.602 55.4022 195.085C56.9114 195.596 58.4226 196.281 59.9577 196.736C62.9939 197.814 66.0042 198.535 68.3558 198.345L68.0922 198.359C68.0922 198.359 68.3917 198.367 68.8428 198.379C69.294 198.369 69.8948 198.355 70.4957 198.343C71.6914 198.315 72.8892 198.287 72.8892 198.287C75.0611 198.579 71.5497 198.549 73.1407 199.014C75.7398 198.772 77.7519 198.846 79.6643 198.974C81.5707 199.01 83.3813 199.152 85.4733 198.774C88.835 200.228 96.9936 197.842 101.439 198.098L101.136 197.786C102.202 197.261 102.519 197.768 103.362 197.714C103.2 197.461 102.096 197.597 102.761 197.293C112.159 195.381 122.234 193.882 131.756 191.38C135.225 190.398 133.167 189.059 137.719 188.452L136.704 189.48C143.336 186.488 150.74 184.505 156.886 180.762C156.569 181.084 156.645 181.267 156.016 181.569C157.597 181.373 161.036 179.106 160.863 178.738C161.871 178.265 161.258 178.934 161.959 178.79C163.426 178.295 164.999 176.425 165.917 176.405C166.075 176.401 165.628 176.758 165.408 176.932C166.149 176.235 169.403 174.608 168.297 174.624C170.722 173.418 172.471 171.62 174.403 170.638C175.178 169.33 178.282 168.102 178.068 167.112C178.497 167.967 182.2 164.667 183.125 163.158C182.893 163.751 184.4 162.349 184.171 163.082C185.612 161.754 186.714 160.317 186.153 160.245C189.507 158.441 190.347 154.354 192.691 153.674C195.914 148.793 198.492 144.066 200.594 139.309C201.384 139.918 197.979 144.433 198.885 144.699C201.057 140.169 201.562 137.267 203.5 132.777C204.053 131.623 203.62 133.588 203.612 134.053C205.043 129.3 206.636 124.872 206.792 120.407C206.145 121.081 206.053 116.706 205.742 116.552C206.245 117.322 206.45 116.268 206.63 115.306C206.776 114.348 206.96 113.48 207.656 114.689C207.6 114.111 207.433 113.386 207.155 113.508ZM15.7333 140.686C15.8311 140.379 14.7372 140.111 14.8769 139.634C14.6454 139.592 14.2641 139.762 14.0705 139.397C14.1144 139.319 14.2381 139.301 14.2381 139.301C14.0585 139.405 13.6832 138.878 13.4815 139.411C14.0245 137.802 11.9245 136.644 12.4016 135.283C11.9125 134.64 11.3516 133.843 10.9883 133.214C11.116 133.204 11.1659 133.133 11.1939 133.27C11.116 132.208 9.9223 133.184 9.84445 131.961C10.1998 131.162 10.3934 132.378 10.4733 131.945C11.5971 131.27 9.77856 130.753 10.1778 129.751L10.3196 129.891C10.5012 129.19 9.31545 128.773 9.028 127.859C9.028 127.859 9.15373 127.861 9.21362 127.793C8.30734 127.445 7.72447 126.333 7.27332 125.509C7.84025 125.619 7.65459 125.82 8.08977 125.485C7.89414 125.116 7.34518 125.872 6.95392 125.13C7.13358 124.782 7.18347 124.14 7.68252 123.898L7.94801 124.625C8.50296 124.026 7.62063 123.682 7.61265 123.255L7.92608 123.211C7.46894 122.121 6.71234 122.327 6.37299 121.093L6.18535 121.283C6.1095 121.247 6.06759 121.215 6.01569 121.181C5.99174 120.962 5.96776 120.744 5.94381 120.512C5.96576 120.439 5.96776 120.363 5.91785 120.275C5.90787 120.179 5.89591 120.079 5.88593 119.981L6.44286 119.668C6.30113 119.468 6.02766 119.119 5.74819 118.724C5.72224 118.492 5.69828 118.265 5.67034 118.015C6.03964 118.404 6.361 118.874 6.66443 119.195C6.5726 118.752 6.27319 117.71 5.84201 117.562C5.95579 117.724 6.19533 117.905 6.11548 118.109C5.91785 117.999 5.7901 117.824 5.63439 117.678C5.60046 117.37 5.56851 117.069 5.53059 116.73L5.99571 117.536C5.95579 116.718 5.70226 116.131 5.39285 115.61C5.54256 114.857 4.89779 113.518 5.7382 112.901C4.97964 111.404 5.5805 109.741 5.25712 107.93C5.10141 108.036 4.9956 108.094 4.91176 108.13C4.92773 107.82 4.95371 107.509 4.97567 107.2C5.04354 107.15 5.10541 107.078 5.15532 106.948C5.09344 107.032 5.03553 107.074 4.98164 107.094C5.00958 106.689 5.02753 106.283 5.06546 105.88C5.0994 105.916 5.13334 105.952 5.18724 105.94C5.24912 104.994 5.69027 105.517 5.9937 104.884C5.56252 105.032 5.35691 104.587 5.50463 104.046L5.11938 104.603C5.13535 104.243 5.15131 103.884 5.16129 103.525C5.38886 103.251 5.58446 102.956 5.26108 102.349L5.66035 102.76C5.44076 102.227 5.50266 101.005 5.10342 100.165C5.09144 99.9853 5.0994 99.8076 5.08343 99.6299C5.20121 99.7058 5.43475 99.8436 5.41679 100.502C5.53257 99.5541 5.75619 97.7176 5.93985 96.2064C6.13747 94.6993 6.14345 93.4935 5.52462 93.759C5.9019 93.785 6.05759 92.749 6.11548 91.4235C6.19133 90.4673 6.24526 89.3654 6.28319 88.4032C6.42692 88.1517 6.5427 87.8922 6.64451 87.6806L6.80217 87.8263C6.7862 87.7345 6.77025 87.6626 6.75428 87.5788L6.82014 87.6027C7.30322 85.9279 6.86209 84.5465 6.85011 82.8996C7.03177 82.6999 7.18149 82.9195 6.91999 83.5124C7.1775 82.8876 7.24333 82.4964 7.2573 82.163C8.01587 81.079 8.35925 79.0349 9.21563 77.7673C8.98607 77.9689 8.57681 77.5198 8.5828 77.1984C8.87025 76.869 8.33726 75.9368 9.08185 76.2562L9.02398 76.3879C9.87836 76.356 9.87236 75.4896 10.1498 74.9047L9.20765 74.4516C9.21164 74.4456 9.21365 74.4396 9.21764 74.4336C11.2518 73.3956 10.3395 70.0998 11.9445 69.7685C11.8447 69.2814 12.0462 68.8182 11.9983 68.3511L12.5034 68.6046C12.747 68.2393 12.9366 67.9439 13.1143 67.6444C13.2201 67.5945 13.3019 67.6225 13.3598 67.7382C13.256 67.9858 13.1382 68.2453 13.0404 68.4868C11.7368 71.3075 10.9963 73.8028 10.3615 75.5096C10.062 76.3699 9.82644 77.0467 9.66674 77.5078C9.533 77.9789 9.46114 78.2284 9.46114 78.2284C9.46114 78.2284 9.32544 78.8493 9.07192 80.0131C8.83637 81.1809 8.41911 82.8756 8.04183 85.0695C7.40503 89.4771 6.45683 95.8152 6.79419 103.565C7.03573 111.284 8.41112 120.391 11.5172 129.462C12.9845 133.811 14.843 138.151 17.0268 142.381C16.4998 141.774 15.5277 142.106 15.1105 141.231C15.6515 141.283 15.6235 140.718 16.2743 141.171C16.0827 140.86 15.9688 140.547 15.7333 140.686ZM13.6413 64.171C13.7451 64.191 13.8369 64.165 13.9247 64.1171L14.0405 64.1431C13.9187 64.3986 13.797 64.6521 13.6812 64.8957C13.5854 64.74 13.5115 64.5862 13.4656 64.4385C13.5255 64.3507 13.5734 64.2608 13.6413 64.171ZM16.2583 60.8832C16.2902 60.8034 16.3182 60.7235 16.3441 60.6417C16.4419 60.7295 16.5657 60.8593 16.4959 61.0369C16.5478 60.9551 16.6276 60.8533 16.7154 60.7435C15.7792 62.4922 14.9328 64.195 14.1962 65.8179C14.1623 65.7101 14.1144 65.6003 14.0505 65.4885C14.0864 65.3368 14.1184 65.1891 14.1543 65.0374C14.282 64.5643 14.4417 64.1012 14.6154 63.65C15.2163 62.7517 16.1086 62.0231 16.2583 60.8832ZM25.6505 46.7639C25.7124 46.6741 25.7703 46.5943 25.8322 46.5064C25.8921 46.4965 25.944 46.4925 25.9999 46.4845C25.7563 46.7939 25.5248 47.1153 25.2852 47.4287C25.2613 47.4227 25.2194 47.4227 25.1874 47.4207C25.3431 47.2011 25.5028 46.9835 25.6505 46.7639ZM35.6137 32.9581C35.472 32.9681 35.3642 32.9561 35.2703 32.9381C35.3881 32.8004 35.3462 32.7585 35.0408 32.8643C35.0089 32.8483 34.9769 32.8343 34.9509 32.8204C35.2384 32.6367 35.6656 32.3652 36.0629 32.1176C36.1527 32.5149 35.6157 32.3433 35.6137 32.9581ZM18.8374 55.3817C18.8554 55.4156 18.6997 55.731 18.3983 56.262C18.3623 56.3358 18.3184 56.4157 18.2825 56.4896C18.2785 56.4756 18.2765 56.4616 18.2745 56.4477C18.3104 56.3858 18.3484 56.3199 18.3823 56.262C18.4282 56.1622 18.4402 56.0983 18.5081 55.9765C18.4102 56.0623 18.3204 56.1462 18.2326 56.234C18.2106 55.9885 18.2605 55.749 18.4322 55.3357C18.6139 55.206 18.9053 55.4375 18.6278 55.5833C18.7356 55.5134 18.7955 55.4476 18.8374 55.3817ZM17.7176 58.4638C17.8633 58.1943 18.025 57.8949 18.2346 57.5096C18.2306 57.4797 18.2246 57.4298 18.2226 57.3978C18.2765 57.5136 18.3204 57.6354 18.3104 57.7951C17.993 58.4698 17.7675 58.6255 17.6158 58.6555C17.6517 58.5996 17.6856 58.5377 17.7176 58.4638ZM17.991 57.2441C18.017 57.0824 18.0409 56.9267 18.0669 56.797L18.1408 56.8708C18.1028 56.9906 18.0669 57.1124 17.991 57.2441ZM28.2975 43.1408C28.3853 42.9272 28.557 42.9632 28.7227 43.025C28.6728 43.1069 28.6269 43.1847 28.6049 43.2546C28.6488 43.1847 28.7127 43.1089 28.7626 43.039C28.7826 43.047 28.8025 43.051 28.8205 43.059C28.6508 43.2566 28.4812 43.4502 28.3115 43.6498C28.3315 43.4842 28.3295 43.3145 28.2975 43.1408ZM175.415 111.32C174.798 113.114 174.036 114.396 173.183 113.869L173.221 113.075C173.193 113.059 173.169 113.069 173.143 113.057C173.714 109.302 174.08 105.451 174.128 101.468C174.132 95.2023 173.433 88.6407 171.407 82.173C169.447 75.7431 166.109 69.3772 161.875 64.0752C159.821 61.5021 157.585 59.1645 155.217 57.0325C160.629 60.8254 165.728 65.9057 167.71 71.4153C167.71 71.4153 168.478 71.8785 169.221 72.3815C169.934 72.9125 170.644 73.4415 170.644 73.4415C171.447 77.4559 173.371 81.8655 174.733 86.886C176.102 91.8546 176.729 97.5299 175.058 102.475C175.258 103.732 175.435 104.71 175.469 105.449C175.477 106.19 175.457 106.681 175.429 106.98C175.587 106.525 176.014 105.864 177.04 105.784C176.723 106.515 176.473 107.447 176.256 108.427C175.994 109.403 175.685 110.418 175.415 111.32ZM92.514 164.282C92.4961 164.405 92.4142 164.539 92.0888 164.687C92.0888 164.687 91.8613 164.651 91.51 164.587C91.3203 164.463 91.1746 164.332 91.0768 164.192C91.5499 164.25 92.029 164.286 92.514 164.282C92.518 164.244 92.4821 164.212 92.4681 164.178C92.5679 164.208 92.6678 164.228 92.7676 164.258C92.6838 164.262 92.5979 164.282 92.514 164.282ZM113.147 159.379C112.345 159.411 111.82 159.459 111.119 159.59C111.187 159.363 111.237 159.197 111.237 159.197C110.821 159.271 110.512 159.353 110.252 159.443L110.284 159.383C110.137 159.393 110.025 159.473 109.923 159.577C109.27 159.9 109.27 160.311 109.252 160.822C109.127 161.038 108.977 161.207 108.763 161.243L108.448 160.433C107.053 160.621 105.617 159.936 104.278 160.768C104.298 160.645 104.33 160.401 104.553 160.365C103.895 160.347 102.042 159.812 102.266 160.968C102.256 160.239 100.84 160.87 100.06 161.146L100.207 160.597C99.5368 161.271 99.4969 161.465 98.5826 161.613C98.377 161.513 98.4349 161.156 98.7044 161.315C98.0276 160.956 98.1054 161.778 97.277 161.385L97.6344 161.07C96.9177 160.942 96.9537 161.138 96.5005 161.503C96.0095 161.679 95.1331 161.191 95.1131 160.66C94.9694 160.946 94.5063 161.277 94.103 161.058C94.101 161.04 94.117 161.034 94.117 161.018C94.4025 160.718 94.634 160.511 95.0073 160.289C95.5223 160.688 96.0035 160.982 97.2751 160.589C97.9677 160.161 98.1693 159.245 100.04 159.583L99.4749 160.391C100.717 160.365 101.024 159.958 101.351 159.708C101.675 159.411 102.018 159.269 103.306 159.217C102.938 159.658 101.465 159.812 101.848 159.85C103.617 160.195 102.924 159.185 104.15 158.918L104.579 159.511C106.733 158.83 108.861 157.586 110.885 156.211C111.053 156.157 111.225 156.075 111.388 156.045C111.376 156.021 111.368 155.999 111.356 155.975C111.935 156.075 112.586 156.185 112.792 156.484C112.806 156.53 111.113 156.852 111.113 156.852C112.125 157.443 113.321 156.385 114.179 156.199L114.173 156.534C114.409 156.438 114.596 156.343 114.782 156.245L115.189 156.279L115.013 156.131C115.684 155.754 116.062 155.378 116.435 155.013C116.606 154.841 116.79 154.666 116.986 154.484C118.142 154.279 117.732 154.47 117.802 154.157C118.018 153.985 118.259 153.965 118.545 153.965H118.509C118.559 153.965 118.601 153.544 118.659 153.52C118.659 153.52 118.764 153.434 118.92 153.574C118.748 153.676 118.597 153.682 118.511 153.783C118.671 153.791 118.882 153.684 119.102 153.594C119.204 153.684 119.313 153.754 119.427 153.847C119.437 153.855 119.447 153.851 119.457 153.859C118.746 154.638 118.012 155.402 117.213 156.143C116.004 157.321 114.642 158.449 113.165 159.497L113.147 159.379ZM80.5467 159.756C80.5467 159.756 80.2812 159.784 79.86 159.83C79.8959 159.706 79.9419 159.583 80.1355 159.483C81.3192 159.561 81.2673 160.363 81.433 160.9C81.2474 160.944 81.0617 160.986 80.8761 161.026C81.0078 160.489 81.6087 160.261 80.5467 159.756ZM56.9693 144.573C56.9693 144.503 57.3326 144.471 57.6121 144.627C56.8994 143.828 56.1169 143.527 55.8434 141.654C55.8434 141.654 56.2946 141.694 56.8295 141.738C57.6859 142.537 58.5383 143.311 59.4386 144.05C59.4167 144.086 59.3807 144.124 59.3588 144.16C59.3927 144.118 59.4187 144.098 59.4486 144.074C59.5644 144.17 59.6742 144.271 59.792 144.365C59.8359 144.601 59.8279 144.918 59.756 145.202C59.4047 145.749 59.6263 146.713 59.4686 147.186C58.5583 146.344 58.9635 145.475 56.9673 144.577L56.9693 144.573ZM91.8473 163.288C91.6477 163.216 91.3922 163.15 91.1207 163.086C91.1047 162.882 91.2145 162.705 91.3802 162.755C91.2584 162.86 91.6297 163.066 91.8473 163.288ZM91.5558 156.245C92.9432 156.295 94.3406 156.313 95.7499 156.255C95.8477 156.249 95.9476 156.235 96.0454 156.227C95.9236 156.287 95.8058 156.345 95.6801 156.405C94.3566 156.536 92.3184 156.165 91.9251 156.74C91.2125 156.446 91.3901 156.327 91.5558 156.245ZM63.6986 147.214C63.7505 147.248 63.7984 147.284 63.8503 147.318C63.7824 147.33 63.7026 147.338 63.6646 147.36C63.6746 147.31 63.6866 147.26 63.6986 147.214ZM95.0553 156.546C95.195 156.524 95.3387 156.514 95.4804 156.5C95.3726 156.55 95.2548 156.6 95.143 156.652C95.1151 156.614 95.0892 156.574 95.0553 156.546ZM119.695 151.939C119.832 151.811 119.972 151.634 120.116 151.332L120.99 151.534C121.365 151.011 121.886 149.909 122.346 148.757L115.904 152.805C115.808 152.835 115.718 152.865 115.628 152.895L121.839 148.877L122.37 148.697C122.531 148.288 122.683 147.877 122.819 147.481C122.901 147.428 122.982 147.372 123.064 147.318C122.984 148.478 122.324 150.013 121.827 151.069C122.509 150.306 123.781 148.16 123.577 147.483C123.497 147.893 123.402 148.43 123.092 148.717C123.132 148.224 123.21 147.701 123.302 147.16C124.278 146.519 125.348 145.878 126.568 145.236C125.136 147.002 123.763 148.763 122.326 150.544C121.958 150.977 121.591 151.414 121.216 151.853C120.727 151.873 120.216 151.895 119.695 151.939ZM65.553 152.426C64.6547 151.763 63.7764 151.035 62.8961 150.32C63.1596 149.633 63.3772 148.593 63.6027 147.615C63.7724 148.034 64.7186 148.751 64.0439 149.152C65.1698 148.945 65.8006 150.506 66.9723 150.825C66.8765 150.839 66.6869 150.869 66.653 150.771C67.0323 151.234 66.9624 151.562 67.1221 151.957C67.713 151.438 68.5034 151.941 69.1842 151.903C69.246 152.933 68.244 152.314 67.9425 152.997C68.3238 152.514 69.3399 153.33 69.4856 152.771C69.6153 153.48 69.7092 153.247 69.5215 153.931C70.2142 153.235 70.0306 154.133 70.7612 153.953C71.0946 154.832 70.348 154.832 71.2503 155.111C71.4179 155.598 70.5596 155.412 70.5596 155.412C71.2982 155.957 71.3421 155.083 71.7493 154.855C72.7454 155.307 71.8352 155.582 71.917 156.103C72.5878 156.341 73.3902 156.079 73.7795 156.391C73.7435 156.512 73.8035 156.6 73.6218 156.666C74.2566 156.584 74.8794 157.123 75.5541 157.407C75.7777 157.816 76.0093 158.215 76.1909 158.674C76.1909 158.674 75.9534 158.742 75.6739 158.732C75.6739 158.732 76.2009 158.838 77.0553 158.964C77.0553 159.014 77.0493 159.042 77.0513 159.107C77.8917 159.722 78.3129 159.63 78.9776 159.928C78.7521 159.954 78.5405 159.978 78.2889 160.008C78.1532 160.012 78.0055 160.016 77.8677 160.018C73.7515 157.926 69.5914 155.43 65.553 152.426ZM51.6833 59.8093C51.7651 59.6875 51.845 59.5657 51.9268 59.4439C51.8809 59.5418 51.811 59.6576 51.6833 59.8093ZM23.4108 49.9679C23.4287 49.932 23.4567 49.908 23.4766 49.8741C23.4547 49.906 23.4327 49.936 23.4108 49.9679ZM30.1241 41.5658C30.0043 41.6995 29.8845 41.8313 29.7648 41.9671C29.7728 41.9191 29.7787 41.8712 29.7767 41.8233C29.8765 41.7175 29.9804 41.6097 30.0822 41.5039C30.1001 41.5198 30.1141 41.5418 30.1241 41.5658ZM20.5082 52.7367C20.638 52.7187 20.7638 52.7187 20.8676 52.7666C20.8217 52.7047 20.7817 52.6228 20.7518 52.535C21.4804 51.9282 22.0993 51.4311 22.4087 51.3732C21.3926 52.8484 20.4364 54.3436 19.5241 55.8368C19.1828 55.5334 19.8096 54.5672 18.8514 55.3537C19.0191 55.0403 18.6458 54.7388 19.2387 54.3156L19.3484 54.7768C19.7976 54.2159 19.608 54.154 19.5002 53.589C19.5022 53.5731 19.5201 53.5571 19.5241 53.5411C19.8575 53.2776 20.1888 53.0041 20.5082 52.7367ZM17.458 58.917C17.5778 58.915 17.7275 58.7912 17.8952 58.5976C17.7814 58.7992 17.6636 59.0008 17.5519 59.2025C17.5379 59.1126 17.4999 59.0308 17.4301 58.9589C17.4381 58.9449 17.4481 58.9349 17.458 58.917ZM13.9547 65.8997L14.0625 66.0994C13.9607 66.3249 13.8688 66.5425 13.771 66.7661C13.8289 66.4846 13.8908 66.1972 13.9547 65.8997ZM17.2225 142.766C17.3522 143.018 17.4919 143.265 17.6257 143.515C17.4879 143.455 17.3263 143.441 17.1347 143.531L17.2225 142.766ZM18.2306 144.621C18.4402 145 18.6418 145.381 18.8554 145.759C18.4961 145.697 18.3723 145.1 17.991 144.876C18.1228 144.805 18.1866 144.717 18.2306 144.621ZM20.2687 148.42C20.3605 148.617 20.4364 148.833 20.5222 149.034C20.3546 148.905 20.2168 148.743 20.1988 148.472L20.2687 148.42ZM39.4384 29.9119C39.4684 29.9198 39.4864 29.9358 39.5143 29.9458C39.4624 30.0097 39.4065 30.0675 39.3646 30.1374C39.3706 30.0715 39.3925 29.9717 39.4384 29.9119ZM38.2467 31.0576C38.1589 31.2932 38.0651 31.5268 37.9912 31.7603L37.9173 31.8302C37.1588 31.8402 37.7217 31.4589 38.2467 31.0576ZM36.9392 31.6046C36.8773 31.7524 36.8633 31.8821 36.9372 31.9839C36.9092 32.0099 36.8833 32.0358 36.8554 32.0618C36.538 32.0438 36.4441 32.0638 36.2744 31.9859C36.6158 31.7763 36.8753 31.6246 36.9392 31.6046ZM68.6233 193.193C66.7927 192.993 64.9362 192.943 63.8762 193.221C63.5528 193.007 63.1595 192.58 64.0379 192.68C59.3807 191.71 53.4021 191.023 50.1223 189.079L50.5754 188.927C49.715 188.691 48.9385 188.811 48.0362 188.083C48.14 187.995 48.4854 187.961 48.1181 187.773C47.6689 187.641 45.7026 187.332 44.7743 186.546L45.8104 186.735C41.9457 184.176 39.167 183.97 35.8812 181.705C36.1487 181.357 35.5957 180.569 34.8112 179.726C34.0706 178.826 33.1144 177.848 32.4736 177.201L32.6054 177.151C28.7387 173.44 25.6406 171.125 22.3149 167.242C21.7479 165.701 20.3466 163.449 18.8753 160.954C17.4401 158.439 15.9569 155.662 15.1205 153.266C15.2961 154.039 14.4517 153.448 13.9946 152.66C13.6552 151.51 12.0742 149.891 12.9106 149.741L13.0544 150.142C13.4696 148.991 12.2918 146.851 11.7009 145.036L10.605 145.098C10.4652 142.479 9.32339 139.429 8.4191 136.56C8.36121 136.39 8.31735 136.233 8.26345 136.067C8.31336 136.055 8.36122 136.023 8.41112 135.945C8.60276 136.879 9.44718 137.389 9.49708 138.187C10.2636 138.317 9.97018 139.722 10.8046 139.433C9.98815 139.81 10.9024 141.233 11.6171 141.481C11.2777 141.457 11.6451 142.052 11.1979 142.054C11.5672 142.611 12.0363 143.036 12.3696 142.694C12.1141 144.303 14.4138 144.283 13.6253 145.623C15.0326 147.058 16.5058 148.224 17.6996 149.52C16.945 150.015 16.4559 148.024 15.7393 148.643C17.0568 149.771 18.2446 150.059 19.071 151.51C19.2347 151.929 18.6198 151.562 18.4122 151.542C19.6958 152.65 20.4703 154.043 21.7998 154.851C21.7339 154.903 21.5603 154.845 21.4086 154.778C21.6242 154.977 21.7639 155.376 22.0454 155.077L21.7738 154.939C21.8457 154.55 22.3069 154.58 22.768 154.668C22.9377 155.145 23.1113 155.628 23.279 156.097C23.3049 156.161 23.3309 156.221 23.3568 156.285C23.253 156.365 23.1094 156.44 22.8718 156.504C23.0295 156.582 23.2611 156.594 23.4328 156.468C23.4727 156.564 23.5106 156.656 23.5505 156.752C23.4966 156.824 23.3848 156.866 23.1852 156.864C23.4088 157.027 23.5765 157.109 23.7162 157.153C23.9158 157.638 24.1214 158.133 24.313 158.596L25.4589 159.469C25.6006 159.74 25.5028 160.1 25.2453 159.864C25.7024 161.158 25.6006 159.738 26.1096 160.187C26.5029 160.836 26.3272 161.231 25.922 160.91C26.7764 161.786 27.9462 163.04 28.9842 164.379C29.9983 165.739 31.1461 167 31.6472 168.198L31.208 167.927C32.2461 169.606 33.4558 168.887 34.2822 170.528L33.9708 170.348C35.3163 171.951 36.8294 173.564 38.4124 174.912C39.179 175.612 39.9096 176.307 40.5623 177.004C41.2391 177.672 41.8718 178.301 42.3669 178.974C43.3451 178.69 45.4451 181.826 46.3873 180.95C48.0622 182.723 47.3236 182.607 50.0205 184.695C50.785 185.188 51.5655 184.723 52.5896 185.16L52.3161 185.711L53.939 185.885C53.939 185.885 54.0288 186.146 54.1187 186.408C54.2145 186.661 54.3103 186.913 54.3103 186.913L55.3264 187.222C54.9651 187.011 54.6517 186.595 54.7894 186.466C56.3744 186.913 58.183 188.556 58.0992 188.863C58.0992 188.863 59.0194 189.184 59.9776 189.396C60.9238 189.63 61.87 189.865 61.87 189.865C61.7003 190.065 61.0675 189.905 60.5285 189.863C62.6845 190.041 60.6404 190.604 62.6166 190.766C62.429 190.542 62.8741 190.474 62.958 190.372C63.6846 191.111 65.7427 191.76 67.3017 192.091L66.8825 192.402C67.8447 192.758 68.8788 193.049 69.9388 193.303C69.5036 193.269 69.0644 193.231 68.6233 193.193ZM184.35 157.656C184.72 156.66 183.51 157.522 184.774 155.758C184.043 156.538 183.3 157.159 183.488 157.367C182.897 157.654 181.755 159.854 180.755 160.245C180.538 160.676 180.727 161.104 179.791 161.882C179.637 161.91 179.665 161.734 179.665 161.734C179.793 161.882 178.402 163.18 179.493 162.81C176.617 163.962 173.183 167.709 170.313 169.063C176.529 164.064 182.264 158.545 187.48 152.749C186.177 154.546 186.339 155.726 184.35 157.656ZM189.103 151.196C188.886 151.348 188.674 151.492 188.522 151.598C189.006 151.051 189.463 150.492 189.938 149.939C189.836 150.21 189.79 150.456 189.876 150.627C189.876 150.627 189.503 150.925 189.103 151.196ZM192.667 146.843C192.555 146.701 192.375 146.753 192.17 146.865L191.102 145.413C194.731 139.696 195.986 138.63 196.97 137.752C196.068 139.776 195.565 141.946 193.701 144.453L194.575 143.435C194.677 144.152 193.299 145.653 192.667 146.843ZM200.248 133.538C199.999 134.458 199.755 135.436 199.114 136.319L198.398 135.945C198.565 135.612 198.723 135.273 198.889 134.937C198.885 134.959 198.883 134.975 198.879 134.997C198.879 134.997 198.901 134.929 198.921 134.871C199.27 134.157 199.629 133.45 199.961 132.723C199.899 133.25 199.835 133.676 199.835 133.676C200.118 132.973 200.304 132.2 200.476 131.518C200.608 131.218 200.733 130.919 200.861 130.617C200.787 131.554 200.795 131.384 201.322 130.961C200.665 131.711 200.458 132.598 200.248 133.538Z" fill="#11CE8F"/>
<path d="M2.35864 131.491L2.49638 131.455L2.29272 131.056L2.35864 131.491Z" fill="#11CE8F"/>
<path d="M206.874 121.365C206.856 121.487 206.842 121.608 206.838 121.718C206.802 122.555 206.858 121.99 206.874 121.365Z" fill="#11CE8F"/>
<path d="M184.175 163.09L184.171 163.08L183.953 163.284L184.175 163.09Z" fill="#11CE8F"/>
<path d="M10.3315 141.778L10.5551 142.591L11.0721 143.418C11.0721 143.418 10.8805 143.011 10.6889 142.603C10.4973 142.198 10.3315 141.778 10.3315 141.778Z" fill="#11CE8F"/>
<path d="M62.4745 20.5968C62.06 19.7759 62.3336 17.0149 63.0238 14.8012C63.8007 12.3094 65.5091 10.3819 67.2337 8.23654C69.3887 5.55572 72.963 5.39887 75.867 4.91382C77.6328 4.61889 79.1897 5.39056 80.2925 6.4249C82.2566 8.26723 83.0617 10.498 83.6152 12.7802C84.24 15.3568 85.1346 17.5456 85.3439 19.7593C85.4495 20.876 85.8269 21.9731 86.0342 22.1866C88.3896 24.6127 85.6901 11.6753 86.5151 6.92445C86.9292 4.5393 89.6865 3.19338 91.9002 2.35803C92.9637 1.95674 94.3876 1.9414 95.9049 2.0782C98.4945 2.31169 100.465 5.9295 101.854 8.63452C103.104 11.0699 103.375 13.3999 103.929 15.9578C104.064 16.5845 104.204 17.131 104.343 16.8657C105.849 13.9902 105.863 10.9374 106.829 8.5827C107.819 6.16897 110.415 4.71068 112.697 3.6722C113.928 3.11183 116.351 3.1851 119.044 3.39031C122.127 3.6253 123.548 7.59604 124.586 10.2223C125.581 12.7363 126.035 15.3318 126.73 17.6865C127.051 18.7768 127.283 19.9003 127.764 20.4558C129.33 22.2651 130.455 15.9122 131.427 13.4891C132.492 10.8347 134.19 9.82225 135.291 9.2004C135.919 8.8453 136.938 8.98897 137.774 9.33099C140.989 10.6474 141.101 14.2291 141.654 16.7869C142.071 20.4392 142.208 24.875 142.415 26.2514C142.485 27.0805 142.485 28.175 142.485 28.0589" stroke="black" stroke-width="4" stroke-linecap="round"/>
<path d="M118.44 88.1704C118.714 89.1322 119.543 91.3377 120.922 93.5515C122.384 95.9005 124.236 97.6971 126.102 99.5626C129.074 102.535 131.557 104.745 133.908 106.061C136.691 107.62 139.019 107.929 141.233 108.414C143.405 108.889 147.294 108.899 150.354 108.074C152.743 107.429 154.773 105.59 156.642 103.93C158.657 102.141 160.029 99.9275 160.792 97.7137C161.629 95.2849 162.658 92.8799 163.143 90.6661C163.213 90.1106 163.213 89.5634 163.282 89.0078C163.35 88.4523 163.487 87.9051 162.799 87.3413" stroke="black" stroke-width="4" stroke-linecap="round"/>
<path d="M147.045 118.848C147.045 118.575 147.045 117.202 146.977 115.063C146.772 113.608 146.494 112.497 146.287 111.326C146.216 110.702 146.216 110.018 145.802 108.899" stroke="black" stroke-width="4" stroke-linecap="round"/>
<path d="M161.141 115.532C160.179 114.155 158.247 111.95 156.587 110.149C156.17 109.732 155.76 109.322 155.343 108.905C154.926 108.488 154.516 108.078 153.264 106.826" stroke="black" stroke-width="4" stroke-linecap="round"/>
<path d="M130.463 116.361C130.873 115.399 132.801 112.92 134.534 110.565C134.882 110.01 135.156 109.463 135.365 108.907C135.574 108.351 135.711 107.804 135.852 107.24" stroke="black" stroke-width="4" stroke-linecap="round"/>
<path d="M42.1609 88.585C42.5754 89.5468 42.8491 92.0259 43.4025 94.3806C43.9331 96.638 45.1955 98.7999 46.7833 100.67C48.6837 102.907 51.5383 105.839 54.1749 107.926C56.0289 109.394 58.8678 109.313 62.1117 109.657C68.7885 110.365 71.3047 108.766 73.6594 107.383C75.6355 106.223 77.6641 104.761 79.4654 102.964C81.5316 100.903 82.0916 98.2692 83.4742 96.3996C84.579 93.8459 86.2373 90.8071 86.9317 88.5933C87.0705 88.0378 87.2073 87.4906 87.3483 86.5122" stroke="black" stroke-width="4" stroke-linecap="round"/>
<path d="M61.2307 112.215C61.2307 112.079 61.2307 111.942 61.1623 112.145C61.0939 112.348 60.9571 112.895 60.8866 113.861C60.8162 114.827 60.8162 116.195 60.4016 117.605" stroke="black" stroke-width="4" stroke-linecap="round"/>
<path d="M72.8386 108.484C72.565 108.758 72.8345 109.309 73.5931 110.205C74.215 111.237 74.9073 112.211 75.5976 113.107C75.8774 113.592 76.0142 114.139 75.326 114.288" stroke="black" stroke-width="4" stroke-linecap="round"/>
<path d="M52.1105 108.07C52.1105 108.343 51.8369 109.031 51.2855 110.134C50.7341 111.237 50.0418 112.348 49.2831 113.451C48.9349 114.006 48.6613 114.553 48.3794 113.873" stroke="black" stroke-width="4" stroke-linecap="round"/>
<path d="M99.7853 110.142C99.2381 110.967 97.3062 112.895 96.5393 115.793C95.7319 118.843 97.016 121.468 98.0504 122.503C98.9479 123.4 99.918 123.96 101.021 124.235C103.234 124.378 104.893 123.549 105.927 122.93C106.414 122.583 106.825 122.173 108.077 120.506" stroke="black" stroke-width="4" stroke-linecap="round"/>
<path d="M98.0049 148.419C98.7817 148.419 100.563 148.64 102.351 149.087C105.389 149.846 109.938 149.202 112.615 148.477C114.855 147.871 116.855 146.972 118.757 146.079C120.613 145.206 122.326 143.738 123.946 142.231C126.207 140.13 126.906 138.16 127.745 136.372C127.914 135.924 128.024 135.482 128.137 135.033C128.249 134.584 128.359 134.142 128.473 133.687" stroke="black" stroke-width="4" stroke-linecap="round"/>
</svg>
