<?xml version="1.0" encoding="UTF-8"?>
<svg id="Capa_1" data-name="Capa 1" xmlns="http://www.w3.org/2000/svg" viewBox="0 0 209.59 203.87">
  <defs>
    <style>
      .cls-1 {
        fill: #fff;
      }

      .cls-2 {
        fill: #f9cc3a;
      }
    </style>
  </defs>
  <circle class="cls-2" cx="104.17" cy="101.94" r="99.35"/>
  <circle class="cls-1" cx="54.66" cy="158.98" r="20.54" transform="translate(-35.06 16.81) rotate(-13.28)"/>
  <circle class="cls-1" cx="153.68" cy="44.16" r="20.54"/>
  <g>
    <path d="M104.14,133.57s.22-27.52-20.17-33.31v40.01c-.64,14.69-3.81,36.55-16.93,39.1l16.93-.14v.14c1.1,0,2.17-.08,3.25-.16h.28s0-.01,0-.01c20.38-1.79,36.37-18.87,36.37-39.71v-38.53c-8.23,2.99-19.7,11.02-19.72,32.61Z"/>
    <path d="M145.16,20.49h-23.53v.11c-20.98,1.16-37.65,18.5-37.65,39.78v37.46c8.25-2.58,20.19-10.02,20.17-31.54,0,0,.04,26.03,19.72,31.77v-28.87c.26-12.62,2.71-45.45,21.29-48.7Z"/>
  </g>
</svg>