<?xml version="1.0" encoding="UTF-8"?>
<svg id="Capa_1" data-name="Capa 1" xmlns="http://www.w3.org/2000/svg" viewBox="0 0 1080 545.96">
  <defs>
    <style>
      .cls-1 {
        fill: #fff;
      }
    </style>
  </defs>
  <path class="cls-1" d="M848.32,208.16c-4.3-5.53-10.18-8.31-17.6-8.31-6.85,0-12.68,2.85-17.5,8.57-4.81,5.67-7.73,13.31-8.82,22.73h50.78c-.28-9.78-2.53-17.44-6.87-22.99Z"/>
  <path class="cls-1" d="M951.66,200.71c-10.59,0-18.85,4.26-24.71,12.84-5.87,8.56-8.82,20.63-8.82,36.18s3.21,27.5,9.61,36.02c6.41,8.52,15.38,12.77,26.94,12.77,4.98,0,9.72-.77,14.2-2.39,4.49-1.58,9.24-4.21,14.33-7.86v-53.08c0-10.67-2.84-19.09-8.46-25.26-5.63-6.15-13.33-9.22-23.1-9.22Z"/>
  <g>
    <path class="cls-1" d="M51.42,135.04v7.46c9.53.57,16.17,2.65,19.93,6.24,3.74,3.6,5.63,9.77,5.63,18.59v112.49c0,8.9-1.88,15.14-5.63,18.78-3.76,3.6-10.4,5.73-19.93,6.28v7.47h74.83v-7.47c-9.53-.56-16.18-2.68-19.93-6.28-3.75-3.64-5.64-9.88-5.64-18.78v-57.11h19.31c19.41,0,31.52,1.86,36.31,5.56,4.83,3.71,7.23,11.02,7.23,21.96h7.09v-61.37l-7.09.11c-.17,9.97-2.71,16.65-7.66,20.17-4.91,3.51-16.89,5.24-35.89,5.24h-19.31v-66.88c0-2.04.41-3.36,1.23-4.03.82-.65,2.5-.97,5.01-.97h30.32c17.62,0,29.73,2.32,36.38,6.96,6.65,4.66,11.32,13.22,14.02,25.68h7.45l-3.43-40.1H51.42Z"/>
    <path class="cls-1" d="M232.49,157.04c3.59,0,6.66-1.24,9.2-3.78,2.51-2.53,3.77-5.59,3.77-9.17s-1.27-6.67-3.82-9.24c-2.6-2.58-5.63-3.84-9.15-3.84s-6.76,1.25-9.3,3.79c-2.51,2.53-3.77,5.61-3.77,9.29s1.26,6.64,3.77,9.17c2.54,2.54,5.65,3.78,9.3,3.78Z"/>
    <path class="cls-1" d="M242.53,282.99v-90.12h-2.55l-35.37,13.34v1.72l17.4,10.02v63.82c0,8.81-1.51,14.94-4.55,18.42-3.02,3.45-8.43,5.45-16.24,5.95v6.22h58.55v-6.22c-6.51-.66-11.01-2.61-13.51-5.82-2.48-3.22-3.73-9-3.73-17.33Z"/>
    <path class="cls-1" d="M321.97,300.24c-2.58-3.26-3.86-9.01-3.86-17.25v-151.49h-2.21l-35.33,13.32v1.71l17.23,10.03v125.21c0,8.98-1.29,15.1-3.89,18.42-2.62,3.29-7.47,5.28-14.57,5.95v6.22h56.38l-.11-6.22c-6.55-.66-11.08-2.62-13.63-5.89Z"/>
    <path class="cls-1" d="M448.33,297.24c-1.36.69-2.51,1.05-3.43,1.05-2.05,0-3.48-.81-4.27-2.46-.82-1.62-1.21-4.62-1.21-9.05v-57.59c0-12.37-2.72-21.53-8.13-27.44-5.43-5.91-13.8-8.86-25.11-8.86-12.49,0-22.71,2.74-30.71,8.24-7.97,5.51-11.99,12.55-11.99,21.1,0,2.69.47,5.37,1.41,8.02.94,2.64,2.31,5.33,4.09,8.02l15.78-7.58c-2.2-4.25-3.76-7.61-4.64-10.1-.89-2.5-1.35-4.63-1.35-6.44,0-3.58,1.78-6.64,5.33-9.18,3.56-2.52,7.87-3.79,13.01-3.79,7.51,0,13.13,1.92,16.89,5.71,3.75,3.79,5.63,9.47,5.63,17.06v18.84c-22.99,6.67-38.85,13.31-47.56,19.86-8.73,6.56-13.09,14.78-13.09,24.63,0,8.06,2.28,14.64,6.87,19.68,4.55,5.05,10.47,7.58,17.69,7.58,6.21,0,12.15-1.47,17.81-4.4,5.66-2.93,11.75-7.7,18.28-14.31.98,6.38,2.81,11.07,5.5,14.13,2.7,3.07,6.37,4.57,11,4.57,3.36,0,6.55-1.22,9.6-3.66,3.07-2.45,5.9-6.03,8.51-10.76l-.23-6.36c-2.38,1.62-4.26,2.81-5.64,3.48ZM419.6,282.02c0,4.32-2.38,8.19-7.17,11.62-4.75,3.42-10.1,5.14-16.06,5.14-5.3,0-9.59-1.69-12.88-5.07-3.32-3.39-4.97-7.79-4.97-13.15,0-6.61,3.07-12.22,9.23-16.89,6.17-4.65,16.78-9.19,31.86-13.69v32.04Z"/>
    <path class="cls-1" d="M542.86,192.87c-3.84,0-7.72,1.43-11.69,4.24-3.95,2.81-9.85,8.64-17.68,17.52l-.48-21.76h-2.2l-35.34,13.34v1.7l17.73,10.04v63.82c0,8.98-1.3,15.1-3.9,18.42-2.62,3.29-7.47,5.28-14.57,5.95v6.22h62.12v-6.22c-8.97-.74-15.09-2.69-18.41-5.82-3.28-3.15-4.95-8.92-4.95-17.33v-56.24c4.99-7.18,8.85-11.89,11.62-14.18,2.77-2.29,5.68-3.43,8.7-3.43,1.62,0,3.06.36,4.33,1.11,1.27.75,2.83,2.27,4.71,4.64l.36.5c2.69,3.17,4.97,4.75,6.86,4.75,2.43,0,4.69-1.21,6.73-3.65,2.03-2.44,3.06-5.22,3.06-8.33,0-4.4-1.61-8.03-4.83-10.93-3.23-2.9-7.29-4.36-12.17-4.36Z"/>
  </g>
  <path class="cls-1" d="M733.03,485.72c-4.25,0-7.74,3.23-8.38,7.09h16.54c-.75-3.81-3.9-7.09-8.16-7.09Z"/>
  <path class="cls-1" d="M614.78,485.72c-4.99,0-8.48,4.54-8.48,9.33.02,5.12,3.34,9.63,8.63,9.64,5.6-.01,8.61-4.49,8.64-9.89-.02-5.14-3.44-9.07-8.79-9.08Z"/>
  <path class="cls-1" d="M643.92,485.72c-4.25,0-7.74,3.23-8.38,7.09h16.54c-.75-3.81-3.9-7.09-8.16-7.09Z"/>
  <path class="cls-1" d="M759.55,485.72c-4.99,0-8.48,4.54-8.48,9.33.02,5.12,3.34,9.63,8.63,9.64,5.61-.01,8.61-4.49,8.64-9.89-.02-5.14-3.44-9.07-8.79-9.08Z"/>
  <path class="cls-1" d="M640.07,382.28c-.02-9.05-7.61-16.64-16.71-16.65-9.15.02-16.69,7.61-16.71,16.65.02,9.05,7.56,16.64,16.71,16.66,9.09-.02,16.69-7.66,16.71-16.66Z"/>
  <path class="cls-1" d="M661.77,432.92c-4.99,0-8.48,4.54-8.48,9.33.02,5.12,3.34,9.63,8.63,9.64,5.61,0,8.61-4.49,8.64-9.89-.02-5.14-3.44-9.07-8.79-9.08Z"/>
  <path class="cls-1" d="M672.69,380.12c-5.59,0-8.6,4.59-8.63,9.98.03,5.19,3.43,8.97,8.74,8.99,5.11,0,8.52-4.29,8.53-9.24-.02-5.12-3.29-9.72-8.64-9.73Z"/>
  <path class="cls-1" d="M784.32,399.09c5.61,0,8.61-4.49,8.64-9.89-.02-5.14-3.44-9.07-8.79-9.08-4.99,0-8.48,4.54-8.48,9.33.02,5.12,3.34,9.63,8.63,9.64Z"/>
  <path class="cls-1" d="M726.36,380.12c-4.25,0-7.74,3.23-8.38,7.09h16.54c-.75-3.81-3.9-7.09-8.16-7.09Z"/>
  <path class="cls-1" d="M744.2,451.89c5.41,0,9.58-4.09,9.59-9.44-.01-5.45-4.13-9.52-9.59-9.53-5.22,0-9.13,4.42-9.13,9.53,0,5.01,3.97,9.43,9.13,9.44Z"/>
  <path class="cls-1" d="M571.56,43.22v502.74h467.38V43.22h-467.38ZM775.62,380.62c2.05-2.24,5.04-3.59,8.65-3.59,3.29,0,6.41,1.38,8.53,3.83v-3.33h3.25v24.16h-3.25v-3.4c-2.01,2.47-5.29,3.9-8.43,3.9-3.64,0-6.65-1.43-8.72-3.74-2.07-2.32-3.21-5.5-3.21-8.99,0-3.49,1.13-6.6,3.18-8.84ZM790.59,425.65c-1.42,0-2.55-1.13-2.55-2.55,0-1.37,1.12-2.55,2.55-2.55,1.44,0,2.55,1.18,2.55,2.55,0,1.42-1.13,2.55-2.55,2.55ZM792.19,430.33v24.16h-3.25v-24.16h3.25ZM770.77,377.53v3.1h-4.06v21.06h-3.25v-21.06h-2.56v-3.1h2.56v-8.28h3.25v8.28h4.06ZM572.7,306.13c7.08-.66,11.93-2.66,14.56-5.95,2.6-3.31,3.91-9.43,3.91-18.42v-63.82l-17.74-10.04v-1.7l35.36-13.34h2.18v20.07c5.16-6.64,10.78-11.61,16.89-15,6.11-3.36,12.6-5.08,19.42-5.08,7.27,0,13.6,1.93,18.97,5.82,5.38,3.87,9.02,9.12,10.9,15.69,6.34-7.31,12.67-12.74,18.95-16.23,6.27-3.52,12.79-5.28,19.55-5.28,10.51,0,18.38,3.44,23.67,10.27,5.25,6.86,7.9,17.14,7.9,30.83v49.02c0,8.24,1.27,14,3.85,17.25,2.57,3.27,7.09,5.23,13.63,5.89l.14,6.22h-54.2l.14-6.22c6.44-.59,10.96-2.55,13.57-5.89,2.62-3.33,3.92-9.07,3.92-17.25v-49.51c0-8.66-1.56-14.91-4.71-18.76-3.15-3.9-8.16-5.8-15.11-5.8-5.29,0-10.38.94-15.28,2.86-4.89,1.89-9.66,4.78-14.3,8.61v62.6c0,8.33,1.27,14.12,3.85,17.38,2.57,3.24,7.03,5.17,13.39,5.76l.11,6.22h-53.92v-6.22c6.43-.59,10.99-2.55,13.62-5.89,2.65-3.33,3.98-9.07,3.98-17.25v-49.51c0-8.66-1.55-14.91-4.7-18.76-3.14-3.9-8.17-5.8-15.09-5.8-5.15,0-10.17.94-15.11,2.86-4.93,1.89-9.76,4.78-14.5,8.61v62.6c0,8.33,1.3,14.12,3.88,17.38,2.54,3.24,7,5.17,13.37,5.76v6.22h-55.03v-6.22ZM722.34,434.69c-.62-1.07-1.61-1.75-3.7-1.77-2.26.02-3.53.94-4.36,2.36-.82,1.43-1.11,3.41-1.11,5.37v13.84h-3.25v-14.79c0-1.78-.17-3.53-.83-4.76-.67-1.22-1.71-2-3.84-2.02-2.25.02-3.46,1.1-4.26,2.72-.78,1.62-1.01,3.77-1.01,5.61v13.23h-3.25v-24.16h3.25v1.99c1.31-1.58,3.3-2.49,5.42-2.49,2.84-.01,5.17,1.4,6.53,3.79,1.44-2.44,3.93-3.8,6.77-3.79,3.08-.01,5.1,1.09,6.24,2.9,1.13,1.79,1.42,4.16,1.43,6.72v15.04h-3.25v-15.34c0-1.76-.15-3.37-.76-4.46ZM684.62,442.16v12.33h-3.25v-24.16h3.25v1.82c1.05-1.42,2.6-2.34,4.62-2.32.98,0,1.82.22,2.66.6l.51.23-.29.48-1.44,2.41-.42-.23-1.37-.39c-2.06.02-3.01,1.06-3.62,2.65-.59,1.59-.66,3.69-.65,5.43v1.16ZM672.65,402.19c-3.61,0-6.59-1.33-8.65-3.56-2.06-2.22-3.19-5.31-3.18-8.78,0-3.51,1.12-6.72,3.19-9.05,2.06-2.34,5.08-3.78,8.74-3.78,3.14,0,6.42,1.43,8.43,3.91v-3.4h3.25v37.7h-3.25v-16.85c-2.1,2.47-5.25,3.81-8.53,3.81ZM691.81,392.38v-.47s0-14.39,0-14.39h3.25v13.59c0,2.21.14,4.27.89,5.68.75,1.39,2.01,2.28,4.68,2.3,2.68-.02,3.93-.9,4.69-2.3.75-1.41.89-3.47.89-5.68v-13.59h3.25v14.85c0,2.2-.03,4.51-1.51,6.51-1.73,2.26-4.59,3.3-7.32,3.31-2.73,0-5.58-1.05-7.31-3.31-1.48-1.99-1.5-4.3-1.5-6.5ZM726.3,402.19c-3.57,0-6.53-1.46-8.56-3.77-2.04-2.31-3.16-5.46-3.16-8.86.01-6.69,4.66-12.52,11.73-12.53,3.62,0,6.56,1.45,8.56,3.78,2,2.32,3.07,5.48,3.07,8.89v.62s-20.08,0-20.08,0c.11,5.33,3.79,8.76,8.76,8.79,3.4,0,6.14-2.02,7.74-5l.24-.45.44.26,2.32,1.34-.22.42c-2.18,4.17-6.09,6.55-10.82,6.54ZM744.36,429.82c7.08.01,12.66,5.45,12.68,12.59-.01,7.14-5.6,12.56-12.68,12.58-6.95,0-12.53-5.69-12.53-12.53.01-6.94,5.54-12.63,12.53-12.63ZM740.35,425.76l5.61-8.16.35.11,3.05.95.72.22-6.95,8.12-.34-.15-2.44-1.09ZM749.42,402.19c-4.06,0-7.45-2.52-8.45-6.49l-.11-.45.44-.14,2.68-.86.15.48c.84,2.64,2.47,4.35,5.29,4.36,2.64,0,4.72-2.08,4.72-4.72,0-2.52-1.84-3.26-4.19-4.1-1.58-.58-3.31-1.21-4.7-2.24-1.38-1.02-2.41-2.52-2.4-4.64,0-3.82,3.23-6.36,6.81-6.37,2.57.01,5.26,1.64,6.36,4l.2.43-.42.22-1.95,1.01-.46.23-.22-.47c-.69-1.45-1.99-2.32-3.62-2.33-.84,0-1.73.35-2.39.93-.66.58-1.08,1.35-1.08,2.18.01,1.21.55,1.88,1.53,2.51.97.61,2.36,1.06,3.79,1.6,2.82,1.03,5.98,2.66,5.96,7.13,0,4.54-3.57,7.71-7.97,7.72ZM652.38,389.36v12.33h-3.25v-24.16h3.25v1.82c1.05-1.42,2.6-2.33,4.62-2.32.98,0,1.82.22,2.66.6l.51.23-.29.48-1.44,2.41-.42-.23-1.37-.39c-2.06.02-3.01,1.06-3.62,2.65-.59,1.59-.66,3.69-.66,5.43v1.16ZM621.39,431.68v3.25h-12.49v19.56h-3.4v-38.8h16.24v3.24h-12.84v12.75h12.49ZM603.25,382.28c0-10.91,9.15-19.9,20.11-19.9,10.9,0,20.09,8.99,20.1,19.9,0,10.92-9.2,19.9-20.1,19.91-10.91,0-20.1-8.99-20.11-19.91ZM641.31,412.12h3.25v42.37h-3.25v-42.37ZM626.66,507.28h-3.25v-3.4c-2.01,2.47-5.29,3.9-8.43,3.9-3.64,0-6.65-1.43-8.72-3.74-2.07-2.32-3.21-5.5-3.21-8.99,0-3.49,1.13-6.6,3.18-8.84,2.05-2.24,5.04-3.59,8.65-3.59,3.29,0,6.41,1.38,8.53,3.83v-21.53h3.25v42.37ZM628.52,423.1c0-1.37,1.11-2.55,2.55-2.55,1.44,0,2.55,1.18,2.55,2.55,0,1.42-1.13,2.55-2.55,2.55-1.42,0-2.55-1.13-2.55-2.55ZM629.42,430.33h3.25v24.16h-3.25v-24.16ZM644.17,504.69c3.4,0,6.14-2.02,7.74-5l.24-.45.44.25,2.32,1.34-.22.42c-2.18,4.17-6.09,6.54-10.82,6.54-3.57,0-6.53-1.46-8.57-3.77-2.04-2.31-3.16-5.47-3.16-8.86.01-6.69,4.66-12.52,11.73-12.53,3.62,0,6.56,1.45,8.56,3.77,2,2.32,3.07,5.48,3.07,8.89v.62s-20.08,0-20.08,0c.11,5.33,3.79,8.76,8.76,8.79ZM673.64,453.99v.5h-3.25v-3.4c-2.01,2.47-5.29,3.9-8.43,3.9-3.64,0-6.65-1.43-8.72-3.74-2.07-2.31-3.21-5.5-3.21-8.99,0-3.49,1.13-6.6,3.18-8.84,2.06-2.24,5.04-3.59,8.65-3.59,3.29,0,6.41,1.38,8.53,3.83v-3.32h3.25v23.66ZM718.69,507.28h-2.71l-6.26-30.26-13.1,32.34-13.05-32.32-6.25,30.24h-3.32l8.58-41.26,14.04,34.78,14.09-34.78,8.59,41.26h-.61ZM733.28,504.69c3.4,0,6.14-2.02,7.73-5l.24-.45.44.25,2.32,1.34-.22.42c-2.18,4.17-6.09,6.54-10.82,6.54-3.57,0-6.53-1.46-8.56-3.77-2.04-2.31-3.17-5.47-3.17-8.86.01-6.69,4.66-12.52,11.73-12.53,3.62,0,6.56,1.45,8.55,3.77,2,2.32,3.07,5.48,3.07,8.89v.11s.01.5.01.5h-20.09c.11,5.33,3.79,8.76,8.76,8.79ZM771.42,507.28h-3.25v-3.4c-2.01,2.47-5.29,3.9-8.43,3.9-3.64,0-6.65-1.43-8.72-3.74-2.07-2.32-3.21-5.5-3.21-8.99,0-3.49,1.13-6.6,3.18-8.84,2.06-2.24,5.04-3.59,8.65-3.59,3.29,0,6.41,1.38,8.53,3.83v-21.53h3.25v42.37ZM772.04,432.92c-2.75.02-4.2,1.21-5.13,3.02-.91,1.82-1.16,4.29-1.15,6.61v11.93h-3.25v-24.16h3.25v2.7c1.52-1.98,3.8-3.21,6.48-3.21,3.08-.01,5.2.99,6.46,2.82,1.25,1.82,1.66,4.33,1.66,7.36v14.49h-3.25v-14.49c0-2.06-.14-3.89-.82-5.11-.68-1.2-1.81-1.95-4.25-1.97ZM788.94,504.69c3.4,0,6.14-2.02,7.73-5l.24-.45.44.25,2.32,1.34-.22.42c-2.18,4.17-6.09,6.54-10.82,6.54-3.57,0-6.53-1.46-8.56-3.77-2.04-2.31-3.16-5.47-3.16-8.86.01-6.69,4.66-12.52,11.73-12.53,3.62,0,6.56,1.45,8.56,3.77,2,2.32,3.07,5.48,3.07,8.89v.62s-20.08,0-20.08,0c.11,5.33,3.79,8.76,8.76,8.79ZM808.98,506.79v.5h-3.25v-42.37h3.25v41.87ZM798.57,442.36c.01-6.98,5.34-12.52,12.43-12.53,3.11,0,6,.94,8.4,2.98l.17.15v4.51l-.86-.94c-2.15-2.33-4.64-3.6-7.82-3.6-5.16,0-9.08,4.42-9.08,9.44,0,5.02,3.87,9.52,9.04,9.53,3.14,0,6.12-1.53,8.14-3.98l.88-1.07v4.67l-.17.15c-2.44,2.13-5.51,3.33-8.75,3.33-7.14-.01-12.37-5.62-12.38-12.63ZM819.96,506.79v.5h-3.25v-42.37h3.25v41.87ZM835.42,454.99c-3.64,0-6.65-1.43-8.72-3.74-2.07-2.31-3.21-5.5-3.21-8.99,0-3.49,1.13-6.6,3.18-8.84,2.05-2.24,5.04-3.59,8.65-3.59,3.29,0,6.41,1.38,8.53,3.83v-3.32h3.25v24.16h-3.25v-3.4c-2.01,2.47-5.29,3.9-8.43,3.9ZM831.8,506.79v.5h-3.25v-24.16h3.25v23.66ZM828.88,479.81l-.34-.15-2.45-1.09,5.61-8.16.35.11,3.06.95.72.22-6.95,8.12ZM858.28,507.28h-3.25v-14.49c0-2.06-.14-3.89-.82-5.11-.68-1.2-1.81-1.95-4.25-1.97-2.75.02-4.2,1.21-5.13,3.02-.91,1.82-1.16,4.29-1.15,6.61v11.93h-3.25v-24.16h3.25v2.7c1.52-1.99,3.8-3.21,6.48-3.21,3.08-.01,5.2.99,6.46,2.81,1.25,1.82,1.66,4.33,1.66,7.36v14.49ZM814.2,282.88c7.17,9.63,16.27,14.42,27.26,14.42,5.56,0,11.19-1.34,16.9-4.03,5.7-2.69,11.08-6.6,16.14-11.74l4.51,4.04c-5.55,9.29-12.41,16.44-20.54,21.47-8.16,4.99-16.91,7.5-26.29,7.5-13.78,0-25.16-5.49-34.14-16.5-8.94-11.01-13.44-25.19-13.44-42.56s4.83-32.49,14.44-44.61c9.63-12.17,21.24-18.24,34.86-18.24,12.78,0,23.25,4.11,31.36,12.3,8.12,8.2,12.79,19.46,14.02,33.79h-75.58c-.08.84-.15,1.73-.18,2.78-.05,1-.08,2.42-.08,4.2,0,15.15,3.59,27.58,10.77,37.18ZM1021.48,308.54l-38.05,6-1.21-17.96c-6.52,6.51-12.82,11.19-18.91,13.99-6.07,2.84-12.72,4.22-19.98,4.22-13.43,0-24.28-4.97-32.46-14.92-8.19-9.92-12.29-23.13-12.29-39.63,0-18.83,5.62-34.76,16.88-47.79,11.25-13.04,24.97-19.57,41.2-19.57,4.67,0,9.14.53,13.52,1.65,4.37,1.1,8.69,2.81,13.05,5.09v-43.05l-17.76-10.03v-1.71l35.22-13.33h2.32v152.37c0,7.66.83,12.71,2.53,15.08,1.66,2.43,4.89,3.64,9.69,3.64.67,0,1.39-.02,2.23-.09.82-.02,2.16-.18,4.04-.42v6.47Z"/>
  <path class="cls-1" d="M788.69,485.72c-4.25,0-7.74,3.23-8.38,7.09h16.54c-.75-3.81-3.9-7.09-8.16-7.09Z"/>
  <path class="cls-1" d="M835.22,432.92c-4.99,0-8.48,4.54-8.48,9.33.02,5.12,3.34,9.63,8.63,9.64,5.61,0,8.61-4.49,8.64-9.89-.02-5.14-3.44-9.07-8.79-9.08Z"/>
</svg>