<?xml version="1.0" encoding="UTF-8"?>
<svg id="Capa_1" data-name="Capa 1" xmlns="http://www.w3.org/2000/svg" viewBox="0 0 396.85 203.87">
  <defs>
    <style>
      .cls-1 {
        fill: #fff;
      }

      .cls-2 {
        fill: #f9cc3a;
      }
    </style>
  </defs>
  <g>
    <path class="cls-1" d="M254.95,147.04v12.78c0,3.99.52,8.22-1.75,11.73-.54.84-1.2,1.63-1.92,2.31-.19.18-.38.35-.57.51-.19.16-.39.32-.6.47-.2.15-.41.29-.61.43-.21.13-.42.26-.63.39-.21.12-.43.24-.64.35-.21.11-.43.22-.65.32-.22.1-.44.19-.66.28-.22.09-.44.17-.66.25-.22.08-.44.15-.66.22-.22.07-.44.13-.66.19-.22.06-.43.11-.65.17-.21.05-.43.1-.64.14-.21.04-.42.08-.63.12-.2.04-.41.07-.61.1-.2.03-.4.06-.59.08-.19.02-.38.04-.57.06-.18.02-.36.03-.55.05-.17.01-.35.02-.52.03-.16,0-.33.02-.49.02-.15,0-.3,0-.45.01-.14,0-.28,0-.42,0-.12,0-.25,0-.37,0-.11,0-.22,0-.33,0-.09,0-.19,0-.28-.01-.08,0-.16,0-.23-.01-.44-.03-.87-.07-1.31-.12-.39-.05-.77-.12-1.15-.2-.37-.08-.74-.19-1.1-.31-.36-.12-.71-.25-1.05-.41-.34-.15-.68-.32-1.01-.51-.33-.19-.65-.39-.97-.61-.32-.22-.63-.46-.93-.71-.31-.26-.61-.53-.89-.81-.1-.1-.2-.21-.31-.31-2.64-2.55-3.96-5.66-3.96-9.34s1.32-6.84,3.96-9.48,5.66-3.82,9.34-3.82c3.04,0,5.71.92,8.04,2.66v-24.54c-3.18-1.21-6.64-1.89-10.45-1.89-10.09,0-18.48,3.59-25.18,10.75-6.79,7.17-10.18,15.94-10.18,26.31s3.39,19.15,10.18,26.31c6.69,7.17,15.09,10.75,25.18,10.75,6.89,0,12.64-1.7,17.26-5.09.28-.19.54-.4.78-.64.24-.24.5-.45.78-.64v4.67h20.93v-70.73h-20.6v17.73Z"/>
    <circle class="cls-2" cx="13.53" cy="93.38" r="13.53" transform="translate(-21.09 5.61) rotate(-13.28)"/>
    <circle class="cls-2" cx="78.77" cy="17.73" r="13.53"/>
    <path class="cls-1" d="M73.16,2.14h-15.5v.07c-13.82.77-24.81,12.19-24.81,26.2v52.64c-.42,9.68-2.51,24.08-11.16,25.76l11.16-.09v.09c.72,0,1.43-.05,2.14-.11h.18s0,0,0,0c13.42-1.18,23.96-12.43,23.96-26.16v-46.32c.17-8.31,1.79-29.94,14.03-32.09Z"/>
    <circle class="cls-2" cx="188.19" cy="188.2" r="13.53"/>
    <path class="cls-1" d="M168.87,175.88v-52.64c0-14.02-11.58-25.01-25.4-25.77l-14.9-.5c12.24,2.15,13.86,23.77,14.03,32.09v46.32c0,13.73,10.53,24.98,23.96,26.16h0s.18,0,.18,0c.71.06,1.42.11,2.14.11v-.09l11.16.09c-8.64-1.68-10.73-16.08-11.16-25.76Z"/>
    <path class="cls-1" d="M375.96,31.89v34.42c0,7.05-5.09,13.22-12.08,14.14-1.32.17-2.78.22-4.37.1-3.68,0-6.79-1.32-9.34-3.96-2.64-2.55-3.96-5.66-3.96-9.34s1.32-6.84,3.96-9.48,5.66-3.82,9.34-3.82c2.91,0,5.49.83,7.75,2.43v-24.43c-3.1-1.14-6.47-1.76-10.15-1.76-10.09,0-18.48,3.59-25.18,10.75-1.73,1.83-3.23,3.76-4.52,5.79v-16.54c-6.7,0-12.59,1.32-17.68,3.96-2.64,1.41-5,3.07-7.07,4.95-.38.38-.73.73-1.06,1.06s-.64.64-.92.92v-9.2h-22.35v24.94c-1.67-5.89-4.82-11.14-9.48-15.75-7.17-7.26-15.89-10.89-26.17-10.89s-19,3.63-26.17,10.89c-4.75,4.68-7.91,10.04-9.56,16.06-.31-1.8-.69-3.56-1.19-5.24-1.32-4.38-3.26-8.27-5.8-11.67-5.28-6.69-12.59-10.04-21.93-10.04-6.13,0-11.17,1.51-15.13,4.53-.47.38-.92.76-1.34,1.13-.42.38-.83.8-1.2,1.27v-5.24h-22.35v24.94c-1.67-5.89-4.82-11.14-9.48-15.75-7.17-7.26-15.89-10.89-26.17-10.89s-19,3.63-26.17,10.89c-7.26,7.17-10.89,15.89-10.89,26.17s3.63,19,10.89,26.17c7.16,7.26,15.89,10.89,26.17,10.89s19-3.63,26.17-10.89c4.66-4.6,7.81-9.86,9.48-15.74v16.96c16.7-.35,22.17,5.58,24.05,7.71v-37.07c0-3.3,1.04-5.94,3.11-7.92,2.07-2.08,4.67-3.11,7.78-3.11s5.57,1.04,7.64,3.11c2.08,1.98,3.11,4.62,3.11,7.92v37.34h24.05v-22.78c1.79,5.02,4.68,9.56,8.77,13.59,7.16,7.26,15.89,10.89,26.17,10.89s19-3.63,26.17-10.89c4.66-4.6,7.81-9.85,9.48-15.74v23.34h-.07v99.02h20.92v-34.62c0-2.94.76-5.89,2.47-8.28,2.1-2.93,5.94-5.84,12.87-5.76l.04.1c.35-.02.68-.09,1.04-.09,3.68,0,6.84,1.27,9.48,3.82,2.55,2.64,3.82,5.8,3.82,9.48s-1.27,6.79-3.82,9.34c-2.64,2.64-5.8,3.96-9.48,3.96-2.85,0-5.36-.82-7.53-2.41v24.68c3.02.97,6.31,1.49,9.93,1.49,10.09,0,18.53-3.58,25.32-10.75,6.69-7.16,10.04-15.93,10.04-26.31s-3.35-19.15-10.04-26.31c-6.79-7.16-15.23-10.75-25.32-10.75-4.81,0-9.15.99-13.01,2.97-.47.28-.92.54-1.34.78-.43.24-.87.49-1.34.78v-29.52h.07v-29c1.6-6.69,4.62-11.6,9.05-14.71,3.54-2.49,7.67-3.96,12.36-4.46-1.33,3.96-2.03,8.22-2.03,12.81,0,10.38,3.39,19.15,10.18,26.31,6.69,7.17,15.09,10.75,25.18,10.75,6.89,0,12.64-1.7,17.26-5.09.28-.19.54-.4.78-.64.24-.24.5-.45.78-.64v4.67h20.93V31.89h-20.89ZM83.99,75.71c-1.27.1-3.01-1.32-3.01-2.75v-9.01c-.01-1.13,1.42-2.53,2.49-2.7,1.09-.17,3.02,1.05,3.04,2.13l.2,8.75c.04,1.88-1.06,3.45-2.72,3.58ZM93.58,82.99c0,1.37-1.64,2.47-2.52,2.55-1.06.09-3.07-.98-3.08-2.29l-.04-29.01c0-1.44,1.37-2.7,2.57-2.81,1.45-.14,3.07,1.15,3.07,2.83v28.74ZM98.19,76.95c-1.86.13-3.25-1.07-3.25-2.91l-.02-11.09c0-1.41,1.3-2.88,2.66-2.96,1.46-.09,2.98,1.4,2.99,2.99l.05,10.83c0,1.64-1.36,3.06-2.43,3.13ZM107.61,73.89l-.08,11.76c-.01,1.61-1.05,2.94-2.3,3.23-.99.23-3.21-.89-3.23-1.96l-.17-13.04v-10.87s.12-12,.12-12c.01-1.29,1.11-2.71,2.19-2.92,1.5-.3,3.36.8,3.38,2.39l.1,12.54v10.88ZM114.6,73.64c.04,2.51-4.03,4.47-5.4,1.9-.73-1.37-.35-3.59-.37-5.1-.03-2.11-.07-4.22-.08-6.33,0-1.62.54-3.1,2.15-3.65,1.3-.45,3.02-.17,3.43,1.34.57,2.13.16,5,.19,7.2.03,1.55.05,3.1.08,4.65ZM118.83,73.74c-1.51.09-3.03-1.34-3.02-2.94l.02-4.67c0-1.27,1.29-2.74,2.61-2.9,1.12-.14,2.94,1.24,2.97,2.3l.14,5.17c.04,1.39-1.37,2.96-2.71,3.04ZM126.34,72.26c-.53.16-1.14.11-1.81-.23-.83-.43-1.38-1.28-1.61-2.19-.35-1.37-.32-3.61.89-4.6.69-.57,2.57-.72,3.38-.2,2.29,1.49,1.54,6.5-.85,7.22ZM144.76,74.34c-.41,2.41-3.15,3.92-4.98,1.68-1.36-1.66-.59-6.09-.62-8.19-.02-1.75-.05-3.5-.07-5.25-.04-2.99,4.5-3.56,5.49-.86.26.72.27,1.49.27,2.26.01,2.74.02,5.47.03,8.21,0,.66,0,1.42-.13,2.15ZM151.86,74.12l-.15,9.38c-.02,1.15-1.31,1.99-2.76,1.98-1.33,0-2.8-.85-2.81-1.82l-.08-11.66v-7.07s.08-11.66.08-11.66c0-.97,1.52-1.83,2.8-1.81,1.81.03,2.77.96,2.79,2.15l.14,9.2v11.3ZM158.73,78.66c0,1.85-1.7,3.1-3.2,2.93-1.31-.15-2.5-1.67-2.49-3.22l.04-20.29c0-1.52,1.82-2.83,2.98-2.72,1.72.17,2.69,1.52,2.69,3.26l-.02,20.03ZM189.39,79.84c-1.17.09-2.99-1.02-2.99-2.22l-.03-17.8c0-1.35,1.22-2.63,2.49-2.71,1.79-.12,3.19,1.1,3.2,2.74v17.05c.01,1.59-1.22,2.83-2.67,2.94ZM199.24,79.36c0,.31-.04.6-.1.85-.27,1-1.04,1.55-2.24,1.74-1.13.18-2.49-.02-3.05-1.01-.29-.52-.3-1.15-.3-1.74-.01-6.7-.02-13.39-.03-20.09,0-1.38.16-2.69,1.39-3.48,1.1-.71,3.02-.96,3.9.21.49.65.5,1.53.5,2.34-.01,7.06-.03,14.12-.05,21.18ZM203.98,73.73c-1.61.1-3.06-1.34-3.07-2.94l-.03-4.68c0-1.27,1.35-2.78,2.68-2.87,1.52-.11,3.02,1.34,3.02,2.93v4.51c.01,1.38-1.35,2.97-2.61,3.05ZM220.98,80.46c0,.34-.02.68-.12,1.11-.29,1.02-1.37,1.73-2.43,1.7-1.06-.02-2.06-.7-2.58-1.63-1-1.77-.44-4.94-.44-6.98,0-2.56,0-5.12,0-7.68,0-3.34,0-6.68,0-10.03,0-1.57,1.17-3.08,2.43-3.27,1.8-.26,3.25,1.11,3.26,2.98,0,0,.06,15.55.06,15.59.01,2.73-.13,5.46-.2,8.19ZM222.48,74.05s0-11.16,0-11.19c0-2.9,5.56-2.84,5.57-.02,0,0,.04,11.08.04,11.09.01,3.02-5.62,3.18-5.61.12ZM232.5,73.73c-1.61.1-3.06-1.34-3.07-2.94l-.03-4.68c0-1.27,1.35-2.78,2.68-2.87,1.52-.11,3.02,1.34,3.02,2.93v4.51c.01,1.38-1.35,2.97-2.61,3.05ZM242.03,83.16c0,.94-1.48,1.95-2.45,1.99-1.43.06-2.6-.62-3.21-1.69l.03-29.97c0-.95,2.2-1.81,3.2-1.66,1.18.19,2.44,1.11,2.44,2.15v13.74s-.02,15.45-.02,15.45ZM249.11,73.98c-.04.29-.1.58-.19.86-.29.91-.92,1.77-1.82,2.07-.75.25-1.58.1-2.29-.25-.47-.23-.91-.55-1.14-1.02-.23-.44-.24-.96-.24-1.46-.04-3.06-.08-6.12-.11-9.18-.02-1.52.03-3.26,1.28-4.33,1.06-.9,2.8-1.02,3.74.14.7.87.75,2.07.76,3.19.03,2.66.06,5.32.09,7.98,0,.66.01,1.33-.08,1.99ZM253.34,91.57c-1.54.09-2.95-1.15-2.95-2.9l-.04-21.28.03-19.13c0-1.46,1.25-2.79,2.36-2.87,1.75-.13,3.23,1.03,3.23,2.9v40.38c0,1.57-1.33,2.83-2.63,2.91ZM262.93,73.83c-.01,1.53-1.81,2.7-3.11,2.55-1.19-.14-2.55-1.52-2.54-2.87l.1-10.64c.01-1.24,1.86-2.43,3.02-2.3,1.28.14,2.6,1.48,2.6,2.86l-.07,10.4ZM267.45,74.03c-1.05.13-3.02-1.08-3.05-2.07l-.16-6.42c-.03-1.09,1.55-2.55,2.67-2.63.99-.07,2.94,1.16,2.95,2.15l.07,6.3c.01,1.17-1.41,2.54-2.49,2.67Z"/>
  </g>
  <path class="cls-1" d="M85.31,141.77s23.42-.03,23.39-27.64c0,0,.02,27.61,23.44,27.63,0,0-23.42.63-23.44,28.89,0,0,.25-28.63-23.39-28.88Z"/>
</svg>