<svg width="244" height="244" viewBox="0 0 244 244" fill="none" xmlns="http://www.w3.org/2000/svg">
<g filter="url(#filter0_d_2162_1408)">
<circle cx="122" cy="118" r="118" fill="white"/>
<circle cx="122" cy="118" r="117" stroke="black" stroke-width="2"/>
</g>
<path d="M75.5098 58.6699C75.9178 47.0516 89.0427 40.4332 98.5303 47.2578L184.39 109.031C192.536 114.891 192.537 127.105 184.39 132.969L98.5303 194.742C88.892 201.675 75.5 194.734 75.5 182.772V59.2275L75.5098 58.6699Z" stroke="black"/>
<path d="M131.388 126.195C131.039 125.876 130.686 125.565 130.328 125.265C130.031 125.015 129.717 124.762 129.392 124.509C129.147 125.075 128.872 125.628 128.572 126.165C129.53 126.225 130.469 126.239 131.388 126.198V126.195Z" fill="#B17FCE"/>
<path d="M105.129 100.36C105.705 100.209 106.192 99.666 106.63 98.5586C106.084 97.3934 105.451 96.2695 104.735 95.2173C104.463 96.3797 104.477 97.7543 104.867 99.3822C104.947 99.71 105.035 100.035 105.129 100.36Z" fill="#B17FCE"/>
<path d="M126.229 114.934C125.654 114.824 125.081 114.697 124.506 114.573C124.247 114.887 123.991 115.201 123.743 115.524C123.974 116.89 124.14 118.27 124.217 119.65C125.525 120.388 126.764 121.176 127.895 121.989C128.138 122.162 128.38 122.341 128.622 122.523C129.467 120.11 129.966 117.777 130.103 115.482C128.68 115.358 127.336 115.146 126.229 114.931V114.934Z" fill="#B17FCE"/>
<path d="M135.342 136.914C131.173 133.054 125.991 131.14 126.363 138.922C126.418 140.046 126.52 141.393 126.696 142.85C129.595 144.784 132.979 146.202 136.369 147.081C135.416 143.632 135.028 140.123 135.342 136.914Z" fill="#B17FCE"/>
<path d="M135.34 161.815L135.871 161.437C135.312 161.398 134.753 161.337 134.2 161.266C134.178 161.299 134.156 161.332 134.134 161.365C134.18 161.401 134.23 161.44 134.277 161.476C134.632 161.575 134.984 161.688 135.337 161.815H135.34Z" fill="#B17FCE"/>
<path d="M130.596 129.586C129.572 129.002 128.561 128.385 127.564 127.746C126.408 129.355 124.957 130.757 123.167 131.848C122.625 132.178 122.069 132.459 121.507 132.702C121.028 133.624 120.488 134.542 119.891 135.431C120.923 137.569 122.462 139.448 124.329 141.059C124.109 138.285 124.376 135.66 125.453 133.655C127.735 129.396 131.838 131.418 135.626 134.993C135.805 134.09 136.045 133.219 136.353 132.393C134.305 131.586 132.352 130.594 130.599 129.589L130.596 129.586Z" fill="#B17FCE"/>
<path d="M122.206 109.197C122.622 110.535 122.999 111.924 123.313 113.342C123.577 113.403 123.841 113.458 124.106 113.516C125.243 112.122 126.484 110.797 127.812 109.563C125.898 109.067 124.006 108.927 122.203 109.197H122.206Z" fill="#B17FCE"/>
<path d="M105.127 94.068C105.829 95.0046 106.49 96.032 107.09 97.1256C107.09 97.1256 107.09 97.1201 107.09 97.1173C107.605 95.1698 107.913 93.1397 107.988 91.1123C106.724 91.8202 105.716 92.7816 105.124 94.0652L105.127 94.068Z" fill="#B17FCE"/>
<path d="M122.192 113.068C121.903 111.822 121.556 110.595 121.165 109.404C119.639 109.775 118.191 110.46 116.87 111.486C118.61 112.08 120.394 112.617 122.195 113.068H122.192Z" fill="#B17FCE"/>
<path d="M109.318 93.4568C109.403 92.9039 109.486 92.3373 109.557 91.7651C109.53 91.7459 109.502 91.7266 109.475 91.7046C109.442 92.285 109.389 92.8682 109.318 93.4568Z" fill="#B17FCE"/>
<path d="M98.8522 88.4607C100.815 89.5102 102.638 91.0527 104.293 93.0223C104.899 91.791 105.785 90.8434 106.862 90.1244C105.463 89.433 103.968 88.9317 102.376 88.681C101.281 88.5075 100.086 88.4331 98.8522 88.4607Z" fill="#B17FCE"/>
<path d="M108.057 99.0684C108.068 99.0933 108.082 99.1209 108.093 99.1457C108.206 98.7231 108.316 98.3004 108.42 97.875C108.307 98.2728 108.186 98.6706 108.057 99.0684Z" fill="#B17FCE"/>
<path d="M139.666 158.724L141.279 157.575C140.968 157.132 140.671 156.678 140.381 156.216C139.498 156.496 138.622 156.832 137.766 157.192C137.917 157.63 138.049 158.064 138.157 158.488C138.661 158.546 139.162 158.625 139.666 158.724Z" fill="#B17FCE"/>
<path d="M107.493 100.64C107.228 101.327 106.942 102.01 106.625 102.692C106.587 102.771 106.532 102.837 106.471 102.893C106.477 102.898 106.479 102.904 106.485 102.912C106.881 102.733 107.192 102.348 107.385 101.685C107.457 101.435 107.528 101.184 107.6 100.934C107.564 100.835 107.528 100.739 107.493 100.64Z" fill="#B17FCE"/>
<path d="M106.316 106.911C106.264 106.465 106.181 106.032 106.063 105.616C105.947 105.41 105.834 105.2 105.721 104.988C103.998 103.98 102.398 102.848 100.933 101.606C99.953 101.517 98.926 101.619 97.8907 101.862C100.831 103.834 103.805 105.567 106.316 106.911Z" fill="#B17FCE"/>
<path d="M121.791 118.38C122.229 118.589 122.658 118.809 123.082 119.032C123.033 118.267 122.958 117.503 122.859 116.741C122.485 117.277 122.127 117.825 121.791 118.38Z" fill="#B17FCE"/>
<path d="M116.875 117.708C117.811 118.61 118.75 119.474 119.681 120.299C119.683 120.294 119.686 120.288 119.689 120.28C119.89 119.881 120.102 119.485 120.319 119.089C119.196 118.583 118.042 118.115 116.872 117.705L116.875 117.708Z" fill="#B17FCE"/>
<path d="M115.191 122.533C116.209 123.01 117.239 123.445 118.274 123.836C118.517 123.021 118.817 122.206 119.175 121.393C117.597 119.996 116.08 118.531 114.64 116.999C114.031 116.829 113.423 116.672 112.814 116.537C112.476 117.187 112.145 117.862 111.829 118.564C113.12 119.707 114.254 121.035 115.191 122.536V122.533Z" fill="#B17FCE"/>
<path d="M123.954 125.518C124.119 125.555 124.287 125.588 124.452 125.622C124.298 125.507 124.144 125.392 123.99 125.277C123.979 125.358 123.968 125.44 123.954 125.518Z" fill="#B17FCE"/>
<path d="M119.213 124.172C120.416 124.593 121.622 124.953 122.825 125.248C122.866 124.992 122.902 124.736 122.935 124.477C121.919 123.699 120.922 122.89 119.948 122.057C119.667 122.753 119.419 123.457 119.215 124.172H119.213Z" fill="#B17FCE"/>
<path d="M122.65 126.219C121.416 125.894 120.191 125.503 118.98 125.057C118.751 126.018 118.589 126.993 118.512 127.982C118.388 129.547 118.506 131.023 118.825 132.411C119.489 132.26 120.122 132.053 120.731 131.8C120.844 131.574 120.957 131.351 121.064 131.12C121.796 129.558 122.311 127.91 122.647 126.216L122.65 126.219Z" fill="#B17FCE"/>
<path d="M113.387 121.631C112.897 120.976 112.368 120.365 111.796 119.818C111.674 119.702 111.545 119.595 111.421 119.482C111.303 119.763 111.187 120.046 111.071 120.33C111.831 120.786 112.602 121.221 113.384 121.631H113.387Z" fill="#B17FCE"/>
<path d="M135.05 151.963C135.838 151.235 136.54 150.401 137.132 149.475C137.013 149.142 136.901 148.806 136.79 148.47C134.447 147.82 132.156 146.916 130.105 145.927C132.046 147.806 133.734 149.974 135.05 151.965V151.963Z" fill="#B17FCE"/>
<path d="M115.251 142.491C115.81 141.533 116.245 140.483 116.573 139.381C114.805 141.045 112.773 142.345 110.521 142.987C110.978 143.929 111.493 144.846 112.068 145.728C113.321 144.981 114.414 143.921 115.248 142.491H115.251Z" fill="#B17FCE"/>
<path d="M123.184 141.496C121.48 139.961 120.155 138.24 119.214 136.386C118.825 136.912 118.415 137.421 117.986 137.915C117.757 139.35 117.352 140.735 116.719 142.019C117.575 141.465 118.564 141.113 119.684 141.044C120.874 140.972 122.044 141.143 123.184 141.496Z" fill="#B17FCE"/>
<path d="M117.256 132.665C117.03 129.255 116.009 125.828 114.321 123.027C113.104 122.415 111.923 121.757 110.788 121.063C109.571 124.267 108.666 127.787 108.376 131.222C111.251 132.379 114.249 132.968 117.256 132.665Z" fill="#B17FCE"/>
<path d="M107.363 117.373C107.382 117.538 107.401 117.701 107.415 117.866C108.296 118.529 109.21 119.159 110.144 119.753C110.27 119.409 110.4 119.068 110.537 118.73C109.662 118.036 108.726 117.428 107.74 116.906C107.619 117.065 107.495 117.222 107.363 117.376V117.373Z" fill="#B17FCE"/>
<path d="M101.919 117.441C103.519 118.041 104.317 117.617 104.793 116.715C104.584 116.533 104.375 116.349 104.171 116.165C103.086 116.36 102.045 116.671 101.057 117.103C101.343 117.218 101.63 117.331 101.922 117.441H101.919Z" fill="#B17FCE"/>
<path d="M118.203 135.762C118.357 135.567 118.511 135.371 118.66 135.17C118.497 134.772 118.352 134.37 118.222 133.963C118.236 134.565 118.23 135.168 118.203 135.765V135.762Z" fill="#B17FCE"/>
<path d="M102.137 127.783C103.857 128.981 105.666 130.039 107.533 130.868C107.701 129.133 108.012 127.373 108.442 125.585C108.841 123.916 109.306 122.194 109.885 120.5C109.039 119.957 108.222 119.395 107.44 118.822C107.404 121.139 106.663 123.439 105.196 125.232C104.303 126.32 103.268 127.169 102.139 127.783H102.137Z" fill="#B17FCE"/>
<path d="M136.97 99.8112C136.692 99.4024 136.405 98.999 136.113 98.604C135.97 99.035 135.855 99.488 135.758 99.9576C136.16 99.8996 136.565 99.8499 136.97 99.8112Z" fill="#B17FCE"/>
<path d="M135.483 103.296C135.489 103.541 135.508 103.783 135.522 104.025C136.543 103.481 137.59 102.996 138.65 102.576C138.421 102.138 138.173 101.704 137.915 101.274C137.119 101.327 136.323 101.417 135.536 101.544C135.489 102.111 135.47 102.694 135.486 103.296H135.483Z" fill="#B17FCE"/>
<path d="M108.434 103.822C108.29 104.268 108.15 104.703 108.015 105.111C107.954 105.301 107.842 105.45 107.698 105.552C107.797 105.943 107.875 106.342 107.927 106.753C108.21 107.24 108.508 107.722 108.816 108.199C108.891 108.235 108.959 108.27 109.031 108.304C108.973 106.835 108.772 105.323 108.431 103.822H108.434Z" fill="#B17FCE"/>
<path d="M140.541 116.234C141.755 117.403 142.909 118.647 143.997 119.945C144.016 119.962 144.038 119.975 144.06 119.992C144.658 119.222 145.175 118.399 145.599 117.533C143.994 116.985 142.279 116.487 140.544 116.234H140.541Z" fill="#B17FCE"/>
<path d="M130.579 109.236C131.636 109.685 132.674 110.225 133.674 110.847C134.376 111.282 135.059 111.751 135.736 112.233C135.629 112.007 135.527 111.781 135.43 111.55C134.089 110.426 132.87 109.161 131.804 107.798C131.361 108.12 130.92 108.453 130.485 108.798C130.518 108.944 130.551 109.09 130.582 109.236H130.579Z" fill="#B17FCE"/>
<path d="M151.045 114.045C148.801 110.45 147.567 106.74 147.958 103.145C147.653 102.988 147.341 102.837 147.019 102.699C146.397 102.434 145.766 102.211 145.125 102.024C145.078 102.027 145.031 102.032 144.984 102.038C147.358 105.836 148.787 110.387 148.043 114.659C149.059 114.566 150.073 114.356 151.045 114.045Z" fill="#B17FCE"/>
<path d="M138.787 94.6014C138.658 94.7033 138.531 94.8107 138.41 94.9209C140.321 96.3643 142.056 98.0446 143.543 99.9673C144.085 100.058 144.622 100.171 145.151 100.309C142.807 98.9371 140.674 96.8684 138.79 94.5986L138.787 94.6014Z" fill="#B17FCE"/>
<path d="M93.6647 83.7528C93.4087 84.798 93.293 85.8461 93.3233 86.8803C93.461 86.8886 93.5959 86.8996 93.7308 86.9106C94.0364 85.9809 94.2429 85.0153 94.3641 84.0361C94.3366 84.0251 94.3118 84.0168 94.2842 84.0058C94.0943 83.9315 93.885 83.8435 93.6647 83.75V83.7528Z" fill="#B17FCE"/>
<path d="M109.504 90.8413C109.554 90.8745 109.606 90.9076 109.656 90.9408C109.678 90.7446 109.697 90.5457 109.716 90.3496C109.648 90.3745 109.581 90.3993 109.513 90.4242C109.513 90.5623 109.507 90.7032 109.504 90.8413Z" fill="#B17FCE"/>
<path d="M100.942 98.408C102.071 99.171 103.007 99.8459 103.805 100.185C103.285 98.1105 103.211 96.0225 103.874 94.0419C102.393 92.1523 100.617 90.5519 98.5686 89.4252C97.9986 89.1112 97.4011 88.8578 96.7899 88.6484C96.2695 90.1084 95.8895 91.6675 95.6362 93.2596C95.7409 93.4387 95.8482 93.615 95.9584 93.7913C97.3708 95.568 99.0614 97.1354 100.945 98.408H100.942Z" fill="#B17FCE"/>
<path d="M95.4402 87.1783C95.5971 87.2141 95.7568 87.2526 95.911 87.2938C96.1891 86.6364 96.4947 85.979 96.8444 85.3243C96.9242 85.1758 97.0041 85.0355 97.0867 84.8924C96.7535 84.8127 96.4121 84.7219 96.0652 84.6201C95.9193 85.5416 95.7128 86.4026 95.4402 87.1811V87.1783Z" fill="#B17FCE"/>
<path d="M138.035 116.062C137.173 116.075 136.314 116.172 135.474 116.381C131.724 117.307 136.504 121.562 137.903 123.149C138.228 123.515 138.561 123.893 138.905 124.273C140.469 123.46 141.854 122.427 143.018 121.215C141.143 119.7 139.447 117.973 138.038 116.062H138.035Z" fill="#B17FCE"/>
<path d="M99.5625 83.6006C102.272 83.972 104.78 83.6116 106.421 81.8154C106.157 81.1882 105.859 80.5748 105.524 79.9834C103.046 80.484 101.08 81.7879 99.5625 83.6006Z" fill="#B17FCE"/>
<path d="M107.539 89.7142C107.687 89.6315 107.844 89.5572 107.999 89.4828C107.935 87.1937 107.558 84.9377 106.817 82.8359C104.904 84.7586 102.095 85.7035 98.4443 85.1581C97.9625 85.9321 97.5412 86.7695 97.175 87.6482C100.969 87.37 104.441 88.1496 107.539 89.7169V89.7142Z" fill="#B17FCE"/>
<path d="M134.239 107.775C134.14 107.293 134.057 106.806 133.994 106.314C133.743 106.474 133.492 106.636 133.242 106.801C133.55 107.123 133.886 107.447 134.239 107.775Z" fill="#B17FCE"/>
<path d="M101.782 136.794C104.343 137.816 106.719 139.378 108.638 141.301C107.575 138.213 107.245 135.067 107.454 131.836C105.188 130.855 103.038 129.594 101.124 128.255C100.576 128.478 100.014 128.654 99.439 128.778C100.433 131.026 101.22 134.086 101.782 136.797V136.794Z" fill="#B17FCE"/>
<path d="M113.431 146.048C113.183 146.241 112.924 146.418 112.66 146.586C112.792 146.771 112.927 146.954 113.062 147.136C113.197 146.741 113.351 146.351 113.524 145.97C113.491 145.995 113.464 146.023 113.431 146.048Z" fill="#B17FCE"/>
<path d="M105.824 121.768C106.146 120.702 106.264 119.63 106.212 118.575C105.989 118.782 105.76 118.98 105.524 119.173C105.482 119.286 105.438 119.396 105.397 119.506C105.248 119.9 104.841 120.236 104.392 120.079C104.37 120.071 104.348 120.063 104.329 120.057C101.895 121.682 98.9622 122.671 96.129 122.798C97.6737 124.288 99.3587 125.751 101.151 127.079C103.277 126.181 105.011 124.459 105.821 121.768H105.824Z" fill="#B17FCE"/>
<path d="M112.211 115.262C112.324 115.066 112.439 114.871 112.561 114.679C111.688 113.661 110.845 112.624 110.041 111.562C110.036 111.556 110.033 111.551 110.027 111.545C109.865 112.456 109.623 113.344 109.287 114.197C109.188 114.445 109.08 114.69 108.962 114.929C110.041 114.97 111.126 115.083 112.211 115.262Z" fill="#B17FCE"/>
<path d="M97.0792 118.571C97.484 118.243 97.8998 117.948 98.321 117.67C97.6051 117.347 96.892 117.009 96.1872 116.653C95.9559 117.295 95.6888 117.923 95.3777 118.535C94.9757 119.32 94.5296 120.033 94.045 120.678C94.213 120.857 94.3865 121.039 94.5599 121.218C95.2785 120.251 96.1128 119.358 97.082 118.571H97.0792Z" fill="#B17FCE"/>
<path d="M124.161 154.712C125.703 155.07 127.192 155.139 128.594 154.968C128.481 154.776 128.368 154.58 128.263 154.379C126.911 151.798 125.441 147.886 124.717 143.942C121.46 141.912 118.158 141.529 115.826 145.159C115.132 146.242 114.634 147.412 114.298 148.633C116.939 151.577 120.314 153.822 124.163 154.712H124.161Z" fill="#B17FCE"/>
<path d="M110.922 117.81C111.148 117.298 111.385 116.792 111.641 116.297C110.559 116.102 109.48 115.97 108.42 115.917C108.381 115.978 108.343 116.041 108.304 116.102C109.226 116.6 110.099 117.172 110.922 117.81Z" fill="#B17FCE"/>
<path d="M136.622 158.396C136.556 158.199 136.484 158 136.407 157.799C135.782 158.092 135.171 158.393 134.59 158.694C134.62 158.705 134.651 158.716 134.678 158.73C135.221 158.517 135.868 158.401 136.622 158.396Z" fill="#B17FCE"/>
<path d="M137.528 144.195C137.74 145.063 138.021 146.018 138.36 147.032C138.993 145.382 139.343 143.558 139.34 141.628C139.34 141.531 139.334 141.435 139.334 141.341C138.709 140.512 138.049 139.716 137.36 138.956C137.305 141.426 137.399 143.663 137.528 144.198V144.195Z" fill="#B17FCE"/>
<path d="M143.094 156.285L144.363 155.376C143.787 155.426 143.206 155.509 142.617 155.628C142.771 155.852 142.928 156.073 143.094 156.285Z" fill="#B17FCE"/>
<path d="M137.443 136.839C138 137.445 138.539 138.073 139.057 138.699C138.776 137.222 138.294 135.798 137.658 134.435C137.562 135.176 137.493 135.996 137.443 136.839Z" fill="#B17FCE"/>
<path d="M131.381 117.085C131.152 116.744 131.287 116.138 131.675 115.964C131.986 115.827 132.3 115.703 132.614 115.584C132.138 115.59 131.659 115.579 131.185 115.557C131.147 118.27 130.712 120.975 129.808 123.454C130.813 124.275 131.796 125.159 132.733 126.098C134.316 125.933 135.808 125.567 137.196 125.035C134.905 122.361 132.958 119.432 131.383 117.083L131.381 117.085Z" fill="#B17FCE"/>
<path d="M122.619 170.603C122.68 170.656 122.743 170.708 122.804 170.758L132.052 164.158C132.039 163.565 132.063 162.99 132.138 162.45C126.369 161.684 123.426 165.711 122.619 170.603Z" fill="#B17FCE"/>
<path d="M127.14 145.739C127.713 148.841 128.663 152.102 130.221 154.648C131.471 154.309 132.631 153.766 133.677 153.055C132.033 150.75 129.682 147.907 127.14 145.739Z" fill="#B17FCE"/>
<path d="M124.142 124.042C124.987 124.705 125.857 125.358 126.747 125.989C126.851 126.003 126.953 126.014 127.058 126.028C127.501 125.267 127.887 124.46 128.217 123.626C127.022 122.766 125.692 121.912 124.263 121.1C124.274 122.086 124.236 123.069 124.142 124.039V124.042Z" fill="#B17FCE"/>
<path d="M88.5793 115.917C87.7973 114.807 87.076 113.661 86.4207 112.484C86.3739 113.9 86.7483 115.399 87.4367 116.757C87.7918 116.451 88.1746 116.17 88.5793 115.917Z" fill="#B17FCE"/>
<path d="M92.2414 112.5C93.2821 112.566 94.3367 112.544 95.3912 112.428C95.6252 110.654 95.6831 108.855 95.5702 107.065C93.9182 106.745 92.2138 106.77 90.5563 107.25C89.4164 107.58 88.5408 108.117 87.8938 108.787C89.0998 110.123 90.5453 111.373 92.2414 112.5Z" fill="#B17FCE"/>
<path d="M94.9285 137.486C94.8487 137.386 94.7716 137.281 94.6945 137.179C94.1879 137.187 93.684 137.221 93.1857 137.284C93.2049 137.348 93.2215 137.414 93.2407 137.478C93.8437 137.859 94.4522 138.223 95.0717 138.571C95.0304 138.207 94.9809 137.845 94.9285 137.486Z" fill="#B17FCE"/>
<path d="M107.759 171.711C109.064 173.05 110.617 175.047 112.098 177.385C112.252 176.95 112.395 176.498 112.519 176.016C112.629 175.584 112.718 175.154 112.797 174.722C112.541 174.16 112.252 173.617 111.919 173.097C110.493 172.719 109.102 172.259 107.759 171.714V171.711Z" fill="#B17FCE"/>
<path d="M118.258 172.656C116.339 170.066 115.124 167.02 114.81 163.617C113.549 161.252 112.699 158.628 112.365 155.756C111.95 156.759 111.377 157.755 110.636 158.738C113.569 162.587 115.251 167.169 114.879 172.202C116 172.411 117.129 172.566 118.26 172.656H118.258Z" fill="#B17FCE"/>
<path d="M92.5717 91.3545C92.4506 91.4453 92.3267 91.5305 92.2028 91.6103C92.9159 92.7299 93.5602 93.8934 94.1274 95.0928C94.1411 94.7737 94.1576 94.4573 94.1852 94.1355C93.5436 93.2553 92.9957 92.3283 92.5717 91.3545Z" fill="#B17FCE"/>
<path d="M97.5005 113.203C97.3491 113.236 97.1949 113.263 97.0435 113.294C97.0269 113.401 97.0049 113.509 96.9884 113.616C98.6487 113.539 100.287 113.635 101.87 113.905C100.061 111.961 98.5055 109.848 97.2692 107.614C97.3684 109.132 97.3546 110.652 97.1977 112.145C97.2032 112.145 97.2059 112.145 97.2114 112.145C97.908 111.996 98.2026 113.06 97.5033 113.208L97.5005 113.203Z" fill="#B17FCE"/>
<path d="M106.771 168.549C105.285 167.817 103.688 167.285 102.044 166.935C102.184 167.031 102.322 167.131 102.465 167.224C104.825 168.77 107.449 170.045 110.21 170.982C109.261 170.039 108.123 169.219 106.771 168.552V168.549Z" fill="#B17FCE"/>
<path d="M110.659 146.41C110.108 145.333 109.387 144.314 108.533 143.372C106.452 143.609 104.544 143.452 102.806 142.967C102.776 143.556 102.038 143.746 101.581 143.551C100.094 142.909 98.5247 142.187 96.936 141.386C96.9663 142.072 96.9773 142.758 96.9691 143.443C97.1673 143.622 97.3738 143.799 97.5886 143.967C101.102 146.741 106.465 148.027 110.662 146.41H110.659Z" fill="#B17FCE"/>
<path d="M92.1479 114.372C91.7239 114.102 91.3081 113.822 90.8979 113.536C90.7602 113.519 90.6253 113.503 90.4904 113.483C90.3913 114.001 90.3059 114.523 90.2316 115.051C90.8566 114.782 91.5036 114.556 92.1507 114.372H92.1479Z" fill="#B17FCE"/>
<path d="M116.386 155.112C121.573 155.277 126.413 156.649 130.604 159.015C130.926 158.83 131.257 158.64 131.592 158.45C130.744 157.775 129.976 156.974 129.313 156.065C124.024 156.759 118.164 153.974 114.015 149.87C113.459 152.944 113.861 156.266 114.874 159.351C115.015 158.169 115.251 156.957 115.598 155.715C115.695 155.373 116.025 155.103 116.388 155.114L116.386 155.112Z" fill="#B17FCE"/>
<path d="M90.6716 79.6817C90.8038 79.5799 90.9359 79.4754 91.0736 79.3736C91.1011 79.0353 91.1314 78.6997 91.1727 78.3613C90.5752 78.5759 89.9888 78.829 89.4188 79.1398C89.3528 79.3709 89.2839 79.5992 89.2151 79.8302C89.4629 79.9623 89.7217 80.097 89.9888 80.2346C90.2146 80.0475 90.4403 79.8632 90.6689 79.6844L90.6716 79.6817Z" fill="#B17FCE"/>
<path d="M148.457 132.449C144.461 131.925 140.945 129.196 137.966 125.912C136.576 126.458 135.128 126.832 133.641 127.047C134.83 128.333 135.926 129.708 136.876 131.154C137.182 130.521 137.528 129.915 137.925 129.347C138.242 128.893 138.79 128.824 139.211 129.182C140.56 130.33 141.912 131.603 143.178 132.98C143.33 132.994 143.481 133.011 143.635 133.019C145.458 133.143 147.055 132.925 148.457 132.449Z" fill="#B17FCE"/>
<path d="M91.5798 86.6598C91.277 85.2935 91.087 83.8997 91.0209 82.4811C90.7924 82.3626 90.5556 82.2359 90.316 82.1064C89.0467 83.2331 87.9371 84.4561 86.9955 85.7508C87.2185 85.8858 87.414 86.018 87.5572 86.1447C88.006 86.5441 88.441 86.9545 88.865 87.3732C89.7901 87.1253 90.696 86.9683 91.5853 86.9022C91.5853 86.8196 91.5771 86.7397 91.5798 86.657V86.6598Z" fill="#B17FCE"/>
<path d="M109.684 159.885C109.437 160.158 109.178 160.431 108.902 160.701C107.655 161.918 106.339 163.001 105.004 163.893C106.524 164.513 107.889 165.155 108.949 165.689C109.894 166.166 109.062 167.576 108.126 167.105C107.135 166.607 105.45 165.695 103.503 164.813C103.145 165.012 102.787 165.194 102.429 165.359C107.168 166.37 110.475 168.648 112.586 171.692C112.76 171.738 112.936 171.78 113.112 171.821C113.25 167.56 111.992 163.409 109.684 159.88V159.885Z" fill="#B17FCE"/>
<path d="M158.862 102.091C160.018 105.097 159.547 108.435 157.984 111.149C158.179 111.491 158.386 111.829 158.609 112.163C159.132 112.939 161.607 115.792 163.98 117.898C164.451 117.479 164.941 117.077 165.451 116.692C166.436 112.782 165.952 108.426 164.366 104.706C162.306 103.757 160.046 102.151 157.942 100.199C158.303 100.816 158.614 101.449 158.862 102.094V102.091Z" fill="#B17FCE"/>
<path d="M96.7266 68.8158C98.318 69.9832 99.9976 70.9552 101.74 71.6077C103.145 70.7266 104.604 69.9695 106.066 69.35C106.515 69.16 106.983 68.9728 107.459 68.791C106.38 65.1814 104.475 61.7645 102.2 59.135C100.958 57.7005 99.5267 56.3018 97.905 55.2307C97.5333 55.0876 97.1588 54.9609 96.7816 54.8535C98.8494 58.5403 99.1881 63.444 96.7293 68.8158H96.7266Z" fill="#B17FCE"/>
<path d="M164.107 119.968C163.184 120.944 162.369 122.025 161.667 123.186C161.692 123.211 161.719 123.233 161.744 123.255C161.912 123.103 162.075 122.941 162.234 122.768C163.011 121.926 163.655 120.999 164.178 120.017C164.153 120.001 164.131 119.981 164.107 119.965V119.968Z" fill="#B17FCE"/>
<path d="M166.657 105.496C167.813 108.644 168.221 111.942 167.632 115.239C168.237 114.883 168.857 114.561 169.49 114.277C169.523 113.729 169.542 113.178 169.548 112.627C169.567 110.358 169.509 107.961 169.242 105.584L169.08 105.468C168.383 105.689 167.563 105.686 166.657 105.496Z" fill="#B17FCE"/>
<path d="M148.046 136.116C147.454 136.362 146.89 136.659 146.353 136.998C148.233 139.841 149.549 142.992 149.75 146.353C152.44 144.063 152.702 139.879 151.491 135.588C150.353 135.494 149.197 135.643 148.046 136.119V136.116Z" fill="#B17FCE"/>
<path d="M93.9427 165.182C93.3314 164.7 92.7725 164.076 92.2741 163.297C92.0373 163.465 91.8171 163.655 91.6216 163.883C91.1067 164.475 90.7956 165.162 90.6304 165.902C91.7235 165.591 92.8386 165.352 93.9427 165.184V165.182Z" fill="#B17FCE"/>
<path d="M174.451 114.798C173.325 114.922 172.251 115.156 171.229 115.475C170.929 117.937 170.343 120.274 169.432 122.317C169.244 122.736 168.672 122.805 168.314 122.612C167.364 122.102 166.436 121.549 165.536 120.957C165.527 120.971 165.522 120.985 165.513 120.998C164.754 122.331 163.839 123.397 162.815 124.225C166.769 127.719 171.235 130.77 175.847 132.912L176.552 132.411C181.466 128.903 183.124 122.884 181.527 117.678C179.792 115.715 177.408 114.465 174.451 114.792V114.798Z" fill="#B17FCE"/>
<path d="M84.4409 168.763C84.2537 168.35 84.0719 167.937 83.8957 167.521C82.6237 167.35 81.2965 167.254 79.9419 167.224V175.562C79.9419 175.589 79.9419 175.614 79.9446 175.642C80.3411 172.738 82.0592 170.463 84.4381 168.766L84.4409 168.763Z" fill="#B17FCE"/>
<path d="M108.496 158.783C108.576 158.7 108.645 158.615 108.722 158.532C106.831 156.067 104.399 153.976 101.566 152.469C101.186 152.266 98.5596 151.257 96.2082 150.42C95.7263 152.75 95.0105 154.984 94.0303 157.025C94.7076 158.612 95.5501 160.116 96.5468 161.513C98.7688 161.758 101.2 162.463 103.433 163.289C105.443 161.893 107.266 160.089 108.496 158.786V158.783Z" fill="#B17FCE"/>
<path d="M99.2456 166.525C99.0061 166.506 98.7665 166.489 98.5242 166.478C98.0204 166.519 97.5303 166.511 97.0512 166.456C96.8557 166.458 96.6602 166.467 96.4647 166.475C97.5771 166.525 98.6784 166.691 99.766 166.98C99.5898 166.833 99.4191 166.678 99.2456 166.525Z" fill="#B17FCE"/>
<path d="M86.2005 123.338C85.3277 122.071 84.956 120.616 85.6828 119.03C85.7737 118.831 85.8756 118.641 85.9857 118.457C85.6608 118.184 85.3222 117.922 84.967 117.666C83.7335 119.291 82.4642 121.426 81.897 123.343C81.9245 123.511 81.9575 123.679 81.9906 123.847C82.5247 124.134 84.3172 123.834 86.2005 123.338Z" fill="#B17FCE"/>
<path d="M156.402 107.407C156.678 108.021 156.912 108.683 157.102 109.391C157.126 109.448 157.154 109.506 157.179 109.564C158.44 107.462 158.632 104.84 156.986 101.917C156.713 101.432 156.413 100.959 156.088 100.493C155.962 100.573 155.832 100.65 155.703 100.725C155.584 102.992 155.783 105.242 156.402 107.404V107.407Z" fill="#B17FCE"/>
<path d="M119.115 133.468C119.189 133.706 119.272 133.94 119.357 134.175C119.552 133.877 119.742 133.573 119.927 133.264C119.657 133.341 119.387 133.41 119.115 133.471V133.468Z" fill="#B17FCE"/>
<path d="M86.5008 79.9173C84.4303 78.6529 82.2083 77.1737 80.0359 75.5513C80.1791 76.4603 80.5067 77.3748 81.0464 78.2673C81.9577 79.7686 83.0068 81.1927 84.2568 82.4267C84.8185 81.4819 85.5949 80.6445 86.5035 79.9173H86.5008Z" fill="#B17FCE"/>
<path d="M104.194 170.839C100.799 168.56 96.6578 167.166 92.5607 168.282C92.4093 168.323 92.2111 168.372 91.9825 168.436C95.8593 170.71 98.0124 174.479 96.4347 180.22C96.9661 180.928 97.5223 181.616 98.095 182.291C100.229 183.4 102.456 183.948 104.524 183.794L111.43 178.868C109.588 175.672 107.162 172.827 104.194 170.837V170.839Z" fill="#B17FCE"/>
<path d="M136.351 114.017C135.572 113.423 134.779 112.854 133.964 112.331C132.934 111.668 131.885 111.099 130.833 110.628C131.031 111.88 131.147 113.159 131.18 114.444C132.711 114.507 134.655 114.501 136.351 114.017Z" fill="#B17FCE"/>
<path d="M135.629 105.329C135.803 106.88 136.133 108.373 136.612 109.797C137.568 110.552 138.556 111.274 139.492 111.913C139.597 111.753 139.691 111.582 139.776 111.401C140.88 109.021 140.376 106.269 139.143 103.575C138.54 103.828 137.948 104.098 137.378 104.387C136.8 104.679 136.216 104.993 135.632 105.327L135.629 105.329Z" fill="#B17FCE"/>
<path d="M137.616 150.753C137.597 150.781 137.578 150.811 137.559 150.839C136.983 151.662 136.366 152.378 135.717 152.995C135.788 153.111 135.86 153.227 135.929 153.34C136.4 154.117 136.799 154.88 137.137 155.623C137.914 155.29 138.701 154.982 139.497 154.714C138.792 153.442 138.162 152.114 137.616 150.75V150.753Z" fill="#B17FCE"/>
<path d="M125.227 113.738C126.876 114.049 128.52 114.275 130.139 114.388C130.153 112.981 130.032 111.584 129.775 110.187C129.547 110.099 129.318 110.019 129.093 109.939C127.727 111.11 126.425 112.383 125.23 113.735L125.227 113.738Z" fill="#B17FCE"/>
<path d="M141.304 110.026C141.161 111.012 140.842 111.83 140.393 112.513C141.847 113.455 143.091 114.127 143.757 114.312C144.674 114.568 145.643 114.697 146.629 114.714C147.491 111.185 146.968 107.232 144.6 103.448C144.33 103.018 144.052 102.602 143.766 102.194C142.518 102.406 141.288 102.759 140.098 103.2C141.095 105.434 141.632 107.753 141.304 110.026Z" fill="#B17FCE"/>
<path d="M138.938 113.993C138.852 114.054 138.767 114.112 138.679 114.167C138.759 114.297 138.844 114.424 138.927 114.551C139.315 114.559 139.703 114.576 140.091 114.606C139.7 114.413 139.318 114.209 138.938 113.993Z" fill="#B17FCE"/>
<path d="M139.095 101.231C139.28 101.554 139.456 101.883 139.624 102.212C139.918 102.107 140.216 102.005 140.513 101.908C141.116 101.715 141.719 101.554 142.319 101.422C141.254 101.275 140.174 101.215 139.095 101.228V101.231Z" fill="#B17FCE"/>
<path d="M117.085 137.062C117.247 135.98 117.321 134.867 117.302 133.743C114.306 133.999 111.225 133.344 108.307 132.189C108.199 134.355 108.354 136.467 108.846 138.426C109.119 139.508 109.477 140.585 109.915 141.643C112.553 140.894 115.006 139.28 117.085 137.062Z" fill="#B17FCE"/>
<path d="M120.422 120.952C121.271 121.692 122.152 122.437 123.063 123.174C123.132 122.28 123.157 121.381 123.14 120.479C122.496 120.135 121.835 119.799 121.16 119.48C120.896 119.964 120.651 120.454 120.422 120.952Z" fill="#B17FCE"/>
<path d="M122.982 129.341C122.786 129.881 122.569 130.432 122.327 130.986C123.959 129.989 125.336 128.617 126.435 127.003C126.426 126.997 126.415 126.989 126.407 126.983C125.529 126.857 124.65 126.691 123.775 126.493C123.577 127.46 123.318 128.413 122.982 129.341Z" fill="#B17FCE"/>
<path d="M99.254 118.08C97.8635 118.993 96.6217 120.222 95.5892 121.821C98.3068 121.966 100.991 121.152 103.244 119.664C101.93 119.183 100.595 118.657 99.2567 118.08H99.254Z" fill="#B17FCE"/>
<path d="M115.909 123.789C116.598 125.117 117.137 126.56 117.509 128.114C117.575 126.987 117.754 125.844 118.041 124.698C117.322 124.414 116.612 124.111 115.909 123.789Z" fill="#B17FCE"/>
<path d="M114.791 111.786C113.249 111.23 111.727 110.622 110.223 109.965C110.218 110.045 110.212 110.127 110.207 110.207C111.124 111.453 112.109 112.655 113.133 113.813C113.635 113.098 114.185 112.419 114.791 111.786Z" fill="#B17FCE"/>
<path d="M120.953 117.993C121.479 117.114 122.052 116.252 122.66 115.407C122.586 114.966 122.506 114.528 122.415 114.093C120.256 113.561 118.12 112.939 116.013 112.217C115.264 112.916 114.565 113.737 113.918 114.688C114.287 115.087 114.659 115.484 115.033 115.872C117.062 116.407 119.056 117.134 120.95 117.996L120.953 117.993Z" fill="#B17FCE"/>
<path d="M108.026 81.3213C107.957 81.4287 107.883 81.5334 107.811 81.6381C108.775 83.8996 109.331 86.3457 109.477 88.8964C109.593 88.8606 109.711 88.8276 109.827 88.7945C109.94 86.4201 109.758 84.0291 108.915 81.8805C108.623 81.6904 108.329 81.5031 108.026 81.3213Z" fill="#B17FCE"/>
<path d="M133.847 103.3C133.863 102.809 133.893 102.325 133.94 101.845C133.343 101.977 132.751 102.129 132.164 102.3C130.551 102.771 131.002 104.187 132.423 105.892C132.899 105.572 133.379 105.264 133.869 104.966C133.838 104.415 133.83 103.859 133.849 103.297L133.847 103.3Z" fill="#B17FCE"/>
<path d="M111.352 92.1676C116.118 95.9507 119.7 101.7 121.812 107.983C124.125 107.595 126.534 107.854 128.883 108.602C129.026 108.479 129.169 108.357 129.315 108.236C128.8 106.375 128.048 104.508 127.043 102.608C124.56 97.9166 121.396 93.3488 117.674 89.3537C115.68 89.3041 113.555 89.417 111.608 89.8273C111.55 90.6037 111.462 91.3829 111.352 92.1649V92.1676Z" fill="#B17FCE"/>
<path d="M141.852 99.7543C140.549 98.2696 139.12 96.9556 137.584 95.8042C137.193 96.3 136.854 96.8565 136.568 97.4625C137.119 98.1869 137.658 98.9389 138.165 99.713C139.401 99.6386 140.635 99.6469 141.852 99.7543Z" fill="#B17FCE"/>
<path d="M91.6578 88.0176C91.0163 88.0645 90.3747 88.1585 89.7415 88.2911C90.0085 88.5867 90.2646 88.8933 90.5124 89.2082C90.9144 89.0342 91.3329 88.8712 91.7652 88.7248C91.7239 88.4927 91.6881 88.2552 91.6605 88.0176H91.6578Z" fill="#B17FCE"/>
<path d="M94.6306 88.9513C94.4379 89.2869 94.2369 89.5977 94.0249 89.8811C94.2094 90.3652 94.4076 90.8438 94.6251 91.3142C94.8096 90.4807 95.0409 89.6473 95.3272 88.811C95.0932 88.8523 94.8619 88.8991 94.6306 88.9486V88.9513Z" fill="#B17FCE"/>
<path d="M94.4902 82.241C94.4957 81.9715 94.4984 81.7046 94.4957 81.4351C94.3856 81.6661 94.2837 81.8972 94.1901 82.1282C94.2892 82.1668 94.3911 82.2053 94.4929 82.2438L94.4902 82.241Z" fill="#B17FCE"/>
<path d="M132.964 93.1714C133.757 94.0516 134.624 95.0364 135.492 96.0954C135.717 95.6581 135.962 95.2427 136.238 94.8521C135.087 94.0874 133.881 93.4079 132.634 92.811C132.747 92.9321 132.857 93.0531 132.964 93.1714Z" fill="#B17FCE"/>
<path d="M93.6921 79.5928C93.2515 79.8678 92.822 80.1539 92.409 80.4483C92.3897 80.7563 92.3787 81.0644 92.376 81.3725C92.4916 81.4248 92.6073 81.4743 92.7257 81.5265C93.0065 80.8609 93.3314 80.2172 93.6921 79.5928Z" fill="#B17FCE"/>
<path d="M100.571 138.356C100.56 138.293 100.549 138.229 100.54 138.166C99.2326 137.715 97.8862 137.41 96.5453 137.267C96.5508 137.305 96.5563 137.341 96.5618 137.379C96.9638 137.786 97.3823 138.18 97.8228 138.557C98.7893 139.382 99.7695 140.042 100.752 140.567C100.796 140.1 100.739 139.387 100.571 138.356Z" fill="#B17FCE"/>
<path d="M128.525 127.209C130.813 128.716 133.222 130.055 135.703 131.071C134.734 129.68 133.619 128.38 132.421 127.185C131.141 127.298 129.835 127.3 128.522 127.209H128.525Z" fill="#B17FCE"/>
<path d="M96.7679 114.673C96.7349 114.811 96.7046 114.951 96.6688 115.086C97.7702 115.658 98.8908 116.192 100.033 116.679C101.118 116.145 102.244 115.738 103.404 115.452C103.302 115.356 103.2 115.257 103.098 115.157C101.033 114.665 98.888 114.5 96.7679 114.671V114.673Z" fill="#B17FCE"/>
<path d="M93.5268 115.213C92.5604 115.466 91.4315 115.838 90.3605 116.326C91.0681 117.265 91.7757 118.133 92.4503 118.912C92.61 119.094 92.7724 119.279 92.9349 119.463C93.692 118.364 94.2868 117.163 94.686 115.866C94.2978 115.654 93.9096 115.436 93.5268 115.213Z" fill="#B17FCE"/>
<path d="M107.25 142.085C105.774 140.765 104.037 139.651 102.178 138.817C102.36 139.81 102.503 140.696 102.611 141.395C104.172 141.95 105.727 142.165 107.25 142.085Z" fill="#B17FCE"/>
<path d="M135.563 155.977C135.285 155.471 134.886 154.822 134.393 154.084C133.311 154.852 132.154 155.391 130.957 155.727C131.535 156.491 132.182 157.165 132.906 157.713C133.806 157.22 134.745 156.731 135.714 156.269C135.662 156.172 135.618 156.073 135.563 155.977Z" fill="#B17FCE"/>
<path d="M111.209 93.1055C110.708 96.1424 109.891 99.1326 109.092 101.732C109.86 104.069 110.304 106.52 110.273 108.899C110.64 109.069 110.975 109.218 111.27 109.342C112.652 109.931 114.092 110.501 115.568 111.035C117.16 109.604 118.913 108.689 120.747 108.213C120.538 107.635 120.318 107.065 120.089 106.506C118.184 101.858 115.238 96.7069 111.209 93.1082V93.1055Z" fill="#B17FCE"/>
<path d="M161.667 100.18L158.762 98.1084C158.68 98.2074 158.597 98.3092 158.512 98.4055C159.726 99.4067 161.023 100.317 162.364 101.142C162.138 100.818 161.906 100.496 161.67 100.18H161.667Z" fill="#B17FCE"/>
<path d="M162.835 118.984C160.916 117.423 159.206 115.651 157.819 113.685C157.819 113.698 157.821 113.715 157.824 113.729C158.391 115.806 158.653 117.971 158.617 120.147C159.187 120.756 159.774 121.359 160.377 121.951C161.051 120.959 161.883 119.951 162.838 118.984H162.835Z" fill="#B17FCE"/>
<path d="M109.218 78.6496C110.119 78.7543 111.033 78.9333 111.955 79.1757C112.69 76.2724 114.844 73.7189 117.247 71.9064C118.062 71.2921 118.888 70.7467 119.714 70.2591L117.619 68.7661C115.496 71.1158 112.814 72.9559 109.794 73.7051C109.854 75.4901 109.659 77.1621 109.216 78.6524L109.218 78.6496Z" fill="#B17FCE"/>
<path d="M158.702 139.145C158.837 140.955 159.066 142.803 159.391 144.66L162.053 142.759C161.134 141.561 159.991 140.285 158.7 139.145H158.702Z" fill="#B17FCE"/>
<path d="M158.33 123.335C158.597 123.567 158.864 123.807 159.132 124.05C159.22 123.879 159.305 123.711 159.396 123.542C159.071 123.255 158.752 122.965 158.435 122.672C158.405 122.89 158.369 123.114 158.33 123.338V123.335Z" fill="#B17FCE"/>
<path d="M105.501 73.9902C104.295 73.8552 103.136 73.6046 102.018 73.2603C101.839 73.3842 101.66 73.5109 101.484 73.6376C102.183 74.1555 102.836 74.7092 103.442 75.2904C104.846 75.4997 106.187 76.0259 107.379 76.9735C107.668 77.2021 107.935 77.4472 108.191 77.7007C108.392 76.4831 108.45 75.2325 108.381 73.9682C107.445 74.0866 106.484 74.1004 105.498 73.993L105.501 73.9902Z" fill="#B17FCE"/>
<path d="M157.451 126.456C156.367 129.205 154.464 131.659 151.636 132.348C151.603 132.37 151.573 132.392 151.54 132.411C151.771 132.976 151.997 133.568 152.212 134.18C153.66 134.458 155.086 135.006 156.455 135.766C156.526 132.428 157.052 129.235 158.12 126.356C157.9 126.398 157.677 126.431 157.451 126.458V126.456Z" fill="#B17FCE"/>
<path d="M150.912 147.217C150.546 147.515 150.155 147.774 149.753 148.005C149.731 148.437 149.693 148.872 149.629 149.313C149.497 150.241 149.274 151.174 148.969 152.088L157.501 146C156.882 143.126 156.518 140.238 156.455 137.429C155.274 136.667 154.018 136.075 152.724 135.774C153.927 139.926 154.211 144.547 150.912 147.215V147.217Z" fill="#B17FCE"/>
<path d="M89.0644 67.2539C88.6128 67.0218 88.1282 66.8699 87.6051 66.8257C88.1613 67.2069 88.6651 67.3865 89.0644 67.2539Z" fill="#B17FCE"/>
<path d="M100.114 72.7077C100.155 72.6773 100.196 72.6469 100.238 72.6165C99.8549 72.4563 99.475 72.2878 99.1033 72.1055C99.4502 72.2988 99.7861 72.5005 100.117 72.7077H100.114Z" fill="#B17FCE"/>
<path d="M87.2875 80.6172C86.9021 80.9473 86.5249 81.3021 86.1642 81.6927C85.7154 82.1769 85.3574 82.6747 85.0793 83.1809C85.1262 83.2221 85.173 83.2662 85.2225 83.3074C85.8613 83.8438 86.6598 82.2869 87.2903 80.6172H87.2875Z" fill="#B17FCE"/>
<path d="M80.0601 73.3447C83.0419 75.9037 85.966 77.9697 87.764 79.0302C87.7943 79.0109 87.8273 78.9889 87.8576 78.9696C88.1329 78.0964 88.3174 77.4077 88.3449 77.281C88.8846 74.8377 89.2177 72.4081 89.3774 69.9868C88.0338 69.0888 86.803 68.122 85.6934 67.0835C84.939 67.3369 84.1213 67.7694 83.2347 68.425C81.5138 69.6976 80.3905 71.444 80.0601 73.3447Z" fill="#B17FCE"/>
<path d="M84.3446 85.834C84.3363 86.0826 84.3363 86.3313 84.3583 86.5827C84.474 86.4004 84.5924 86.2208 84.7135 86.0412C84.5924 85.9694 84.4685 85.9031 84.3446 85.834Z" fill="#B17FCE"/>
<path d="M94.7081 54.4461C93.0258 54.2588 91.349 54.4048 89.7576 54.8428C89.9448 55.6829 90.1128 56.5231 90.2642 57.366C91.1453 59.454 91.5115 61.7485 91.5307 64.1037C92.5632 65.2166 93.6646 66.3019 94.821 67.2991C95.4708 67.2605 95.9912 66.8721 96.2803 65.9383C97.6625 61.4648 96.831 57.4211 94.7081 54.4461Z" fill="#B17FCE"/>
<path d="M88.2266 65.1852C87.1418 64.2239 86.1946 63.1688 85.5696 61.9568C85.0382 60.9266 84.8592 59.7146 84.8895 58.4337C84.7271 58.1996 84.5646 57.9627 84.4022 57.7285C83.5872 58.4447 82.8603 59.2628 82.238 60.1718C82.9704 61.4748 84.5509 63.8272 86.0927 65.4717C86.8059 65.2844 87.5272 65.1797 88.2266 65.1825V65.1852Z" fill="#B17FCE"/>
<path d="M94.873 70.1443C94.5206 69.8499 94.1406 69.5611 93.7496 69.2695C93.8818 69.5254 94.0085 69.7839 94.1296 70.0562C94.2094 70.0562 94.2893 70.0617 94.3609 70.0838C95.6577 70.4881 96.8609 70.9722 97.9871 71.5224C97.2794 71.129 96.5911 70.7027 95.922 70.2405C95.6137 70.4524 95.1704 70.3918 94.873 70.1443Z" fill="#B17FCE"/>
<path d="M93.5929 135.586C93.3809 135.246 93.1744 134.898 92.9762 134.544C92.9018 134.834 92.8303 135.125 92.7587 135.415C92.7752 135.511 92.7945 135.605 92.811 135.699C93.0698 135.655 93.3314 135.616 93.5902 135.586H93.5929Z" fill="#B17FCE"/>
<path d="M91.71 127.693C91.4567 127.566 91.2034 127.432 90.9556 127.286C90.9528 127.286 90.9473 127.28 90.9446 127.28C91.107 127.872 91.2888 128.458 91.4897 129.035C91.5476 128.584 91.6192 128.136 91.71 127.693Z" fill="#B17FCE"/>
<path d="M114.706 173.713C114.628 174.22 114.529 174.728 114.408 175.24C114.554 175.639 114.686 176.046 114.805 176.459L118.032 174.159C116.911 174.057 115.801 173.911 114.706 173.713Z" fill="#B17FCE"/>
<path d="M90.509 123.841C90.4237 123.891 90.3411 123.94 90.2557 123.987C90.3549 124.656 90.4788 125.321 90.6247 125.981C91.0487 126.234 91.4865 126.466 91.938 126.669C91.514 125.695 91.0404 124.749 90.509 123.844V123.841Z" fill="#B17FCE"/>
<path d="M89.1854 121.836C88.6705 121.144 88.1171 120.483 87.5113 119.869C87.2553 119.61 87.002 119.365 86.7459 119.128C86.1952 120.095 86.1512 121.224 86.9772 122.519C87.0873 122.692 87.2057 122.858 87.3269 123.023C88.0042 122.822 88.6595 122.604 89.2432 122.389C89.2212 122.205 89.2019 122.02 89.1854 121.836Z" fill="#B17FCE"/>
<path d="M95.5011 106.165C95.3965 105.057 95.2286 103.954 94.9973 102.864C92.8304 103.838 90.7956 105.222 89.2648 106.517C91.2169 105.794 93.3755 105.739 95.5011 106.165Z" fill="#B17FCE"/>
<path d="M88.7449 111.904C88.1061 111.374 87.4921 110.821 86.9111 110.24C86.8451 110.386 86.7872 110.537 86.7377 110.689C86.8561 110.909 86.9745 111.129 87.0956 111.346C87.6298 111.561 88.1804 111.748 88.7449 111.904Z" fill="#B17FCE"/>
<path d="M89.5213 124.354C89.2872 124.462 89.0532 124.562 88.8109 124.653C89.0945 124.907 89.3946 125.147 89.7058 125.374C89.6397 125.034 89.5763 124.694 89.5213 124.354Z" fill="#B17FCE"/>
<path d="M88.059 170.144C88.5105 170.246 88.9813 170.505 89.4604 170.884C89.342 170.392 89.2484 169.897 89.1686 169.399C88.7143 169.619 88.3205 169.867 88.059 170.144Z" fill="#B17FCE"/>
<path d="M91.7431 147.293C92.8334 147.525 93.9238 147.814 95.0031 148.158C95.2371 146.456 95.3418 144.726 95.3362 143.018C94.3891 141.869 93.6071 140.586 92.9904 139.214C92.6903 139.032 92.3929 138.85 92.0955 138.663C91.6082 141.522 91.3549 144.426 91.2695 147.282C91.2695 147.296 91.2695 147.31 91.2695 147.324C91.4182 147.274 91.5834 147.26 91.7459 147.293H91.7431Z" fill="#B17FCE"/>
<path d="M90.4929 174.11C90.1212 173.639 89.7329 173.193 89.3172 172.783C88.9455 172.414 88.6178 172.193 88.3342 172.091C89.4548 173.835 90.6333 175.565 91.9632 177.157C91.4042 176.16 90.9141 175.141 90.4956 174.11H90.4929Z" fill="#B17FCE"/>
<path d="M90.8036 169.622C91.324 171.749 92.3895 173.859 93.2155 175.316C93.7855 176.316 94.3967 177.299 95.0383 178.26C95.5394 174.085 93.7882 171.333 90.8036 169.625V169.622Z" fill="#B17FCE"/>
<path d="M99.5488 164.929C99.7801 164.945 100.006 164.967 100.226 164.992C100.826 164.783 101.427 164.505 102.019 164.172C100.535 163.564 98.9706 163.031 97.4866 162.736C98.1226 163.512 98.8109 164.246 99.5461 164.929H99.5488Z" fill="#B17FCE"/>
<path d="M94.7166 149.9C93.3674 149.44 92.3624 149.139 92.3679 149.258C92.4891 151.159 92.7396 153.078 93.271 154.916C93.9043 153.326 94.3807 151.638 94.7166 149.9Z" fill="#B17FCE"/>
<path d="M83.4029 145.973C81.6545 151.684 82.3648 158.198 84.5262 164.421C87.0841 163.353 89.1216 161.656 90.7075 159.553C90.6002 159.145 90.4955 158.724 90.4047 158.275C89.2207 152.383 88.9509 144.858 90.1954 138.046C87.197 139.244 84.6969 141.752 83.4056 145.973H83.4029Z" fill="#B17FCE"/>
<path d="M89.003 166.43C89.1792 164.163 90.1539 162.805 91.6049 162.084C91.492 161.844 91.3846 161.588 91.2827 161.326C89.6307 163.29 87.5767 164.874 85.0767 165.918C85.0987 165.976 85.1207 166.031 85.1427 166.089C86.1587 166.268 87.1472 166.499 88.0916 166.783C88.3917 166.659 88.6973 166.541 89.0057 166.43H89.003Z" fill="#B17FCE"/>
<path d="M85.8827 167.852H85.8702V167.865L85.8827 167.852Z" fill="#B17FCE"/>
<path d="M84.5544 183.997C83.9707 179.757 84.0946 175.263 85.4741 172.092C85.5704 171.869 85.6723 171.668 85.7769 171.486C85.5677 171.089 85.3639 170.69 85.1657 170.288C80.2895 174.03 81.1623 179.126 84.5544 184V183.997Z" fill="#B17FCE"/>
<path d="M83.5705 87.9037C83.3365 87.058 83.2401 86.1958 83.3117 85.3254C83.0666 85.2262 82.8051 85.1188 82.5573 85.0059C82.4829 85.2097 82.3755 85.4769 82.2324 85.8322C81.8304 86.8377 81.4835 87.9368 80.9906 88.9284C81.5055 89.1956 82.0672 89.4711 82.6591 89.7355C82.9345 89.113 83.2373 88.5014 83.5705 87.9037Z" fill="#B17FCE"/>
<path d="M83.924 91.9355C83.3595 93.8748 83.1172 95.8664 83.2219 97.8469C83.6624 95.825 84.5655 94.0015 85.9174 92.4727C85.2566 92.3405 84.5875 92.1559 83.924 91.9383V91.9355Z" fill="#B17FCE"/>
<path d="M79.9419 96.0026V104.166C80.7541 106.468 82.2162 108.316 84.0857 109.684C84.2812 109.42 84.4822 109.158 84.6914 108.902C84.3473 108.062 84.0444 107.212 83.7828 106.35C82.475 104.252 81.5554 101.898 81.1864 99.2405C80.9056 97.2196 81.035 95.2206 81.4755 93.2905C80.8422 94.1165 80.3246 95.0251 79.9446 96.0081L79.9419 96.0026Z" fill="#B17FCE"/>
<path d="M82.9018 164.991C80.0025 156.921 79.4518 148.369 83.7581 141.816C85.3247 139.434 87.2493 137.796 89.3584 136.786C85.2972 133.754 81.9271 129.974 80.6468 125.266C79.9859 125.045 79.9391 124.233 80.231 123.17C80.2035 122.967 80.1759 122.766 80.1567 122.562C79.7629 118.22 81.0653 114.192 83.3588 110.722C82.0014 109.717 80.834 108.437 79.9419 106.859V165.561C80.9882 165.451 81.9766 165.261 82.9018 164.994V164.991Z" fill="#B17FCE"/>
<path d="M108.893 68.2799C110.812 67.6353 112.88 67.1175 114.961 66.8695L104.333 59.2861C106.313 61.8617 107.852 64.8752 108.794 67.9383C108.83 68.054 108.857 68.167 108.89 68.2827L108.893 68.2799Z" fill="#B17FCE"/>
<path d="M81.7869 84.541C81.813 84.5687 81.8392 84.5872 81.8624 84.6056C81.8363 84.5841 81.8072 84.5625 81.7869 84.541Z" fill="#B17FCE"/>
<path d="M82.0124 91.2084C81.3076 90.9058 80.6137 90.573 79.9419 90.2236V93.9069C80.5063 92.9331 81.2002 92.0254 82.0124 91.2084Z" fill="#B17FCE"/>
<path d="M171.238 107.011C171.478 109.181 171.541 111.399 171.406 113.556C174.286 112.677 177.279 112.718 179.958 114.335C179.085 113.005 177.951 111.804 176.552 110.804L171.238 107.011Z" fill="#B17FCE"/>
<path d="M166.222 119.636C167.48 120.423 168.46 120.605 168.711 119.556C168.975 118.454 169.173 117.338 169.314 116.214C168.532 116.572 167.788 116.991 167.084 117.459C166.85 118.187 166.563 118.914 166.225 119.638L166.222 119.636Z" fill="#B17FCE"/>
<path d="M160.718 125.538C164.132 128.873 167.439 132.934 169.622 137.363L174.57 133.832C170.335 131.683 165.63 128.692 161.362 125.207C161.15 125.325 160.935 125.436 160.718 125.538Z" fill="#B17FCE"/>
<path d="M100.041 186.942C99.1735 186.173 98.3337 185.369 97.5298 184.531C97.6537 185.272 96.8359 185.887 96.1806 185.294C95.7704 184.923 95.3574 184.529 94.9443 184.118C94.3496 185.435 93.5043 187.19 92.5599 188.826C95.0627 188.961 97.6537 188.385 100.041 186.939V186.942Z" fill="#B17FCE"/>
<path d="M86.7752 173.3C86.4861 174.153 86.3732 175.252 86.3182 176.017C86.0731 179.52 86.1557 183.303 86.8413 186.852C87.0368 187.069 87.2378 187.284 87.4415 187.499C88.4658 187.994 89.5479 188.361 90.6685 188.586C91.8304 186.772 92.9317 184.88 93.7578 182.893C91.2742 180.213 88.8513 176.918 86.7725 173.3H86.7752Z" fill="#B17FCE"/>
<path d="M91.244 152.887C91.3129 154.559 91.4808 156.25 91.8277 157.864C92.026 157.528 92.216 157.184 92.3977 156.834C91.9131 155.581 91.5249 154.264 91.244 152.889V152.887Z" fill="#B17FCE"/>
<path d="M93.9123 99.0123C93.1221 96.7563 92.0951 94.4342 90.7707 92.3076C89.6556 92.6905 88.4496 92.7814 87.1996 92.6602C88.9314 94.8418 91.3021 96.9987 93.9095 99.0123H93.9123Z" fill="#B17FCE"/>
<path d="M94.7629 161.414C94.1765 160.525 93.6451 159.596 93.177 158.625C92.9264 159.054 92.6621 159.469 92.384 159.873C92.585 160.465 92.8163 161.037 93.0861 161.584C93.612 161.477 94.1765 161.425 94.7657 161.414H94.7629Z" fill="#B17FCE"/>
<path d="M90.6883 135.725C90.9003 134.844 91.1426 133.981 91.4125 133.141C91.3519 132.447 91.3271 131.75 91.3409 131.053C90.7957 129.649 90.3469 128.189 89.9945 126.704C89.2428 126.225 88.4416 125.657 87.7147 125.01C86.0875 125.462 84.317 125.608 82.4475 125.484C82.7146 126.249 83.0532 127.01 83.4773 127.762C85.2697 130.927 87.8 133.549 90.6883 135.728V135.725Z" fill="#B17FCE"/>
<path d="M88.8911 104.741C90.3862 103.544 92.4182 102.233 94.6209 101.28C94.5493 101.019 94.4777 100.754 94.4006 100.496C93.1643 99.5155 91.9584 98.4967 90.7964 97.4312C89.5161 96.2582 87.9412 94.7907 86.5645 93.1387C86.4158 93.3011 86.2699 93.4691 86.1322 93.6425C84.2682 95.9939 83.6432 98.695 83.8167 101.487C84.3426 103.381 85.2044 105.226 86.4296 106.958C87.2061 106.173 88.0293 105.432 88.8911 104.741Z" fill="#B17FCE"/>
<path d="M84.3175 115.969C84.7498 115.627 85.2756 115.672 85.6005 116.134C85.7465 116.341 85.9089 116.539 86.0879 116.732C85.9557 116.393 85.8346 116.038 85.7272 115.666C85.3885 114.484 85.2591 113.195 85.3858 111.953C85.1765 111.848 84.97 111.741 84.769 111.625C83.1583 114.099 82.0542 116.859 81.7761 119.69C82.7811 117.892 83.9265 116.28 84.3202 115.966L84.3175 115.969Z" fill="#B17FCE"/>
<path d="M96.0185 164.944C96.5279 164.905 97.0317 164.881 97.5246 164.872C96.8087 164.122 96.1369 163.332 95.5201 162.496C94.8703 162.477 94.2536 162.523 93.6919 162.664C93.7883 162.818 93.8819 162.977 93.9865 163.126C94.6033 163.998 95.2888 164.584 96.0185 164.944Z" fill="#B17FCE"/>
<path d="M80.1704 69.0393C81.1837 67.8961 82.8026 66.7309 84.5841 65.9817C83.3175 64.6374 82.241 63.183 81.3681 61.6294C80.4678 63.4034 79.9419 65.4335 79.9419 67.662V69.3175C80.0162 69.2238 80.0878 69.1329 80.1704 69.0393Z" fill="#B17FCE"/>
<path d="M108.232 72.3603C108.13 71.6066 107.99 70.8556 107.811 70.1074C106.387 70.6961 105 71.3975 103.678 72.1897C105.162 72.5226 106.682 72.6023 108.229 72.3603H108.232Z" fill="#B17FCE"/>
<path d="M109.675 72.0447C110.118 71.918 110.564 71.7638 111.01 71.5792C112.85 70.8217 114.557 69.6262 116.027 68.147C113.805 68.2599 111.492 68.7612 109.232 69.5628C109.427 70.403 109.581 71.2321 109.675 72.0447Z" fill="#B17FCE"/>
<path d="M80.655 85.3987C80.9359 84.7294 81.1837 84.0242 81.5857 83.4127C81.9078 82.9224 82.6925 82.8452 82.9954 83.4127C83.0862 83.5835 83.2982 83.7625 83.5791 83.9498C83.5818 83.9361 83.5873 83.925 83.5901 83.9113C82.2547 82.578 80.9359 81.0217 79.9419 79.3579V87.1782C80.1787 86.586 80.4182 85.9937 80.655 85.4015V85.3987Z" fill="#B17FCE"/>
<path d="M101.3 185.673C101.385 185.757 101.476 185.836 101.562 185.92L101.779 185.757C101.619 185.731 101.46 185.705 101.3 185.673Z" fill="#B17FCE"/>
<path d="M158.583 133.795C158.545 134.886 158.55 136.006 158.592 137.143C160.326 138.438 161.923 140.059 163.294 141.874L168.162 138.402C166.287 134.128 163.413 130.114 159.979 126.711C159.148 128.952 158.669 131.356 158.586 133.798L158.583 133.795Z" fill="#B17FCE"/>
<path d="M165.544 102.946C165.544 102.946 165.555 102.968 165.561 102.981C165.592 103 165.623 103.016 165.653 103.035L165.547 102.949L165.544 102.946Z" fill="#B17FCE"/>
<path d="M92.8997 76.8976C93.2548 76.8095 93.6045 76.7353 93.9514 76.6693C93.9459 76.6445 93.9404 76.6197 93.9377 76.5922C93.8055 75.9678 93.6513 75.3104 93.4724 74.6475C93.3044 75.1013 93.1557 75.6322 93.0291 76.2566C92.985 76.4685 92.9437 76.683 92.9024 76.8976H92.8997Z" fill="#B17FCE"/>
<path d="M129.287 89.5209C129.692 89.8871 130.083 90.2478 130.458 90.6057C132.759 91.4593 134.962 92.5606 136.997 93.918C137.22 93.6785 137.454 93.4527 137.702 93.2435C135.675 90.5975 133.982 87.8304 132.691 85.6827C132.443 85.267 132.652 84.5594 133.181 84.4823C135.26 84.1629 137.473 84.1987 139.736 84.5401L130.535 77.9761C130.995 81.7564 130.273 85.8727 129.29 89.5237L129.287 89.5209Z" fill="#B17FCE"/>
<path d="M119.32 89.6235C123.175 93.8444 126.515 98.616 128.827 103.751C129.359 104.932 129.808 106.207 130.171 107.54C130.474 107.3 130.78 107.063 131.088 106.835C130.16 105.519 129.373 104.125 128.764 102.691C128.552 102.195 128.701 101.667 129.254 101.491C130.829 100.976 132.478 100.541 134.158 100.221C134.348 99.1447 134.629 98.1232 135.003 97.176C133.745 95.6149 132.481 94.2464 131.49 93.2029C131.008 92.699 130.512 92.1924 130.006 91.6886C129.541 91.5151 129.07 91.3526 128.596 91.1985C128.467 91.2866 128.318 91.3389 128.164 91.3196C125.779 91.0525 122.398 90.6368 119.32 89.6235Z" fill="#B17FCE"/>
<path d="M152.482 93.632L143.253 87.0457C141.579 86.6876 134.767 85.9687 134.866 86.1229C136.191 88.2357 137.559 90.3457 139.134 92.2877C140.654 91.4972 142.532 91.1611 144.823 91.4366C147.43 91.7506 150.183 92.9048 152.598 94.5851C152.7 94.4887 152.799 94.3895 152.901 94.2931C152.758 94.0727 152.617 93.8523 152.482 93.6292V93.632Z" fill="#B17FCE"/>
<path d="M150.095 104.5C150.189 107.516 151.359 110.505 153.085 113.204C153.925 112.775 154.704 112.26 155.384 111.667C154.239 108.858 152.485 106.329 150.095 104.497V104.5Z" fill="#B17FCE"/>
<path d="M151.414 95.8191C149.869 94.7421 148.171 93.9129 146.395 93.4474C144.016 92.8276 141.978 92.9626 140.329 93.6788C142.515 96.0946 145.58 98.8244 148.801 99.8794C149.33 98.5985 150.098 97.3452 151.142 96.1276C151.232 96.0202 151.326 95.921 151.417 95.8164L151.414 95.8191Z" fill="#B17FCE"/>
<path d="M152.364 115.986C151.623 116.259 150.841 116.446 150.023 116.534C149.302 116.612 148.583 116.634 147.867 116.612C150.924 117.912 153.812 119.713 156.334 121.683C156.392 121.388 156.441 121.093 156.488 120.793C154.96 119.24 153.564 117.631 152.364 115.986Z" fill="#B17FCE"/>
<path d="M111.683 88.3775C113.03 88.1571 114.445 88.0745 115.852 88.0855C114.293 87.1544 113.03 85.9452 112.322 84.364C111.975 84.0858 111.623 83.8131 111.267 83.5459C111.603 85.0719 111.722 86.7027 111.683 88.3775Z" fill="#B17FCE"/>
<path d="M96.0981 100.628C96.1256 100.647 96.1532 100.666 96.178 100.685C97.1664 100.352 98.1714 100.113 99.1654 99.9996C97.9374 98.7876 96.8278 97.4929 95.8531 96.1294C95.6824 95.9503 95.5144 95.7685 95.3492 95.584C95.3354 95.7355 95.3217 95.887 95.3107 96.0385C95.2666 96.6555 95.2583 97.267 95.2749 97.8758C95.4263 98.3083 95.5667 98.7463 95.6989 99.187C95.8393 99.658 95.9715 100.143 96.0981 100.63V100.628Z" fill="#B17FCE"/>
<path d="M91.9819 89.7026C91.6955 89.8076 91.4147 89.9209 91.1366 90.0369C91.233 90.1723 91.3321 90.3077 91.4257 90.4431C91.646 90.2966 91.8552 90.1309 92.0535 89.9375C92.0314 89.8601 92.0039 89.7828 91.9819 89.7026Z" fill="#B17FCE"/>
<path d="M89.7051 90.7271C89.4078 90.8908 89.1159 91.0628 88.8351 91.2459C89.2206 91.2265 89.5923 91.171 89.9529 91.0822C89.8703 90.9629 89.7905 90.8436 89.7051 90.7271Z" fill="#B17FCE"/>
<path d="M96.7434 77.9952C96.5644 78.2101 96.391 78.4277 96.223 78.6481C96.3442 80.0805 96.3579 81.5046 96.2616 82.8516C96.8646 83.0362 97.473 83.2014 98.076 83.3364C99.6482 81.174 101.532 79.8381 103.605 79.1412C101.683 78.3919 99.662 77.8603 97.6493 77.6592C97.3436 77.7611 97.0408 77.874 96.7407 77.9952H96.7434Z" fill="#B17FCE"/>
<path d="M155.981 123.217C153.126 121.016 150.048 119.237 146.947 118.027C146.54 118.851 146.03 119.65 145.405 120.418C145.306 120.54 145.207 120.655 145.105 120.774C147.908 122.751 151.752 124.782 155.367 125.14C155.601 124.52 155.805 123.878 155.981 123.22V123.217Z" fill="#B17FCE"/>
<path d="M85.958 90.909C86.3985 91.019 86.8363 91.1043 87.2713 91.1648C87.822 90.7109 88.425 90.2928 89.0803 89.9187C88.7499 89.5116 88.403 89.121 88.045 88.7441C87.1227 89.0495 86.2333 89.4401 85.3936 89.916C85.5643 90.246 85.7515 90.5761 85.958 90.909Z" fill="#B17FCE"/>
<path d="M92.6539 78.2971C92.943 78.1139 93.2376 77.9336 93.5405 77.7588C93.2624 77.8032 92.9871 77.8587 92.7145 77.9197C92.6925 78.0446 92.676 78.1722 92.6567 78.2971H92.6539Z" fill="#B17FCE"/>
<path d="M144.046 136.492C143.41 135.614 142.722 134.771 141.984 133.969C140.638 133.76 139.294 133.416 137.978 132.978C139.266 135.333 140.142 137.834 140.398 140.393C140.519 140.55 140.638 140.707 140.753 140.864C141.607 139.197 142.716 137.68 144.046 136.495V136.492Z" fill="#B17FCE"/>
<path d="M93.9538 127.39C93.9704 127.396 93.9869 127.401 94.0034 127.404C95.9418 124.465 97.5828 125.302 98.9071 127.699C99.2871 127.641 99.6588 127.561 100.025 127.459C98.2601 126.143 96.5117 124.685 94.8459 123.102C94.3173 124.115 93.8685 125.195 93.5133 126.319C93.6675 126.672 93.8162 127.03 93.9538 127.39Z" fill="#B17FCE"/>
<path d="M89.9675 117.776C89.9317 118.469 89.9152 119.165 89.9235 119.861C90.3805 120.224 90.8706 120.538 91.3883 120.777C91.5122 120.835 91.6361 120.882 91.76 120.934C91.9142 120.763 92.0656 120.59 92.2115 120.414C91.4323 119.561 90.6834 118.681 89.9675 117.773V117.776Z" fill="#B17FCE"/>
<path d="M96.1008 127.779C96.4009 127.808 96.7011 127.828 96.9984 127.834C96.7093 127.671 96.4092 127.643 96.1008 127.779Z" fill="#B17FCE"/>
<path d="M100.21 136.244C100.009 135.129 99.7885 134.016 99.5077 132.919C99.114 131.391 98.6128 129.961 98.0401 128.983C97.0572 129.063 96.0577 129.008 95.0638 128.823C94.9426 129.016 94.8215 129.234 94.7003 129.479C95.3446 131.443 95.876 133.465 96.2587 135.517C97.5858 135.6 98.9157 135.85 100.213 136.241L100.21 136.244Z" fill="#B17FCE"/>
<path d="M87.9985 117.723C88.3014 118.185 88.6428 118.62 89.0173 119.019C89.0035 118.339 89.0118 117.668 89.0366 117.011C88.6648 117.231 88.3152 117.47 87.9985 117.723Z" fill="#B17FCE"/>
<path d="M98.2963 107.921C99.5848 110.144 101.231 112.238 103.139 114.161C103.869 114.329 104.585 114.532 105.282 114.775C103.954 111.797 101.355 109.277 98.2963 107.921Z" fill="#B17FCE"/>
<path d="M94.4546 113.869C94.5124 113.861 94.5703 113.85 94.6253 113.841C94.8098 113.813 94.9915 113.794 95.176 113.771C95.1898 113.698 95.2008 113.626 95.2145 113.556C94.8346 113.595 94.4546 113.626 94.0719 113.642C94.1986 113.721 94.328 113.796 94.4546 113.872V113.869Z" fill="#B17FCE"/>
<path d="M121.063 169.2C121.262 168.548 121.498 167.889 121.787 167.231C123.695 162.843 126.848 161.047 130.339 160.948C124.296 157.072 116.674 153.987 116.25 160.683C116.209 161.33 116.201 161.978 116.22 162.62C116.886 163.961 117.66 165.212 118.503 166.316C119.287 167.341 120.146 168.305 121.066 169.203L121.063 169.2Z" fill="#B17FCE"/>
<path d="M105.29 112.127C105.469 112.356 105.634 112.593 105.791 112.835C106.086 111.46 106.389 109.786 106.389 108.152C102.994 106.428 99.7309 104.45 96.6554 102.21C96.6003 102.23 96.548 102.249 96.4929 102.268C96.7214 103.323 96.9142 104.4 97.0574 105.491C97.2473 105.921 97.4483 106.348 97.6659 106.772C100.714 107.855 103.511 109.838 105.293 112.127H105.29Z" fill="#B17FCE"/>
<path d="M138.206 131.971C139.01 132.223 139.82 132.433 140.635 132.601C140.208 132.192 139.767 131.795 139.316 131.408C138.85 131.01 138.487 131.284 138.206 131.969V131.971Z" fill="#B17FCE"/>
<path d="M140.312 147.858C141.317 147.996 142.302 148.084 143.261 148.122C142.655 146.668 141.92 145.249 141.077 143.889C140.634 145.17 140.372 146.514 140.309 147.858H140.312Z" fill="#B17FCE"/>
<path d="M84.7195 90.5548C84.6892 90.5004 84.6589 90.4431 84.6286 90.3887C84.5873 90.4173 84.546 90.4488 84.502 90.4775C84.5735 90.5033 84.6451 90.5319 84.7167 90.5577L84.7195 90.5548Z" fill="#B17FCE"/>
<path d="M120.422 172.455C120.472 171.902 120.551 171.34 120.662 170.778C119.219 169.552 117.914 168.194 116.788 166.707C117.374 168.918 118.42 170.982 120.02 172.745L120.422 172.458V172.455Z" fill="#B17FCE"/>
<path d="M143.996 121.97C142.669 123.284 141.226 124.325 139.695 125.124C141.95 127.523 144.605 129.864 147.738 130.63C148.423 130.798 149.062 130.867 149.665 130.859C148.302 127.917 146.581 125.052 144.577 122.391C144.382 122.253 144.189 122.11 143.996 121.97Z" fill="#B17FCE"/>
<path d="M140.321 149.225C140.42 150.916 140.85 152.577 141.665 154.081C141.667 154.087 141.673 154.092 141.676 154.101C142.705 153.867 143.735 153.723 144.754 153.696C144.729 153.026 144.616 152.291 144.404 151.478C144.228 150.806 144.022 150.14 143.788 149.476C142.661 149.492 141.497 149.404 140.321 149.228V149.225Z" fill="#B17FCE"/>
<path d="M101.253 76.9706C102.239 77.2275 103.211 77.559 104.161 77.9568C103.94 77.6778 103.715 77.4043 103.475 77.1391C102.759 76.9927 102.013 76.943 101.253 76.9734V76.9706Z" fill="#B17FCE"/>
<path d="M106.184 78.6008C106.316 78.587 106.445 78.5787 106.578 78.5704C106.327 78.3687 106.068 78.1864 105.798 78.0234C105.933 78.2113 106.057 78.4074 106.184 78.598V78.6008Z" fill="#B17FCE"/>
<path d="M95.118 72.7397C95.4704 73.9116 95.7485 75.1521 95.9495 76.4147C95.9633 76.4147 95.9743 76.4147 95.988 76.4147C95.988 76.4147 95.9881 76.4147 95.9908 76.4147C96.8691 75.419 97.8411 74.4975 98.8791 73.653C98.7965 73.6117 98.7166 73.565 98.6313 73.5237C97.1004 72.7728 95.9688 72.4867 95.1152 72.7425L95.118 72.7397Z" fill="#B17FCE"/>
<path d="M99.1543 75.507C99.8867 75.344 100.622 75.2363 101.351 75.1976C101.029 74.9517 100.699 74.7169 100.352 74.4932C99.939 74.8219 99.5398 75.1617 99.1543 75.507Z" fill="#B17FCE"/>
<path d="M113.274 79.5568C118.414 81.2281 123.654 84.7166 127.792 88.2161C128.379 87.3681 128.544 86.0134 128.78 84.2733C129.103 81.8724 129.271 79.1741 128.739 76.6961L121.36 71.4316C117.963 73.3755 114.279 76.396 113.274 79.5596V79.5568Z" fill="#B17FCE"/>
<path d="M115.474 85.6133C117.203 87.0044 119.268 87.9107 121.408 88.5084C122.388 88.6379 123.297 88.7811 124.095 88.9161C124.632 89.0042 125.163 89.1089 125.698 89.2246C126.243 89.1998 126.678 89.0924 127.027 88.9078C122.922 85.3048 118.164 82.1177 113.043 80.6055C112.839 82.3106 113.497 84.0294 115.474 85.6161V85.6133Z" fill="#B17FCE"/>
<path d="M110.202 79.9509C110.1 79.9344 110.001 79.9262 109.899 79.9097C110.241 80.5011 110.527 81.1255 110.764 81.7774C111.111 82.0332 111.455 82.2946 111.793 82.5586C111.67 81.7774 111.661 81.0072 111.755 80.2563C111.243 80.1352 110.725 80.0307 110.205 79.9482L110.202 79.9509Z" fill="#B17FCE"/>
<path d="M156.295 96.3496C156.295 96.3496 156.292 96.3635 156.289 96.3718C156.603 96.6964 156.928 97.0128 157.258 97.3207C157.308 97.2625 157.355 97.2042 157.404 97.1459L156.295 96.3496Z" fill="#B17FCE"/>
<path d="M89.2126 114.734C89.2676 114.25 89.3365 113.774 89.4163 113.309C88.9592 113.219 88.5077 113.111 88.0616 112.985C88.4361 113.585 88.8216 114.168 89.2126 114.734Z" fill="#B17FCE"/>
<path d="M91.3248 77.366C91.6029 75.6719 92.0599 73.9613 92.707 72.248C92.2747 71.1048 91.7515 70.0277 91.1183 69.1353C91.0852 69.3418 91.0494 69.5457 91.0136 69.7523C90.8374 72.5207 90.4217 75.2697 89.7361 77.9885C90.2592 77.7544 90.7906 77.5478 91.3275 77.366H91.3248Z" fill="#B17FCE"/>
<path d="M107.611 114.918C108.39 113.474 108.889 111.874 109.015 110.177C108.751 109.813 108.484 109.436 108.217 109.05C108.153 109.02 108.087 108.99 108.024 108.959C107.955 110.946 107.517 113.017 106.958 114.948C107.176 114.937 107.391 114.923 107.611 114.92V114.918Z" fill="#B17FCE"/>
<path d="M86.2942 88.2836C86.5971 88.1488 86.9 88.0278 87.2001 87.915C86.8587 87.6014 86.5035 87.3016 86.1373 87.021C85.7601 87.6262 85.4159 88.2451 85.1075 88.875C85.4903 88.6632 85.884 88.4651 86.2942 88.2863V88.2836Z" fill="#B17FCE"/>
<path d="M87.5226 55.6768C87.2803 55.7925 87.0435 55.9137 86.8094 56.0431C86.6883 56.7015 86.6002 57.3571 86.5671 57.9989C87.3491 59.0759 88.2247 60.2329 89.1856 61.4063C89.0424 60.0676 88.8469 58.7289 88.6019 57.3929C88.3403 56.8557 88.0319 56.3379 87.6657 55.8531C87.6189 55.7925 87.5694 55.7374 87.5226 55.6768Z" fill="#B17FCE"/>
<path d="M88.1768 62.8365C88.1768 62.8365 88.1988 62.8558 88.2099 62.8669C87.8905 62.4719 87.5738 62.0768 87.2627 61.6763C87.4967 62.0989 87.7968 62.4912 88.1768 62.8365Z" fill="#B17FCE"/>
<path d="M88.8145 81.2809C88.8005 81.2714 88.7836 81.2619 88.7695 81.2524C88.7582 81.2904 88.747 81.3251 88.7357 81.3631C88.761 81.3346 88.7864 81.3093 88.8145 81.2809Z" fill="#B17FCE"/>
<path d="M152.628 96.7373C152.314 97.1582 152.014 97.601 151.736 98.0687C151.306 98.7976 150.97 99.5376 150.714 100.286C151.865 100.399 153.019 100.25 154.139 99.7549C154.181 99.3147 154.236 98.8306 154.302 98.3052C153.776 97.7523 153.217 97.2269 152.625 96.7373H152.628Z" fill="#B17FCE"/>
<path d="M145.503 149.36C146.007 150.782 146.392 152.299 146.464 153.765C146.469 153.765 146.472 153.765 146.475 153.765C147.306 152.25 147.835 150.542 148.03 148.79C147.229 149.065 146.381 149.25 145.503 149.36Z" fill="#B17FCE"/>
<path d="M95.2483 140.502C94.9179 140.323 94.5903 140.142 94.2599 139.955C94.5655 140.529 94.9124 141.082 95.3062 141.611C95.2924 141.239 95.2731 140.871 95.2483 140.502Z" fill="#B17FCE"/>
<path d="M93.747 131.929C93.6121 132.333 93.4854 132.743 93.3643 133.156C93.6974 133.733 94.0581 134.294 94.4463 134.839C94.2426 133.876 94.0113 132.902 93.7497 131.929H93.747Z" fill="#B17FCE"/>
<path d="M93.5953 122.663C93.2071 122.602 92.8271 122.522 92.4527 122.423C92.2379 122.619 92.0176 122.803 91.7919 122.976C92.0975 123.491 92.3894 124.013 92.6647 124.544C92.9345 123.898 93.2429 123.268 93.5953 122.66V122.663Z" fill="#B17FCE"/>
<path d="M92.9549 129.293C92.9219 129.194 92.8833 129.095 92.8503 128.999C92.8062 129.252 92.7649 129.505 92.7291 129.758C92.8035 129.601 92.8806 129.45 92.9549 129.296V129.293Z" fill="#B17FCE"/>
<path d="M145.04 137.973C143.674 139.141 142.562 140.617 141.758 142.256C142.834 143.799 143.63 145.107 143.991 145.843C144.321 146.52 144.676 147.283 145.012 148.099C146.213 148.005 147.237 147.749 148.11 147.363C148.118 146.112 147.956 144.865 147.609 143.672C147.019 141.647 146.138 139.744 145.037 137.973H145.04Z" fill="#B17FCE"/>
<path d="M109.601 157.477C112.172 154.062 112.371 150.528 111.104 147.382C107.742 148.77 103.634 148.484 100.413 146.982C99.1215 146.382 97.9596 145.602 96.9326 144.685C96.9161 145.043 96.894 145.401 96.8665 145.757C96.7894 146.74 96.6765 147.718 96.5278 148.682C101.547 150.544 106.222 153.585 109.604 157.477H109.601Z" fill="#B17FCE"/>
<path d="M150.276 102.614C151.05 103.142 151.793 103.748 152.493 104.448C153.3 105.253 154.021 106.12 154.668 107.032C154.574 106.682 154.489 106.33 154.415 105.969C153.448 104.467 152.116 103.258 150.276 102.611V102.614Z" fill="#B17FCE"/>
<path d="M150.562 132.938C148.555 133.898 146.413 134.253 144.241 134.185C144.607 134.619 144.962 135.062 145.303 135.513C146.942 134.432 148.85 133.849 150.978 134.009C150.934 133.89 150.893 133.772 150.849 133.654C150.758 133.414 150.656 133.178 150.56 132.938H150.562Z" fill="#B17FCE"/>
<path d="M154.336 115.004C155.093 116.037 155.905 117.065 156.77 118.081C156.789 117.745 156.803 117.406 156.808 117.07C156.654 115.908 156.406 114.751 156.07 113.622C155.542 114.139 154.958 114.602 154.333 115.004H154.336Z" fill="#B17FCE"/>
<path d="M152.655 101.842C152.11 101.944 151.573 101.993 151.042 102.001C152.184 102.499 153.222 103.187 154.123 104.073C154.035 103.228 154.002 102.364 154.026 101.481C153.589 101.63 153.132 101.754 152.655 101.842Z" fill="#B17FCE"/>
<path d="M154.778 126.511C152.143 126.31 149.442 125.39 147.013 123.972C148.335 125.938 149.511 127.988 150.507 130.076C150.607 130.288 150.711 130.508 150.816 130.737C151.218 130.654 151.598 130.536 151.958 130.382C153.126 129.324 154.059 128.002 154.781 126.511H154.778Z" fill="#B17FCE"/>
<path d="M157.985 124.855C157.966 124.93 157.944 125.008 157.922 125.083C158.007 125.069 158.093 125.051 158.175 125.034C158.112 124.973 158.049 124.913 157.985 124.855Z" fill="#B17FCE"/>
<defs>
<filter id="filter0_d_2162_1408" x="0" y="0" width="244" height="244" filterUnits="userSpaceOnUse" color-interpolation-filters="sRGB">
<feFlood flood-opacity="0" result="BackgroundImageFix"/>
<feColorMatrix in="SourceAlpha" type="matrix" values="0 0 0 0 0 0 0 0 0 0 0 0 0 0 0 0 0 0 127 0" result="hardAlpha"/>
<feOffset dy="4"/>
<feGaussianBlur stdDeviation="2"/>
<feComposite in2="hardAlpha" operator="out"/>
<feColorMatrix type="matrix" values="0 0 0 0 0 0 0 0 0 0 0 0 0 0 0 0 0 0 0.25 0"/>
<feBlend mode="normal" in2="BackgroundImageFix" result="effect1_dropShadow_2162_1408"/>
<feBlend mode="normal" in="SourceGraphic" in2="effect1_dropShadow_2162_1408" result="shape"/>
</filter>
</defs>
</svg>
