<svg width="244" height="244" viewBox="0 0 244 244" fill="none" xmlns="http://www.w3.org/2000/svg">
<g filter="url(#filter0_d_2162_1407)">
<circle cx="122" cy="118" r="118" fill="white"/>
<circle cx="122" cy="118" r="117" stroke="black" stroke-width="2"/>
</g>
<path d="M75.5098 58.6699C75.9178 47.0516 89.0427 40.4332 98.5303 47.2578L184.39 109.031C192.536 114.891 192.537 127.105 184.39 132.969L98.5303 194.742C88.892 201.675 75.5 194.734 75.5 182.772V59.2275L75.5098 58.6699Z" stroke="black"/>
<path d="M131.388 126.195C131.039 125.876 130.686 125.565 130.328 125.265C130.031 125.015 129.717 124.762 129.392 124.509C129.147 125.075 128.872 125.628 128.572 126.165C129.53 126.225 130.469 126.239 131.388 126.198V126.195Z" fill="#11CE8F"/>
<path d="M105.13 100.36C105.705 100.209 106.193 99.666 106.63 98.5586C106.085 97.3934 105.452 96.2695 104.736 95.2173C104.463 96.3797 104.477 97.7543 104.868 99.3822C104.948 99.71 105.036 100.035 105.13 100.36Z" fill="#11CE8F"/>
<path d="M126.229 114.934C125.653 114.824 125.081 114.697 124.505 114.573C124.246 114.887 123.99 115.201 123.742 115.524C123.974 116.89 124.139 118.27 124.216 119.65C125.524 120.388 126.763 121.176 127.895 121.989C128.137 122.162 128.379 122.341 128.621 122.523C129.467 120.11 129.965 117.777 130.103 115.482C128.679 115.358 127.336 115.146 126.229 114.931V114.934Z" fill="#11CE8F"/>
<path d="M135.342 136.914C131.174 133.054 125.992 131.14 126.364 138.922C126.419 140.046 126.521 141.393 126.697 142.85C129.596 144.784 132.98 146.202 136.369 147.081C135.417 143.632 135.028 140.123 135.342 136.914Z" fill="#11CE8F"/>
<path d="M135.34 161.815L135.871 161.437C135.312 161.398 134.753 161.337 134.2 161.266C134.178 161.299 134.156 161.332 134.134 161.365C134.18 161.401 134.23 161.44 134.277 161.476C134.632 161.575 134.984 161.688 135.337 161.815H135.34Z" fill="#11CE8F"/>
<path d="M130.596 129.586C129.571 129.002 128.561 128.385 127.564 127.746C126.408 129.355 124.957 130.757 123.167 131.848C122.625 132.178 122.069 132.459 121.507 132.702C121.028 133.624 120.488 134.542 119.891 135.431C120.923 137.569 122.462 139.448 124.329 141.059C124.109 138.285 124.376 135.66 125.452 133.655C127.735 129.396 131.837 131.418 135.626 134.993C135.805 134.09 136.045 133.219 136.353 132.393C134.304 131.586 132.352 130.594 130.598 129.589L130.596 129.586Z" fill="#11CE8F"/>
<path d="M122.206 109.197C122.622 110.535 122.999 111.924 123.313 113.342C123.577 113.403 123.841 113.458 124.106 113.516C125.243 112.122 126.485 110.797 127.812 109.563C125.898 109.067 124.007 108.927 122.203 109.197H122.206Z" fill="#11CE8F"/>
<path d="M105.127 94.068C105.829 95.0046 106.49 96.032 107.09 97.1256C107.09 97.1256 107.09 97.1201 107.09 97.1173C107.605 95.1698 107.913 93.1397 107.988 91.1123C106.724 91.8202 105.716 92.7816 105.124 94.0652L105.127 94.068Z" fill="#11CE8F"/>
<path d="M122.192 113.068C121.903 111.822 121.556 110.595 121.165 109.404C119.64 109.775 118.192 110.46 116.87 111.486C118.61 112.08 120.394 112.617 122.195 113.068H122.192Z" fill="#11CE8F"/>
<path d="M109.318 93.4568C109.403 92.9039 109.486 92.3373 109.557 91.7651C109.53 91.7459 109.502 91.7266 109.475 91.7046C109.442 92.285 109.389 92.8682 109.318 93.4568Z" fill="#11CE8F"/>
<path d="M98.8521 88.4607C100.815 89.5102 102.638 91.0527 104.293 93.0223C104.898 91.791 105.785 90.8434 106.862 90.1244C105.463 89.433 103.968 88.9317 102.376 88.681C101.281 88.5075 100.086 88.4331 98.8521 88.4607Z" fill="#11CE8F"/>
<path d="M108.057 99.0684C108.068 99.0933 108.082 99.1209 108.093 99.1457C108.206 98.7231 108.316 98.3004 108.42 97.875C108.307 98.2728 108.186 98.6706 108.057 99.0684Z" fill="#11CE8F"/>
<path d="M139.665 158.724L141.278 157.575C140.967 157.132 140.67 156.678 140.381 156.216C139.497 156.496 138.621 156.832 137.765 157.192C137.917 157.63 138.049 158.064 138.156 158.488C138.66 158.546 139.161 158.625 139.665 158.724Z" fill="#11CE8F"/>
<path d="M107.492 100.64C107.228 101.327 106.941 102.01 106.625 102.692C106.586 102.771 106.531 102.837 106.47 102.893C106.476 102.898 106.479 102.904 106.484 102.912C106.881 102.733 107.192 102.348 107.385 101.685C107.456 101.435 107.528 101.184 107.599 100.934C107.564 100.835 107.528 100.739 107.492 100.64Z" fill="#11CE8F"/>
<path d="M106.317 106.911C106.264 106.465 106.182 106.032 106.063 105.616C105.948 105.41 105.835 105.2 105.722 104.988C103.998 103.98 102.399 102.848 100.934 101.606C99.9536 101.517 98.9266 101.619 97.8914 101.862C100.832 103.834 103.806 105.567 106.317 106.911Z" fill="#11CE8F"/>
<path d="M121.79 118.38C122.228 118.589 122.657 118.809 123.081 119.032C123.032 118.267 122.957 117.503 122.858 116.741C122.484 117.277 122.126 117.825 121.79 118.38Z" fill="#11CE8F"/>
<path d="M116.876 117.708C117.812 118.61 118.751 119.474 119.681 120.299C119.684 120.294 119.687 120.288 119.689 120.28C119.89 119.881 120.102 119.485 120.32 119.089C119.197 118.583 118.043 118.115 116.873 117.705L116.876 117.708Z" fill="#11CE8F"/>
<path d="M115.19 122.533C116.209 123.01 117.239 123.445 118.274 123.836C118.517 123.021 118.817 122.206 119.175 121.393C117.597 119.996 116.08 118.531 114.64 116.999C114.031 116.829 113.423 116.672 112.814 116.537C112.476 117.187 112.145 117.862 111.829 118.564C113.12 119.707 114.254 121.035 115.19 122.536V122.533Z" fill="#11CE8F"/>
<path d="M123.955 125.518C124.12 125.555 124.288 125.588 124.453 125.622C124.299 125.507 124.145 125.392 123.99 125.277C123.979 125.358 123.968 125.44 123.955 125.518Z" fill="#11CE8F"/>
<path d="M119.213 124.172C120.417 124.593 121.623 124.953 122.826 125.248C122.867 124.992 122.903 124.736 122.936 124.477C121.92 123.699 120.923 122.89 119.949 122.057C119.668 122.753 119.42 123.457 119.216 124.172H119.213Z" fill="#11CE8F"/>
<path d="M122.649 126.219C121.416 125.894 120.19 125.503 118.979 125.057C118.75 126.018 118.588 126.993 118.511 127.982C118.387 129.547 118.505 131.023 118.825 132.411C119.488 132.26 120.122 132.053 120.73 131.8C120.843 131.574 120.956 131.351 121.063 131.12C121.796 129.558 122.311 127.91 122.646 126.216L122.649 126.219Z" fill="#11CE8F"/>
<path d="M113.387 121.631C112.897 120.976 112.368 120.365 111.795 119.818C111.674 119.702 111.545 119.595 111.421 119.482C111.303 119.763 111.187 120.046 111.071 120.33C111.831 120.786 112.602 121.221 113.384 121.631H113.387Z" fill="#11CE8F"/>
<path d="M135.05 151.963C135.838 151.235 136.54 150.401 137.132 149.475C137.013 149.142 136.901 148.806 136.79 148.47C134.447 147.82 132.156 146.916 130.105 145.927C132.046 147.806 133.734 149.974 135.05 151.965V151.963Z" fill="#11CE8F"/>
<path d="M115.251 142.491C115.81 141.533 116.245 140.483 116.573 139.381C114.805 141.045 112.773 142.345 110.521 142.987C110.978 143.929 111.493 144.846 112.068 145.728C113.321 144.981 114.414 143.921 115.249 142.491H115.251Z" fill="#11CE8F"/>
<path d="M123.183 141.496C121.479 139.961 120.155 138.24 119.213 136.386C118.825 136.912 118.415 137.421 117.985 137.915C117.757 139.35 117.352 140.735 116.719 142.019C117.575 141.465 118.563 141.113 119.684 141.044C120.873 140.972 122.044 141.143 123.183 141.496Z" fill="#11CE8F"/>
<path d="M117.255 132.665C117.03 129.255 116.008 125.828 114.32 123.027C113.103 122.415 111.922 121.757 110.788 121.063C109.571 124.267 108.665 127.787 108.376 131.222C111.25 132.379 114.249 132.968 117.255 132.665Z" fill="#11CE8F"/>
<path d="M107.363 117.373C107.382 117.538 107.401 117.701 107.415 117.866C108.296 118.529 109.21 119.159 110.144 119.753C110.27 119.409 110.4 119.068 110.537 118.73C109.662 118.036 108.726 117.428 107.74 116.906C107.619 117.065 107.495 117.222 107.363 117.376V117.373Z" fill="#11CE8F"/>
<path d="M101.919 117.441C103.519 118.041 104.318 117.617 104.794 116.715C104.585 116.533 104.375 116.349 104.172 116.165C103.087 116.36 102.046 116.671 101.058 117.103C101.344 117.218 101.63 117.331 101.922 117.441H101.919Z" fill="#11CE8F"/>
<path d="M118.203 135.762C118.357 135.567 118.511 135.371 118.66 135.17C118.497 134.772 118.352 134.37 118.222 133.963C118.236 134.565 118.23 135.168 118.203 135.765V135.762Z" fill="#11CE8F"/>
<path d="M102.137 127.783C103.858 128.981 105.667 130.039 107.533 130.868C107.701 129.133 108.012 127.373 108.442 125.585C108.841 123.916 109.306 122.194 109.885 120.5C109.039 119.957 108.222 119.395 107.44 118.822C107.404 121.139 106.663 123.439 105.196 125.232C104.304 126.32 103.268 127.169 102.139 127.783H102.137Z" fill="#11CE8F"/>
<path d="M136.97 99.8112C136.692 99.4024 136.405 98.999 136.113 98.604C135.97 99.035 135.855 99.488 135.758 99.9576C136.16 99.8996 136.565 99.8499 136.97 99.8112Z" fill="#11CE8F"/>
<path d="M135.483 103.296C135.488 103.541 135.508 103.783 135.521 104.025C136.543 103.481 137.589 102.996 138.649 102.576C138.421 102.138 138.173 101.704 137.914 101.274C137.118 101.327 136.323 101.417 135.535 101.544C135.488 102.111 135.469 102.694 135.486 103.296H135.483Z" fill="#11CE8F"/>
<path d="M108.433 103.822C108.29 104.268 108.15 104.703 108.015 105.111C107.954 105.301 107.841 105.45 107.698 105.552C107.797 105.943 107.874 106.342 107.927 106.753C108.21 107.24 108.508 107.722 108.816 108.199C108.89 108.235 108.959 108.27 109.031 108.304C108.973 106.835 108.772 105.323 108.431 103.822H108.433Z" fill="#11CE8F"/>
<path d="M140.541 116.234C141.755 117.403 142.908 118.647 143.996 119.945C144.015 119.962 144.037 119.975 144.059 119.992C144.657 119.222 145.174 118.399 145.598 117.533C143.993 116.985 142.278 116.487 140.543 116.234H140.541Z" fill="#11CE8F"/>
<path d="M130.579 109.236C131.636 109.685 132.674 110.225 133.674 110.847C134.376 111.282 135.059 111.751 135.736 112.233C135.629 112.007 135.527 111.781 135.43 111.55C134.09 110.426 132.87 109.161 131.804 107.798C131.361 108.12 130.92 108.453 130.485 108.798C130.518 108.944 130.551 109.09 130.582 109.236H130.579Z" fill="#11CE8F"/>
<path d="M151.045 114.045C148.801 110.45 147.567 106.74 147.958 103.145C147.652 102.988 147.341 102.837 147.019 102.699C146.397 102.434 145.766 102.211 145.125 102.024C145.078 102.027 145.031 102.032 144.984 102.038C147.358 105.836 148.787 110.387 148.043 114.659C149.059 114.566 150.073 114.356 151.045 114.045Z" fill="#11CE8F"/>
<path d="M138.787 94.6014C138.657 94.7033 138.531 94.8107 138.41 94.9209C140.321 96.3643 142.055 98.0446 143.542 99.9673C144.084 100.058 144.621 100.171 145.15 100.309C142.807 98.9371 140.673 96.8684 138.79 94.5986L138.787 94.6014Z" fill="#11CE8F"/>
<path d="M93.6647 83.7528C93.4087 84.798 93.293 85.8461 93.3233 86.8803C93.461 86.8886 93.5959 86.8996 93.7308 86.9106C94.0364 85.9809 94.2429 85.0153 94.3641 84.0361C94.3366 84.0251 94.3118 84.0168 94.2842 84.0058C94.0943 83.9315 93.885 83.8435 93.6647 83.75V83.7528Z" fill="#11CE8F"/>
<path d="M109.505 90.8413C109.555 90.8745 109.607 90.9076 109.657 90.9408C109.679 90.7446 109.698 90.5457 109.717 90.3496C109.648 90.3745 109.582 90.3993 109.513 90.4242C109.513 90.5623 109.508 90.7032 109.505 90.8413Z" fill="#11CE8F"/>
<path d="M100.942 98.408C102.071 99.171 103.007 99.8459 103.805 100.185C103.285 98.1105 103.211 96.0225 103.874 94.0419C102.393 92.1523 100.617 90.5519 98.5686 89.4252C97.9986 89.1112 97.4011 88.8578 96.7899 88.6484C96.2695 90.1084 95.8895 91.6675 95.6362 93.2596C95.7409 93.4387 95.8482 93.615 95.9584 93.7913C97.3708 95.568 99.0614 97.1354 100.945 98.408H100.942Z" fill="#11CE8F"/>
<path d="M95.4409 87.1783C95.5979 87.2141 95.7576 87.2526 95.9117 87.2938C96.1898 86.6364 96.4955 85.979 96.8451 85.3243C96.925 85.1758 97.0048 85.0355 97.0874 84.8924C96.7543 84.8127 96.4129 84.7219 96.0659 84.6201C95.92 85.5416 95.7135 86.4026 95.4409 87.1811V87.1783Z" fill="#11CE8F"/>
<path d="M138.035 116.062C137.173 116.075 136.314 116.172 135.474 116.381C131.724 117.307 136.504 121.562 137.903 123.149C138.228 123.515 138.561 123.893 138.905 124.273C140.469 123.46 141.854 122.427 143.019 121.215C141.144 119.7 139.448 117.973 138.038 116.062H138.035Z" fill="#11CE8F"/>
<path d="M99.5625 83.6006C102.272 83.972 104.78 83.6116 106.421 81.8154C106.157 81.1882 105.859 80.5748 105.524 79.9834C103.046 80.484 101.08 81.7879 99.5625 83.6006Z" fill="#11CE8F"/>
<path d="M107.539 89.7142C107.687 89.6315 107.844 89.5572 107.999 89.4828C107.935 87.1937 107.558 84.9377 106.817 82.8359C104.904 84.7586 102.095 85.7035 98.4443 85.1581C97.9625 85.9321 97.5412 86.7695 97.175 87.6482C100.969 87.37 104.441 88.1496 107.539 89.7169V89.7142Z" fill="#11CE8F"/>
<path d="M134.239 107.775C134.14 107.293 134.057 106.806 133.994 106.314C133.743 106.474 133.492 106.636 133.242 106.801C133.55 107.123 133.886 107.447 134.239 107.775Z" fill="#11CE8F"/>
<path d="M101.781 136.794C104.342 137.816 106.718 139.378 108.637 141.301C107.574 138.213 107.244 135.067 107.453 131.836C105.187 130.855 103.037 129.594 101.123 128.255C100.575 128.478 100.014 128.654 99.4382 128.778C100.432 131.026 101.22 134.086 101.781 136.797V136.794Z" fill="#11CE8F"/>
<path d="M113.431 146.048C113.183 146.241 112.924 146.418 112.66 146.586C112.792 146.771 112.927 146.954 113.062 147.136C113.197 146.741 113.351 146.351 113.524 145.97C113.491 145.995 113.464 146.023 113.431 146.048Z" fill="#11CE8F"/>
<path d="M105.823 121.768C106.146 120.702 106.264 119.63 106.212 118.575C105.989 118.782 105.76 118.98 105.523 119.173C105.482 119.286 105.438 119.396 105.397 119.506C105.248 119.9 104.841 120.236 104.392 120.079C104.37 120.071 104.348 120.063 104.328 120.057C101.894 121.682 98.9621 122.671 96.1289 122.798C97.6735 124.288 99.3586 125.751 101.151 127.079C103.277 126.181 105.011 124.459 105.821 121.768H105.823Z" fill="#11CE8F"/>
<path d="M112.212 115.262C112.325 115.066 112.44 114.871 112.561 114.679C111.688 113.661 110.846 112.624 110.042 111.562C110.036 111.556 110.034 111.551 110.028 111.545C109.866 112.456 109.623 113.344 109.288 114.197C109.188 114.445 109.081 114.69 108.963 114.929C110.042 114.97 111.127 115.083 112.212 115.262Z" fill="#11CE8F"/>
<path d="M97.0791 118.571C97.4839 118.243 97.8996 117.948 98.3209 117.67C97.605 117.347 96.8919 117.009 96.187 116.653C95.9558 117.295 95.6887 117.923 95.3776 118.535C94.9756 119.32 94.5295 120.033 94.0449 120.678C94.2129 120.857 94.3863 121.039 94.5598 121.218C95.2784 120.251 96.1127 119.358 97.0819 118.571H97.0791Z" fill="#11CE8F"/>
<path d="M124.161 154.712C125.703 155.07 127.192 155.139 128.594 154.968C128.481 154.776 128.368 154.58 128.263 154.379C126.911 151.798 125.441 147.886 124.717 143.942C121.46 141.912 118.158 141.529 115.826 145.159C115.132 146.242 114.634 147.412 114.298 148.633C116.939 151.577 120.314 153.822 124.163 154.712H124.161Z" fill="#11CE8F"/>
<path d="M110.923 117.81C111.149 117.298 111.386 116.792 111.642 116.297C110.56 116.102 109.48 115.97 108.42 115.917C108.382 115.978 108.343 116.041 108.305 116.102C109.227 116.6 110.1 117.172 110.923 117.81Z" fill="#11CE8F"/>
<path d="M136.623 158.396C136.557 158.199 136.485 158 136.408 157.799C135.783 158.092 135.172 158.393 134.591 158.694C134.621 158.705 134.651 158.716 134.679 158.73C135.221 158.517 135.868 158.401 136.623 158.396Z" fill="#11CE8F"/>
<path d="M137.529 144.195C137.741 145.063 138.022 146.018 138.36 147.032C138.994 145.382 139.343 143.558 139.34 141.628C139.34 141.531 139.335 141.435 139.335 141.341C138.71 140.512 138.049 139.716 137.361 138.956C137.306 141.426 137.399 143.663 137.529 144.198V144.195Z" fill="#11CE8F"/>
<path d="M143.093 156.285L144.362 155.376C143.787 155.426 143.206 155.509 142.616 155.628C142.771 155.852 142.928 156.073 143.093 156.285Z" fill="#11CE8F"/>
<path d="M137.443 136.839C138 137.445 138.539 138.073 139.057 138.699C138.776 137.222 138.294 135.798 137.658 134.435C137.562 135.176 137.493 135.996 137.443 136.839Z" fill="#11CE8F"/>
<path d="M131.38 117.085C131.152 116.744 131.286 116.138 131.675 115.964C131.986 115.827 132.3 115.703 132.614 115.584C132.137 115.59 131.658 115.579 131.185 115.557C131.146 118.27 130.711 120.975 129.808 123.454C130.813 124.275 131.796 125.159 132.732 126.098C134.315 125.933 135.807 125.567 137.195 125.035C134.904 122.361 132.958 119.432 131.383 117.083L131.38 117.085Z" fill="#11CE8F"/>
<path d="M122.619 170.603C122.68 170.656 122.743 170.708 122.804 170.758L132.052 164.158C132.038 163.565 132.063 162.99 132.138 162.45C126.369 161.684 123.426 165.711 122.619 170.603Z" fill="#11CE8F"/>
<path d="M127.14 145.739C127.713 148.841 128.663 152.102 130.221 154.648C131.471 154.309 132.631 153.766 133.677 153.055C132.033 150.75 129.682 147.907 127.14 145.739Z" fill="#11CE8F"/>
<path d="M124.142 124.042C124.987 124.705 125.857 125.358 126.747 125.989C126.851 126.003 126.953 126.014 127.058 126.028C127.501 125.267 127.887 124.46 128.217 123.626C127.022 122.766 125.692 121.912 124.263 121.1C124.274 122.086 124.236 123.069 124.142 124.039V124.042Z" fill="#11CE8F"/>
<path d="M88.5793 115.917C87.7973 114.807 87.076 113.661 86.4207 112.484C86.3739 113.9 86.7483 115.399 87.4367 116.757C87.7918 116.451 88.1746 116.17 88.5793 115.917Z" fill="#11CE8F"/>
<path d="M92.2414 112.5C93.2821 112.566 94.3367 112.544 95.3912 112.428C95.6252 110.654 95.6831 108.855 95.5702 107.065C93.9182 106.745 92.2138 106.77 90.5563 107.25C89.4164 107.58 88.5408 108.117 87.8938 108.787C89.0998 110.123 90.5453 111.373 92.2414 112.5Z" fill="#11CE8F"/>
<path d="M94.9284 137.486C94.8486 137.386 94.7715 137.281 94.6944 137.179C94.1878 137.187 93.6839 137.221 93.1855 137.284C93.2048 137.348 93.2213 137.414 93.2406 137.478C93.8436 137.859 94.4521 138.223 95.0716 138.571C95.0303 138.207 94.9807 137.845 94.9284 137.486Z" fill="#11CE8F"/>
<path d="M107.76 171.711C109.065 173.05 110.618 175.047 112.099 177.385C112.253 176.95 112.396 176.498 112.52 176.016C112.63 175.584 112.718 175.154 112.798 174.722C112.542 174.16 112.253 173.617 111.92 173.097C110.494 172.719 109.103 172.259 107.76 171.714V171.711Z" fill="#11CE8F"/>
<path d="M118.258 172.656C116.338 170.066 115.124 167.02 114.81 163.617C113.549 161.252 112.698 158.628 112.365 155.756C111.95 156.759 111.377 157.755 110.636 158.738C113.569 162.587 115.251 167.169 114.879 172.202C116 172.411 117.129 172.566 118.26 172.656H118.258Z" fill="#11CE8F"/>
<path d="M92.5716 91.3545C92.4504 91.4453 92.3265 91.5305 92.2026 91.6103C92.9158 92.7299 93.56 93.8934 94.1272 95.0928C94.141 94.7737 94.1575 94.4573 94.1851 94.1355C93.5435 93.2553 92.9956 92.3283 92.5716 91.3545Z" fill="#11CE8F"/>
<path d="M97.5004 113.203C97.349 113.236 97.1948 113.263 97.0433 113.294C97.0268 113.401 97.0048 113.509 96.9883 113.616C98.6486 113.539 100.287 113.635 101.87 113.905C100.061 111.961 98.5054 109.848 97.2691 107.614C97.3682 109.132 97.3545 110.652 97.1975 112.145C97.203 112.145 97.2058 112.145 97.2113 112.145C97.9079 111.996 98.2025 113.06 97.5032 113.208L97.5004 113.203Z" fill="#11CE8F"/>
<path d="M106.771 168.549C105.284 167.817 103.687 167.285 102.043 166.935C102.184 167.031 102.321 167.131 102.464 167.224C104.824 168.77 107.448 170.045 110.21 170.982C109.26 170.039 108.123 169.219 106.771 168.552V168.549Z" fill="#11CE8F"/>
<path d="M110.658 146.41C110.107 145.333 109.386 144.314 108.532 143.372C106.451 143.609 104.543 143.452 102.805 142.967C102.775 143.556 102.037 143.746 101.58 143.551C100.093 142.909 98.524 142.187 96.9353 141.386C96.9656 142.072 96.9766 142.758 96.9683 143.443C97.1666 143.622 97.3731 143.799 97.5879 143.967C101.101 146.741 106.465 148.027 110.661 146.41H110.658Z" fill="#11CE8F"/>
<path d="M92.1478 114.372C91.7238 114.102 91.308 113.822 90.8978 113.536C90.7601 113.519 90.6252 113.503 90.4903 113.483C90.3911 114.001 90.3058 114.523 90.2314 115.051C90.8565 114.782 91.5035 114.556 92.1505 114.372H92.1478Z" fill="#11CE8F"/>
<path d="M116.386 155.112C121.573 155.277 126.413 156.649 130.604 159.015C130.926 158.83 131.257 158.64 131.592 158.45C130.744 157.775 129.976 156.974 129.313 156.065C124.024 156.759 118.164 153.974 114.015 149.87C113.459 152.944 113.861 156.266 114.874 159.351C115.015 158.169 115.251 156.957 115.598 155.715C115.695 155.373 116.025 155.103 116.388 155.114L116.386 155.112Z" fill="#11CE8F"/>
<path d="M90.6716 79.6817C90.8038 79.5799 90.9359 79.4754 91.0736 79.3736C91.1011 79.0353 91.1314 78.6997 91.1727 78.3613C90.5752 78.5759 89.9888 78.829 89.4188 79.1398C89.3528 79.3709 89.2839 79.5992 89.2151 79.8302C89.4629 79.9623 89.7217 80.097 89.9888 80.2346C90.2146 80.0475 90.4403 79.8632 90.6689 79.6844L90.6716 79.6817Z" fill="#11CE8F"/>
<path d="M148.456 132.449C144.461 131.925 140.945 129.196 137.966 125.912C136.576 126.458 135.127 126.832 133.641 127.047C134.83 128.333 135.926 129.708 136.876 131.154C137.181 130.521 137.528 129.915 137.925 129.347C138.241 128.893 138.789 128.824 139.211 129.182C140.56 130.33 141.912 131.603 143.178 132.98C143.33 132.994 143.481 133.011 143.635 133.019C145.458 133.143 147.055 132.925 148.456 132.449Z" fill="#11CE8F"/>
<path d="M91.5804 86.6598C91.2776 85.2935 91.0876 83.8997 91.0215 82.4811C90.793 82.3626 90.5562 82.2359 90.3166 82.1064C89.0473 83.2331 87.9377 84.4561 86.9961 85.7508C87.2191 85.8858 87.4146 86.018 87.5578 86.1447C88.0066 86.5441 88.4416 86.9545 88.8656 87.3732C89.7908 87.1253 90.6966 86.9683 91.5859 86.9022C91.5859 86.8196 91.5777 86.7397 91.5804 86.657V86.6598Z" fill="#11CE8F"/>
<path d="M109.684 159.885C109.436 160.158 109.177 160.431 108.902 160.701C107.655 161.918 106.338 163.001 105.003 163.893C106.523 164.513 107.889 165.155 108.949 165.689C109.893 166.166 109.062 167.576 108.125 167.105C107.134 166.607 105.449 165.695 103.503 164.813C103.145 165.012 102.787 165.194 102.429 165.359C107.167 166.37 110.474 168.648 112.586 171.692C112.759 171.738 112.936 171.78 113.112 171.821C113.249 167.56 111.991 163.409 109.684 159.88V159.885Z" fill="#11CE8F"/>
<path d="M158.862 102.091C160.018 105.097 159.548 108.435 157.984 111.149C158.179 111.491 158.386 111.829 158.609 112.163C159.132 112.939 161.607 115.792 163.981 117.898C164.451 117.479 164.941 117.077 165.451 116.692C166.437 112.782 165.952 108.426 164.366 104.706C162.306 103.757 160.046 102.151 157.942 100.199C158.303 100.816 158.614 101.449 158.862 102.094V102.091Z" fill="#11CE8F"/>
<path d="M96.7266 68.8158C98.318 69.9832 99.9976 70.9552 101.74 71.6077C103.145 70.7266 104.604 69.9695 106.066 69.35C106.515 69.16 106.983 68.9728 107.459 68.791C106.38 65.1814 104.475 61.7645 102.2 59.135C100.958 57.7005 99.5267 56.3018 97.905 55.2307C97.5333 55.0876 97.1588 54.9609 96.7816 54.8535C98.8494 58.5403 99.1881 63.444 96.7293 68.8158H96.7266Z" fill="#11CE8F"/>
<path d="M164.106 119.968C163.184 120.944 162.369 122.025 161.667 123.186C161.692 123.211 161.719 123.233 161.744 123.255C161.912 123.103 162.074 122.941 162.234 122.768C163.011 121.926 163.655 120.999 164.178 120.017C164.153 120.001 164.131 119.981 164.106 119.965V119.968Z" fill="#11CE8F"/>
<path d="M166.656 105.496C167.813 108.644 168.22 111.942 167.631 115.239C168.237 114.883 168.856 114.561 169.489 114.277C169.523 113.729 169.542 113.178 169.547 112.627C169.567 110.358 169.509 107.961 169.242 105.584L169.079 105.468C168.383 105.689 167.562 105.686 166.656 105.496Z" fill="#11CE8F"/>
<path d="M148.046 136.116C147.454 136.362 146.89 136.659 146.353 136.998C148.233 139.841 149.549 142.992 149.75 146.353C152.44 144.063 152.702 139.879 151.491 135.588C150.353 135.494 149.197 135.643 148.046 136.119V136.116Z" fill="#11CE8F"/>
<path d="M93.9427 165.182C93.3314 164.7 92.7725 164.076 92.2741 163.297C92.0373 163.465 91.8171 163.655 91.6216 163.883C91.1067 164.475 90.7956 165.162 90.6304 165.902C91.7235 165.591 92.8386 165.352 93.9427 165.184V165.182Z" fill="#11CE8F"/>
<path d="M174.451 114.798C173.325 114.922 172.251 115.156 171.229 115.475C170.929 117.937 170.343 120.274 169.432 122.317C169.244 122.736 168.672 122.805 168.314 122.612C167.364 122.102 166.436 121.549 165.536 120.957C165.527 120.971 165.522 120.985 165.513 120.998C164.754 122.331 163.839 123.397 162.815 124.225C166.769 127.719 171.235 130.77 175.847 132.912L176.552 132.411C181.466 128.903 183.124 122.884 181.527 117.678C179.792 115.715 177.408 114.465 174.451 114.792V114.798Z" fill="#11CE8F"/>
<path d="M84.4409 168.763C84.2537 168.35 84.0719 167.937 83.8957 167.521C82.6237 167.35 81.2965 167.254 79.9419 167.224V175.562C79.9419 175.589 79.9419 175.614 79.9446 175.642C80.3411 172.738 82.0592 170.463 84.4381 168.766L84.4409 168.763Z" fill="#11CE8F"/>
<path d="M108.497 158.783C108.577 158.7 108.646 158.615 108.723 158.532C106.831 156.067 104.4 153.976 101.567 152.469C101.187 152.266 98.5603 151.257 96.2089 150.42C95.7271 152.75 95.0112 154.984 94.031 157.025C94.7083 158.612 95.5509 160.116 96.5476 161.513C98.7695 161.758 101.201 162.463 103.434 163.289C105.444 161.893 107.266 160.089 108.497 158.786V158.783Z" fill="#11CE8F"/>
<path d="M99.2457 166.525C99.0062 166.506 98.7667 166.489 98.5244 166.478C98.0205 166.519 97.5304 166.511 97.0513 166.456C96.8558 166.458 96.6603 166.467 96.4648 166.475C97.5772 166.525 98.6785 166.691 99.7661 166.98C99.5899 166.833 99.4192 166.678 99.2457 166.525Z" fill="#11CE8F"/>
<path d="M86.2005 123.338C85.3277 122.071 84.956 120.616 85.6828 119.03C85.7737 118.831 85.8756 118.641 85.9857 118.457C85.6608 118.184 85.3222 117.922 84.967 117.666C83.7335 119.291 82.4642 121.426 81.897 123.343C81.9245 123.511 81.9575 123.679 81.9906 123.847C82.5247 124.134 84.3172 123.834 86.2005 123.338Z" fill="#11CE8F"/>
<path d="M156.403 107.407C156.678 108.021 156.912 108.683 157.102 109.391C157.127 109.448 157.154 109.506 157.179 109.564C158.44 107.462 158.633 104.84 156.987 101.917C156.714 101.432 156.414 100.959 156.089 100.493C155.962 100.573 155.833 100.65 155.703 100.725C155.585 102.992 155.783 105.242 156.403 107.404V107.407Z" fill="#11CE8F"/>
<path d="M119.114 133.468C119.188 133.706 119.271 133.94 119.356 134.175C119.552 133.877 119.742 133.573 119.926 133.264C119.656 133.341 119.387 133.41 119.114 133.471V133.468Z" fill="#11CE8F"/>
<path d="M86.5008 79.9173C84.4303 78.6529 82.2083 77.1737 80.0359 75.5513C80.1791 76.4603 80.5067 77.3748 81.0464 78.2673C81.9577 79.7686 83.0068 81.1927 84.2568 82.4267C84.8185 81.4819 85.5949 80.6445 86.5035 79.9173H86.5008Z" fill="#11CE8F"/>
<path d="M104.194 170.839C100.799 168.56 96.6576 167.166 92.5606 168.282C92.4092 168.323 92.211 168.372 91.9824 168.436C95.8592 170.71 98.0123 174.479 96.4346 180.22C96.966 180.928 97.5222 181.616 98.0949 182.291C100.229 183.4 102.456 183.948 104.524 183.794L111.429 178.868C109.587 175.672 107.162 172.827 104.194 170.837V170.839Z" fill="#11CE8F"/>
<path d="M136.35 114.017C135.571 113.423 134.778 112.854 133.963 112.331C132.933 111.668 131.884 111.099 130.832 110.628C131.031 111.88 131.146 113.159 131.179 114.444C132.71 114.507 134.654 114.501 136.35 114.017Z" fill="#11CE8F"/>
<path d="M135.629 105.329C135.802 106.88 136.133 108.373 136.612 109.797C137.567 110.552 138.555 111.274 139.492 111.913C139.596 111.753 139.69 111.582 139.775 111.401C140.879 109.021 140.375 106.269 139.142 103.575C138.539 103.828 137.947 104.098 137.377 104.387C136.799 104.679 136.215 104.993 135.631 105.327L135.629 105.329Z" fill="#11CE8F"/>
<path d="M137.617 150.753C137.597 150.781 137.578 150.811 137.559 150.839C136.983 151.662 136.367 152.378 135.717 152.995C135.788 153.111 135.86 153.227 135.929 153.34C136.4 154.117 136.799 154.88 137.138 155.623C137.914 155.29 138.701 154.982 139.497 154.714C138.792 153.442 138.162 152.114 137.617 150.75V150.753Z" fill="#11CE8F"/>
<path d="M125.226 113.738C126.876 114.049 128.519 114.275 130.138 114.388C130.152 112.981 130.031 111.584 129.775 110.187C129.546 110.099 129.318 110.019 129.092 109.939C127.726 111.11 126.424 112.383 125.229 113.735L125.226 113.738Z" fill="#11CE8F"/>
<path d="M141.303 110.026C141.16 111.012 140.841 111.83 140.392 112.513C141.846 113.455 143.09 114.127 143.757 114.312C144.674 114.568 145.643 114.697 146.628 114.714C147.49 111.185 146.967 107.232 144.599 103.448C144.329 103.018 144.051 102.602 143.765 102.194C142.518 102.406 141.287 102.759 140.097 103.2C141.094 105.434 141.631 107.753 141.303 110.026Z" fill="#11CE8F"/>
<path d="M138.938 113.993C138.853 114.054 138.768 114.112 138.679 114.167C138.759 114.297 138.845 114.424 138.927 114.551C139.315 114.559 139.704 114.576 140.092 114.606C139.701 114.413 139.318 114.209 138.938 113.993Z" fill="#11CE8F"/>
<path d="M139.095 101.231C139.28 101.554 139.456 101.883 139.624 102.212C139.918 102.107 140.216 102.005 140.513 101.908C141.116 101.715 141.719 101.554 142.319 101.422C141.254 101.275 140.175 101.215 139.095 101.228V101.231Z" fill="#11CE8F"/>
<path d="M117.085 137.062C117.247 135.98 117.321 134.867 117.302 133.743C114.306 133.999 111.225 133.344 108.307 132.189C108.199 134.355 108.354 136.467 108.846 138.426C109.119 139.508 109.477 140.585 109.915 141.643C112.553 140.894 115.006 139.28 117.085 137.062Z" fill="#11CE8F"/>
<path d="M120.422 120.952C121.27 121.692 122.151 122.437 123.062 123.174C123.131 122.28 123.156 121.381 123.139 120.479C122.495 120.135 121.834 119.799 121.16 119.48C120.895 119.964 120.65 120.454 120.422 120.952Z" fill="#11CE8F"/>
<path d="M122.982 129.341C122.787 129.881 122.569 130.432 122.327 130.986C123.96 129.989 125.337 128.617 126.435 127.003C126.427 126.997 126.416 126.989 126.408 126.983C125.529 126.857 124.651 126.691 123.775 126.493C123.577 127.46 123.318 128.413 122.982 129.341Z" fill="#11CE8F"/>
<path d="M99.2541 118.08C97.8636 118.993 96.6219 120.222 95.5894 121.821C98.3069 121.966 100.991 121.152 103.244 119.664C101.93 119.183 100.595 118.657 99.2568 118.08H99.2541Z" fill="#11CE8F"/>
<path d="M115.909 123.789C116.598 125.117 117.137 126.56 117.509 128.114C117.575 126.987 117.754 125.844 118.041 124.698C117.322 124.414 116.612 124.111 115.909 123.789Z" fill="#11CE8F"/>
<path d="M114.791 111.786C113.249 111.23 111.726 110.622 110.223 109.965C110.218 110.045 110.212 110.127 110.207 110.207C111.123 111.453 112.109 112.655 113.133 113.813C113.634 113.098 114.185 112.419 114.791 111.786Z" fill="#11CE8F"/>
<path d="M120.954 117.993C121.479 117.114 122.052 116.252 122.661 115.407C122.586 114.966 122.506 114.528 122.416 114.093C120.257 113.561 118.12 112.939 116.014 112.217C115.265 112.916 114.566 113.737 113.919 114.688C114.288 115.087 114.659 115.484 115.034 115.872C117.063 116.407 119.056 117.134 120.951 117.996L120.954 117.993Z" fill="#11CE8F"/>
<path d="M108.026 81.3213C107.957 81.4287 107.883 81.5334 107.811 81.6381C108.775 83.8996 109.331 86.3457 109.477 88.8964C109.592 88.8606 109.711 88.8276 109.826 88.7945C109.939 86.4201 109.758 84.0291 108.915 81.8805C108.623 81.6904 108.329 81.5031 108.026 81.3213Z" fill="#11CE8F"/>
<path d="M133.847 103.3C133.864 102.809 133.894 102.325 133.941 101.845C133.343 101.977 132.751 102.129 132.165 102.3C130.551 102.771 131.003 104.187 132.424 105.892C132.9 105.572 133.379 105.264 133.869 104.966C133.839 104.415 133.831 103.859 133.85 103.297L133.847 103.3Z" fill="#11CE8F"/>
<path d="M111.352 92.1676C116.118 95.9507 119.7 101.7 121.812 107.983C124.125 107.595 126.534 107.854 128.883 108.602C129.026 108.479 129.169 108.357 129.315 108.236C128.8 106.375 128.048 104.508 127.043 102.608C124.56 97.9166 121.396 93.3488 117.674 89.3537C115.68 89.3041 113.555 89.417 111.608 89.8273C111.55 90.6037 111.462 91.3829 111.352 92.1649V92.1676Z" fill="#11CE8F"/>
<path d="M141.851 99.7543C140.549 98.2696 139.12 96.9556 137.583 95.8042C137.192 96.3 136.854 96.8565 136.567 97.4625C137.118 98.1869 137.658 98.9389 138.164 99.713C139.401 99.6386 140.634 99.6469 141.851 99.7543Z" fill="#11CE8F"/>
<path d="M91.6578 88.0176C91.0163 88.0645 90.3747 88.1585 89.7415 88.2911C90.0085 88.5867 90.2646 88.8933 90.5124 89.2082C90.9144 89.0342 91.3329 88.8712 91.7652 88.7248C91.7239 88.4927 91.6881 88.2552 91.6605 88.0176H91.6578Z" fill="#11CE8F"/>
<path d="M94.6314 88.9513C94.4386 89.2869 94.2376 89.5977 94.0256 89.8811C94.2101 90.3652 94.4084 90.8438 94.6259 91.3142C94.8103 90.4807 95.0416 89.6473 95.328 88.811C95.0939 88.8523 94.8627 88.8991 94.6314 88.9486V88.9513Z" fill="#11CE8F"/>
<path d="M94.4908 82.241C94.4963 81.9715 94.4991 81.7046 94.4963 81.4351C94.3862 81.6661 94.2843 81.8972 94.1907 82.1282C94.2898 82.1668 94.3917 82.2053 94.4935 82.2438L94.4908 82.241Z" fill="#11CE8F"/>
<path d="M132.963 93.1714C133.756 94.0516 134.624 95.0364 135.491 96.0954C135.717 95.6581 135.962 95.2427 136.237 94.8521C135.086 94.0874 133.88 93.4079 132.633 92.811C132.746 92.9321 132.856 93.0531 132.963 93.1714Z" fill="#11CE8F"/>
<path d="M93.6921 79.5928C93.2515 79.8678 92.822 80.1539 92.409 80.4483C92.3897 80.7563 92.3787 81.0644 92.376 81.3725C92.4916 81.4248 92.6073 81.4743 92.7257 81.5265C93.0065 80.8609 93.3314 80.2172 93.6921 79.5928Z" fill="#11CE8F"/>
<path d="M100.57 138.356C100.559 138.293 100.548 138.229 100.54 138.166C99.232 137.715 97.8856 137.41 96.5447 137.267C96.5502 137.305 96.5557 137.341 96.5612 137.379C96.9632 137.786 97.3817 138.18 97.8222 138.557C98.7887 139.382 99.7689 140.042 100.752 140.567C100.796 140.1 100.738 139.387 100.57 138.356Z" fill="#11CE8F"/>
<path d="M128.525 127.209C130.813 128.716 133.222 130.055 135.703 131.071C134.734 129.68 133.618 128.38 132.421 127.185C131.14 127.298 129.835 127.3 128.522 127.209H128.525Z" fill="#11CE8F"/>
<path d="M96.7681 114.673C96.735 114.811 96.7047 114.951 96.6689 115.086C97.7703 115.658 98.8909 116.192 100.034 116.679C101.118 116.145 102.245 115.738 103.404 115.452C103.302 115.356 103.2 115.257 103.098 115.157C101.033 114.665 98.8882 114.5 96.7681 114.671V114.673Z" fill="#11CE8F"/>
<path d="M93.5275 115.213C92.561 115.466 91.4321 115.838 90.3611 116.326C91.0687 117.265 91.7763 118.133 92.4509 118.912C92.6106 119.094 92.773 119.279 92.9355 119.463C93.6927 118.364 94.2874 117.163 94.6866 115.866C94.2984 115.654 93.9102 115.436 93.5275 115.213Z" fill="#11CE8F"/>
<path d="M107.25 142.085C105.774 140.765 104.037 139.651 102.178 138.817C102.36 139.81 102.503 140.696 102.611 141.395C104.172 141.95 105.727 142.165 107.25 142.085Z" fill="#11CE8F"/>
<path d="M135.563 155.977C135.285 155.471 134.886 154.822 134.393 154.084C133.311 154.852 132.154 155.391 130.957 155.727C131.535 156.491 132.182 157.165 132.906 157.713C133.806 157.22 134.745 156.731 135.714 156.269C135.662 156.172 135.618 156.073 135.563 155.977Z" fill="#11CE8F"/>
<path d="M111.209 93.1055C110.708 96.1424 109.89 99.1326 109.092 101.732C109.86 104.069 110.303 106.52 110.273 108.899C110.639 109.069 110.975 109.218 111.269 109.342C112.652 109.931 114.092 110.501 115.567 111.035C117.159 109.604 118.913 108.689 120.747 108.213C120.537 107.635 120.317 107.065 120.088 106.506C118.183 101.858 115.237 96.7069 111.209 93.1082V93.1055Z" fill="#11CE8F"/>
<path d="M161.667 100.18L158.762 98.1084C158.68 98.2074 158.597 98.3092 158.512 98.4055C159.726 99.4067 161.023 100.317 162.364 101.142C162.138 100.818 161.907 100.496 161.67 100.18H161.667Z" fill="#11CE8F"/>
<path d="M162.835 118.984C160.916 117.423 159.206 115.651 157.818 113.685C157.818 113.698 157.821 113.715 157.824 113.729C158.391 115.806 158.652 117.971 158.617 120.147C159.187 120.756 159.773 121.359 160.376 121.951C161.051 120.959 161.882 119.951 162.837 118.984H162.835Z" fill="#11CE8F"/>
<path d="M109.219 78.6496C110.119 78.7543 111.033 78.9333 111.955 79.1757C112.691 76.2724 114.844 73.7189 117.247 71.9064C118.062 71.2921 118.888 70.7467 119.714 70.2591L117.619 68.7661C115.496 71.1158 112.814 72.9559 109.794 73.7051C109.855 75.4901 109.659 77.1621 109.216 78.6524L109.219 78.6496Z" fill="#11CE8F"/>
<path d="M158.702 139.145C158.837 140.955 159.065 142.803 159.39 144.66L162.053 142.759C161.133 141.561 159.99 140.285 158.699 139.145H158.702Z" fill="#11CE8F"/>
<path d="M158.33 123.335C158.597 123.567 158.864 123.807 159.132 124.05C159.22 123.879 159.305 123.711 159.396 123.542C159.071 123.255 158.752 122.965 158.435 122.672C158.405 122.89 158.369 123.114 158.33 123.338V123.335Z" fill="#11CE8F"/>
<path d="M105.501 73.9902C104.295 73.8552 103.136 73.6046 102.018 73.2603C101.839 73.3842 101.66 73.5109 101.484 73.6376C102.183 74.1555 102.836 74.7092 103.442 75.2904C104.846 75.4997 106.187 76.0259 107.379 76.9735C107.668 77.2021 107.935 77.4472 108.191 77.7007C108.392 76.4831 108.45 75.2325 108.381 73.9682C107.445 74.0866 106.484 74.1004 105.498 73.993L105.501 73.9902Z" fill="#11CE8F"/>
<path d="M157.452 126.456C156.367 129.205 154.465 131.659 151.637 132.348C151.604 132.37 151.574 132.392 151.541 132.411C151.772 132.976 151.998 133.568 152.212 134.18C153.661 134.458 155.087 135.006 156.455 135.766C156.527 132.428 157.053 129.235 158.121 126.356C157.901 126.398 157.678 126.431 157.452 126.458V126.456Z" fill="#11CE8F"/>
<path d="M150.912 147.217C150.546 147.515 150.155 147.774 149.753 148.005C149.731 148.437 149.693 148.872 149.629 149.313C149.497 150.241 149.274 151.174 148.969 152.088L157.501 146C156.882 143.126 156.518 140.238 156.455 137.429C155.274 136.667 154.018 136.075 152.724 135.774C153.927 139.926 154.211 144.547 150.912 147.215V147.217Z" fill="#11CE8F"/>
<path d="M89.0638 67.2539C88.6122 67.0218 88.1276 66.8699 87.6045 66.8257C88.1607 67.2069 88.6645 67.3865 89.0638 67.2539Z" fill="#11CE8F"/>
<path d="M100.113 72.7077C100.154 72.6773 100.196 72.6469 100.237 72.6165C99.8542 72.4563 99.4742 72.2878 99.1025 72.1055C99.4495 72.2988 99.7854 72.5005 100.116 72.7077H100.113Z" fill="#11CE8F"/>
<path d="M87.2883 80.6172C86.9028 80.9473 86.5256 81.3021 86.1649 81.6927C85.7161 82.1769 85.3582 82.6747 85.0801 83.1809C85.1269 83.2221 85.1737 83.2662 85.2233 83.3074C85.862 83.8438 86.6605 82.2869 87.291 80.6172H87.2883Z" fill="#11CE8F"/>
<path d="M80.0601 73.3447C83.0419 75.9037 85.966 77.9697 87.764 79.0302C87.7943 79.0109 87.8273 78.9889 87.8576 78.9696C88.1329 78.0964 88.3174 77.4077 88.3449 77.281C88.8846 74.8377 89.2177 72.4081 89.3774 69.9868C88.0338 69.0888 86.803 68.122 85.6934 67.0835C84.939 67.3369 84.1213 67.7694 83.2347 68.425C81.5138 69.6976 80.3905 71.444 80.0601 73.3447Z" fill="#11CE8F"/>
<path d="M84.3444 85.834C84.3362 86.0826 84.3362 86.3313 84.3582 86.5827C84.4738 86.4004 84.5922 86.2208 84.7134 86.0412C84.5922 85.9694 84.4683 85.9031 84.3444 85.834Z" fill="#11CE8F"/>
<path d="M94.7081 54.4461C93.0258 54.2588 91.349 54.4048 89.7576 54.8428C89.9448 55.6829 90.1128 56.5231 90.2642 57.366C91.1453 59.454 91.5115 61.7485 91.5307 64.1037C92.5632 65.2166 93.6646 66.3019 94.821 67.2991C95.4708 67.2605 95.9912 66.8721 96.2803 65.9383C97.6625 61.4648 96.831 57.4211 94.7081 54.4461Z" fill="#11CE8F"/>
<path d="M88.2266 65.1852C87.1418 64.2239 86.1946 63.1688 85.5696 61.9568C85.0382 60.9266 84.8592 59.7146 84.8895 58.4337C84.7271 58.1996 84.5646 57.9627 84.4022 57.7285C83.5872 58.4447 82.8603 59.2628 82.238 60.1718C82.9704 61.4748 84.5509 63.8272 86.0927 65.4717C86.8059 65.2844 87.5272 65.1797 88.2266 65.1825V65.1852Z" fill="#11CE8F"/>
<path d="M94.8736 70.1443C94.5212 69.8499 94.1412 69.5611 93.7502 69.2695C93.8824 69.5254 94.0091 69.7839 94.1302 70.0562C94.2101 70.0562 94.2899 70.0617 94.3615 70.0838C95.6583 70.4881 96.8615 70.9722 97.9877 71.5224C97.2801 71.129 96.5917 70.7027 95.9226 70.2405C95.6143 70.4524 95.171 70.3918 94.8736 70.1443Z" fill="#11CE8F"/>
<path d="M93.5931 135.586C93.381 135.246 93.1745 134.898 92.9763 134.544C92.902 134.834 92.8304 135.125 92.7588 135.415C92.7753 135.511 92.7946 135.605 92.8111 135.699C93.0699 135.655 93.3315 135.616 93.5903 135.586H93.5931Z" fill="#11CE8F"/>
<path d="M91.71 127.693C91.4567 127.566 91.2034 127.432 90.9556 127.286C90.9528 127.286 90.9473 127.28 90.9446 127.28C91.107 127.872 91.2888 128.458 91.4897 129.035C91.5476 128.584 91.6192 128.136 91.71 127.693Z" fill="#11CE8F"/>
<path d="M114.706 173.713C114.628 174.22 114.529 174.728 114.408 175.24C114.554 175.639 114.686 176.046 114.805 176.459L118.032 174.159C116.911 174.057 115.801 173.911 114.706 173.713Z" fill="#11CE8F"/>
<path d="M90.5092 123.841C90.4238 123.891 90.3412 123.94 90.2559 123.987C90.355 124.656 90.4789 125.321 90.6248 125.981C91.0488 126.234 91.4866 126.466 91.9382 126.669C91.5141 125.695 91.0406 124.749 90.5092 123.844V123.841Z" fill="#11CE8F"/>
<path d="M89.1848 121.836C88.6699 121.144 88.1165 120.483 87.5107 119.869C87.2547 119.61 87.0014 119.365 86.7453 119.128C86.1946 120.095 86.1506 121.224 86.9766 122.519C87.0867 122.692 87.2051 122.858 87.3263 123.023C88.0036 122.822 88.6589 122.604 89.2426 122.389C89.2206 122.205 89.2013 122.02 89.1848 121.836Z" fill="#11CE8F"/>
<path d="M95.501 106.165C95.3964 105.057 95.2284 103.954 94.9971 102.864C92.8303 103.838 90.7955 105.222 89.2646 106.517C91.2168 105.794 93.3754 105.739 95.501 106.165Z" fill="#11CE8F"/>
<path d="M88.7443 111.904C88.1055 111.374 87.4915 110.821 86.9105 110.24C86.8444 110.386 86.7866 110.537 86.7371 110.689C86.8555 110.909 86.9739 111.129 87.095 111.346C87.6292 111.561 88.1798 111.748 88.7443 111.904Z" fill="#11CE8F"/>
<path d="M89.5214 124.354C89.2874 124.462 89.0533 124.562 88.811 124.653C89.0946 124.907 89.3947 125.147 89.7059 125.374C89.6398 125.034 89.5765 124.694 89.5214 124.354Z" fill="#11CE8F"/>
<path d="M88.0591 170.144C88.5106 170.246 88.9815 170.505 89.4605 170.884C89.3421 170.392 89.2485 169.897 89.1687 169.399C88.7144 169.619 88.3207 169.867 88.0591 170.144Z" fill="#11CE8F"/>
<path d="M91.7431 147.293C92.8334 147.525 93.9238 147.814 95.0031 148.158C95.2371 146.456 95.3418 144.726 95.3362 143.018C94.3891 141.869 93.6071 140.586 92.9904 139.214C92.6903 139.032 92.3929 138.85 92.0955 138.663C91.6082 141.522 91.3549 144.426 91.2695 147.282C91.2695 147.296 91.2695 147.31 91.2695 147.324C91.4182 147.274 91.5834 147.26 91.7459 147.293H91.7431Z" fill="#11CE8F"/>
<path d="M90.4929 174.11C90.1212 173.639 89.7329 173.193 89.3172 172.783C88.9455 172.414 88.6178 172.193 88.3342 172.091C89.4548 173.835 90.6333 175.565 91.9632 177.157C91.4042 176.16 90.9141 175.141 90.4956 174.11H90.4929Z" fill="#11CE8F"/>
<path d="M90.8042 169.622C91.3246 171.749 92.3901 173.859 93.2161 175.316C93.7861 176.316 94.3973 177.299 95.0389 178.26C95.54 174.085 93.7888 171.333 90.8042 169.625V169.622Z" fill="#11CE8F"/>
<path d="M99.5488 164.929C99.7801 164.945 100.006 164.967 100.226 164.992C100.826 164.783 101.427 164.505 102.019 164.172C100.535 163.564 98.9706 163.031 97.4866 162.736C98.1226 163.512 98.8109 164.246 99.5461 164.929H99.5488Z" fill="#11CE8F"/>
<path d="M94.7166 149.9C93.3674 149.44 92.3624 149.139 92.3679 149.258C92.4891 151.159 92.7396 153.078 93.271 154.916C93.9043 153.326 94.3807 151.638 94.7166 149.9Z" fill="#11CE8F"/>
<path d="M83.403 145.973C81.6546 151.684 82.365 158.198 84.5264 164.421C87.0842 163.353 89.1217 161.656 90.7077 159.553C90.6003 159.145 90.4956 158.724 90.4048 158.275C89.2208 152.383 88.951 144.858 90.1955 138.046C87.1971 139.244 84.6971 141.752 83.4057 145.973H83.403Z" fill="#11CE8F"/>
<path d="M89.0037 166.43C89.1799 164.163 90.1546 162.805 91.6056 162.084C91.4927 161.844 91.3853 161.588 91.2835 161.326C89.6315 163.29 87.5774 164.874 85.0774 165.918C85.0994 165.976 85.1214 166.031 85.1435 166.089C86.1595 166.268 87.1479 166.499 88.0923 166.783C88.3924 166.659 88.6981 166.541 89.0064 166.43H89.0037Z" fill="#11CE8F"/>
<path d="M85.8826 167.852H85.8701V167.865L85.8826 167.852Z" fill="#11CE8F"/>
<path d="M84.5538 183.997C83.9701 179.757 84.094 175.263 85.4735 172.092C85.5698 171.869 85.6717 171.668 85.7763 171.486C85.5671 171.089 85.3633 170.69 85.1651 170.288C80.2889 174.03 81.1617 179.126 84.5538 184V183.997Z" fill="#11CE8F"/>
<path d="M83.5711 87.9037C83.3371 87.058 83.2407 86.1958 83.3123 85.3254C83.0672 85.2262 82.8057 85.1188 82.5579 85.0059C82.4835 85.2097 82.3762 85.4769 82.233 85.8322C81.831 86.8377 81.4841 87.9368 80.9912 88.9284C81.5061 89.1956 82.0678 89.4711 82.6597 89.7355C82.9351 89.113 83.238 88.5014 83.5711 87.9037Z" fill="#11CE8F"/>
<path d="M83.9234 91.9355C83.3589 93.8748 83.1166 95.8664 83.2213 97.8469C83.6618 95.825 84.5649 94.0015 85.9168 92.4727C85.256 92.3405 84.5869 92.1559 83.9234 91.9383V91.9355Z" fill="#11CE8F"/>
<path d="M79.9419 96.0026V104.166C80.7541 106.468 82.2162 108.316 84.0857 109.684C84.2812 109.42 84.4822 109.158 84.6914 108.902C84.3473 108.062 84.0444 107.212 83.7828 106.35C82.475 104.252 81.5554 101.898 81.1864 99.2405C80.9056 97.2196 81.035 95.2206 81.4755 93.2905C80.8422 94.1165 80.3246 95.0251 79.9446 96.0081L79.9419 96.0026Z" fill="#11CE8F"/>
<path d="M82.9018 164.991C80.0025 156.921 79.4518 148.369 83.7581 141.816C85.3247 139.434 87.2493 137.796 89.3584 136.786C85.2972 133.754 81.9271 129.974 80.6468 125.266C79.9859 125.045 79.9391 124.233 80.231 123.17C80.2035 122.967 80.1759 122.766 80.1567 122.562C79.7629 118.22 81.0653 114.192 83.3588 110.722C82.0014 109.717 80.834 108.437 79.9419 106.859V165.561C80.9882 165.451 81.9766 165.261 82.9018 164.994V164.991Z" fill="#11CE8F"/>
<path d="M108.894 68.2799C110.813 67.6353 112.88 67.1175 114.962 66.8695L104.334 59.2861C106.314 61.8617 107.853 64.8752 108.794 67.9383C108.83 68.054 108.858 68.167 108.891 68.2827L108.894 68.2799Z" fill="#11CE8F"/>
<path d="M81.7869 84.541C81.813 84.5687 81.8392 84.5872 81.8624 84.6056C81.8363 84.5841 81.8072 84.5625 81.7869 84.541Z" fill="#11CE8F"/>
<path d="M82.0124 91.2084C81.3076 90.9058 80.6137 90.573 79.9419 90.2236V93.9069C80.5063 92.9331 81.2002 92.0254 82.0124 91.2084Z" fill="#11CE8F"/>
<path d="M171.238 107.011C171.477 109.181 171.541 111.399 171.406 113.556C174.286 112.677 177.279 112.718 179.958 114.335C179.085 113.005 177.95 111.804 176.552 110.804L171.238 107.011Z" fill="#11CE8F"/>
<path d="M166.221 119.636C167.479 120.423 168.46 120.605 168.71 119.556C168.975 118.454 169.173 117.338 169.313 116.214C168.531 116.572 167.788 116.991 167.083 117.459C166.849 118.187 166.563 118.914 166.224 119.638L166.221 119.636Z" fill="#11CE8F"/>
<path d="M160.717 125.538C164.131 128.873 167.438 132.934 169.621 137.363L174.569 133.832C170.335 131.683 165.629 128.692 161.361 125.207C161.149 125.325 160.935 125.436 160.717 125.538Z" fill="#11CE8F"/>
<path d="M100.041 186.942C99.1741 186.173 98.3343 185.369 97.5304 184.531C97.6543 185.272 96.8365 185.887 96.1812 185.294C95.771 184.923 95.358 184.529 94.945 184.118C94.3502 185.435 93.5049 187.19 92.5605 188.826C95.0634 188.961 97.6543 188.385 100.041 186.939V186.942Z" fill="#11CE8F"/>
<path d="M86.7758 173.3C86.4867 174.153 86.3738 175.252 86.3188 176.017C86.0737 179.52 86.1563 183.303 86.8419 186.852C87.0374 187.069 87.2384 187.284 87.4421 187.499C88.4664 187.994 89.5485 188.361 90.6691 188.586C91.831 186.772 92.9324 184.88 93.7584 182.893C91.2748 180.213 88.8519 176.918 86.7731 173.3H86.7758Z" fill="#11CE8F"/>
<path d="M91.2446 152.887C91.3135 154.559 91.4814 156.25 91.8283 157.864C92.0266 157.528 92.2166 157.184 92.3983 156.834C91.9137 155.581 91.5255 154.264 91.2446 152.889V152.887Z" fill="#11CE8F"/>
<path d="M93.9124 99.0123C93.1222 96.7563 92.0952 94.4342 90.7708 92.3076C89.6557 92.6905 88.4497 92.7814 87.1997 92.6602C88.9316 94.8418 91.3022 96.9987 93.9097 99.0123H93.9124Z" fill="#11CE8F"/>
<path d="M94.7637 161.414C94.1772 160.525 93.6458 159.596 93.1777 158.625C92.9272 159.054 92.6629 159.469 92.3848 159.873C92.5858 160.465 92.817 161.037 93.0869 161.584C93.6128 161.477 94.1772 161.425 94.7664 161.414H94.7637Z" fill="#11CE8F"/>
<path d="M90.6883 135.725C90.9003 134.844 91.1426 133.981 91.4125 133.141C91.3519 132.447 91.3271 131.75 91.3409 131.053C90.7957 129.649 90.3469 128.189 89.9945 126.704C89.2428 126.225 88.4416 125.657 87.7147 125.01C86.0875 125.462 84.317 125.608 82.4475 125.484C82.7146 126.249 83.0532 127.01 83.4773 127.762C85.2697 130.927 87.8 133.549 90.6883 135.728V135.725Z" fill="#11CE8F"/>
<path d="M88.8905 104.741C90.3856 103.544 92.4176 102.233 94.6202 101.28C94.5487 101.019 94.4771 100.754 94.4 100.496C93.1637 99.5155 91.9577 98.4967 90.7958 97.4312C89.5155 96.2582 87.9406 94.7907 86.5639 93.1387C86.4152 93.3011 86.2693 93.4691 86.1316 93.6425C84.2676 95.9939 83.6426 98.695 83.8161 101.487C84.3419 103.381 85.2037 105.226 86.429 106.958C87.2054 106.173 88.0287 105.432 88.8905 104.741Z" fill="#11CE8F"/>
<path d="M84.3167 115.969C84.749 115.627 85.2749 115.672 85.5998 116.134C85.7457 116.341 85.9082 116.539 86.0872 116.732C85.955 116.393 85.8338 116.038 85.7265 115.666C85.3878 114.484 85.2584 113.195 85.385 111.953C85.1758 111.848 84.9693 111.741 84.7683 111.625C83.1576 114.099 82.0535 116.859 81.7754 119.69C82.7804 117.892 83.9258 116.28 84.3195 115.966L84.3167 115.969Z" fill="#11CE8F"/>
<path d="M96.0192 164.944C96.5286 164.905 97.0325 164.881 97.5253 164.872C96.8094 164.122 96.1376 163.332 95.5209 162.496C94.8711 162.477 94.2543 162.523 93.6926 162.664C93.789 162.818 93.8826 162.977 93.9872 163.126C94.604 163.998 95.2896 164.584 96.0192 164.944Z" fill="#11CE8F"/>
<path d="M80.1704 69.0393C81.1837 67.8961 82.8026 66.7309 84.5841 65.9817C83.3175 64.6374 82.241 63.183 81.3681 61.6294C80.4678 63.4034 79.9419 65.4335 79.9419 67.662V69.3175C80.0162 69.2238 80.0878 69.1329 80.1704 69.0393Z" fill="#11CE8F"/>
<path d="M108.233 72.3603C108.131 71.6066 107.99 70.8556 107.812 70.1074C106.388 70.6961 105 71.3975 103.679 72.1897C105.163 72.5226 106.683 72.6023 108.23 72.3603H108.233Z" fill="#11CE8F"/>
<path d="M109.676 72.0447C110.119 71.918 110.565 71.7638 111.011 71.5792C112.85 70.8217 114.557 69.6262 116.028 68.147C113.806 68.2599 111.493 68.7612 109.232 69.5628C109.428 70.403 109.582 71.2321 109.676 72.0447Z" fill="#11CE8F"/>
<path d="M80.655 85.3987C80.9359 84.7294 81.1837 84.0242 81.5857 83.4127C81.9078 82.9224 82.6925 82.8452 82.9954 83.4127C83.0862 83.5835 83.2982 83.7625 83.5791 83.9498C83.5818 83.9361 83.5873 83.925 83.5901 83.9113C82.2547 82.578 80.9359 81.0217 79.9419 79.3579V87.1782C80.1787 86.586 80.4182 85.9937 80.655 85.4015V85.3987Z" fill="#11CE8F"/>
<path d="M101.299 185.673C101.385 185.757 101.476 185.836 101.561 185.92L101.778 185.757C101.619 185.731 101.459 185.705 101.299 185.673Z" fill="#11CE8F"/>
<path d="M158.583 133.795C158.545 134.886 158.55 136.006 158.591 137.143C160.326 138.438 161.923 140.059 163.294 141.874L168.162 138.402C166.287 134.128 163.413 130.114 159.979 126.711C159.148 128.952 158.669 131.356 158.586 133.798L158.583 133.795Z" fill="#11CE8F"/>
<path d="M165.544 102.946C165.544 102.946 165.556 102.968 165.561 102.981C165.592 103 165.623 103.016 165.654 103.035L165.547 102.949L165.544 102.946Z" fill="#11CE8F"/>
<path d="M92.8997 76.8976C93.2548 76.8095 93.6045 76.7353 93.9514 76.6693C93.9459 76.6445 93.9404 76.6197 93.9377 76.5922C93.8055 75.9678 93.6513 75.3104 93.4724 74.6475C93.3044 75.1013 93.1557 75.6322 93.0291 76.2566C92.985 76.4685 92.9437 76.683 92.9024 76.8976H92.8997Z" fill="#11CE8F"/>
<path d="M129.288 89.5209C129.692 89.8871 130.083 90.2478 130.458 90.6057C132.76 91.4593 134.962 92.5606 136.997 93.918C137.22 93.6785 137.454 93.4527 137.702 93.2435C135.675 90.5975 133.982 87.8304 132.691 85.6827C132.443 85.267 132.652 84.5594 133.181 84.4823C135.26 84.1629 137.473 84.1987 139.737 84.5401L130.535 77.9761C130.995 81.7564 130.273 85.8727 129.29 89.5237L129.288 89.5209Z" fill="#11CE8F"/>
<path d="M119.321 89.6235C123.176 93.8444 126.515 98.616 128.828 103.751C129.36 104.932 129.808 106.207 130.172 107.54C130.475 107.3 130.78 107.063 131.089 106.835C130.161 105.519 129.373 104.125 128.765 102.691C128.553 102.195 128.702 101.667 129.255 101.491C130.83 100.976 132.479 100.541 134.159 100.221C134.349 99.1447 134.629 98.1232 135.004 97.176C133.746 95.6149 132.482 94.2464 131.491 93.2029C131.009 92.699 130.513 92.1924 130.007 91.6886C129.541 91.5151 129.07 91.3526 128.597 91.1985C128.467 91.2866 128.319 91.3389 128.165 91.3196C125.78 91.0525 122.399 90.6368 119.321 89.6235Z" fill="#11CE8F"/>
<path d="M152.482 93.632L143.253 87.0457C141.579 86.6876 134.767 85.9687 134.866 86.1229C136.19 88.2357 137.559 90.3457 139.134 92.2877C140.653 91.4972 142.531 91.1611 144.822 91.4366C147.429 91.7506 150.183 92.9048 152.597 94.5851C152.699 94.4887 152.798 94.3895 152.9 94.2931C152.757 94.0727 152.617 93.8523 152.482 93.6292V93.632Z" fill="#11CE8F"/>
<path d="M150.095 104.5C150.189 107.516 151.359 110.505 153.085 113.204C153.925 112.775 154.704 112.26 155.384 111.667C154.239 108.858 152.485 106.329 150.095 104.497V104.5Z" fill="#11CE8F"/>
<path d="M151.413 95.8191C149.869 94.7421 148.17 93.9129 146.394 93.4474C144.015 92.8276 141.978 92.9626 140.328 93.6788C142.515 96.0946 145.579 98.8244 148.8 99.8794C149.329 98.5985 150.097 97.3452 151.141 96.1276C151.232 96.0202 151.325 95.921 151.416 95.8164L151.413 95.8191Z" fill="#11CE8F"/>
<path d="M152.364 115.986C151.623 116.259 150.841 116.446 150.023 116.534C149.302 116.612 148.583 116.634 147.867 116.612C150.924 117.912 153.812 119.713 156.334 121.683C156.392 121.388 156.441 121.093 156.488 120.793C154.96 119.24 153.564 117.631 152.364 115.986Z" fill="#11CE8F"/>
<path d="M111.683 88.3775C113.029 88.1571 114.444 88.0745 115.851 88.0855C114.293 87.1544 113.029 85.9452 112.321 84.364C111.974 84.0858 111.622 83.8131 111.267 83.5459C111.603 85.0719 111.721 86.7027 111.683 88.3775Z" fill="#11CE8F"/>
<path d="M96.0987 100.628C96.1263 100.647 96.1538 100.666 96.1786 100.685C97.167 100.352 98.172 100.113 99.166 99.9996C97.938 98.7876 96.8284 97.4929 95.8537 96.1294C95.683 95.9503 95.515 95.7685 95.3498 95.584C95.336 95.7355 95.3223 95.887 95.3113 96.0385C95.2672 96.6555 95.2589 97.267 95.2755 97.8758C95.4269 98.3083 95.5673 98.7463 95.6995 99.187C95.8399 99.658 95.9721 100.143 96.0987 100.63V100.628Z" fill="#11CE8F"/>
<path d="M91.9825 89.7026C91.6961 89.8076 91.4153 89.9209 91.1372 90.0369C91.2336 90.1723 91.3327 90.3077 91.4263 90.4431C91.6466 90.2966 91.8558 90.1309 92.0541 89.9375C92.032 89.8601 92.0045 89.7828 91.9825 89.7026Z" fill="#11CE8F"/>
<path d="M89.705 90.7271C89.4077 90.8908 89.1158 91.0628 88.835 91.2459C89.2204 91.2265 89.5921 91.171 89.9528 91.0822C89.8702 90.9629 89.7904 90.8436 89.705 90.7271Z" fill="#11CE8F"/>
<path d="M96.7428 77.9952C96.5638 78.2101 96.3904 78.4277 96.2224 78.6481C96.3436 80.0805 96.3573 81.5046 96.261 82.8516C96.8639 83.0362 97.4724 83.2014 98.0754 83.3364C99.6476 81.174 101.531 79.8381 103.604 79.1412C101.682 78.3919 99.6614 77.8603 97.6487 77.6592C97.343 77.7611 97.0402 77.874 96.74 77.9952H96.7428Z" fill="#11CE8F"/>
<path d="M155.982 123.217C153.126 121.016 150.048 119.237 146.948 118.027C146.54 118.851 146.031 119.65 145.406 120.418C145.307 120.54 145.208 120.655 145.106 120.774C147.909 122.751 151.753 124.782 155.368 125.14C155.602 124.52 155.806 123.878 155.982 123.22V123.217Z" fill="#11CE8F"/>
<path d="M85.958 90.909C86.3985 91.019 86.8363 91.1043 87.2713 91.1648C87.822 90.7109 88.425 90.2928 89.0803 89.9187C88.7499 89.5116 88.403 89.121 88.045 88.7441C87.1227 89.0495 86.2333 89.4401 85.3936 89.916C85.5643 90.246 85.7515 90.5761 85.958 90.909Z" fill="#11CE8F"/>
<path d="M92.6538 78.2971C92.9429 78.1139 93.2375 77.9336 93.5404 77.7588C93.2623 77.8032 92.987 77.8587 92.7144 77.9197C92.6924 78.0446 92.6758 78.1722 92.6566 78.2971H92.6538Z" fill="#11CE8F"/>
<path d="M144.046 136.492C143.41 135.614 142.721 134.771 141.983 133.969C140.637 133.76 139.293 133.416 137.977 132.978C139.266 135.333 140.141 137.834 140.398 140.393C140.519 140.55 140.637 140.707 140.753 140.864C141.606 139.197 142.716 137.68 144.046 136.495V136.492Z" fill="#11CE8F"/>
<path d="M93.9537 127.39C93.9702 127.396 93.9868 127.401 94.0033 127.404C95.9416 124.465 97.5827 125.302 98.907 127.699C99.287 127.641 99.6587 127.561 100.025 127.459C98.26 126.143 96.5116 124.685 94.8458 123.102C94.3172 124.115 93.8684 125.195 93.5132 126.319C93.6674 126.672 93.8161 127.03 93.9537 127.39Z" fill="#11CE8F"/>
<path d="M89.9668 117.776C89.931 118.469 89.9145 119.165 89.9227 119.861C90.3798 120.224 90.8699 120.538 91.3875 120.777C91.5114 120.835 91.6353 120.882 91.7592 120.934C91.9134 120.763 92.0649 120.59 92.2108 120.414C91.4316 119.561 90.6827 118.681 89.9668 117.773V117.776Z" fill="#11CE8F"/>
<path d="M96.1016 127.779C96.4017 127.808 96.7018 127.828 96.9992 127.834C96.7101 127.671 96.4099 127.643 96.1016 127.779Z" fill="#11CE8F"/>
<path d="M100.209 136.244C100.008 135.129 99.7879 134.016 99.5071 132.919C99.1133 131.391 98.6122 129.961 98.0395 128.983C97.0566 129.063 96.0571 129.008 95.0631 128.823C94.942 129.016 94.8209 129.234 94.6997 129.479C95.344 131.443 95.8754 133.465 96.2581 135.517C97.5852 135.6 98.9151 135.85 100.212 136.241L100.209 136.244Z" fill="#11CE8F"/>
<path d="M87.9985 117.723C88.3014 118.185 88.6428 118.62 89.0173 119.019C89.0035 118.339 89.0118 117.668 89.0366 117.011C88.6648 117.231 88.3152 117.47 87.9985 117.723Z" fill="#11CE8F"/>
<path d="M98.2957 107.921C99.5842 110.144 101.231 112.238 103.139 114.161C103.868 114.329 104.584 114.532 105.281 114.775C103.954 111.797 101.355 109.277 98.2957 107.921Z" fill="#11CE8F"/>
<path d="M94.4545 113.869C94.5123 113.861 94.5701 113.85 94.6252 113.841C94.8097 113.813 94.9914 113.794 95.1759 113.771C95.1896 113.698 95.2007 113.626 95.2144 113.556C94.8345 113.595 94.4545 113.626 94.0718 113.642C94.1984 113.721 94.3278 113.796 94.4545 113.872V113.869Z" fill="#11CE8F"/>
<path d="M121.063 169.2C121.262 168.548 121.498 167.889 121.787 167.231C123.695 162.843 126.848 161.047 130.339 160.948C124.296 157.072 116.674 153.987 116.25 160.683C116.209 161.33 116.201 161.978 116.22 162.62C116.886 163.961 117.66 165.212 118.503 166.316C119.287 167.341 120.146 168.305 121.066 169.203L121.063 169.2Z" fill="#11CE8F"/>
<path d="M105.289 112.127C105.468 112.356 105.633 112.593 105.79 112.835C106.085 111.46 106.388 109.786 106.388 108.152C102.993 106.428 99.7301 104.45 96.6546 102.21C96.5996 102.23 96.5473 102.249 96.4922 102.268C96.7207 103.323 96.9135 104.4 97.0566 105.491C97.2466 105.921 97.4476 106.348 97.6651 106.772C100.713 107.855 103.511 109.838 105.292 112.127H105.289Z" fill="#11CE8F"/>
<path d="M138.206 131.971C139.01 132.223 139.82 132.433 140.635 132.601C140.208 132.192 139.767 131.795 139.316 131.408C138.85 131.01 138.487 131.284 138.206 131.969V131.971Z" fill="#11CE8F"/>
<path d="M140.312 147.858C141.317 147.996 142.303 148.084 143.261 148.122C142.655 146.668 141.92 145.249 141.078 143.889C140.634 145.17 140.373 146.514 140.31 147.858H140.312Z" fill="#11CE8F"/>
<path d="M84.7187 90.5548C84.6884 90.5004 84.6582 90.4431 84.6279 90.3887C84.5866 90.4173 84.5453 90.4488 84.5012 90.4775C84.5728 90.5033 84.6444 90.5319 84.716 90.5577L84.7187 90.5548Z" fill="#11CE8F"/>
<path d="M120.422 172.455C120.472 171.902 120.551 171.34 120.662 170.778C119.219 169.552 117.914 168.194 116.788 166.707C117.374 168.918 118.42 170.982 120.02 172.745L120.422 172.458V172.455Z" fill="#11CE8F"/>
<path d="M143.996 121.97C142.669 123.284 141.226 124.325 139.695 125.124C141.95 127.523 144.605 129.864 147.738 130.63C148.423 130.798 149.062 130.867 149.665 130.859C148.302 127.917 146.581 125.052 144.577 122.391C144.382 122.253 144.189 122.11 143.996 121.97Z" fill="#11CE8F"/>
<path d="M140.32 149.225C140.419 150.916 140.849 152.577 141.664 154.081C141.667 154.087 141.672 154.092 141.675 154.101C142.705 153.867 143.734 153.723 144.753 153.696C144.728 153.026 144.616 152.291 144.404 151.478C144.227 150.806 144.021 150.14 143.787 149.476C142.661 149.492 141.496 149.404 140.32 149.228V149.225Z" fill="#11CE8F"/>
<path d="M101.253 76.9706C102.239 77.2275 103.211 77.559 104.16 77.9568C103.94 77.6778 103.714 77.4043 103.475 77.1391C102.759 76.9927 102.013 76.943 101.253 76.9734V76.9706Z" fill="#11CE8F"/>
<path d="M106.185 78.6008C106.317 78.587 106.446 78.5787 106.578 78.5704C106.328 78.3687 106.069 78.1864 105.799 78.0234C105.934 78.2113 106.058 78.4074 106.185 78.598V78.6008Z" fill="#11CE8F"/>
<path d="M95.1187 72.7397C95.4712 73.9116 95.7492 75.1521 95.9502 76.4147C95.964 76.4147 95.975 76.4147 95.9888 76.4147C95.9888 76.4147 95.9888 76.4147 95.9915 76.4147C96.8699 75.419 97.8418 74.4975 98.8798 73.653C98.7972 73.6117 98.7174 73.565 98.632 73.5237C97.1011 72.7728 95.9695 72.4867 95.116 72.7425L95.1187 72.7397Z" fill="#11CE8F"/>
<path d="M99.155 75.507C99.8874 75.344 100.623 75.2363 101.352 75.1976C101.03 74.9517 100.7 74.7169 100.353 74.4932C99.9397 74.8219 99.5405 75.1617 99.155 75.507Z" fill="#11CE8F"/>
<path d="M113.274 79.5568C118.415 81.2281 123.654 84.7166 127.793 88.2161C128.379 87.3681 128.544 86.0134 128.781 84.2733C129.103 81.8724 129.271 79.1741 128.74 76.6961L121.361 71.4316C117.963 73.3755 114.279 76.396 113.274 79.5596V79.5568Z" fill="#11CE8F"/>
<path d="M115.474 85.6133C117.204 87.0044 119.269 87.9107 121.408 88.5084C122.388 88.6379 123.297 88.7811 124.095 88.9161C124.632 89.0042 125.164 89.1089 125.698 89.2246C126.243 89.1998 126.678 89.0924 127.028 88.9078C122.922 85.3048 118.164 82.1177 113.043 80.6055C112.839 82.3106 113.498 84.0294 115.474 85.6161V85.6133Z" fill="#11CE8F"/>
<path d="M110.201 79.9509C110.099 79.9344 110 79.9262 109.898 79.9097C110.24 80.5011 110.526 81.1255 110.763 81.7774C111.11 82.0332 111.454 82.2946 111.793 82.5586C111.669 81.7774 111.661 81.0072 111.754 80.2563C111.242 80.1352 110.724 80.0307 110.204 79.9482L110.201 79.9509Z" fill="#11CE8F"/>
<path d="M156.296 96.3496C156.296 96.3496 156.293 96.3635 156.29 96.3718C156.604 96.6964 156.929 97.0128 157.259 97.3207C157.309 97.2625 157.356 97.2042 157.405 97.1459L156.296 96.3496Z" fill="#11CE8F"/>
<path d="M89.2124 114.734C89.2675 114.25 89.3363 113.774 89.4162 113.309C88.9591 113.219 88.5076 113.111 88.0615 112.985C88.436 113.585 88.8215 114.168 89.2124 114.734Z" fill="#11CE8F"/>
<path d="M91.324 77.366C91.6021 75.6719 92.0592 73.9613 92.7062 72.248C92.274 71.1048 91.7508 70.0277 91.1175 69.1353C91.0845 69.3418 91.0487 69.5457 91.0129 69.7523C90.8367 72.5207 90.4209 75.2697 89.7354 77.9885C90.2585 77.7544 90.7899 77.5478 91.3268 77.366H91.324Z" fill="#11CE8F"/>
<path d="M107.61 114.918C108.39 113.474 108.888 111.874 109.015 110.177C108.75 109.813 108.483 109.436 108.216 109.05C108.153 109.02 108.087 108.99 108.023 108.959C107.954 110.946 107.517 113.017 106.958 114.948C107.175 114.937 107.39 114.923 107.61 114.92V114.918Z" fill="#11CE8F"/>
<path d="M86.2941 88.2836C86.597 88.1488 86.8999 88.0278 87.2 87.915C86.8586 87.6014 86.5034 87.3016 86.1372 87.021C85.76 87.6262 85.4158 88.2451 85.1074 88.875C85.4901 88.6632 85.8839 88.4651 86.2941 88.2863V88.2836Z" fill="#11CE8F"/>
<path d="M87.5218 55.6768C87.2795 55.7925 87.0427 55.9137 86.8087 56.0431C86.6876 56.7015 86.5994 57.3571 86.5664 57.9989C87.3484 59.0759 88.2239 60.2329 89.1849 61.4063C89.0417 60.0676 88.8462 58.7289 88.6011 57.3929C88.3396 56.8557 88.0312 56.3379 87.665 55.8531C87.6182 55.7925 87.5686 55.7374 87.5218 55.6768Z" fill="#11CE8F"/>
<path d="M88.1775 62.8365C88.1775 62.8365 88.1996 62.8558 88.2106 62.8669C87.8912 62.4719 87.5746 62.0768 87.2634 61.6763C87.4975 62.0989 87.7976 62.4912 88.1775 62.8365Z" fill="#11CE8F"/>
<path d="M88.8151 81.2809C88.8011 81.2714 88.7842 81.2619 88.7701 81.2524C88.7588 81.2904 88.7476 81.3251 88.7363 81.3631C88.7617 81.3346 88.787 81.3093 88.8151 81.2809Z" fill="#11CE8F"/>
<path d="M152.628 96.7373C152.314 97.1582 152.014 97.601 151.736 98.0687C151.306 98.7976 150.97 99.5376 150.714 100.286C151.865 100.399 153.019 100.25 154.139 99.7549C154.181 99.3147 154.236 98.8306 154.302 98.3052C153.776 97.7523 153.217 97.2269 152.625 96.7373H152.628Z" fill="#11CE8F"/>
<path d="M145.502 149.36C146.006 150.782 146.392 152.299 146.463 153.765C146.469 153.765 146.471 153.765 146.474 153.765C147.306 152.25 147.834 150.542 148.03 148.79C147.229 149.065 146.381 149.25 145.502 149.36Z" fill="#11CE8F"/>
<path d="M95.2477 140.502C94.9173 140.323 94.5897 140.142 94.2593 139.955C94.5649 140.529 94.9118 141.082 95.3056 141.611C95.2918 141.239 95.2725 140.871 95.2477 140.502Z" fill="#11CE8F"/>
<path d="M93.7477 131.929C93.6128 132.333 93.4861 132.743 93.365 133.156C93.6981 133.733 94.0588 134.294 94.4471 134.839C94.2433 133.876 94.012 132.902 93.7505 131.929H93.7477Z" fill="#11CE8F"/>
<path d="M93.5959 122.663C93.2077 122.602 92.8277 122.522 92.4533 122.423C92.2385 122.619 92.0183 122.803 91.7925 122.976C92.0981 123.491 92.39 124.013 92.6653 124.544C92.9351 123.898 93.2435 123.268 93.5959 122.66V122.663Z" fill="#11CE8F"/>
<path d="M92.9543 129.293C92.9213 129.194 92.8827 129.095 92.8497 128.999C92.8056 129.252 92.7643 129.505 92.7285 129.758C92.8029 129.601 92.88 129.45 92.9543 129.296V129.293Z" fill="#11CE8F"/>
<path d="M145.04 137.973C143.674 139.141 142.562 140.617 141.758 142.256C142.834 143.799 143.63 145.107 143.991 145.843C144.321 146.52 144.676 147.283 145.012 148.099C146.213 148.005 147.237 147.749 148.11 147.363C148.118 146.112 147.956 144.865 147.609 143.672C147.019 141.647 146.138 139.744 145.037 137.973H145.04Z" fill="#11CE8F"/>
<path d="M109.602 157.477C112.173 154.062 112.371 150.528 111.105 147.382C107.743 148.77 103.635 148.484 100.414 146.982C99.1222 146.382 97.9603 145.602 96.9333 144.685C96.9168 145.043 96.8948 145.401 96.8672 145.757C96.7901 146.74 96.6772 147.718 96.5286 148.682C101.548 150.544 106.223 153.585 109.604 157.477H109.602Z" fill="#11CE8F"/>
<path d="M150.276 102.614C151.05 103.142 151.793 103.748 152.493 104.448C153.3 105.253 154.021 106.12 154.668 107.032C154.574 106.682 154.489 106.33 154.415 105.969C153.448 104.467 152.116 103.258 150.276 102.611V102.614Z" fill="#11CE8F"/>
<path d="M150.563 132.938C148.556 133.898 146.414 134.253 144.241 134.185C144.607 134.619 144.963 135.062 145.304 135.513C146.942 134.432 148.85 133.849 150.979 134.009C150.935 133.89 150.893 133.772 150.849 133.654C150.758 133.414 150.657 133.178 150.56 132.938H150.563Z" fill="#11CE8F"/>
<path d="M154.335 115.004C155.092 116.037 155.904 117.065 156.769 118.081C156.788 117.745 156.802 117.406 156.808 117.07C156.653 115.908 156.406 114.751 156.07 113.622C155.541 114.139 154.957 114.602 154.332 115.004H154.335Z" fill="#11CE8F"/>
<path d="M152.655 101.842C152.11 101.944 151.573 101.993 151.042 102.001C152.184 102.499 153.222 103.187 154.123 104.073C154.035 103.228 154.002 102.364 154.026 101.481C153.589 101.63 153.132 101.754 152.655 101.842Z" fill="#11CE8F"/>
<path d="M154.779 126.511C152.144 126.31 149.443 125.39 147.014 123.972C148.336 125.938 149.511 127.988 150.508 130.076C150.607 130.288 150.712 130.508 150.817 130.737C151.219 130.654 151.599 130.536 151.959 130.382C153.127 129.324 154.06 128.002 154.781 126.511H154.779Z" fill="#11CE8F"/>
<path d="M157.986 124.855C157.967 124.93 157.945 125.008 157.923 125.083C158.008 125.069 158.094 125.051 158.176 125.034C158.113 124.973 158.05 124.913 157.986 124.855Z" fill="#11CE8F"/>
<defs>
<filter id="filter0_d_2162_1407" x="0" y="0" width="244" height="244" filterUnits="userSpaceOnUse" color-interpolation-filters="sRGB">
<feFlood flood-opacity="0" result="BackgroundImageFix"/>
<feColorMatrix in="SourceAlpha" type="matrix" values="0 0 0 0 0 0 0 0 0 0 0 0 0 0 0 0 0 0 127 0" result="hardAlpha"/>
<feOffset dy="4"/>
<feGaussianBlur stdDeviation="2"/>
<feComposite in2="hardAlpha" operator="out"/>
<feColorMatrix type="matrix" values="0 0 0 0 0 0 0 0 0 0 0 0 0 0 0 0 0 0 0.25 0"/>
<feBlend mode="normal" in2="BackgroundImageFix" result="effect1_dropShadow_2162_1407"/>
<feBlend mode="normal" in="SourceGraphic" in2="effect1_dropShadow_2162_1407" result="shape"/>
</filter>
</defs>
</svg>
