<svg width="245" height="244" viewBox="0 0 245 244" fill="none" xmlns="http://www.w3.org/2000/svg">
<g filter="url(#filter0_d_2162_1404)">
<ellipse cx="122.5" cy="118" rx="118.5" ry="118" fill="white"/>
<path d="M122.5 1C187.397 1 240 53.3867 240 118C240 182.613 187.397 235 122.5 235C57.6026 235 5 182.613 5 118C5 53.3867 57.6026 1 122.5 1Z" stroke="black" stroke-width="2"/>
</g>
<path d="M76.5098 58.6699C76.9141 47.0447 89.9265 40.4387 99.3232 47.2568L184.442 109.029C192.519 114.889 192.519 127.107 184.442 132.971L99.3232 194.743C89.7774 201.669 76.5 194.742 76.5 182.772V59.2275L76.5098 58.6699Z" stroke="black"/>
<path d="M131.888 126.195C131.539 125.876 131.186 125.565 130.828 125.265C130.531 125.015 130.217 124.762 129.892 124.509C129.647 125.075 129.372 125.628 129.072 126.165C130.03 126.225 130.969 126.239 131.888 126.198V126.195Z" fill="#E94228"/>
<path d="M105.63 100.36C106.205 100.209 106.693 99.666 107.13 98.5586C106.585 97.3934 105.952 96.2695 105.236 95.2173C104.963 96.3797 104.977 97.7543 105.368 99.3822C105.448 99.71 105.536 100.035 105.63 100.36Z" fill="#E94228"/>
<path d="M126.729 114.934C126.153 114.824 125.581 114.697 125.005 114.573C124.746 114.888 124.49 115.202 124.242 115.524C124.474 116.89 124.639 118.27 124.716 119.65C126.024 120.388 127.263 121.176 128.395 121.989C128.637 122.162 128.879 122.341 129.121 122.523C129.967 120.11 130.465 117.777 130.603 115.483C129.179 115.359 127.836 115.146 126.729 114.932V114.934Z" fill="#E94228"/>
<path d="M135.842 136.914C131.674 133.054 126.492 131.14 126.864 138.922C126.919 140.046 127.021 141.393 127.197 142.85C130.096 144.784 133.48 146.202 136.869 147.081C135.917 143.632 135.528 140.123 135.842 136.914Z" fill="#E94228"/>
<path d="M135.84 161.815L136.371 161.437C135.812 161.398 135.253 161.337 134.7 161.266C134.678 161.299 134.656 161.332 134.634 161.365C134.68 161.401 134.73 161.44 134.777 161.476C135.132 161.575 135.484 161.688 135.837 161.815H135.84Z" fill="#E94228"/>
<path d="M131.096 129.586C130.072 129.002 129.061 128.385 128.064 127.746C126.908 129.355 125.457 130.757 123.667 131.848C123.125 132.178 122.569 132.459 122.007 132.702C121.528 133.624 120.988 134.542 120.391 135.431C121.423 137.569 122.962 139.448 124.829 141.059C124.609 138.285 124.876 135.66 125.953 133.655C128.235 129.396 132.338 131.418 136.126 134.993C136.305 134.09 136.545 133.219 136.853 132.393C134.805 131.586 132.852 130.594 131.099 129.589L131.096 129.586Z" fill="#E94228"/>
<path d="M122.706 109.197C123.122 110.535 123.499 111.924 123.813 113.342C124.077 113.403 124.341 113.458 124.606 113.516C125.743 112.122 126.984 110.797 128.312 109.563C126.398 109.067 124.506 108.927 122.703 109.197H122.706Z" fill="#E94228"/>
<path d="M105.627 94.0682C106.329 95.0048 106.99 96.0323 107.59 97.1258C107.59 97.1258 107.59 97.1203 107.59 97.1176C108.105 95.1701 108.413 93.1399 108.488 91.1125C107.224 91.8205 106.216 92.7818 105.624 94.0655L105.627 94.0682Z" fill="#E94228"/>
<path d="M122.692 113.068C122.403 111.822 122.056 110.595 121.665 109.404C120.14 109.775 118.692 110.46 117.37 111.486C119.11 112.08 120.894 112.617 122.695 113.068H122.692Z" fill="#E94228"/>
<path d="M109.818 93.4568C109.903 92.9039 109.986 92.3373 110.057 91.7651C110.03 91.7459 110.002 91.7266 109.975 91.7046C109.942 92.285 109.889 92.8682 109.818 93.4568Z" fill="#E94228"/>
<path d="M99.3522 88.4607C101.315 89.5102 103.138 91.0527 104.793 93.0223C105.399 91.791 106.285 90.8434 107.362 90.1244C105.963 89.433 104.468 88.9317 102.876 88.681C101.781 88.5075 100.586 88.4331 99.3522 88.4607Z" fill="#E94228"/>
<path d="M108.557 99.0681C108.568 99.093 108.582 99.1206 108.593 99.1455C108.706 98.7228 108.816 98.3002 108.92 97.8748C108.807 98.2726 108.686 98.6704 108.557 99.0681Z" fill="#E94228"/>
<path d="M140.165 158.724L141.778 157.574C141.467 157.132 141.17 156.678 140.881 156.216C139.997 156.496 139.121 156.832 138.265 157.192C138.417 157.629 138.549 158.064 138.656 158.488C139.16 158.545 139.661 158.625 140.165 158.724Z" fill="#E94228"/>
<path d="M107.992 100.64C107.728 101.327 107.441 102.01 107.125 102.692C107.086 102.771 107.031 102.837 106.97 102.893C106.976 102.898 106.979 102.904 106.984 102.912C107.381 102.733 107.692 102.348 107.885 101.685C107.956 101.435 108.028 101.184 108.099 100.934C108.064 100.835 108.028 100.739 107.992 100.64Z" fill="#E94228"/>
<path d="M106.817 106.911C106.764 106.465 106.682 106.032 106.563 105.616C106.448 105.41 106.335 105.2 106.222 104.988C104.498 103.98 102.899 102.848 101.434 101.606C100.454 101.517 99.4266 101.619 98.3914 101.862C101.332 103.834 104.306 105.567 106.817 106.911Z" fill="#E94228"/>
<path d="M122.29 118.38C122.728 118.589 123.157 118.809 123.581 119.032C123.532 118.267 123.457 117.503 123.358 116.741C122.984 117.277 122.626 117.825 122.29 118.38Z" fill="#E94228"/>
<path d="M117.376 117.708C118.312 118.61 119.251 119.474 120.181 120.299C120.184 120.293 120.187 120.288 120.189 120.28C120.39 119.881 120.602 119.485 120.82 119.088C119.697 118.582 118.543 118.115 117.373 117.705L117.376 117.708Z" fill="#E94228"/>
<path d="M115.691 122.533C116.709 123.01 117.739 123.445 118.774 123.836C119.017 123.021 119.317 122.206 119.675 121.393C118.097 119.996 116.58 118.531 115.14 116.999C114.531 116.829 113.923 116.672 113.314 116.537C112.976 117.187 112.645 117.862 112.329 118.564C113.62 119.707 114.754 121.035 115.691 122.536V122.533Z" fill="#E94228"/>
<path d="M124.455 125.518C124.62 125.555 124.788 125.588 124.953 125.622C124.799 125.507 124.645 125.392 124.49 125.277C124.479 125.358 124.468 125.44 124.455 125.518Z" fill="#E94228"/>
<path d="M119.713 124.172C120.917 124.593 122.123 124.953 123.326 125.248C123.367 124.992 123.403 124.736 123.436 124.477C122.42 123.699 121.423 122.89 120.449 122.057C120.168 122.753 119.92 123.457 119.716 124.172H119.713Z" fill="#E94228"/>
<path d="M123.149 126.219C121.916 125.894 120.69 125.503 119.479 125.057C119.25 126.018 119.088 126.993 119.011 127.982C118.887 129.547 119.005 131.023 119.325 132.411C119.988 132.26 120.622 132.053 121.23 131.8C121.343 131.574 121.456 131.351 121.563 131.12C122.296 129.558 122.811 127.91 123.146 126.216L123.149 126.219Z" fill="#E94228"/>
<path d="M113.887 121.631C113.397 120.976 112.868 120.366 112.296 119.818C112.174 119.703 112.045 119.595 111.921 119.483C111.803 119.763 111.687 120.047 111.571 120.33C112.331 120.787 113.102 121.221 113.884 121.631H113.887Z" fill="#E94228"/>
<path d="M135.55 151.963C136.338 151.235 137.04 150.401 137.632 149.475C137.513 149.142 137.401 148.806 137.29 148.47C134.947 147.82 132.656 146.916 130.605 145.927C132.546 147.806 134.234 149.974 135.55 151.965V151.963Z" fill="#E94228"/>
<path d="M115.751 142.491C116.31 141.533 116.745 140.483 117.073 139.381C115.305 141.045 113.273 142.345 111.021 142.987C111.478 143.929 111.993 144.846 112.568 145.728C113.821 144.981 114.914 143.921 115.748 142.491H115.751Z" fill="#E94228"/>
<path d="M123.683 141.495C121.979 139.961 120.655 138.239 119.713 136.385C119.325 136.912 118.915 137.421 118.485 137.914C118.257 139.349 117.852 140.735 117.219 142.019C118.075 141.465 119.063 141.112 120.184 141.044C121.373 140.972 122.544 141.143 123.683 141.495Z" fill="#E94228"/>
<path d="M117.755 132.665C117.53 129.255 116.508 125.828 114.82 123.027C113.603 122.415 112.422 121.757 111.288 121.063C110.071 124.267 109.165 127.787 108.876 131.222C111.75 132.379 114.749 132.968 117.755 132.665Z" fill="#E94228"/>
<path d="M107.863 117.373C107.882 117.538 107.901 117.701 107.915 117.866C108.796 118.529 109.71 119.159 110.644 119.753C110.77 119.409 110.9 119.068 111.037 118.73C110.162 118.036 109.226 117.428 108.24 116.906C108.119 117.065 107.995 117.222 107.863 117.376V117.373Z" fill="#E94228"/>
<path d="M102.419 117.441C104.019 118.041 104.818 117.617 105.294 116.715C105.085 116.533 104.875 116.349 104.672 116.165C103.587 116.36 102.546 116.671 101.558 117.103C101.844 117.218 102.13 117.331 102.422 117.441H102.419Z" fill="#E94228"/>
<path d="M118.703 135.762C118.857 135.567 119.011 135.372 119.16 135.171C118.997 134.772 118.852 134.37 118.722 133.963C118.736 134.566 118.73 135.168 118.703 135.765V135.762Z" fill="#E94228"/>
<path d="M102.637 127.783C104.357 128.981 106.166 130.039 108.033 130.868C108.201 129.132 108.512 127.372 108.942 125.585C109.341 123.915 109.806 122.194 110.385 120.5C109.539 119.957 108.722 119.395 107.94 118.822C107.904 121.139 107.163 123.439 105.696 125.232C104.803 126.32 103.768 127.168 102.639 127.783H102.637Z" fill="#E94228"/>
<path d="M137.47 99.8112C137.192 99.4024 136.905 98.999 136.613 98.604C136.47 99.035 136.355 99.488 136.258 99.9576C136.66 99.8996 137.065 99.8499 137.47 99.8112Z" fill="#E94228"/>
<path d="M135.983 103.296C135.988 103.541 136.008 103.783 136.021 104.025C137.043 103.481 138.089 102.997 139.149 102.576C138.921 102.138 138.673 101.704 138.414 101.275C137.618 101.327 136.823 101.418 136.035 101.544C135.988 102.111 135.969 102.694 135.986 103.296H135.983Z" fill="#E94228"/>
<path d="M108.934 103.822C108.79 104.268 108.65 104.703 108.515 105.111C108.454 105.301 108.342 105.45 108.198 105.552C108.297 105.943 108.375 106.342 108.427 106.753C108.71 107.24 109.008 107.722 109.316 108.199C109.391 108.235 109.459 108.27 109.531 108.304C109.473 106.835 109.272 105.323 108.931 103.822H108.934Z" fill="#E94228"/>
<path d="M141.041 116.234C142.255 117.403 143.408 118.647 144.496 119.945C144.515 119.962 144.537 119.975 144.559 119.992C145.157 119.222 145.674 118.399 146.098 117.533C144.493 116.985 142.778 116.487 141.043 116.234H141.041Z" fill="#E94228"/>
<path d="M131.079 109.236C132.136 109.685 133.174 110.225 134.174 110.847C134.876 111.282 135.559 111.751 136.236 112.233C136.129 112.007 136.027 111.781 135.93 111.55C134.589 110.426 133.37 109.161 132.304 107.798C131.861 108.12 131.42 108.453 130.985 108.798C131.018 108.944 131.051 109.09 131.082 109.236H131.079Z" fill="#E94228"/>
<path d="M151.545 114.045C149.301 110.45 148.067 106.74 148.458 103.145C148.153 102.988 147.841 102.837 147.519 102.699C146.897 102.434 146.266 102.211 145.625 102.024C145.578 102.027 145.531 102.032 145.484 102.038C147.858 105.836 149.287 110.387 148.543 114.659C149.559 114.566 150.573 114.356 151.545 114.045Z" fill="#E94228"/>
<path d="M139.287 94.6011C139.157 94.7031 139.031 94.8105 138.91 94.9207C140.821 96.3641 142.555 98.0444 144.042 99.9671C144.584 100.058 145.121 100.171 145.65 100.309C143.307 98.9369 141.173 96.8682 139.29 94.5984L139.287 94.6011Z" fill="#E94228"/>
<path d="M94.1647 83.7528C93.9087 84.798 93.793 85.8461 93.8233 86.8803C93.961 86.8886 94.0959 86.8996 94.2308 86.9106C94.5364 85.9809 94.7429 85.0153 94.8641 84.0361C94.8366 84.0251 94.8118 84.0168 94.7842 84.0058C94.5943 83.9315 94.385 83.8435 94.1647 83.75V83.7528Z" fill="#E94228"/>
<path d="M110.005 90.8416C110.055 90.8747 110.107 90.9079 110.157 90.941C110.179 90.7449 110.198 90.546 110.217 90.3499C110.148 90.3747 110.082 90.3996 110.013 90.4244C110.013 90.5626 110.008 90.7035 110.005 90.8416Z" fill="#E94228"/>
<path d="M101.442 98.408C102.571 99.171 103.507 99.8459 104.305 100.185C103.785 98.1105 103.711 96.0225 104.374 94.0419C102.893 92.1523 101.117 90.5519 99.0686 89.4252C98.4986 89.1112 97.9011 88.8578 97.2899 88.6484C96.7695 90.1084 96.3895 91.6675 96.1362 93.2596C96.2409 93.4387 96.3482 93.615 96.4584 93.7913C97.8708 95.568 99.5614 97.1354 101.445 98.408H101.442Z" fill="#E94228"/>
<path d="M95.9409 87.1783C96.0979 87.2141 96.2576 87.2526 96.4117 87.2938C96.6898 86.6364 96.9955 85.979 97.3451 85.3243C97.425 85.1758 97.5048 85.0355 97.5874 84.8924C97.2543 84.8127 96.9129 84.7219 96.5659 84.6201C96.42 85.5416 96.2135 86.4026 95.9409 87.1811V87.1783Z" fill="#E94228"/>
<path d="M138.535 116.061C137.673 116.075 136.814 116.171 135.974 116.381C132.224 117.306 137.004 121.562 138.403 123.149C138.728 123.515 139.061 123.893 139.405 124.273C140.969 123.46 142.354 122.427 143.518 121.215C141.643 119.7 139.947 117.973 138.538 116.061H138.535Z" fill="#E94228"/>
<path d="M100.062 83.6009C102.772 83.9722 105.28 83.6119 106.921 81.8156C106.657 81.1885 106.359 80.5751 106.024 79.9836C103.546 80.4843 101.58 81.7881 100.062 83.6009Z" fill="#E94228"/>
<path d="M108.039 89.7139C108.187 89.6313 108.344 89.5569 108.499 89.4825C108.435 87.1935 108.058 84.9375 107.317 82.8357C105.404 84.7584 102.595 85.7032 98.9443 85.1578C98.4625 85.9319 98.0412 86.7693 97.675 87.648C101.469 87.3698 104.941 88.1493 108.039 89.7167V89.7139Z" fill="#E94228"/>
<path d="M134.739 107.775C134.64 107.293 134.557 106.806 134.494 106.314C134.243 106.474 133.992 106.636 133.742 106.801C134.05 107.123 134.386 107.447 134.739 107.775Z" fill="#E94228"/>
<path d="M102.281 136.794C104.842 137.816 107.218 139.378 109.137 141.301C108.074 138.213 107.744 135.067 107.953 131.836C105.687 130.855 103.537 129.594 101.623 128.255C101.075 128.478 100.514 128.654 99.9382 128.778C100.932 131.026 101.72 134.086 102.281 136.797V136.794Z" fill="#E94228"/>
<path d="M113.931 146.048C113.683 146.241 113.424 146.418 113.16 146.586C113.292 146.771 113.427 146.954 113.562 147.136C113.697 146.741 113.851 146.351 114.024 145.97C113.991 145.995 113.964 146.023 113.931 146.048Z" fill="#E94228"/>
<path d="M106.324 121.768C106.646 120.702 106.764 119.63 106.712 118.575C106.489 118.782 106.26 118.98 106.024 119.173C105.982 119.286 105.938 119.396 105.897 119.506C105.748 119.9 105.341 120.236 104.892 120.079C104.87 120.071 104.848 120.062 104.829 120.057C102.395 121.682 99.4622 122.671 96.629 122.798C98.1737 124.288 99.8587 125.751 101.651 127.078C103.777 126.18 105.511 124.459 106.321 121.768H106.324Z" fill="#E94228"/>
<path d="M112.712 115.262C112.825 115.066 112.94 114.871 113.061 114.679C112.188 113.661 111.346 112.624 110.542 111.562C110.536 111.556 110.534 111.551 110.528 111.545C110.366 112.456 110.123 113.344 109.788 114.197C109.688 114.445 109.581 114.69 109.463 114.929C110.542 114.97 111.627 115.083 112.712 115.262Z" fill="#E94228"/>
<path d="M97.5792 118.571C97.984 118.243 98.3998 117.948 98.821 117.67C98.1051 117.347 97.392 117.009 96.6872 116.653C96.4559 117.295 96.1888 117.923 95.8777 118.535C95.4757 119.32 95.0296 120.033 94.545 120.678C94.713 120.857 94.8865 121.039 95.0599 121.218C95.7785 120.251 96.6128 119.358 97.582 118.571H97.5792Z" fill="#E94228"/>
<path d="M124.661 154.712C126.203 155.07 127.692 155.139 129.094 154.968C128.981 154.776 128.868 154.58 128.763 154.379C127.411 151.798 125.941 147.886 125.217 143.942C121.96 141.912 118.658 141.529 116.326 145.159C115.632 146.242 115.134 147.412 114.798 148.633C117.439 151.577 120.814 153.822 124.663 154.712H124.661Z" fill="#E94228"/>
<path d="M111.423 117.81C111.649 117.298 111.886 116.792 112.142 116.297C111.06 116.102 109.98 115.97 108.92 115.917C108.882 115.978 108.843 116.041 108.805 116.102C109.727 116.6 110.6 117.172 111.423 117.81Z" fill="#E94228"/>
<path d="M137.123 158.396C137.057 158.199 136.985 158 136.908 157.799C136.283 158.092 135.672 158.393 135.091 158.694C135.121 158.705 135.151 158.716 135.179 158.73C135.721 158.517 136.368 158.401 137.123 158.396Z" fill="#E94228"/>
<path d="M138.029 144.195C138.241 145.063 138.522 146.018 138.86 147.032C139.494 145.382 139.843 143.558 139.84 141.628C139.84 141.531 139.835 141.435 139.835 141.341C139.21 140.512 138.549 139.716 137.861 138.956C137.806 141.426 137.899 143.663 138.029 144.198V144.195Z" fill="#E94228"/>
<path d="M143.593 156.285L144.862 155.376C144.287 155.426 143.706 155.509 143.116 155.628C143.271 155.852 143.428 156.073 143.593 156.285Z" fill="#E94228"/>
<path d="M137.943 136.839C138.5 137.445 139.039 138.073 139.557 138.699C139.276 137.222 138.794 135.798 138.158 134.435C138.062 135.176 137.993 135.996 137.943 136.839Z" fill="#E94228"/>
<path d="M131.88 117.085C131.652 116.744 131.786 116.138 132.175 115.964C132.486 115.826 132.8 115.702 133.114 115.584C132.637 115.589 132.158 115.578 131.685 115.556C131.646 118.27 131.211 120.975 130.308 123.454C131.313 124.275 132.296 125.159 133.232 126.098C134.815 125.933 136.307 125.567 137.695 125.035C135.404 122.36 133.458 119.432 131.883 117.082L131.88 117.085Z" fill="#E94228"/>
<path d="M123.119 170.603C123.18 170.656 123.243 170.708 123.304 170.758L132.552 164.158C132.539 163.565 132.563 162.99 132.638 162.45C126.869 161.684 123.926 165.711 123.119 170.603Z" fill="#E94228"/>
<path d="M127.64 145.739C128.213 148.841 129.163 152.102 130.721 154.648C131.971 154.309 133.131 153.766 134.177 153.055C132.533 150.75 130.182 147.907 127.64 145.739Z" fill="#E94228"/>
<path d="M124.642 124.041C125.487 124.705 126.357 125.358 127.247 125.989C127.351 126.003 127.453 126.014 127.558 126.027C128.001 125.267 128.387 124.46 128.717 123.625C127.522 122.766 126.192 121.912 124.763 121.099C124.774 122.086 124.736 123.069 124.642 124.039V124.041Z" fill="#E94228"/>
<path d="M89.0793 115.916C88.2973 114.806 87.576 113.66 86.9207 112.484C86.8739 113.9 87.2483 115.398 87.9367 116.757C88.2918 116.451 88.6746 116.17 89.0793 115.916Z" fill="#E94228"/>
<path d="M92.7414 112.5C93.7821 112.566 94.8367 112.544 95.8912 112.428C96.1252 110.654 96.1831 108.855 96.0702 107.065C94.4182 106.745 92.7138 106.77 91.0563 107.25C89.9164 107.58 89.0408 108.117 88.3938 108.787C89.5998 110.123 91.0453 111.373 92.7414 112.5Z" fill="#E94228"/>
<path d="M95.4285 137.486C95.3487 137.386 95.2716 137.281 95.1945 137.179C94.6879 137.187 94.184 137.221 93.6857 137.284C93.7049 137.348 93.7215 137.414 93.7407 137.478C94.3437 137.859 94.9522 138.223 95.5717 138.571C95.5304 138.207 95.4809 137.845 95.4285 137.486Z" fill="#E94228"/>
<path d="M108.26 171.711C109.565 173.05 111.118 175.047 112.599 177.386C112.753 176.95 112.896 176.499 113.02 176.017C113.13 175.584 113.218 175.154 113.298 174.722C113.042 174.16 112.753 173.617 112.42 173.097C110.994 172.719 109.603 172.259 108.26 171.714V171.711Z" fill="#E94228"/>
<path d="M118.758 172.656C116.839 170.066 115.624 167.02 115.31 163.617C114.049 161.252 113.199 158.628 112.865 155.756C112.45 156.759 111.877 157.755 111.136 158.738C114.069 162.587 115.751 167.169 115.379 172.202C116.5 172.411 117.629 172.566 118.76 172.656H118.758Z" fill="#E94228"/>
<path d="M93.0717 91.3542C92.9506 91.445 92.8267 91.5303 92.7028 91.6101C93.4159 92.7296 94.0602 93.8932 94.6274 95.0925C94.6411 94.7734 94.6576 94.4571 94.6852 94.1352C94.0436 93.255 93.4957 92.328 93.0717 91.3542Z" fill="#E94228"/>
<path d="M98.0005 113.203C97.8491 113.236 97.6949 113.263 97.5435 113.294C97.5269 113.401 97.5049 113.509 97.4884 113.616C99.1487 113.539 100.787 113.635 102.37 113.905C100.561 111.961 99.0055 109.848 97.7692 107.614C97.8684 109.132 97.8546 110.652 97.6977 112.145C97.7032 112.145 97.7059 112.145 97.7114 112.145C98.408 111.996 98.7026 113.06 98.0033 113.208L98.0005 113.203Z" fill="#E94228"/>
<path d="M107.271 168.549C105.784 167.817 104.187 167.285 102.543 166.935C102.684 167.031 102.821 167.131 102.964 167.224C105.324 168.77 107.948 170.045 110.71 170.982C109.76 170.039 108.623 169.219 107.271 168.552V168.549Z" fill="#E94228"/>
<path d="M111.158 146.41C110.607 145.333 109.886 144.314 109.032 143.372C106.951 143.609 105.043 143.452 103.305 142.967C103.275 143.557 102.537 143.747 102.08 143.551C100.593 142.909 99.024 142.188 97.4353 141.386C97.4656 142.072 97.4766 142.758 97.4683 143.444C97.6666 143.623 97.8731 143.799 98.0879 143.967C101.601 146.741 106.965 148.027 111.161 146.41H111.158Z" fill="#E94228"/>
<path d="M92.6479 114.372C92.2239 114.102 91.8081 113.821 91.3979 113.535C91.2602 113.519 91.1253 113.502 90.9904 113.483C90.8913 114 90.8059 114.523 90.7316 115.051C91.3566 114.782 92.0036 114.556 92.6507 114.372H92.6479Z" fill="#E94228"/>
<path d="M116.886 155.112C122.073 155.277 126.913 156.649 131.104 159.015C131.426 158.83 131.757 158.64 132.092 158.45C131.244 157.775 130.476 156.974 129.813 156.065C124.524 156.759 118.664 153.974 114.515 149.87C113.959 152.944 114.361 156.266 115.374 159.351C115.515 158.169 115.751 156.957 116.098 155.715C116.195 155.373 116.525 155.103 116.888 155.114L116.886 155.112Z" fill="#E94228"/>
<path d="M91.1716 79.6819C91.3038 79.5802 91.4359 79.4756 91.5736 79.3738C91.6011 79.0355 91.6314 78.6999 91.6727 78.3616C91.0752 78.5761 90.4888 78.8292 89.9188 79.14C89.8528 79.3711 89.7839 79.5994 89.7151 79.8305C89.9629 79.9625 90.2217 80.0973 90.4888 80.2348C90.7146 80.0478 90.9403 79.8635 91.1689 79.6847L91.1716 79.6819Z" fill="#E94228"/>
<path d="M148.957 132.449C144.961 131.925 141.445 129.195 138.466 125.912C137.076 126.457 135.628 126.832 134.141 127.047C135.33 128.333 136.426 129.708 137.376 131.154C137.682 130.52 138.028 129.914 138.425 129.347C138.742 128.892 139.29 128.823 139.711 129.182C141.06 130.33 142.412 131.603 143.678 132.98C143.83 132.994 143.981 133.01 144.135 133.019C145.958 133.143 147.555 132.925 148.957 132.449Z" fill="#E94228"/>
<path d="M92.0804 86.6598C91.7776 85.2935 91.5876 83.8997 91.5215 82.4811C91.293 82.3626 91.0562 82.2359 90.8166 82.1064C89.5473 83.2331 88.4377 84.4561 87.4961 85.7508C87.7191 85.8858 87.9146 86.018 88.0578 86.1447C88.5066 86.5441 88.9416 86.9545 89.3656 87.3732C90.2908 87.1253 91.1966 86.9683 92.0859 86.9022C92.0859 86.8196 92.0777 86.7397 92.0804 86.657V86.6598Z" fill="#E94228"/>
<path d="M110.184 159.885C109.936 160.158 109.677 160.431 109.402 160.701C108.155 161.918 106.838 163.001 105.503 163.893C107.023 164.513 108.389 165.155 109.449 165.689C110.393 166.166 109.562 167.576 108.625 167.105C107.634 166.607 105.949 165.695 104.003 164.813C103.645 165.012 103.287 165.194 102.929 165.359C107.667 166.37 110.974 168.648 113.086 171.692C113.259 171.738 113.436 171.78 113.612 171.821C113.749 167.56 112.491 163.409 110.184 159.88V159.885Z" fill="#E94228"/>
<path d="M159.362 102.091C160.518 105.097 160.047 108.435 158.484 111.149C158.679 111.491 158.886 111.829 159.109 112.163C159.632 112.939 162.107 115.792 164.48 117.898C164.951 117.479 165.441 117.077 165.951 116.692C166.936 112.782 166.452 108.426 164.866 104.706C162.806 103.757 160.546 102.151 158.442 100.199C158.803 100.816 159.114 101.449 159.362 102.094V102.091Z" fill="#E94228"/>
<path d="M97.2266 68.8158C98.818 69.9832 100.498 70.9552 102.24 71.6077C103.645 70.7266 105.104 69.9695 106.566 69.35C107.015 69.16 107.483 68.9728 107.959 68.791C106.88 65.1814 104.975 61.7645 102.7 59.135C101.458 57.7005 100.027 56.3018 98.405 55.2307C98.0333 55.0876 97.6588 54.9609 97.2816 54.8535C99.3494 58.5403 99.6881 63.444 97.2293 68.8158H97.2266Z" fill="#E94228"/>
<path d="M164.607 119.968C163.684 120.944 162.869 122.025 162.167 123.186C162.192 123.211 162.219 123.233 162.244 123.255C162.412 123.103 162.575 122.941 162.734 122.768C163.511 121.926 164.155 120.999 164.678 120.017C164.653 120.001 164.631 119.981 164.607 119.965V119.968Z" fill="#E94228"/>
<path d="M167.156 105.496C168.313 108.644 168.72 111.942 168.131 115.239C168.737 114.883 169.356 114.561 169.989 114.277C170.023 113.729 170.042 113.178 170.047 112.627C170.067 110.358 170.009 107.961 169.742 105.584L169.579 105.468C168.883 105.689 168.062 105.686 167.156 105.496Z" fill="#E94228"/>
<path d="M148.546 136.116C147.954 136.362 147.39 136.659 146.853 136.998C148.733 139.841 150.049 142.992 150.25 146.353C152.94 144.063 153.202 139.879 151.991 135.588C150.853 135.494 149.697 135.643 148.546 136.119V136.116Z" fill="#E94228"/>
<path d="M94.4427 165.182C93.8314 164.7 93.2725 164.076 92.7741 163.297C92.5373 163.465 92.3171 163.655 92.1216 163.883C91.6067 164.475 91.2956 165.162 91.1304 165.902C92.2235 165.591 93.3386 165.352 94.4427 165.184V165.182Z" fill="#E94228"/>
<path d="M174.951 114.798C173.825 114.921 172.751 115.155 171.729 115.475C171.429 117.936 170.843 120.274 169.932 122.317C169.744 122.735 169.172 122.804 168.814 122.612C167.864 122.102 166.936 121.549 166.036 120.957C166.027 120.971 166.022 120.984 166.013 120.998C165.254 122.331 164.339 123.396 163.315 124.225C167.269 127.719 171.735 130.77 176.347 132.912L177.052 132.411C181.966 128.903 183.624 122.884 182.027 117.678C180.292 115.714 177.908 114.464 174.951 114.792V114.798Z" fill="#E94228"/>
<path d="M84.9409 168.763C84.7537 168.35 84.5719 167.937 84.3957 167.521C83.1237 167.35 81.7965 167.254 80.4419 167.224V175.562C80.4419 175.589 80.4419 175.614 80.4446 175.642C80.8411 172.738 82.5592 170.463 84.9381 168.766L84.9409 168.763Z" fill="#E94228"/>
<path d="M108.997 158.783C109.077 158.7 109.146 158.615 109.223 158.532C107.331 156.067 104.9 153.976 102.067 152.47C101.687 152.266 99.0603 151.258 96.7089 150.42C96.2271 152.751 95.5112 154.985 94.531 157.026C95.2083 158.612 96.0509 160.116 97.0476 161.513C99.2695 161.758 101.701 162.463 103.934 163.29C105.944 161.893 107.766 160.089 108.997 158.786V158.783Z" fill="#E94228"/>
<path d="M99.7456 166.525C99.5061 166.506 99.2665 166.489 99.0242 166.478C98.5204 166.519 98.0303 166.511 97.5512 166.456C97.3557 166.458 97.1602 166.467 96.9647 166.475C98.0771 166.525 99.1784 166.691 100.266 166.98C100.09 166.833 99.9191 166.678 99.7456 166.525Z" fill="#E94228"/>
<path d="M86.7005 123.338C85.8277 122.071 85.456 120.616 86.1828 119.03C86.2737 118.831 86.3756 118.641 86.4857 118.457C86.1608 118.184 85.8222 117.922 85.467 117.666C84.2335 119.291 82.9642 121.426 82.397 123.343C82.4245 123.511 82.4575 123.679 82.4906 123.847C83.0247 124.134 84.8172 123.834 86.7005 123.338Z" fill="#E94228"/>
<path d="M156.903 107.407C157.178 108.021 157.412 108.683 157.602 109.391C157.627 109.448 157.654 109.506 157.679 109.564C158.94 107.462 159.133 104.84 157.487 101.917C157.214 101.432 156.914 100.959 156.589 100.493C156.462 100.573 156.333 100.65 156.203 100.725C156.085 102.992 156.283 105.242 156.903 107.404V107.407Z" fill="#E94228"/>
<path d="M119.614 133.468C119.688 133.706 119.771 133.94 119.856 134.175C120.052 133.877 120.242 133.573 120.426 133.264C120.156 133.341 119.887 133.41 119.614 133.471V133.468Z" fill="#E94228"/>
<path d="M87.0008 79.9173C84.9303 78.6529 82.7083 77.1737 80.5359 75.5513C80.6791 76.4603 81.0067 77.3748 81.5464 78.2673C82.4577 79.7686 83.5068 81.1927 84.7568 82.4267C85.3185 81.4819 86.0949 80.6445 87.0035 79.9173H87.0008Z" fill="#E94228"/>
<path d="M104.694 170.839C101.299 168.56 97.1578 167.166 93.0607 168.282C92.9093 168.323 92.7111 168.372 92.4825 168.436C96.3593 170.71 98.5124 174.479 96.9347 180.22C97.4661 180.928 98.0223 181.616 98.595 182.291C100.729 183.4 102.956 183.948 105.024 183.794L111.93 178.868C110.088 175.672 107.662 172.827 104.694 170.837V170.839Z" fill="#E94228"/>
<path d="M136.85 114.017C136.071 113.423 135.278 112.854 134.463 112.331C133.433 111.668 132.384 111.099 131.332 110.628C131.531 111.88 131.646 113.159 131.679 114.444C133.21 114.507 135.154 114.501 136.85 114.017Z" fill="#E94228"/>
<path d="M136.129 105.329C136.302 106.88 136.633 108.373 137.112 109.797C138.067 110.552 139.055 111.274 139.992 111.913C140.096 111.753 140.19 111.582 140.275 111.401C141.379 109.021 140.875 106.269 139.642 103.575C139.039 103.828 138.447 104.098 137.877 104.387C137.299 104.679 136.715 104.993 136.131 105.327L136.129 105.329Z" fill="#E94228"/>
<path d="M138.116 150.753C138.097 150.781 138.078 150.811 138.059 150.839C137.483 151.662 136.866 152.378 136.217 152.995C136.288 153.111 136.36 153.227 136.429 153.34C136.9 154.117 137.299 154.88 137.637 155.623C138.414 155.29 139.201 154.982 139.997 154.714C139.292 153.442 138.662 152.114 138.116 150.75V150.753Z" fill="#E94228"/>
<path d="M125.726 113.738C127.376 114.049 129.019 114.275 130.638 114.388C130.652 112.981 130.531 111.584 130.275 110.187C130.046 110.099 129.818 110.019 129.592 109.939C128.226 111.11 126.924 112.383 125.729 113.735L125.726 113.738Z" fill="#E94228"/>
<path d="M141.803 110.026C141.66 111.012 141.341 111.83 140.892 112.513C142.346 113.455 143.59 114.127 144.257 114.312C145.174 114.568 146.143 114.697 147.128 114.714C147.99 111.185 147.467 107.232 145.099 103.448C144.829 103.018 144.551 102.602 144.265 102.194C143.018 102.406 141.787 102.759 140.597 103.2C141.594 105.434 142.131 107.753 141.803 110.026Z" fill="#E94228"/>
<path d="M139.438 113.993C139.353 114.054 139.268 114.112 139.179 114.167C139.259 114.297 139.345 114.424 139.427 114.551C139.815 114.56 140.204 114.576 140.592 114.607C140.201 114.413 139.818 114.209 139.438 113.993Z" fill="#E94228"/>
<path d="M139.595 101.231C139.78 101.554 139.956 101.883 140.124 102.212C140.418 102.107 140.716 102.004 141.013 101.908C141.616 101.714 142.219 101.554 142.819 101.422C141.754 101.275 140.674 101.214 139.595 101.228V101.231Z" fill="#E94228"/>
<path d="M117.585 137.062C117.747 135.98 117.821 134.867 117.802 133.743C114.806 133.999 111.725 133.344 108.807 132.189C108.699 134.355 108.854 136.467 109.346 138.426C109.619 139.508 109.977 140.585 110.415 141.643C113.053 140.894 115.506 139.28 117.585 137.062Z" fill="#E94228"/>
<path d="M120.922 120.952C121.77 121.692 122.651 122.437 123.562 123.174C123.631 122.28 123.656 121.381 123.639 120.479C122.995 120.135 122.334 119.799 121.66 119.48C121.395 119.964 121.15 120.454 120.922 120.952Z" fill="#E94228"/>
<path d="M123.482 129.341C123.287 129.881 123.069 130.432 122.827 130.986C124.46 129.989 125.837 128.617 126.935 127.003C126.927 126.997 126.916 126.989 126.908 126.983C126.029 126.857 125.151 126.691 124.275 126.493C124.077 127.46 123.818 128.413 123.482 129.341Z" fill="#E94228"/>
<path d="M99.754 118.08C98.3635 118.993 97.1217 120.222 96.0892 121.821C98.8068 121.966 101.491 121.152 103.744 119.664C102.43 119.183 101.095 118.657 99.7567 118.08H99.754Z" fill="#E94228"/>
<path d="M116.409 123.789C117.098 125.117 117.637 126.56 118.009 128.114C118.075 126.987 118.254 125.844 118.541 124.698C117.822 124.414 117.112 124.111 116.409 123.789Z" fill="#E94228"/>
<path d="M115.291 111.786C113.749 111.23 112.227 110.623 110.723 109.965C110.718 110.045 110.712 110.127 110.707 110.207C111.624 111.453 112.609 112.655 113.633 113.813C114.135 113.098 114.685 112.419 115.291 111.786Z" fill="#E94228"/>
<path d="M121.454 117.993C121.979 117.114 122.552 116.252 123.161 115.407C123.086 114.966 123.006 114.528 122.916 114.093C120.757 113.561 118.62 112.939 116.514 112.217C115.765 112.916 115.066 113.737 114.419 114.688C114.788 115.087 115.159 115.484 115.534 115.872C117.563 116.407 119.556 117.134 121.451 117.996L121.454 117.993Z" fill="#E94228"/>
<path d="M108.526 81.321C108.457 81.4285 108.383 81.5331 108.311 81.6378C109.275 83.8993 109.831 86.3454 109.977 88.8962C110.093 88.8604 110.211 88.8273 110.327 88.7943C110.44 86.4198 110.258 84.0288 109.415 81.8802C109.123 81.6902 108.829 81.5028 108.526 81.321Z" fill="#E94228"/>
<path d="M134.347 103.3C134.364 102.809 134.394 102.325 134.441 101.845C133.843 101.977 133.251 102.129 132.665 102.3C131.051 102.771 131.503 104.187 132.924 105.892C133.4 105.572 133.879 105.264 134.369 104.966C134.339 104.415 134.331 103.859 134.35 103.297L134.347 103.3Z" fill="#E94228"/>
<path d="M111.852 92.1676C116.618 95.9507 120.2 101.7 122.312 107.983C124.625 107.595 127.034 107.854 129.383 108.602C129.526 108.479 129.669 108.357 129.815 108.236C129.3 106.375 128.548 104.508 127.543 102.608C125.06 97.9166 121.896 93.3488 118.174 89.3537C116.18 89.3041 114.055 89.417 112.108 89.8273C112.05 90.6037 111.962 91.3829 111.852 92.1649V92.1676Z" fill="#E94228"/>
<path d="M142.351 99.7543C141.049 98.2696 139.62 96.9556 138.083 95.8042C137.692 96.3 137.354 96.8565 137.067 97.4625C137.618 98.1869 138.158 98.9389 138.664 99.713C139.901 99.6386 141.134 99.6469 142.351 99.7543Z" fill="#E94228"/>
<path d="M92.1578 88.0176C91.5163 88.0645 90.8747 88.1585 90.2415 88.2911C90.5085 88.5867 90.7646 88.8933 91.0124 89.2082C91.4144 89.0342 91.8329 88.8712 92.2652 88.7248C92.2239 88.4927 92.1881 88.2552 92.1605 88.0176H92.1578Z" fill="#E94228"/>
<path d="M95.1314 88.9513C94.9386 89.2869 94.7376 89.5977 94.5256 89.8811C94.7101 90.3652 94.9084 90.8438 95.1259 91.3142C95.3103 90.4807 95.5416 89.6473 95.828 88.811C95.5939 88.8523 95.3627 88.8991 95.1314 88.9486V88.9513Z" fill="#E94228"/>
<path d="M94.9908 82.241C94.9963 81.9715 94.9991 81.7046 94.9963 81.4351C94.8862 81.6661 94.7843 81.8972 94.6907 82.1282C94.7898 82.1668 94.8917 82.2053 94.9935 82.2438L94.9908 82.241Z" fill="#E94228"/>
<path d="M133.463 93.1714C134.256 94.0516 135.124 95.0364 135.991 96.0954C136.217 95.6581 136.462 95.2427 136.737 94.8521C135.586 94.0874 134.38 93.4079 133.133 92.811C133.246 92.9321 133.356 93.0531 133.463 93.1714Z" fill="#E94228"/>
<path d="M94.1921 79.5928C93.7515 79.8678 93.322 80.1539 92.909 80.4483C92.8897 80.7563 92.8787 81.0644 92.876 81.3725C92.9916 81.4248 93.1073 81.4743 93.2257 81.5265C93.5065 80.8609 93.8314 80.2172 94.1921 79.5928Z" fill="#E94228"/>
<path d="M101.07 138.356C101.059 138.292 101.048 138.229 101.04 138.166C99.732 137.715 98.3856 137.409 97.0447 137.266C97.0502 137.305 97.0557 137.341 97.0612 137.379C97.4632 137.786 97.8817 138.18 98.3222 138.556C99.2887 139.382 100.269 140.042 101.252 140.567C101.296 140.1 101.238 139.387 101.07 138.356Z" fill="#E94228"/>
<path d="M129.025 127.21C131.313 128.716 133.722 130.055 136.203 131.072C135.234 129.68 134.119 128.38 132.921 127.185C131.641 127.298 130.335 127.301 129.022 127.21H129.025Z" fill="#E94228"/>
<path d="M97.2679 114.674C97.2349 114.811 97.2046 114.951 97.1688 115.086C98.2702 115.658 99.3908 116.192 100.533 116.679C101.618 116.145 102.744 115.738 103.904 115.452C103.802 115.356 103.7 115.257 103.598 115.158C101.533 114.665 99.388 114.5 97.2679 114.671V114.674Z" fill="#E94228"/>
<path d="M94.0275 115.213C93.061 115.466 91.9321 115.838 90.8611 116.326C91.5687 117.265 92.2763 118.133 92.9509 118.912C93.1106 119.094 93.273 119.278 93.4355 119.463C94.1927 118.364 94.7874 117.163 95.1866 115.865C94.7984 115.653 94.4102 115.436 94.0275 115.213Z" fill="#E94228"/>
<path d="M107.75 142.085C106.274 140.765 104.537 139.651 102.678 138.817C102.86 139.81 103.003 140.696 103.111 141.395C104.672 141.95 106.227 142.165 107.75 142.085Z" fill="#E94228"/>
<path d="M136.063 155.977C135.785 155.471 135.386 154.822 134.893 154.084C133.811 154.852 132.654 155.391 131.457 155.727C132.035 156.491 132.682 157.165 133.406 157.713C134.306 157.22 135.245 156.731 136.214 156.269C136.162 156.172 136.118 156.073 136.063 155.977Z" fill="#E94228"/>
<path d="M111.709 93.1052C111.208 96.1422 110.39 99.1323 109.592 101.732C110.36 104.069 110.803 106.52 110.773 108.899C111.139 109.069 111.475 109.218 111.769 109.342C113.152 109.931 114.592 110.501 116.067 111.035C117.659 109.603 119.413 108.689 121.247 108.213C121.037 107.635 120.817 107.065 120.588 106.506C118.683 101.858 115.737 96.7066 111.709 93.108V93.1052Z" fill="#E94228"/>
<path d="M162.167 100.18L159.262 98.1084C159.18 98.2074 159.097 98.3092 159.012 98.4055C160.226 99.4067 161.523 100.317 162.864 101.142C162.638 100.818 162.406 100.496 162.17 100.18H162.167Z" fill="#E94228"/>
<path d="M163.335 118.984C161.416 117.423 159.706 115.651 158.318 113.685C158.318 113.698 158.321 113.715 158.324 113.729C158.891 115.806 159.152 117.971 159.117 120.147C159.687 120.756 160.273 121.359 160.876 121.951C161.551 120.959 162.382 119.951 163.337 118.984H163.335Z" fill="#E94228"/>
<path d="M109.718 78.6496C110.619 78.7543 111.533 78.9333 112.455 79.1757C113.19 76.2724 115.344 73.7189 117.747 71.9064C118.562 71.2921 119.388 70.7467 120.214 70.2591L118.119 68.7661C115.996 71.1158 113.314 72.9559 110.294 73.7051C110.354 75.4901 110.159 77.1621 109.716 78.6524L109.718 78.6496Z" fill="#E94228"/>
<path d="M159.202 139.145C159.337 140.955 159.565 142.803 159.89 144.66L162.553 142.759C161.633 141.561 160.49 140.285 159.199 139.145H159.202Z" fill="#E94228"/>
<path d="M158.83 123.335C159.097 123.567 159.364 123.807 159.632 124.05C159.72 123.879 159.805 123.711 159.896 123.542C159.571 123.255 159.252 122.965 158.935 122.672C158.905 122.89 158.869 123.114 158.83 123.338V123.335Z" fill="#E94228"/>
<path d="M106.001 73.9902C104.795 73.8552 103.636 73.6046 102.518 73.2603C102.339 73.3842 102.16 73.5109 101.984 73.6376C102.683 74.1555 103.336 74.7092 103.942 75.2904C105.346 75.4997 106.687 76.0259 107.879 76.9735C108.168 77.2021 108.435 77.4472 108.691 77.7007C108.892 76.4831 108.95 75.2325 108.881 73.9682C107.945 74.0866 106.984 74.1004 105.998 73.993L106.001 73.9902Z" fill="#E94228"/>
<path d="M157.952 126.456C156.867 129.205 154.965 131.659 152.137 132.348C152.104 132.37 152.074 132.392 152.041 132.411C152.272 132.976 152.498 133.568 152.712 134.18C154.161 134.458 155.587 135.006 156.955 135.766C157.027 132.428 157.553 129.235 158.621 126.356C158.401 126.398 158.178 126.431 157.952 126.458V126.456Z" fill="#E94228"/>
<path d="M151.412 147.217C151.046 147.515 150.655 147.774 150.253 148.005C150.231 148.437 150.193 148.872 150.129 149.313C149.997 150.241 149.774 151.174 149.469 152.088L158.001 146C157.382 143.126 157.018 140.238 156.955 137.429C155.774 136.667 154.518 136.075 153.224 135.774C154.427 139.926 154.711 144.547 151.412 147.215V147.217Z" fill="#E94228"/>
<path d="M89.5638 67.2539C89.1122 67.0218 88.6276 66.8699 88.1045 66.8257C88.6607 67.2069 89.1645 67.3865 89.5638 67.2539Z" fill="#E94228"/>
<path d="M100.613 72.7077C100.654 72.6773 100.696 72.6469 100.737 72.6165C100.354 72.4563 99.9742 72.2878 99.6025 72.1055C99.9495 72.2988 100.285 72.5005 100.616 72.7077H100.613Z" fill="#E94228"/>
<path d="M87.7883 80.6174C87.4028 80.9475 87.0256 81.3024 86.6649 81.693C86.2161 82.1771 85.8582 82.675 85.5801 83.1811C85.6269 83.2224 85.6737 83.2664 85.7233 83.3077C86.362 83.8441 87.1605 82.2871 87.791 80.6174H87.7883Z" fill="#E94228"/>
<path d="M80.5601 73.3447C83.5419 75.9037 86.466 77.9697 88.264 79.0302C88.2943 79.0109 88.3273 78.9889 88.3576 78.9696C88.6329 78.0964 88.8174 77.4077 88.8449 77.281C89.3846 74.8377 89.7177 72.4081 89.8774 69.9868C88.5338 69.0888 87.303 68.122 86.1934 67.0835C85.439 67.3369 84.6213 67.7694 83.7347 68.425C82.0138 69.6976 80.8905 71.444 80.5601 73.3447Z" fill="#E94228"/>
<path d="M84.8446 85.834C84.8363 86.0826 84.8363 86.3313 84.8583 86.5827C84.974 86.4004 85.0924 86.2208 85.2135 86.0412C85.0924 85.9694 84.9685 85.9031 84.8446 85.834Z" fill="#E94228"/>
<path d="M95.2081 54.4461C93.5258 54.2588 91.849 54.4048 90.2576 54.8428C90.4448 55.6829 90.6128 56.5231 90.7642 57.366C91.6453 59.454 92.0115 61.7485 92.0307 64.1037C93.0632 65.2166 94.1646 66.3019 95.321 67.2991C95.9708 67.2605 96.4912 66.8721 96.7803 65.9383C98.1625 61.4648 97.331 57.4211 95.2081 54.4461Z" fill="#E94228"/>
<path d="M88.7266 65.1852C87.6418 64.2239 86.6946 63.1688 86.0696 61.9568C85.5382 60.9266 85.3592 59.7146 85.3895 58.4337C85.2271 58.1996 85.0646 57.9627 84.9022 57.7285C84.0872 58.4447 83.3603 59.2628 82.738 60.1718C83.4704 61.4748 85.0509 63.8272 86.5927 65.4717C87.3059 65.2844 88.0272 65.1797 88.7266 65.1825V65.1852Z" fill="#E94228"/>
<path d="M95.3736 70.1443C95.0212 69.8499 94.6412 69.5611 94.2502 69.2695C94.3824 69.5254 94.5091 69.7839 94.6302 70.0562C94.7101 70.0562 94.7899 70.0617 94.8615 70.0838C96.1583 70.4881 97.3615 70.9722 98.4877 71.5224C97.7801 71.129 97.0917 70.7027 96.4226 70.2405C96.1143 70.4524 95.671 70.3918 95.3736 70.1443Z" fill="#E94228"/>
<path d="M94.0929 135.586C93.8809 135.246 93.6744 134.898 93.4762 134.544C93.4018 134.834 93.3303 135.125 93.2587 135.415C93.2752 135.511 93.2945 135.605 93.311 135.699C93.5698 135.655 93.8314 135.616 94.0902 135.586H94.0929Z" fill="#E94228"/>
<path d="M92.21 127.693C91.9567 127.566 91.7034 127.432 91.4556 127.286C91.4528 127.286 91.4473 127.28 91.4446 127.28C91.607 127.872 91.7888 128.458 91.9897 129.035C92.0476 128.584 92.1192 128.136 92.21 127.693Z" fill="#E94228"/>
<path d="M115.206 173.713C115.128 174.22 115.029 174.728 114.908 175.24C115.054 175.639 115.186 176.046 115.305 176.459L118.532 174.159C117.411 174.057 116.301 173.911 115.206 173.713Z" fill="#E94228"/>
<path d="M91.009 123.841C90.9237 123.891 90.8411 123.94 90.7557 123.987C90.8549 124.656 90.9788 125.321 91.1247 125.981C91.5487 126.234 91.9865 126.466 92.438 126.669C92.014 125.695 91.5404 124.749 91.009 123.844V123.841Z" fill="#E94228"/>
<path d="M89.6848 121.836C89.1699 121.145 88.6165 120.483 88.0107 119.869C87.7547 119.61 87.5014 119.365 87.2453 119.128C86.6946 120.095 86.6506 121.224 87.4766 122.519C87.5867 122.693 87.7051 122.858 87.8263 123.023C88.5036 122.822 89.1589 122.604 89.7426 122.39C89.7206 122.205 89.7013 122.021 89.6848 121.836Z" fill="#E94228"/>
<path d="M96.0011 106.165C95.8965 105.057 95.7286 103.954 95.4973 102.865C93.3304 103.838 91.2956 105.222 89.7648 106.517C91.7169 105.794 93.8755 105.739 96.0011 106.165Z" fill="#E94228"/>
<path d="M89.2443 111.904C88.6055 111.374 87.9915 110.821 87.4105 110.24C87.3444 110.386 87.2866 110.537 87.2371 110.689C87.3555 110.909 87.4739 111.129 87.595 111.346C88.1292 111.561 88.6798 111.748 89.2443 111.904Z" fill="#E94228"/>
<path d="M90.0213 124.354C89.7872 124.462 89.5532 124.561 89.3109 124.653C89.5945 124.907 89.8946 125.147 90.2058 125.374C90.1397 125.034 90.0763 124.694 90.0213 124.354Z" fill="#E94228"/>
<path d="M88.559 170.144C89.0105 170.246 89.4813 170.505 89.9604 170.884C89.842 170.392 89.7484 169.897 89.6686 169.399C89.2143 169.619 88.8205 169.867 88.559 170.144Z" fill="#E94228"/>
<path d="M92.2431 147.293C93.3334 147.524 94.4238 147.814 95.5031 148.158C95.7371 146.456 95.8418 144.726 95.8362 143.018C94.8891 141.869 94.1071 140.586 93.4904 139.214C93.1903 139.032 92.8929 138.85 92.5955 138.663C92.1082 141.522 91.8549 144.425 91.7695 147.282C91.7695 147.296 91.7695 147.31 91.7695 147.323C91.9182 147.274 92.0834 147.26 92.2459 147.293H92.2431Z" fill="#E94228"/>
<path d="M90.9929 174.11C90.6212 173.639 90.2329 173.193 89.8172 172.783C89.4455 172.414 89.1178 172.193 88.8342 172.091C89.9548 173.835 91.1333 175.565 92.4632 177.157C91.9042 176.16 91.4141 175.141 90.9956 174.11H90.9929Z" fill="#E94228"/>
<path d="M91.3042 169.622C91.8246 171.748 92.8901 173.858 93.7161 175.316C94.2861 176.315 94.8973 177.299 95.5389 178.26C96.04 174.084 94.2888 171.332 91.3042 169.625V169.622Z" fill="#E94228"/>
<path d="M100.049 164.928C100.28 164.945 100.506 164.967 100.726 164.992C101.326 164.783 101.927 164.505 102.519 164.172C101.035 163.564 99.4706 163.03 97.9866 162.736C98.6226 163.512 99.3109 164.246 100.046 164.928H100.049Z" fill="#E94228"/>
<path d="M95.2166 149.9C93.8674 149.44 92.8624 149.139 92.8679 149.258C92.9891 151.159 93.2396 153.078 93.771 154.916C94.4043 153.326 94.8807 151.638 95.2166 149.9Z" fill="#E94228"/>
<path d="M83.9029 145.973C82.1545 151.684 82.8648 158.198 85.0262 164.421C87.5841 163.353 89.6216 161.656 91.2075 159.553C91.1002 159.145 90.9955 158.724 90.9047 158.275C89.7207 152.383 89.4509 144.858 90.6954 138.046C87.697 139.244 85.1969 141.752 83.9056 145.973H83.9029Z" fill="#E94228"/>
<path d="M89.5037 166.43C89.6799 164.163 90.6546 162.805 92.1056 162.084C91.9927 161.844 91.8853 161.588 91.7835 161.326C90.1315 163.29 88.0774 164.874 85.5774 165.918C85.5994 165.976 85.6214 166.031 85.6435 166.089C86.6595 166.268 87.6479 166.499 88.5923 166.783C88.8924 166.659 89.1981 166.541 89.5064 166.43H89.5037Z" fill="#E94228"/>
<path d="M86.3827 167.852H86.3702V167.865L86.3827 167.852Z" fill="#E94228"/>
<path d="M85.0538 183.997C84.4701 179.757 84.594 175.263 85.9735 172.091C86.0698 171.868 86.1717 171.667 86.2763 171.486C86.0671 171.089 85.8633 170.69 85.6651 170.288C80.7889 174.03 81.6617 179.126 85.0538 184V183.997Z" fill="#E94228"/>
<path d="M84.0711 87.9035C83.8371 87.0578 83.7407 86.1956 83.8123 85.3251C83.5672 85.226 83.3057 85.1186 83.0579 85.0056C82.9835 85.2095 82.8762 85.4767 82.733 85.832C82.331 86.8374 81.9841 87.9365 81.4912 88.9282C82.0061 89.1954 82.5678 89.4708 83.1597 89.7353C83.4351 89.1127 83.738 88.5012 84.0711 87.9035Z" fill="#E94228"/>
<path d="M84.4234 91.9355C83.8589 93.8748 83.6166 95.8664 83.7213 97.8469C84.1618 95.825 85.0649 94.0015 86.4168 92.4727C85.756 92.3405 85.0869 92.1559 84.4234 91.9383V91.9355Z" fill="#E94228"/>
<path d="M80.4419 96.0026V104.166C81.2541 106.468 82.7162 108.316 84.5857 109.684C84.7812 109.42 84.9822 109.158 85.1914 108.902C84.8473 108.062 84.5444 107.212 84.2828 106.35C82.975 104.252 82.0554 101.898 81.6864 99.2405C81.4056 97.2196 81.535 95.2206 81.9755 93.2905C81.3422 94.1165 80.8246 95.0251 80.4446 96.0081L80.4419 96.0026Z" fill="#E94228"/>
<path d="M83.4018 164.991C80.5025 156.921 79.9518 148.369 84.2581 141.816C85.8247 139.434 87.7493 137.796 89.8584 136.786C85.7972 133.754 82.4271 129.974 81.1468 125.266C80.4859 125.045 80.4391 124.233 80.731 123.17C80.7035 122.967 80.6759 122.766 80.6567 122.562C80.2629 118.22 81.5653 114.192 83.8588 110.722C82.5014 109.717 81.334 108.437 80.4419 106.859V165.561C81.4882 165.451 82.4766 165.261 83.4018 164.994V164.991Z" fill="#E94228"/>
<path d="M109.394 68.2799C111.313 67.6353 113.38 67.1175 115.462 66.8695L104.834 59.2861C106.814 61.8617 108.353 64.8752 109.294 67.9383C109.33 68.054 109.358 68.167 109.391 68.2827L109.394 68.2799Z" fill="#E94228"/>
<path d="M82.2869 84.541C82.313 84.5687 82.3392 84.5872 82.3624 84.6056C82.3363 84.5841 82.3072 84.5625 82.2869 84.541Z" fill="#E94228"/>
<path d="M82.5124 91.2084C81.8076 90.9058 81.1137 90.573 80.4419 90.2236V93.9069C81.0063 92.9331 81.7002 92.0254 82.5124 91.2084Z" fill="#E94228"/>
<path d="M171.738 107.011C171.977 109.182 172.041 111.399 171.906 113.556C174.786 112.677 177.779 112.719 180.458 114.335C179.585 113.005 178.45 111.804 177.052 110.804L171.738 107.011Z" fill="#E94228"/>
<path d="M166.721 119.636C167.979 120.423 168.96 120.605 169.21 119.556C169.475 118.454 169.673 117.338 169.813 116.214C169.031 116.572 168.288 116.991 167.583 117.459C167.349 118.187 167.063 118.914 166.724 119.638L166.721 119.636Z" fill="#E94228"/>
<path d="M161.217 125.538C164.631 128.873 167.938 132.934 170.121 137.363L175.069 133.832C170.835 131.683 166.129 128.692 161.861 125.207C161.649 125.325 161.435 125.436 161.217 125.538Z" fill="#E94228"/>
<path d="M100.541 186.942C99.6741 186.173 98.8343 185.369 98.0304 184.532C98.1543 185.273 97.3365 185.887 96.6812 185.295C96.271 184.923 95.858 184.529 95.445 184.118C94.8502 185.435 94.0049 187.19 93.0605 188.826C95.5634 188.961 98.1543 188.385 100.541 186.939V186.942Z" fill="#E94228"/>
<path d="M87.2758 173.3C86.9867 174.153 86.8738 175.252 86.8188 176.017C86.5737 179.52 86.6563 183.303 87.3419 186.852C87.5374 187.069 87.7384 187.284 87.9421 187.499C88.9664 187.994 90.0485 188.361 91.1691 188.586C92.331 186.772 93.4324 184.88 94.2584 182.893C91.7748 180.213 89.3519 176.918 87.2731 173.3H87.2758Z" fill="#E94228"/>
<path d="M91.7446 152.887C91.8135 154.559 91.9814 156.25 92.3283 157.864C92.5266 157.528 92.7166 157.184 92.8983 156.834C92.4137 155.581 92.0255 154.264 91.7446 152.889V152.887Z" fill="#E94228"/>
<path d="M94.4123 99.0123C93.6221 96.7563 92.5951 94.4342 91.2707 92.3076C90.1556 92.6905 88.9496 92.7814 87.6996 92.6602C89.4314 94.8418 91.8021 96.9987 94.4095 99.0123H94.4123Z" fill="#E94228"/>
<path d="M95.2637 161.414C94.6772 160.525 94.1458 159.596 93.6777 158.625C93.4272 159.054 93.1629 159.469 92.8848 159.873C93.0858 160.465 93.317 161.037 93.5869 161.584C94.1128 161.477 94.6772 161.425 95.2664 161.414H95.2637Z" fill="#E94228"/>
<path d="M91.1883 135.725C91.4003 134.843 91.6426 133.981 91.9125 133.141C91.8519 132.447 91.8271 131.75 91.8409 131.053C91.2957 129.648 90.8469 128.188 90.4945 126.704C89.7428 126.224 88.9416 125.657 88.2147 125.01C86.5875 125.461 84.817 125.607 82.9475 125.483C83.2146 126.249 83.5532 127.009 83.9773 127.761C85.7697 130.926 88.3 133.549 91.1883 135.728V135.725Z" fill="#E94228"/>
<path d="M89.3905 104.741C90.8856 103.544 92.9176 102.233 95.1202 101.28C95.0487 101.019 94.9771 100.754 94.9 100.496C93.6637 99.5155 92.4577 98.4967 91.2958 97.4312C90.0155 96.2582 88.4406 94.7907 87.0639 93.1387C86.9152 93.3011 86.7693 93.4691 86.6316 93.6425C84.7676 95.9939 84.1426 98.695 84.3161 101.487C84.8419 103.381 85.7037 105.226 86.929 106.958C87.7054 106.173 88.5287 105.432 89.3905 104.741Z" fill="#E94228"/>
<path d="M84.8167 115.969C85.249 115.627 85.7749 115.671 86.0998 116.134C86.2457 116.341 86.4082 116.539 86.5872 116.732C86.455 116.393 86.3338 116.038 86.2265 115.666C85.8878 114.484 85.7584 113.195 85.885 111.953C85.6758 111.848 85.4693 111.74 85.2683 111.625C83.6576 114.098 82.5535 116.858 82.2754 119.69C83.2804 117.891 84.4258 116.28 84.8195 115.966L84.8167 115.969Z" fill="#E94228"/>
<path d="M96.5192 164.944C97.0286 164.905 97.5325 164.881 98.0253 164.872C97.3094 164.122 96.6376 163.332 96.0209 162.496C95.3711 162.477 94.7543 162.523 94.1926 162.664C94.289 162.818 94.3826 162.977 94.4872 163.126C95.104 163.998 95.7896 164.584 96.5192 164.944Z" fill="#E94228"/>
<path d="M80.6704 69.0393C81.6837 67.8961 83.3026 66.7309 85.0841 65.9817C83.8175 64.6374 82.741 63.183 81.8681 61.6294C80.9678 63.4034 80.4419 65.4335 80.4419 67.662V69.3175C80.5162 69.2238 80.5878 69.1329 80.6704 69.0393Z" fill="#E94228"/>
<path d="M108.733 72.3603C108.631 71.6066 108.49 70.8556 108.312 70.1074C106.888 70.6961 105.5 71.3975 104.179 72.1897C105.663 72.5226 107.183 72.6023 108.73 72.3603H108.733Z" fill="#E94228"/>
<path d="M110.176 72.0447C110.619 71.918 111.065 71.7638 111.511 71.5792C113.35 70.8217 115.057 69.6262 116.528 68.147C114.306 68.2599 111.993 68.7612 109.732 69.5628C109.928 70.403 110.082 71.2321 110.176 72.0447Z" fill="#E94228"/>
<path d="M81.155 85.3987C81.4359 84.7294 81.6837 84.0242 82.0857 83.4127C82.4078 82.9224 83.1925 82.8452 83.4954 83.4127C83.5862 83.5835 83.7982 83.7625 84.0791 83.9498C84.0818 83.9361 84.0873 83.925 84.0901 83.9113C82.7547 82.578 81.4359 81.0217 80.4419 79.3579V87.1782C80.6787 86.586 80.9182 85.9937 81.155 85.4015V85.3987Z" fill="#E94228"/>
<path d="M101.799 185.673C101.885 185.757 101.976 185.836 102.061 185.92L102.278 185.757C102.119 185.731 101.959 185.705 101.799 185.673Z" fill="#E94228"/>
<path d="M159.083 133.795C159.045 134.886 159.05 136.006 159.092 137.143C160.826 138.438 162.423 140.059 163.794 141.874L168.662 138.402C166.787 134.128 163.913 130.114 160.479 126.711C159.648 128.952 159.169 131.356 159.086 133.798L159.083 133.795Z" fill="#E94228"/>
<path d="M166.044 102.946C166.044 102.946 166.056 102.968 166.061 102.981C166.092 103 166.123 103.016 166.154 103.035L166.047 102.949L166.044 102.946Z" fill="#E94228"/>
<path d="M93.3997 76.8976C93.7548 76.8095 94.1045 76.7353 94.4514 76.6693C94.4459 76.6445 94.4404 76.6197 94.4377 76.5922C94.3055 75.9678 94.1513 75.3104 93.9724 74.6475C93.8044 75.1013 93.6557 75.6322 93.5291 76.2566C93.485 76.4685 93.4437 76.683 93.4024 76.8976H93.3997Z" fill="#E94228"/>
<path d="M129.787 89.5209C130.192 89.8871 130.583 90.2478 130.958 90.6057C133.259 91.4593 135.462 92.5606 137.497 93.918C137.72 93.6785 137.954 93.4527 138.202 93.2435C136.175 90.5975 134.482 87.8304 133.191 85.6827C132.943 85.267 133.152 84.5594 133.681 84.4823C135.76 84.1629 137.973 84.1987 140.236 84.5401L131.035 77.9761C131.495 81.7564 130.773 85.8727 129.79 89.5237L129.787 89.5209Z" fill="#E94228"/>
<path d="M119.821 89.6235C123.676 93.8444 127.015 98.616 129.328 103.751C129.86 104.932 130.308 106.207 130.672 107.54C130.975 107.3 131.28 107.063 131.589 106.835C130.661 105.519 129.873 104.125 129.265 102.691C129.053 102.195 129.202 101.667 129.755 101.491C131.33 100.976 132.979 100.541 134.659 100.221C134.849 99.1447 135.129 98.1232 135.504 97.176C134.246 95.6149 132.982 94.2464 131.991 93.2029C131.509 92.699 131.013 92.1924 130.507 91.6886C130.041 91.5151 129.57 91.3526 129.097 91.1985C128.967 91.2866 128.819 91.3389 128.665 91.3196C126.28 91.0525 122.899 90.6368 119.821 89.6235Z" fill="#E94228"/>
<path d="M152.982 93.6317L143.753 87.0455C142.079 86.6874 135.267 85.9684 135.366 86.1227C136.69 88.2355 138.059 90.3455 139.634 92.2875C141.153 91.4969 143.031 91.1609 145.322 91.4363C147.929 91.7503 150.683 92.9045 153.097 94.5848C153.199 94.4884 153.298 94.3893 153.4 94.2928C153.257 94.0725 153.117 93.8521 152.982 93.629V93.6317Z" fill="#E94228"/>
<path d="M150.595 104.5C150.689 107.516 151.859 110.505 153.585 113.205C154.425 112.775 155.204 112.26 155.884 111.668C154.739 108.858 152.985 106.329 150.595 104.497V104.5Z" fill="#E94228"/>
<path d="M151.913 95.8191C150.369 94.7421 148.67 93.9129 146.894 93.4474C144.515 92.8276 142.478 92.9626 140.828 93.6788C143.015 96.0946 146.079 98.8244 149.3 99.8794C149.829 98.5985 150.597 97.3452 151.641 96.1276C151.732 96.0202 151.825 95.921 151.916 95.8164L151.913 95.8191Z" fill="#E94228"/>
<path d="M152.864 115.986C152.123 116.259 151.341 116.446 150.523 116.534C149.802 116.611 149.083 116.633 148.367 116.611C151.424 117.912 154.312 119.713 156.834 121.683C156.892 121.388 156.941 121.093 156.988 120.793C155.46 119.239 154.064 117.631 152.864 115.986Z" fill="#E94228"/>
<path d="M112.183 88.3775C113.529 88.1571 114.944 88.0745 116.351 88.0855C114.793 87.1544 113.529 85.9452 112.821 84.364C112.474 84.0858 112.122 83.8131 111.767 83.5459C112.103 85.0719 112.221 86.7027 112.183 88.3775Z" fill="#E94228"/>
<path d="M96.5987 100.628C96.6263 100.647 96.6538 100.666 96.6786 100.685C97.667 100.352 98.672 100.113 99.666 99.9996C98.438 98.7876 97.3284 97.4929 96.3537 96.1294C96.183 95.9503 96.015 95.7685 95.8498 95.584C95.836 95.7355 95.8223 95.887 95.8113 96.0385C95.7672 96.6555 95.7589 97.267 95.7755 97.8758C95.9269 98.3083 96.0673 98.7463 96.1995 99.187C96.3399 99.658 96.4721 100.143 96.5987 100.63V100.628Z" fill="#E94228"/>
<path d="M92.4825 89.7026C92.1961 89.8076 91.9153 89.9209 91.6372 90.0369C91.7336 90.1723 91.8327 90.3077 91.9263 90.4431C92.1466 90.2966 92.3558 90.1309 92.5541 89.9375C92.532 89.8601 92.5045 89.7828 92.4825 89.7026Z" fill="#E94228"/>
<path d="M90.2051 90.7271C89.9078 90.8908 89.6159 91.0628 89.3351 91.2459C89.7206 91.2265 90.0923 91.171 90.4529 91.0822C90.3703 90.9629 90.2905 90.8436 90.2051 90.7271Z" fill="#E94228"/>
<path d="M97.2428 77.9952C97.0638 78.2101 96.8904 78.4277 96.7224 78.6481C96.8436 80.0805 96.8573 81.5046 96.761 82.8516C97.3639 83.0362 97.9724 83.2014 98.5754 83.3364C100.148 81.174 102.031 79.8381 104.104 79.1412C102.182 78.3919 100.161 77.8603 98.1487 77.6592C97.843 77.7611 97.5402 77.874 97.24 77.9952H97.2428Z" fill="#E94228"/>
<path d="M156.482 123.217C153.626 121.016 150.548 119.236 147.448 118.027C147.04 118.851 146.531 119.65 145.906 120.418C145.807 120.539 145.708 120.655 145.606 120.773C148.409 122.751 152.253 124.781 155.868 125.139C156.102 124.52 156.306 123.878 156.482 123.22V123.217Z" fill="#E94228"/>
<path d="M86.458 90.9087C86.8985 91.0188 87.3363 91.104 87.7713 91.1646C88.322 90.7107 88.925 90.2926 89.5803 89.9185C89.2499 89.5114 88.903 89.1207 88.545 88.7439C87.6227 89.0492 86.7333 89.4398 85.8936 89.9157C86.0643 90.2458 86.2515 90.5759 86.458 90.9087Z" fill="#E94228"/>
<path d="M93.1539 78.2971C93.443 78.1139 93.7376 77.9336 94.0405 77.7588C93.7624 77.8032 93.4871 77.8587 93.2145 77.9197C93.1925 78.0446 93.176 78.1722 93.1567 78.2971H93.1539Z" fill="#E94228"/>
<path d="M144.546 136.492C143.91 135.614 143.221 134.771 142.483 133.969C141.137 133.76 139.793 133.416 138.477 132.978C139.766 135.333 140.641 137.834 140.898 140.393C141.019 140.55 141.137 140.707 141.253 140.864C142.106 139.197 143.216 137.68 144.546 136.495V136.492Z" fill="#E94228"/>
<path d="M94.4538 127.39C94.4704 127.396 94.4869 127.401 94.5034 127.404C96.4418 124.465 98.0828 125.302 99.4071 127.699C99.7871 127.641 100.159 127.561 100.525 127.459C98.7601 126.143 97.0117 124.685 95.3459 123.102C94.8173 124.115 94.3685 125.195 94.0133 126.319C94.1675 126.672 94.3162 127.03 94.4538 127.39Z" fill="#E94228"/>
<path d="M90.4668 117.776C90.431 118.469 90.4145 119.165 90.4227 119.861C90.8798 120.224 91.3699 120.538 91.8875 120.777C92.0114 120.835 92.1353 120.882 92.2592 120.934C92.4134 120.763 92.5649 120.59 92.7108 120.414C91.9316 119.561 91.1827 118.681 90.4668 117.773V117.776Z" fill="#E94228"/>
<path d="M96.6016 127.779C96.9017 127.808 97.2018 127.828 97.4992 127.834C97.2101 127.671 96.9099 127.643 96.6016 127.779Z" fill="#E94228"/>
<path d="M100.709 136.244C100.508 135.128 100.288 134.015 100.007 132.919C99.6133 131.39 99.1122 129.961 98.5395 128.983C97.5566 129.063 96.5571 129.008 95.5631 128.823C95.442 129.016 95.3209 129.233 95.1997 129.479C95.844 131.443 96.3754 133.465 96.7581 135.517C98.0852 135.599 99.4151 135.85 100.712 136.241L100.709 136.244Z" fill="#E94228"/>
<path d="M88.4985 117.723C88.8014 118.185 89.1428 118.62 89.5173 119.019C89.5035 118.339 89.5118 117.668 89.5366 117.011C89.1648 117.231 88.8152 117.47 88.4985 117.723Z" fill="#E94228"/>
<path d="M98.7957 107.921C100.084 110.144 101.731 112.238 103.639 114.161C104.368 114.329 105.084 114.532 105.781 114.775C104.454 111.797 101.855 109.277 98.7957 107.921Z" fill="#E94228"/>
<path d="M94.9546 113.869C95.0124 113.861 95.0703 113.85 95.1253 113.841C95.3098 113.813 95.4915 113.794 95.676 113.771C95.6898 113.698 95.7008 113.626 95.7145 113.556C95.3346 113.595 94.9546 113.626 94.5719 113.642C94.6986 113.721 94.828 113.796 94.9546 113.872V113.869Z" fill="#E94228"/>
<path d="M121.563 169.2C121.762 168.548 121.998 167.889 122.287 167.231C124.195 162.843 127.348 161.047 130.839 160.948C124.796 157.072 117.174 153.987 116.75 160.683C116.709 161.33 116.701 161.978 116.72 162.62C117.386 163.961 118.16 165.212 119.003 166.316C119.787 167.341 120.646 168.305 121.566 169.203L121.563 169.2Z" fill="#E94228"/>
<path d="M105.789 112.127C105.968 112.356 106.133 112.593 106.29 112.835C106.585 111.46 106.888 109.786 106.888 108.152C103.493 106.428 100.23 104.45 97.1546 102.21C97.0996 102.23 97.0473 102.249 96.9922 102.268C97.2207 103.323 97.4135 104.4 97.5566 105.491C97.7466 105.921 97.9476 106.348 98.1651 106.772C101.213 107.855 104.011 109.838 105.792 112.127H105.789Z" fill="#E94228"/>
<path d="M138.706 131.972C139.51 132.223 140.32 132.433 141.135 132.601C140.708 132.193 140.267 131.795 139.816 131.408C139.35 131.01 138.987 131.284 138.706 131.969V131.972Z" fill="#E94228"/>
<path d="M140.812 147.858C141.817 147.996 142.803 148.084 143.761 148.123C143.155 146.668 142.42 145.25 141.578 143.889C141.134 145.17 140.873 146.514 140.81 147.858H140.812Z" fill="#E94228"/>
<path d="M85.2187 90.5548C85.1884 90.5004 85.1582 90.4431 85.1279 90.3887C85.0866 90.4173 85.0453 90.4488 85.0012 90.4775C85.0728 90.5033 85.1444 90.5319 85.216 90.5577L85.2187 90.5548Z" fill="#E94228"/>
<path d="M120.922 172.455C120.972 171.902 121.051 171.34 121.162 170.778C119.719 169.552 118.414 168.194 117.288 166.707C117.874 168.918 118.92 170.982 120.52 172.745L120.922 172.458V172.455Z" fill="#E94228"/>
<path d="M144.496 121.969C143.169 123.283 141.726 124.325 140.195 125.123C142.45 127.523 145.105 129.864 148.238 130.63C148.923 130.798 149.562 130.867 150.165 130.859C148.802 127.917 147.081 125.052 145.077 122.391C144.882 122.253 144.689 122.11 144.496 121.969Z" fill="#E94228"/>
<path d="M140.82 149.225C140.919 150.916 141.349 152.577 142.164 154.081C142.167 154.087 142.172 154.092 142.175 154.101C143.205 153.867 144.234 153.723 145.253 153.696C145.228 153.026 145.116 152.291 144.904 151.478C144.727 150.806 144.521 150.14 144.287 149.476C143.161 149.492 141.996 149.404 140.82 149.228V149.225Z" fill="#E94228"/>
<path d="M101.753 76.9709C102.739 77.2278 103.711 77.5593 104.661 77.9571C104.44 77.6781 104.215 77.4046 103.975 77.1394C103.259 76.993 102.513 76.9432 101.753 76.9736V76.9709Z" fill="#E94228"/>
<path d="M106.685 78.6006C106.817 78.5867 106.946 78.5785 107.078 78.5702C106.828 78.3685 106.569 78.1862 106.299 78.0232C106.434 78.211 106.558 78.4072 106.685 78.5978V78.6006Z" fill="#E94228"/>
<path d="M95.6187 72.7397C95.9712 73.9116 96.2492 75.1521 96.4502 76.4147C96.464 76.4147 96.475 76.4147 96.4888 76.4147C96.4888 76.4147 96.4888 76.4147 96.4915 76.4147C97.3699 75.419 98.3418 74.4975 99.3798 73.653C99.2972 73.6117 99.2174 73.565 99.132 73.5237C97.6011 72.7728 96.4695 72.4867 95.616 72.7425L95.6187 72.7397Z" fill="#E94228"/>
<path d="M99.655 75.507C100.387 75.344 101.123 75.2363 101.852 75.1976C101.53 74.9517 101.2 74.7169 100.853 74.4932C100.44 74.8219 100.04 75.1617 99.655 75.507Z" fill="#E94228"/>
<path d="M113.774 79.5568C118.915 81.2281 124.154 84.7166 128.293 88.2161C128.879 87.3681 129.044 86.0134 129.281 84.2733C129.603 81.8724 129.771 79.1741 129.24 76.6961L121.861 71.4316C118.463 73.3755 114.779 76.396 113.774 79.5596V79.5568Z" fill="#E94228"/>
<path d="M115.974 85.6133C117.703 87.0044 119.768 87.9107 121.908 88.5084C122.888 88.6379 123.797 88.7811 124.595 88.9161C125.132 89.0042 125.663 89.1089 126.198 89.2246C126.743 89.1998 127.178 89.0924 127.527 88.9078C123.422 85.3048 118.664 82.1177 113.543 80.6055C113.339 82.3106 113.997 84.0294 115.974 85.6161V85.6133Z" fill="#E94228"/>
<path d="M110.701 79.9509C110.599 79.9344 110.5 79.9262 110.398 79.9097C110.74 80.5011 111.026 81.1255 111.263 81.7774C111.61 82.0332 111.954 82.2946 112.293 82.5586C112.169 81.7774 112.161 81.0072 112.254 80.2563C111.742 80.1352 111.224 80.0307 110.704 79.9482L110.701 79.9509Z" fill="#E94228"/>
<path d="M156.796 96.3494C156.796 96.3494 156.793 96.3632 156.79 96.3716C157.104 96.6962 157.429 97.0125 157.759 97.3205C157.809 97.2622 157.856 97.204 157.905 97.1457L156.796 96.3494Z" fill="#E94228"/>
<path d="M89.7126 114.734C89.7676 114.25 89.8365 113.774 89.9163 113.309C89.4592 113.219 89.0077 113.111 88.5616 112.985C88.9361 113.585 89.3216 114.168 89.7126 114.734Z" fill="#E94228"/>
<path d="M91.824 77.366C92.1021 75.6719 92.5592 73.9613 93.2062 72.248C92.774 71.1048 92.2508 70.0277 91.6175 69.1353C91.5845 69.3418 91.5487 69.5457 91.5129 69.7523C91.3367 72.5207 90.9209 75.2697 90.2354 77.9885C90.7585 77.7544 91.2899 77.5478 91.8268 77.366H91.824Z" fill="#E94228"/>
<path d="M108.11 114.918C108.89 113.474 109.388 111.874 109.515 110.177C109.25 109.813 108.983 109.436 108.716 109.05C108.653 109.02 108.587 108.99 108.523 108.959C108.454 110.946 108.017 113.017 107.458 114.948C107.675 114.937 107.89 114.923 108.11 114.92V114.918Z" fill="#E94228"/>
<path d="M86.7942 88.2836C87.0971 88.1488 87.4 88.0278 87.7001 87.915C87.3587 87.6014 87.0035 87.3016 86.6373 87.021C86.2601 87.6262 85.9159 88.2451 85.6075 88.875C85.9903 88.6632 86.384 88.4651 86.7942 88.2863V88.2836Z" fill="#E94228"/>
<path d="M88.0218 55.6768C87.7795 55.7925 87.5427 55.9137 87.3087 56.0431C87.1876 56.7015 87.0994 57.3571 87.0664 57.9989C87.8484 59.0759 88.7239 60.2329 89.6849 61.4063C89.5417 60.0676 89.3462 58.7289 89.1011 57.3929C88.8396 56.8557 88.5312 56.3379 88.165 55.8531C88.1182 55.7925 88.0686 55.7374 88.0218 55.6768Z" fill="#E94228"/>
<path d="M88.6775 62.8365C88.6775 62.8365 88.6996 62.8558 88.7106 62.8669C88.3912 62.4719 88.0746 62.0768 87.7634 61.6763C87.9975 62.0989 88.2976 62.4912 88.6775 62.8365Z" fill="#E94228"/>
<path d="M89.3151 81.2809C89.3011 81.2714 89.2842 81.2619 89.2701 81.2524C89.2588 81.2904 89.2476 81.3251 89.2363 81.3631C89.2617 81.3346 89.287 81.3093 89.3151 81.2809Z" fill="#E94228"/>
<path d="M153.128 96.7373C152.814 97.1582 152.514 97.601 152.236 98.0687C151.806 98.7976 151.47 99.5376 151.214 100.286C152.365 100.399 153.519 100.25 154.639 99.7549C154.681 99.3147 154.736 98.8306 154.802 98.3052C154.276 97.7523 153.717 97.2269 153.125 96.7373H153.128Z" fill="#E94228"/>
<path d="M146.002 149.36C146.506 150.782 146.892 152.299 146.963 153.765C146.969 153.765 146.971 153.765 146.974 153.765C147.806 152.25 148.334 150.542 148.53 148.79C147.729 149.065 146.881 149.25 146.002 149.36Z" fill="#E94228"/>
<path d="M95.7477 140.502C95.4173 140.323 95.0897 140.142 94.7593 139.955C95.0649 140.529 95.4118 141.082 95.8056 141.611C95.7918 141.239 95.7725 140.871 95.7477 140.502Z" fill="#E94228"/>
<path d="M94.2477 131.929C94.1128 132.333 93.9861 132.743 93.865 133.156C94.1981 133.733 94.5588 134.294 94.9471 134.839C94.7433 133.876 94.512 132.902 94.2505 131.929H94.2477Z" fill="#E94228"/>
<path d="M94.0959 122.663C93.7077 122.602 93.3277 122.522 92.9533 122.423C92.7385 122.619 92.5183 122.803 92.2925 122.976C92.5981 123.491 92.89 124.013 93.1653 124.544C93.4351 123.898 93.7435 123.268 94.0959 122.66V122.663Z" fill="#E94228"/>
<path d="M93.4543 129.293C93.4213 129.194 93.3827 129.095 93.3497 128.999C93.3056 129.252 93.2643 129.505 93.2285 129.758C93.3029 129.601 93.38 129.45 93.4543 129.296V129.293Z" fill="#E94228"/>
<path d="M145.54 137.973C144.174 139.141 143.062 140.617 142.258 142.256C143.334 143.799 144.13 145.107 144.491 145.843C144.821 146.52 145.176 147.283 145.512 148.099C146.713 148.005 147.737 147.749 148.61 147.363C148.618 146.112 148.456 144.865 148.109 143.672C147.519 141.647 146.638 139.744 145.537 137.973H145.54Z" fill="#E94228"/>
<path d="M110.102 157.477C112.673 154.062 112.871 150.528 111.605 147.382C108.243 148.77 104.135 148.484 100.914 146.982C99.6222 146.382 98.4603 145.602 97.4333 144.685C97.4168 145.043 97.3948 145.401 97.3672 145.757C97.2901 146.74 97.1772 147.718 97.0286 148.682C102.048 150.544 106.723 153.585 110.104 157.477H110.102Z" fill="#E94228"/>
<path d="M150.776 102.614C151.55 103.142 152.293 103.748 152.993 104.448C153.8 105.253 154.521 106.12 155.168 107.032C155.074 106.682 154.989 106.33 154.915 105.969C153.948 104.467 152.616 103.258 150.776 102.611V102.614Z" fill="#E94228"/>
<path d="M151.063 132.938C149.056 133.898 146.914 134.253 144.741 134.185C145.107 134.619 145.463 135.062 145.804 135.513C147.442 134.432 149.35 133.849 151.479 134.009C151.435 133.89 151.393 133.772 151.349 133.654C151.258 133.414 151.157 133.178 151.06 132.938H151.063Z" fill="#E94228"/>
<path d="M154.835 115.004C155.592 116.037 156.404 117.065 157.269 118.081C157.288 117.745 157.302 117.406 157.308 117.07C157.153 115.908 156.906 114.751 156.57 113.622C156.041 114.139 155.457 114.602 154.832 115.004H154.835Z" fill="#E94228"/>
<path d="M153.155 101.842C152.61 101.944 152.073 101.993 151.542 102.001C152.684 102.499 153.722 103.187 154.623 104.073C154.535 103.228 154.502 102.364 154.526 101.481C154.089 101.63 153.632 101.754 153.155 101.842Z" fill="#E94228"/>
<path d="M155.279 126.511C152.644 126.31 149.943 125.39 147.514 123.972C148.836 125.938 150.011 127.988 151.008 130.076C151.107 130.288 151.212 130.508 151.317 130.737C151.719 130.654 152.099 130.536 152.459 130.382C153.627 129.324 154.56 128.002 155.281 126.511H155.279Z" fill="#E94228"/>
<path d="M158.486 124.855C158.467 124.93 158.445 125.008 158.423 125.083C158.508 125.069 158.594 125.051 158.676 125.034C158.613 124.973 158.55 124.913 158.486 124.855Z" fill="#E94228"/>
<defs>
<filter id="filter0_d_2162_1404" x="0" y="0" width="245" height="244" filterUnits="userSpaceOnUse" color-interpolation-filters="sRGB">
<feFlood flood-opacity="0" result="BackgroundImageFix"/>
<feColorMatrix in="SourceAlpha" type="matrix" values="0 0 0 0 0 0 0 0 0 0 0 0 0 0 0 0 0 0 127 0" result="hardAlpha"/>
<feOffset dy="4"/>
<feGaussianBlur stdDeviation="2"/>
<feComposite in2="hardAlpha" operator="out"/>
<feColorMatrix type="matrix" values="0 0 0 0 0 0 0 0 0 0 0 0 0 0 0 0 0 0 0.25 0"/>
<feBlend mode="normal" in2="BackgroundImageFix" result="effect1_dropShadow_2162_1404"/>
<feBlend mode="normal" in="SourceGraphic" in2="effect1_dropShadow_2162_1404" result="shape"/>
</filter>
</defs>
</svg>
