<svg width="244" height="245" viewBox="0 0 244 245" fill="none" xmlns="http://www.w3.org/2000/svg">
<g filter="url(#filter0_d_2162_1405)">
<ellipse cx="122" cy="118.5" rx="118" ry="118.5" fill="white"/>
<path d="M122 1C186.613 1 239 53.6026 239 118.5C239 183.397 186.613 236 122 236C57.3867 236 5 183.397 5 118.5C5 53.6026 57.3867 1 122 1Z" stroke="black" stroke-width="2"/>
</g>
<path d="M75.5 59.3262C75.5 47.2784 88.8958 40.3007 98.5293 47.2754L184.389 109.449V109.45C192.537 115.349 192.537 127.648 184.389 133.551L98.5293 195.725C88.8958 202.699 75.5 195.722 75.5 183.674V59.3262Z" stroke="black"/>
<path d="M131.388 126.695C131.039 126.376 130.686 126.065 130.328 125.765C130.031 125.515 129.717 125.262 129.392 125.009C129.147 125.575 128.872 126.128 128.572 126.665C129.53 126.725 130.469 126.739 131.388 126.698V126.695Z" fill="#5F91D6"/>
<path d="M105.13 100.86C105.705 100.709 106.193 100.166 106.63 99.0586C106.085 97.8934 105.452 96.7695 104.736 95.7173C104.463 96.8797 104.477 98.2543 104.868 99.8822C104.948 100.21 105.036 100.535 105.13 100.86Z" fill="#5F91D6"/>
<path d="M126.229 115.436C125.653 115.325 125.081 115.199 124.505 115.075C124.246 115.389 123.99 115.703 123.742 116.025C123.974 117.391 124.139 118.771 124.216 120.151C125.524 120.89 126.763 121.677 127.895 122.49C128.137 122.664 128.379 122.843 128.621 123.024C129.467 120.611 129.965 118.278 130.103 115.984C128.679 115.86 127.336 115.648 126.229 115.433V115.436Z" fill="#5F91D6"/>
<path d="M135.342 137.414C131.174 133.554 125.992 131.64 126.364 139.422C126.419 140.546 126.521 141.893 126.697 143.35C129.596 145.284 132.98 146.702 136.369 147.581C135.417 144.132 135.028 140.623 135.342 137.414Z" fill="#5F91D6"/>
<path d="M135.34 162.315L135.871 161.937C135.312 161.898 134.753 161.837 134.2 161.766C134.178 161.799 134.156 161.832 134.134 161.865C134.18 161.901 134.23 161.94 134.277 161.976C134.632 162.075 134.984 162.188 135.337 162.315H135.34Z" fill="#5F91D6"/>
<path d="M130.596 130.086C129.571 129.502 128.561 128.885 127.564 128.246C126.408 129.855 124.957 131.257 123.167 132.348C122.625 132.678 122.069 132.959 121.507 133.202C121.028 134.124 120.488 135.042 119.891 135.931C120.923 138.069 122.462 139.948 124.329 141.559C124.109 138.785 124.376 136.16 125.452 134.155C127.735 129.896 131.837 131.918 135.626 135.493C135.805 134.59 136.045 133.719 136.353 132.893C134.304 132.086 132.352 131.094 130.598 130.089L130.596 130.086Z" fill="#5F91D6"/>
<path d="M122.206 109.697C122.622 111.035 122.999 112.424 123.313 113.842C123.577 113.903 123.841 113.958 124.106 114.016C125.243 112.622 126.485 111.297 127.812 110.063C125.898 109.567 124.007 109.427 122.203 109.697H122.206Z" fill="#5F91D6"/>
<path d="M105.127 94.568C105.829 95.5046 106.49 96.532 107.09 97.6256C107.09 97.6256 107.09 97.6201 107.09 97.6173C107.605 95.6698 107.913 93.6397 107.988 91.6123C106.724 92.3202 105.716 93.2816 105.124 94.5652L105.127 94.568Z" fill="#5F91D6"/>
<path d="M122.192 113.568C121.903 112.322 121.556 111.095 121.165 109.904C119.64 110.275 118.192 110.96 116.87 111.986C118.61 112.58 120.394 113.117 122.195 113.568H122.192Z" fill="#5F91D6"/>
<path d="M109.318 93.9568C109.403 93.4039 109.486 92.8373 109.557 92.2651C109.53 92.2459 109.502 92.2266 109.475 92.2046C109.442 92.785 109.389 93.3682 109.318 93.9568Z" fill="#5F91D6"/>
<path d="M98.8521 88.9607C100.815 90.0102 102.638 91.5527 104.293 93.5223C104.898 92.291 105.785 91.3434 106.862 90.6244C105.463 89.933 103.968 89.4317 102.376 89.181C101.281 89.0075 100.086 88.9331 98.8521 88.9607Z" fill="#5F91D6"/>
<path d="M108.057 99.5684C108.068 99.5933 108.082 99.6209 108.093 99.6457C108.206 99.2231 108.316 98.8004 108.42 98.375C108.307 98.7728 108.186 99.1706 108.057 99.5684Z" fill="#5F91D6"/>
<path d="M139.665 159.224L141.278 158.075C140.967 157.632 140.67 157.178 140.381 156.716C139.497 156.996 138.621 157.332 137.765 157.692C137.917 158.13 138.049 158.564 138.156 158.988C138.66 159.046 139.161 159.125 139.665 159.224Z" fill="#5F91D6"/>
<path d="M107.492 101.14C107.228 101.827 106.941 102.51 106.625 103.192C106.586 103.271 106.531 103.337 106.47 103.393C106.476 103.398 106.479 103.404 106.484 103.412C106.881 103.233 107.192 102.848 107.385 102.185C107.456 101.935 107.528 101.684 107.599 101.434C107.564 101.335 107.528 101.239 107.492 101.14Z" fill="#5F91D6"/>
<path d="M106.317 107.411C106.264 106.965 106.182 106.532 106.063 106.116C105.948 105.91 105.835 105.7 105.722 105.488C103.998 104.48 102.399 103.348 100.934 102.106C99.9536 102.017 98.9266 102.119 97.8914 102.362C100.832 104.334 103.806 106.067 106.317 107.411Z" fill="#5F91D6"/>
<path d="M121.79 118.88C122.228 119.089 122.657 119.309 123.081 119.532C123.032 118.767 122.957 118.003 122.858 117.241C122.484 117.777 122.126 118.325 121.79 118.88Z" fill="#5F91D6"/>
<path d="M116.876 118.208C117.812 119.11 118.751 119.974 119.681 120.799C119.684 120.794 119.687 120.788 119.689 120.78C119.89 120.381 120.102 119.985 120.32 119.589C119.197 119.083 118.043 118.615 116.873 118.205L116.876 118.208Z" fill="#5F91D6"/>
<path d="M115.19 123.035C116.209 123.511 117.239 123.947 118.274 124.338C118.517 123.522 118.817 122.707 119.175 121.894C117.597 120.498 116.08 119.032 114.64 117.501C114.031 117.33 113.423 117.173 112.814 117.038C112.476 117.688 112.145 118.363 111.829 119.065C113.12 120.209 114.254 121.536 115.19 123.038V123.035Z" fill="#5F91D6"/>
<path d="M123.955 126.018C124.12 126.055 124.288 126.088 124.453 126.122C124.299 126.007 124.145 125.892 123.99 125.777C123.979 125.858 123.968 125.94 123.955 126.018Z" fill="#5F91D6"/>
<path d="M119.213 124.673C120.417 125.094 121.623 125.455 122.826 125.749C122.867 125.493 122.903 125.237 122.936 124.979C121.92 124.2 120.923 123.392 119.949 122.558C119.668 123.254 119.42 123.958 119.216 124.673H119.213Z" fill="#5F91D6"/>
<path d="M122.649 126.719C121.416 126.394 120.19 126.003 118.979 125.557C118.75 126.518 118.588 127.493 118.511 128.482C118.387 130.047 118.505 131.523 118.825 132.911C119.488 132.76 120.122 132.553 120.73 132.3C120.843 132.074 120.956 131.851 121.063 131.62C121.796 130.058 122.311 128.41 122.646 126.716L122.649 126.719Z" fill="#5F91D6"/>
<path d="M113.387 122.132C112.897 121.478 112.368 120.867 111.795 120.319C111.674 120.204 111.545 120.097 111.421 119.984C111.303 120.264 111.187 120.548 111.071 120.831C111.831 121.288 112.602 121.722 113.384 122.132H113.387Z" fill="#5F91D6"/>
<path d="M135.05 152.463C135.838 151.735 136.54 150.901 137.132 149.975C137.013 149.642 136.901 149.306 136.79 148.97C134.447 148.32 132.156 147.416 130.105 146.427C132.046 148.306 133.734 150.474 135.05 152.465V152.463Z" fill="#5F91D6"/>
<path d="M115.251 142.993C115.81 142.034 116.245 140.985 116.573 139.883C114.805 141.547 112.773 142.847 110.521 143.489C110.978 144.431 111.493 145.348 112.068 146.229C113.321 145.483 114.414 144.422 115.249 142.993H115.251Z" fill="#5F91D6"/>
<path d="M123.183 141.997C121.479 140.462 120.155 138.741 119.213 136.887C118.825 137.413 118.415 137.922 117.985 138.416C117.757 139.851 117.352 141.236 116.719 142.52C117.575 141.966 118.563 141.614 119.684 141.545C120.873 141.473 122.044 141.644 123.183 141.997Z" fill="#5F91D6"/>
<path d="M117.255 133.167C117.03 129.757 116.008 126.33 114.32 123.528C113.103 122.917 111.922 122.259 110.788 121.564C109.571 124.768 108.665 128.288 108.376 131.723C111.25 132.88 114.249 133.47 117.255 133.167Z" fill="#5F91D6"/>
<path d="M107.363 117.873C107.382 118.038 107.401 118.201 107.415 118.366C108.296 119.029 109.21 119.659 110.144 120.253C110.27 119.909 110.4 119.568 110.537 119.23C109.662 118.536 108.726 117.928 107.74 117.406C107.619 117.565 107.495 117.722 107.363 117.876V117.873Z" fill="#5F91D6"/>
<path d="M101.919 117.942C103.519 118.542 104.318 118.118 104.794 117.216C104.585 117.035 104.375 116.85 104.172 116.666C103.087 116.861 102.046 117.172 101.058 117.604C101.344 117.72 101.63 117.832 101.922 117.942H101.919Z" fill="#5F91D6"/>
<path d="M118.203 136.262C118.357 136.067 118.511 135.871 118.66 135.67C118.497 135.272 118.352 134.87 118.222 134.463C118.236 135.065 118.23 135.668 118.203 136.265V136.262Z" fill="#5F91D6"/>
<path d="M102.137 128.283C103.858 129.481 105.667 130.539 107.533 131.368C107.701 129.633 108.012 127.873 108.442 126.085C108.841 124.416 109.306 122.694 109.885 121C109.039 120.457 108.222 119.895 107.44 119.322C107.404 121.639 106.663 123.939 105.196 125.732C104.304 126.82 103.268 127.669 102.139 128.283H102.137Z" fill="#5F91D6"/>
<path d="M136.97 100.313C136.692 99.9038 136.405 99.5005 136.113 99.1055C135.97 99.5364 135.855 99.9895 135.758 100.459C136.16 100.401 136.565 100.351 136.97 100.313Z" fill="#5F91D6"/>
<path d="M135.483 103.798C135.488 104.042 135.508 104.285 135.521 104.527C136.543 103.982 137.589 103.498 138.649 103.077C138.421 102.64 138.173 102.205 137.914 101.776C137.118 101.828 136.323 101.919 135.535 102.045C135.488 102.612 135.469 103.195 135.486 103.798H135.483Z" fill="#5F91D6"/>
<path d="M108.433 104.322C108.29 104.768 108.15 105.203 108.015 105.611C107.954 105.801 107.841 105.95 107.698 106.052C107.797 106.443 107.874 106.842 107.927 107.253C108.21 107.74 108.508 108.222 108.816 108.699C108.89 108.735 108.959 108.77 109.031 108.804C108.973 107.335 108.772 105.823 108.431 104.322H108.433Z" fill="#5F91D6"/>
<path d="M140.541 116.734C141.755 117.903 142.908 119.147 143.996 120.445C144.015 120.462 144.037 120.475 144.059 120.492C144.657 119.722 145.174 118.899 145.598 118.033C143.993 117.485 142.278 116.987 140.543 116.734H140.541Z" fill="#5F91D6"/>
<path d="M130.579 109.736C131.636 110.185 132.674 110.725 133.674 111.347C134.376 111.782 135.059 112.251 135.736 112.733C135.629 112.507 135.527 112.281 135.43 112.05C134.09 110.926 132.87 109.661 131.804 108.298C131.361 108.62 130.92 108.953 130.485 109.298C130.518 109.444 130.551 109.59 130.582 109.736H130.579Z" fill="#5F91D6"/>
<path d="M151.045 114.545C148.801 110.95 147.567 107.24 147.958 103.645C147.652 103.488 147.341 103.337 147.019 103.199C146.397 102.934 145.766 102.711 145.125 102.524C145.078 102.527 145.031 102.532 144.984 102.538C147.358 106.336 148.787 110.887 148.043 115.159C149.059 115.066 150.073 114.856 151.045 114.545Z" fill="#5F91D6"/>
<path d="M138.787 95.1014C138.657 95.2033 138.531 95.3107 138.41 95.4209C140.321 96.8643 142.055 98.5446 143.542 100.467C144.084 100.558 144.621 100.671 145.15 100.809C142.807 99.4371 140.673 97.3684 138.79 95.0986L138.787 95.1014Z" fill="#5F91D6"/>
<path d="M93.6647 84.2528C93.4087 85.298 93.293 86.3461 93.3233 87.3803C93.461 87.3886 93.5959 87.3996 93.7308 87.4106C94.0364 86.4809 94.2429 85.5153 94.3641 84.5361C94.3366 84.5251 94.3118 84.5168 94.2842 84.5058C94.0943 84.4315 93.885 84.3435 93.6647 84.25V84.2528Z" fill="#5F91D6"/>
<path d="M109.505 91.3413C109.555 91.3745 109.607 91.4076 109.657 91.4408C109.679 91.2446 109.698 91.0457 109.717 90.8496C109.648 90.8745 109.582 90.8993 109.513 90.9242C109.513 91.0623 109.508 91.2032 109.505 91.3413Z" fill="#5F91D6"/>
<path d="M100.942 98.908C102.071 99.671 103.007 100.346 103.805 100.685C103.285 98.6105 103.211 96.5225 103.874 94.5419C102.393 92.6523 100.617 91.0519 98.5686 89.9252C97.9986 89.6112 97.4011 89.3578 96.7899 89.1484C96.2695 90.6084 95.8895 92.1675 95.6362 93.7596C95.7409 93.9387 95.8482 94.115 95.9584 94.2913C97.3708 96.068 99.0614 97.6354 100.945 98.908H100.942Z" fill="#5F91D6"/>
<path d="M95.4409 87.6783C95.5979 87.7141 95.7576 87.7526 95.9117 87.7938C96.1898 87.1364 96.4955 86.479 96.8451 85.8243C96.925 85.6758 97.0048 85.5355 97.0874 85.3924C96.7543 85.3127 96.4129 85.2219 96.0659 85.1201C95.92 86.0416 95.7135 86.9026 95.4409 87.6811V87.6783Z" fill="#5F91D6"/>
<path d="M138.035 116.562C137.173 116.575 136.314 116.672 135.474 116.881C131.724 117.807 136.504 122.062 137.903 123.649C138.228 124.015 138.561 124.393 138.905 124.773C140.469 123.96 141.854 122.927 143.019 121.715C141.144 120.2 139.448 118.473 138.038 116.562H138.035Z" fill="#5F91D6"/>
<path d="M99.5625 84.1006C102.272 84.472 104.78 84.1116 106.421 82.3154C106.157 81.6882 105.859 81.0748 105.524 80.4834C103.046 80.984 101.08 82.2879 99.5625 84.1006Z" fill="#5F91D6"/>
<path d="M107.539 90.2142C107.687 90.1315 107.844 90.0572 107.999 89.9828C107.935 87.6937 107.558 85.4377 106.817 83.3359C104.904 85.2586 102.095 86.2035 98.4443 85.6581C97.9625 86.4321 97.5412 87.2695 97.175 88.1482C100.969 87.87 104.441 88.6496 107.539 90.2169V90.2142Z" fill="#5F91D6"/>
<path d="M134.239 108.275C134.14 107.793 134.057 107.306 133.994 106.814C133.743 106.974 133.492 107.136 133.242 107.301C133.55 107.623 133.886 107.947 134.239 108.275Z" fill="#5F91D6"/>
<path d="M101.781 137.296C104.342 138.318 106.718 139.879 108.637 141.802C107.574 138.714 107.244 135.568 107.453 132.337C105.187 131.357 103.037 130.095 101.123 128.756C100.575 128.979 100.014 129.156 99.4382 129.28C100.432 131.527 101.22 134.588 101.781 137.298V137.296Z" fill="#5F91D6"/>
<path d="M113.431 146.548C113.183 146.741 112.924 146.918 112.66 147.086C112.792 147.271 112.927 147.454 113.062 147.636C113.197 147.241 113.351 146.851 113.524 146.47C113.491 146.495 113.464 146.523 113.431 146.548Z" fill="#5F91D6"/>
<path d="M105.823 122.268C106.146 121.202 106.264 120.13 106.212 119.075C105.989 119.282 105.76 119.48 105.523 119.673C105.482 119.786 105.438 119.896 105.397 120.006C105.248 120.4 104.841 120.736 104.392 120.579C104.37 120.571 104.348 120.563 104.328 120.557C101.894 122.182 98.9621 123.171 96.1289 123.298C97.6735 124.788 99.3586 126.251 101.151 127.579C103.277 126.681 105.011 124.959 105.821 122.268H105.823Z" fill="#5F91D6"/>
<path d="M112.212 115.762C112.325 115.566 112.44 115.371 112.561 115.179C111.688 114.161 110.846 113.124 110.042 112.062C110.036 112.056 110.034 112.051 110.028 112.045C109.866 112.956 109.623 113.844 109.288 114.697C109.188 114.945 109.081 115.19 108.963 115.429C110.042 115.47 111.127 115.583 112.212 115.762Z" fill="#5F91D6"/>
<path d="M97.0791 119.071C97.4839 118.743 97.8996 118.448 98.3209 118.17C97.605 117.847 96.8919 117.509 96.187 117.153C95.9558 117.795 95.6887 118.423 95.3776 119.035C94.9756 119.82 94.5295 120.533 94.0449 121.178C94.2129 121.357 94.3863 121.539 94.5598 121.718C95.2784 120.751 96.1127 119.858 97.0819 119.071H97.0791Z" fill="#5F91D6"/>
<path d="M124.161 155.212C125.703 155.57 127.192 155.639 128.594 155.468C128.481 155.276 128.368 155.08 128.263 154.879C126.911 152.298 125.441 148.386 124.717 144.442C121.46 142.412 118.158 142.029 115.826 145.659C115.132 146.742 114.634 147.912 114.298 149.133C116.939 152.077 120.314 154.322 124.163 155.212H124.161Z" fill="#5F91D6"/>
<path d="M110.923 118.31C111.149 117.798 111.386 117.292 111.642 116.797C110.56 116.602 109.48 116.47 108.42 116.417C108.382 116.478 108.343 116.541 108.305 116.602C109.227 117.1 110.1 117.672 110.923 118.31Z" fill="#5F91D6"/>
<path d="M136.623 158.896C136.557 158.699 136.485 158.5 136.408 158.299C135.783 158.592 135.172 158.893 134.591 159.194C134.621 159.205 134.651 159.216 134.679 159.23C135.221 159.017 135.868 158.901 136.623 158.896Z" fill="#5F91D6"/>
<path d="M137.529 144.695C137.741 145.563 138.022 146.518 138.36 147.532C138.994 145.882 139.343 144.058 139.34 142.128C139.34 142.031 139.335 141.935 139.335 141.841C138.71 141.012 138.049 140.216 137.361 139.456C137.306 141.926 137.399 144.163 137.529 144.698V144.695Z" fill="#5F91D6"/>
<path d="M143.093 156.785L144.362 155.876C143.787 155.926 143.206 156.009 142.616 156.128C142.771 156.352 142.928 156.573 143.093 156.785Z" fill="#5F91D6"/>
<path d="M137.443 137.339C138 137.945 138.539 138.573 139.057 139.199C138.776 137.722 138.294 136.298 137.658 134.935C137.562 135.676 137.493 136.496 137.443 137.339Z" fill="#5F91D6"/>
<path d="M131.38 117.586C131.152 117.245 131.286 116.639 131.675 116.465C131.986 116.328 132.3 116.204 132.614 116.085C132.137 116.091 131.658 116.08 131.185 116.058C131.146 118.771 130.711 121.476 129.808 123.955C130.813 124.776 131.796 125.66 132.732 126.599C134.315 126.434 135.807 126.068 137.195 125.536C134.904 122.861 132.958 119.933 131.383 117.584L131.38 117.586Z" fill="#5F91D6"/>
<path d="M122.619 171.103C122.68 171.156 122.743 171.208 122.804 171.258L132.052 164.658C132.038 164.065 132.063 163.49 132.138 162.95C126.369 162.184 123.426 166.211 122.619 171.103Z" fill="#5F91D6"/>
<path d="M127.14 146.239C127.713 149.341 128.663 152.602 130.221 155.148C131.471 154.809 132.631 154.266 133.677 153.555C132.033 151.25 129.682 148.407 127.14 146.239Z" fill="#5F91D6"/>
<path d="M124.142 124.542C124.987 125.205 125.857 125.858 126.747 126.489C126.851 126.503 126.953 126.514 127.058 126.528C127.501 125.767 127.887 124.96 128.217 124.126C127.022 123.266 125.692 122.412 124.263 121.6C124.274 122.586 124.236 123.569 124.142 124.539V124.542Z" fill="#5F91D6"/>
<path d="M88.5793 116.417C87.7973 115.307 87.076 114.161 86.4207 112.984C86.3739 114.4 86.7483 115.899 87.4367 117.257C87.7918 116.951 88.1746 116.67 88.5793 116.417Z" fill="#5F91D6"/>
<path d="M92.2414 113.001C93.2821 113.067 94.3367 113.045 95.3912 112.93C95.6252 111.156 95.6831 109.357 95.5702 107.566C93.9182 107.247 92.2138 107.272 90.5563 107.751C89.4164 108.082 88.5408 108.619 87.8938 109.288C89.0998 110.624 90.5453 111.875 92.2414 113.001Z" fill="#5F91D6"/>
<path d="M94.9284 137.986C94.8486 137.886 94.7715 137.781 94.6944 137.679C94.1878 137.687 93.6839 137.721 93.1855 137.784C93.2048 137.848 93.2213 137.914 93.2406 137.978C93.8436 138.359 94.4521 138.723 95.0716 139.071C95.0303 138.707 94.9807 138.345 94.9284 137.986Z" fill="#5F91D6"/>
<path d="M107.76 172.211C109.065 173.55 110.618 175.547 112.099 177.885C112.253 177.45 112.396 176.998 112.52 176.516C112.63 176.084 112.718 175.654 112.798 175.222C112.542 174.66 112.253 174.117 111.92 173.597C110.494 173.219 109.103 172.759 107.76 172.214V172.211Z" fill="#5F91D6"/>
<path d="M118.258 173.156C116.338 170.566 115.124 167.52 114.81 164.117C113.549 161.752 112.698 159.128 112.365 156.256C111.95 157.259 111.377 158.255 110.636 159.238C113.569 163.087 115.251 167.669 114.879 172.702C116 172.911 117.129 173.066 118.26 173.156H118.258Z" fill="#5F91D6"/>
<path d="M92.5716 91.8555C92.4504 91.9462 92.3265 92.0315 92.2026 92.1113C92.9158 93.2308 93.56 94.3944 94.1272 95.5937C94.141 95.2746 94.1575 94.9583 94.1851 94.6365C93.5435 93.7562 92.9956 92.8292 92.5716 91.8555Z" fill="#5F91D6"/>
<path d="M97.5004 113.703C97.349 113.736 97.1948 113.763 97.0433 113.794C97.0268 113.901 97.0048 114.009 96.9883 114.116C98.6486 114.039 100.287 114.135 101.87 114.405C100.061 112.461 98.5054 110.348 97.2691 108.114C97.3682 109.632 97.3545 111.152 97.1975 112.645C97.203 112.645 97.2058 112.645 97.2113 112.645C97.9079 112.496 98.2025 113.56 97.5032 113.708L97.5004 113.703Z" fill="#5F91D6"/>
<path d="M106.771 169.049C105.284 168.317 103.687 167.785 102.043 167.435C102.184 167.531 102.321 167.631 102.464 167.724C104.824 169.27 107.448 170.545 110.21 171.482C109.26 170.539 108.123 169.719 106.771 169.052V169.049Z" fill="#5F91D6"/>
<path d="M110.658 146.91C110.107 145.833 109.386 144.814 108.532 143.872C106.451 144.109 104.543 143.952 102.805 143.467C102.775 144.056 102.037 144.246 101.58 144.051C100.093 143.409 98.524 142.687 96.9353 141.886C96.9656 142.572 96.9766 143.258 96.9683 143.943C97.1666 144.122 97.3731 144.299 97.5879 144.467C101.101 147.241 106.465 148.527 110.661 146.91H110.658Z" fill="#5F91D6"/>
<path d="M92.1478 114.872C91.7238 114.602 91.308 114.322 90.8978 114.036C90.7601 114.019 90.6252 114.003 90.4903 113.983C90.3911 114.501 90.3058 115.023 90.2314 115.551C90.8565 115.282 91.5035 115.056 92.1505 114.872H92.1478Z" fill="#5F91D6"/>
<path d="M116.386 155.612C121.573 155.777 126.413 157.149 130.604 159.515C130.926 159.33 131.257 159.14 131.592 158.95C130.744 158.275 129.976 157.474 129.313 156.565C124.024 157.259 118.164 154.474 114.015 150.37C113.459 153.444 113.861 156.766 114.874 159.851C115.015 158.669 115.251 157.457 115.598 156.215C115.695 155.873 116.025 155.603 116.388 155.614L116.386 155.612Z" fill="#5F91D6"/>
<path d="M90.6716 80.1817C90.8038 80.0799 90.9359 79.9754 91.0736 79.8736C91.1011 79.5353 91.1314 79.1997 91.1727 78.8613C90.5752 79.0759 89.9888 79.329 89.4188 79.6398C89.3528 79.8709 89.2839 80.0992 89.2151 80.3302C89.4629 80.4623 89.7217 80.597 89.9888 80.7346C90.2146 80.5475 90.4403 80.3632 90.6689 80.1844L90.6716 80.1817Z" fill="#5F91D6"/>
<path d="M148.456 132.949C144.461 132.425 140.945 129.696 137.966 126.412C136.576 126.958 135.127 127.332 133.641 127.547C134.83 128.833 135.926 130.208 136.876 131.654C137.181 131.021 137.528 130.415 137.925 129.847C138.241 129.393 138.789 129.324 139.211 129.682C140.56 130.83 141.912 132.103 143.178 133.48C143.33 133.494 143.481 133.511 143.635 133.519C145.458 133.643 147.055 133.425 148.456 132.949Z" fill="#5F91D6"/>
<path d="M91.5804 87.1598C91.2776 85.7935 91.0876 84.3997 91.0215 82.9811C90.793 82.8626 90.5562 82.7359 90.3166 82.6064C89.0473 83.7331 87.9377 84.9561 86.9961 86.2508C87.2191 86.3858 87.4146 86.518 87.5578 86.6447C88.0066 87.0441 88.4416 87.4545 88.8656 87.8732C89.7908 87.6253 90.6966 87.4683 91.5859 87.4022C91.5859 87.3196 91.5777 87.2397 91.5804 87.157V87.1598Z" fill="#5F91D6"/>
<path d="M109.684 160.387C109.436 160.66 109.177 160.932 108.902 161.202C107.655 162.42 106.338 163.502 105.003 164.395C106.523 165.015 107.889 165.656 108.949 166.191C109.893 166.667 109.062 168.078 108.125 167.607C107.134 167.108 105.449 166.196 103.503 165.315C103.145 165.513 102.787 165.695 102.429 165.86C107.167 166.871 110.474 169.149 112.586 172.193C112.759 172.24 112.936 172.281 113.112 172.323C113.249 168.061 111.991 163.91 109.684 160.381V160.387Z" fill="#5F91D6"/>
<path d="M158.862 102.591C160.018 105.597 159.548 108.935 157.984 111.649C158.179 111.991 158.386 112.329 158.609 112.663C159.132 113.439 161.607 116.292 163.981 118.398C164.451 117.979 164.941 117.577 165.451 117.192C166.437 113.282 165.952 108.926 164.366 105.206C162.306 104.257 160.046 102.651 157.942 100.699C158.303 101.316 158.614 101.949 158.862 102.594V102.591Z" fill="#5F91D6"/>
<path d="M96.7266 69.3158C98.318 70.4832 99.9976 71.4552 101.74 72.1077C103.145 71.2266 104.604 70.4695 106.066 69.85C106.515 69.66 106.983 69.4728 107.459 69.291C106.38 65.6814 104.475 62.2645 102.2 59.635C100.958 58.2005 99.5267 56.8018 97.905 55.7307C97.5333 55.5876 97.1588 55.4609 96.7816 55.3535C98.8494 59.0403 99.1881 63.944 96.7293 69.3158H96.7266Z" fill="#5F91D6"/>
<path d="M164.106 120.468C163.184 121.444 162.369 122.525 161.667 123.686C161.692 123.711 161.719 123.733 161.744 123.755C161.912 123.603 162.074 123.441 162.234 123.268C163.011 122.426 163.655 121.499 164.178 120.517C164.153 120.501 164.131 120.481 164.106 120.465V120.468Z" fill="#5F91D6"/>
<path d="M166.656 105.997C167.813 109.146 168.22 112.443 167.631 115.74C168.237 115.385 168.856 115.063 169.489 114.779C169.523 114.231 169.542 113.68 169.547 113.129C169.567 110.859 169.509 108.463 169.242 106.085L169.079 105.97C168.383 106.19 167.562 106.187 166.656 105.997Z" fill="#5F91D6"/>
<path d="M148.046 136.616C147.454 136.862 146.89 137.159 146.353 137.498C148.233 140.341 149.549 143.492 149.75 146.853C152.44 144.563 152.702 140.379 151.491 136.088C150.353 135.994 149.197 136.143 148.046 136.619V136.616Z" fill="#5F91D6"/>
<path d="M93.9427 165.682C93.3314 165.2 92.7725 164.576 92.2741 163.797C92.0373 163.965 91.8171 164.155 91.6216 164.383C91.1067 164.975 90.7956 165.662 90.6304 166.402C91.7235 166.091 92.8386 165.852 93.9427 165.684V165.682Z" fill="#5F91D6"/>
<path d="M174.451 115.298C173.325 115.422 172.251 115.656 171.229 115.975C170.929 118.437 170.343 120.774 169.432 122.817C169.244 123.236 168.672 123.305 168.314 123.112C167.364 122.602 166.436 122.049 165.536 121.457C165.527 121.471 165.522 121.485 165.513 121.498C164.754 122.831 163.839 123.897 162.815 124.725C166.769 128.219 171.235 131.27 175.847 133.412L176.552 132.911C181.466 129.403 183.124 123.384 181.527 118.178C179.792 116.215 177.408 114.965 174.451 115.292V115.298Z" fill="#5F91D6"/>
<path d="M84.4409 169.263C84.2537 168.85 84.0719 168.437 83.8957 168.021C82.6237 167.85 81.2965 167.754 79.9419 167.724V176.062C79.9419 176.089 79.9419 176.114 79.9446 176.142C80.3411 173.238 82.0592 170.963 84.4381 169.266L84.4409 169.263Z" fill="#5F91D6"/>
<path d="M108.497 159.283C108.577 159.2 108.646 159.115 108.723 159.032C106.831 156.567 104.4 154.476 101.567 152.969C101.187 152.766 98.5603 151.757 96.2089 150.92C95.7271 153.25 95.0112 155.484 94.031 157.525C94.7083 159.112 95.5509 160.616 96.5476 162.013C98.7695 162.258 101.201 162.963 103.434 163.789C105.444 162.393 107.266 160.589 108.497 159.286V159.283Z" fill="#5F91D6"/>
<path d="M99.2457 167.025C99.0062 167.006 98.7667 166.989 98.5244 166.978C98.0205 167.019 97.5304 167.011 97.0513 166.956C96.8558 166.958 96.6603 166.967 96.4648 166.975C97.5772 167.025 98.6785 167.191 99.7661 167.48C99.5899 167.333 99.4192 167.178 99.2457 167.025Z" fill="#5F91D6"/>
<path d="M86.2005 123.838C85.3277 122.571 84.956 121.116 85.6828 119.53C85.7737 119.331 85.8756 119.141 85.9857 118.957C85.6608 118.684 85.3222 118.422 84.967 118.166C83.7335 119.791 82.4642 121.926 81.897 123.843C81.9245 124.011 81.9575 124.179 81.9906 124.347C82.5247 124.634 84.3172 124.334 86.2005 123.838Z" fill="#5F91D6"/>
<path d="M156.403 107.907C156.678 108.521 156.912 109.183 157.102 109.891C157.127 109.948 157.154 110.006 157.179 110.064C158.44 107.962 158.633 105.34 156.987 102.417C156.714 101.932 156.414 101.459 156.089 100.993C155.962 101.073 155.833 101.15 155.703 101.225C155.585 103.492 155.783 105.742 156.403 107.904V107.907Z" fill="#5F91D6"/>
<path d="M119.114 133.968C119.188 134.206 119.271 134.44 119.356 134.675C119.552 134.377 119.742 134.073 119.926 133.764C119.656 133.841 119.387 133.91 119.114 133.971V133.968Z" fill="#5F91D6"/>
<path d="M86.5008 80.4173C84.4303 79.1529 82.2083 77.6737 80.0359 76.0513C80.1791 76.9603 80.5067 77.8748 81.0464 78.7673C81.9577 80.2686 83.0068 81.6927 84.2568 82.9267C84.8185 81.9819 85.5949 81.1445 86.5035 80.4173H86.5008Z" fill="#5F91D6"/>
<path d="M104.194 171.339C100.799 169.06 96.6576 167.666 92.5606 168.782C92.4092 168.823 92.211 168.872 91.9824 168.936C95.8592 171.21 98.0123 174.979 96.4346 180.72C96.966 181.428 97.5222 182.116 98.0949 182.791C100.229 183.9 102.456 184.448 104.524 184.294L111.429 179.368C109.587 176.172 107.162 173.327 104.194 171.337V171.339Z" fill="#5F91D6"/>
<path d="M136.35 114.517C135.571 113.923 134.778 113.354 133.963 112.831C132.933 112.168 131.884 111.599 130.832 111.128C131.031 112.38 131.146 113.659 131.179 114.944C132.71 115.007 134.654 115.001 136.35 114.517Z" fill="#5F91D6"/>
<path d="M135.629 105.829C135.802 107.38 136.133 108.873 136.612 110.297C137.567 111.052 138.555 111.774 139.492 112.413C139.596 112.253 139.69 112.082 139.775 111.901C140.879 109.521 140.375 106.769 139.142 104.075C138.539 104.328 137.947 104.598 137.377 104.887C136.799 105.179 136.215 105.493 135.631 105.827L135.629 105.829Z" fill="#5F91D6"/>
<path d="M137.617 151.253C137.597 151.281 137.578 151.311 137.559 151.339C136.983 152.162 136.367 152.878 135.717 153.495C135.788 153.611 135.86 153.727 135.929 153.84C136.4 154.617 136.799 155.38 137.138 156.123C137.914 155.79 138.701 155.482 139.497 155.214C138.792 153.942 138.162 152.614 137.617 151.25V151.253Z" fill="#5F91D6"/>
<path d="M125.226 114.24C126.876 114.551 128.519 114.777 130.138 114.89C130.152 113.482 130.031 112.085 129.775 110.689C129.546 110.601 129.318 110.521 129.092 110.441C127.726 111.612 126.424 112.884 125.229 114.237L125.226 114.24Z" fill="#5F91D6"/>
<path d="M141.303 110.526C141.16 111.512 140.841 112.33 140.392 113.013C141.846 113.955 143.09 114.627 143.757 114.812C144.674 115.068 145.643 115.197 146.628 115.214C147.49 111.685 146.967 107.732 144.599 103.948C144.329 103.518 144.051 103.102 143.765 102.694C142.518 102.906 141.287 103.259 140.097 103.7C141.094 105.934 141.631 108.253 141.303 110.526Z" fill="#5F91D6"/>
<path d="M138.938 114.493C138.853 114.554 138.768 114.612 138.679 114.667C138.759 114.797 138.845 114.924 138.927 115.051C139.315 115.059 139.704 115.076 140.092 115.106C139.701 114.913 139.318 114.709 138.938 114.493Z" fill="#5F91D6"/>
<path d="M139.095 101.731C139.28 102.054 139.456 102.383 139.624 102.712C139.918 102.607 140.216 102.505 140.513 102.408C141.116 102.215 141.719 102.054 142.319 101.922C141.254 101.775 140.175 101.715 139.095 101.728V101.731Z" fill="#5F91D6"/>
<path d="M117.085 137.563C117.247 136.481 117.321 135.368 117.302 134.244C114.306 134.5 111.225 133.845 108.307 132.69C108.199 134.856 108.354 136.968 108.846 138.927C109.119 140.009 109.477 141.086 109.915 142.144C112.553 141.395 115.006 139.781 117.085 137.563Z" fill="#5F91D6"/>
<path d="M120.422 121.453C121.27 122.193 122.151 122.938 123.062 123.676C123.131 122.782 123.156 121.882 123.139 120.98C122.495 120.636 121.834 120.301 121.16 119.981C120.895 120.466 120.65 120.955 120.422 121.453Z" fill="#5F91D6"/>
<path d="M122.982 129.841C122.787 130.381 122.569 130.932 122.327 131.486C123.96 130.489 125.337 129.117 126.435 127.503C126.427 127.497 126.416 127.489 126.408 127.483C125.529 127.357 124.651 127.191 123.775 126.993C123.577 127.96 123.318 128.913 122.982 129.841Z" fill="#5F91D6"/>
<path d="M99.2541 118.58C97.8636 119.493 96.6219 120.722 95.5894 122.321C98.3069 122.466 100.991 121.652 103.244 120.164C101.93 119.683 100.595 119.157 99.2568 118.58H99.2541Z" fill="#5F91D6"/>
<path d="M115.909 124.29C116.598 125.618 117.137 127.061 117.509 128.615C117.575 127.488 117.754 126.345 118.041 125.199C117.322 124.915 116.612 124.612 115.909 124.29Z" fill="#5F91D6"/>
<path d="M114.791 112.286C113.249 111.73 111.726 111.122 110.223 110.465C110.218 110.545 110.212 110.627 110.207 110.707C111.123 111.953 112.109 113.155 113.133 114.313C113.634 113.598 114.185 112.919 114.791 112.286Z" fill="#5F91D6"/>
<path d="M120.954 118.493C121.479 117.614 122.052 116.752 122.661 115.907C122.586 115.466 122.506 115.028 122.416 114.593C120.257 114.061 118.12 113.439 116.014 112.717C115.265 113.416 114.566 114.237 113.919 115.188C114.288 115.587 114.659 115.984 115.034 116.372C117.063 116.907 119.056 117.634 120.951 118.496L120.954 118.493Z" fill="#5F91D6"/>
<path d="M108.026 81.8223C107.957 81.9297 107.883 82.0344 107.811 82.139C108.775 84.4006 109.331 86.8467 109.477 89.3974C109.592 89.3616 109.711 89.3285 109.826 89.2955C109.939 86.921 109.758 84.53 108.915 82.3814C108.623 82.1914 108.329 82.0041 108.026 81.8223Z" fill="#5F91D6"/>
<path d="M133.847 103.8C133.864 103.309 133.894 102.825 133.941 102.345C133.343 102.477 132.751 102.629 132.165 102.8C130.551 103.271 131.003 104.687 132.424 106.392C132.9 106.072 133.379 105.764 133.869 105.466C133.839 104.915 133.831 104.359 133.85 103.797L133.847 103.8Z" fill="#5F91D6"/>
<path d="M111.352 92.6676C116.118 96.4507 119.7 102.2 121.812 108.483C124.125 108.095 126.534 108.354 128.883 109.102C129.026 108.979 129.169 108.857 129.315 108.736C128.8 106.875 128.048 105.008 127.043 103.108C124.56 98.4166 121.396 93.8488 117.674 89.8537C115.68 89.8041 113.555 89.917 111.608 90.3273C111.55 91.1037 111.462 91.8829 111.352 92.6649V92.6676Z" fill="#5F91D6"/>
<path d="M141.851 100.254C140.549 98.7696 139.12 97.4556 137.583 96.3042C137.192 96.8 136.854 97.3565 136.567 97.9625C137.118 98.6869 137.658 99.4389 138.164 100.213C139.401 100.139 140.634 100.147 141.851 100.254Z" fill="#5F91D6"/>
<path d="M91.6578 88.5186C91.0163 88.5655 90.3747 88.6594 89.7415 88.792C90.0085 89.0876 90.2646 89.3943 90.5124 89.7092C90.9144 89.5352 91.3329 89.3722 91.7652 89.2258C91.7239 88.9937 91.6881 88.7561 91.6605 88.5186H91.6578Z" fill="#5F91D6"/>
<path d="M94.6314 89.4513C94.4386 89.7869 94.2376 90.0977 94.0256 90.3811C94.2101 90.8652 94.4084 91.3438 94.6259 91.8142C94.8103 90.9807 95.0416 90.1473 95.328 89.311C95.0939 89.3523 94.8627 89.3991 94.6314 89.4486V89.4513Z" fill="#5F91D6"/>
<path d="M94.4908 82.741C94.4963 82.4715 94.4991 82.2046 94.4963 81.9351C94.3862 82.1661 94.2843 82.3972 94.1907 82.6282C94.2898 82.6668 94.3917 82.7053 94.4935 82.7438L94.4908 82.741Z" fill="#5F91D6"/>
<path d="M132.963 93.6714C133.756 94.5516 134.624 95.5364 135.491 96.5954C135.717 96.1581 135.962 95.7427 136.237 95.3521C135.086 94.5874 133.88 93.9079 132.633 93.311C132.746 93.4321 132.856 93.5531 132.963 93.6714Z" fill="#5F91D6"/>
<path d="M93.6921 80.0928C93.2515 80.3678 92.822 80.6539 92.409 80.9483C92.3897 81.2563 92.3787 81.5644 92.376 81.8725C92.4916 81.9248 92.6073 81.9743 92.7257 82.0265C93.0065 81.3609 93.3314 80.7172 93.6921 80.0928Z" fill="#5F91D6"/>
<path d="M100.57 138.857C100.559 138.794 100.548 138.73 100.54 138.667C99.232 138.216 97.8856 137.911 96.5447 137.768C96.5502 137.806 96.5557 137.842 96.5612 137.88C96.9632 138.287 97.3817 138.681 97.8222 139.058C98.7887 139.883 99.7689 140.543 100.752 141.068C100.796 140.601 100.738 139.888 100.57 138.857Z" fill="#5F91D6"/>
<path d="M128.525 127.709C130.813 129.216 133.222 130.555 135.703 131.571C134.734 130.18 133.618 128.88 132.421 127.685C131.14 127.798 129.835 127.8 128.522 127.709H128.525Z" fill="#5F91D6"/>
<path d="M96.7681 115.173C96.735 115.311 96.7047 115.451 96.6689 115.586C97.7703 116.158 98.8909 116.692 100.034 117.179C101.118 116.645 102.245 116.238 103.404 115.952C103.302 115.856 103.2 115.757 103.098 115.657C101.033 115.165 98.8882 115 96.7681 115.171V115.173Z" fill="#5F91D6"/>
<path d="M93.5275 115.713C92.561 115.966 91.4321 116.338 90.3611 116.826C91.0687 117.765 91.7763 118.633 92.4509 119.412C92.6106 119.594 92.773 119.779 92.9355 119.963C93.6927 118.864 94.2874 117.663 94.6866 116.366C94.2984 116.154 93.9102 115.936 93.5275 115.713Z" fill="#5F91D6"/>
<path d="M107.25 142.585C105.774 141.265 104.037 140.151 102.178 139.317C102.36 140.31 102.503 141.196 102.611 141.895C104.172 142.45 105.727 142.665 107.25 142.585Z" fill="#5F91D6"/>
<path d="M135.563 156.477C135.285 155.971 134.886 155.322 134.393 154.584C133.311 155.352 132.154 155.891 130.957 156.227C131.535 156.991 132.182 157.665 132.906 158.213C133.806 157.72 134.745 157.231 135.714 156.769C135.662 156.672 135.618 156.573 135.563 156.477Z" fill="#5F91D6"/>
<path d="M111.209 93.6064C110.708 96.6434 109.89 99.6336 109.092 102.233C109.86 104.57 110.303 107.021 110.273 109.4C110.639 109.57 110.975 109.719 111.269 109.843C112.652 110.432 114.092 111.002 115.567 111.536C117.159 110.105 118.913 109.19 120.747 108.714C120.537 108.136 120.317 107.566 120.088 107.007C118.183 102.359 115.237 97.2078 111.209 93.6092V93.6064Z" fill="#5F91D6"/>
<path d="M161.667 100.68L158.762 98.6084C158.68 98.7074 158.597 98.8092 158.512 98.9055C159.726 99.9067 161.023 100.817 162.364 101.642C162.138 101.318 161.907 100.996 161.67 100.68H161.667Z" fill="#5F91D6"/>
<path d="M162.835 119.484C160.916 117.923 159.206 116.151 157.818 114.185C157.818 114.198 157.821 114.215 157.824 114.229C158.391 116.306 158.652 118.471 158.617 120.647C159.187 121.256 159.773 121.859 160.376 122.451C161.051 121.459 161.882 120.451 162.837 119.484H162.835Z" fill="#5F91D6"/>
<path d="M109.219 79.1496C110.119 79.2543 111.033 79.4333 111.955 79.6757C112.691 76.7724 114.844 74.2189 117.247 72.4064C118.062 71.7921 118.888 71.2467 119.714 70.7591L117.619 69.2661C115.496 71.6158 112.814 73.4559 109.794 74.2051C109.855 75.9901 109.659 77.6621 109.216 79.1524L109.219 79.1496Z" fill="#5F91D6"/>
<path d="M158.702 139.645C158.837 141.455 159.065 143.303 159.39 145.16L162.053 143.259C161.133 142.061 159.99 140.785 158.699 139.645H158.702Z" fill="#5F91D6"/>
<path d="M158.33 123.835C158.597 124.067 158.864 124.307 159.132 124.55C159.22 124.379 159.305 124.211 159.396 124.042C159.071 123.755 158.752 123.465 158.435 123.172C158.405 123.39 158.369 123.614 158.33 123.838V123.835Z" fill="#5F91D6"/>
<path d="M105.501 74.4902C104.295 74.3552 103.136 74.1046 102.018 73.7603C101.839 73.8842 101.66 74.0109 101.484 74.1376C102.183 74.6555 102.836 75.2092 103.442 75.7904C104.846 75.9997 106.187 76.5259 107.379 77.4735C107.668 77.7021 107.935 77.9472 108.191 78.2007C108.392 76.9831 108.45 75.7325 108.381 74.4682C107.445 74.5866 106.484 74.6004 105.498 74.493L105.501 74.4902Z" fill="#5F91D6"/>
<path d="M157.452 126.956C156.367 129.705 154.465 132.159 151.637 132.848C151.604 132.87 151.574 132.892 151.541 132.911C151.772 133.476 151.998 134.068 152.212 134.68C153.661 134.958 155.087 135.506 156.455 136.266C156.527 132.928 157.053 129.735 158.121 126.856C157.901 126.898 157.678 126.931 157.452 126.958V126.956Z" fill="#5F91D6"/>
<path d="M150.912 147.717C150.546 148.015 150.155 148.274 149.753 148.505C149.731 148.937 149.693 149.372 149.629 149.813C149.497 150.741 149.274 151.674 148.969 152.588L157.501 146.5C156.882 143.626 156.518 140.738 156.455 137.929C155.274 137.167 154.018 136.575 152.724 136.274C153.927 140.426 154.211 145.047 150.912 147.715V147.717Z" fill="#5F91D6"/>
<path d="M89.0638 67.7539C88.6122 67.5218 88.1276 67.3699 87.6045 67.3257C88.1607 67.7069 88.6645 67.8865 89.0638 67.7539Z" fill="#5F91D6"/>
<path d="M100.113 73.2092C100.154 73.1788 100.196 73.1484 100.237 73.118C99.8542 72.9578 99.4742 72.7893 99.1025 72.6069C99.4495 72.8003 99.7854 73.002 100.116 73.2092H100.113Z" fill="#5F91D6"/>
<path d="M87.2883 81.1172C86.9028 81.4473 86.5256 81.8021 86.1649 82.1927C85.7161 82.6769 85.3582 83.1747 85.0801 83.6809C85.1269 83.7221 85.1737 83.7662 85.2233 83.8074C85.862 84.3438 86.6605 82.7869 87.291 81.1172H87.2883Z" fill="#5F91D6"/>
<path d="M80.0601 73.8462C83.0419 76.4052 85.966 78.4711 87.764 79.5317C87.7943 79.5124 87.8273 79.4903 87.8576 79.4711C88.1329 78.5978 88.3174 77.9092 88.3449 77.7825C88.8846 75.3392 89.2177 72.9096 89.3774 70.4883C88.0338 69.5903 86.803 68.6234 85.6934 67.585C84.939 67.8384 84.1213 68.2709 83.2347 68.9265C81.5138 70.1991 80.3905 71.9455 80.0601 73.8462Z" fill="#5F91D6"/>
<path d="M84.3444 86.334C84.3362 86.5826 84.3362 86.8313 84.3582 87.0827C84.4738 86.9004 84.5922 86.7208 84.7134 86.5412C84.5922 86.4694 84.4683 86.4031 84.3444 86.334Z" fill="#5F91D6"/>
<path d="M94.7081 54.9461C93.0258 54.7588 91.349 54.9048 89.7576 55.3428C89.9448 56.1829 90.1128 57.0231 90.2642 57.866C91.1453 59.954 91.5115 62.2485 91.5307 64.6037C92.5632 65.7166 93.6646 66.8019 94.821 67.7991C95.4708 67.7605 95.9912 67.3721 96.2803 66.4383C97.6625 61.9648 96.831 57.9211 94.7081 54.9461Z" fill="#5F91D6"/>
<path d="M88.2266 65.6852C87.1418 64.7239 86.1946 63.6688 85.5696 62.4568C85.0382 61.4266 84.8592 60.2146 84.8895 58.9337C84.7271 58.6996 84.5646 58.4627 84.4022 58.2285C83.5872 58.9447 82.8603 59.7628 82.238 60.6718C82.9704 61.9748 84.5509 64.3272 86.0927 65.9717C86.8059 65.7844 87.5272 65.6797 88.2266 65.6825V65.6852Z" fill="#5F91D6"/>
<path d="M94.8736 70.6443C94.5212 70.3499 94.1412 70.0611 93.7502 69.7695C93.8824 70.0254 94.0091 70.2839 94.1302 70.5562C94.2101 70.5562 94.2899 70.5617 94.3615 70.5838C95.6583 70.9881 96.8615 71.4722 97.9877 72.0224C97.2801 71.629 96.5917 71.2027 95.9226 70.7405C95.6143 70.9524 95.171 70.8918 94.8736 70.6443Z" fill="#5F91D6"/>
<path d="M93.5931 136.086C93.381 135.746 93.1745 135.398 92.9763 135.044C92.902 135.334 92.8304 135.625 92.7588 135.915C92.7753 136.011 92.7946 136.105 92.8111 136.199C93.0699 136.155 93.3315 136.116 93.5903 136.086H93.5931Z" fill="#5F91D6"/>
<path d="M91.71 128.193C91.4567 128.066 91.2034 127.932 90.9556 127.786C90.9528 127.786 90.9473 127.78 90.9446 127.78C91.107 128.372 91.2888 128.958 91.4897 129.535C91.5476 129.084 91.6192 128.636 91.71 128.193Z" fill="#5F91D6"/>
<path d="M114.706 174.213C114.628 174.72 114.529 175.228 114.408 175.74C114.554 176.139 114.686 176.546 114.805 176.959L118.032 174.659C116.911 174.557 115.801 174.411 114.706 174.213Z" fill="#5F91D6"/>
<path d="M90.5092 124.343C90.4238 124.392 90.3412 124.442 90.2559 124.489C90.355 125.157 90.4789 125.823 90.6248 126.483C91.0488 126.736 91.4866 126.967 91.9382 127.171C91.5141 126.197 91.0406 125.251 90.5092 124.346V124.343Z" fill="#5F91D6"/>
<path d="M89.1848 122.336C88.6699 121.644 88.1165 120.983 87.5107 120.369C87.2547 120.11 87.0014 119.865 86.7453 119.628C86.1946 120.595 86.1506 121.724 86.9766 123.019C87.0867 123.192 87.2051 123.358 87.3263 123.523C88.0036 123.322 88.6589 123.104 89.2426 122.889C89.2206 122.705 89.2013 122.52 89.1848 122.336Z" fill="#5F91D6"/>
<path d="M95.501 106.665C95.3964 105.557 95.2284 104.454 94.9971 103.364C92.8303 104.338 90.7955 105.722 89.2646 107.017C91.2168 106.294 93.3754 106.239 95.501 106.665Z" fill="#5F91D6"/>
<path d="M88.7443 112.404C88.1055 111.874 87.4915 111.321 86.9105 110.74C86.8444 110.886 86.7866 111.037 86.7371 111.189C86.8555 111.409 86.9739 111.629 87.095 111.846C87.6292 112.061 88.1798 112.248 88.7443 112.404Z" fill="#5F91D6"/>
<path d="M89.5214 124.854C89.2874 124.962 89.0533 125.062 88.811 125.153C89.0946 125.407 89.3947 125.647 89.7059 125.874C89.6398 125.534 89.5765 125.194 89.5214 124.854Z" fill="#5F91D6"/>
<path d="M88.0591 170.644C88.5106 170.746 88.9815 171.005 89.4605 171.384C89.3421 170.892 89.2485 170.397 89.1687 169.899C88.7144 170.119 88.3207 170.367 88.0591 170.644Z" fill="#5F91D6"/>
<path d="M91.7431 147.793C92.8334 148.025 93.9238 148.314 95.0031 148.658C95.2371 146.956 95.3418 145.226 95.3362 143.518C94.3891 142.369 93.6071 141.086 92.9904 139.714C92.6903 139.532 92.3929 139.35 92.0955 139.163C91.6082 142.022 91.3549 144.926 91.2695 147.782C91.2695 147.796 91.2695 147.81 91.2695 147.824C91.4182 147.774 91.5834 147.76 91.7459 147.793H91.7431Z" fill="#5F91D6"/>
<path d="M90.4929 174.61C90.1212 174.139 89.7329 173.693 89.3172 173.283C88.9455 172.914 88.6178 172.693 88.3342 172.591C89.4548 174.335 90.6333 176.065 91.9632 177.657C91.4042 176.66 90.9141 175.641 90.4956 174.61H90.4929Z" fill="#5F91D6"/>
<path d="M90.8042 170.122C91.3246 172.249 92.3901 174.359 93.2161 175.816C93.7861 176.816 94.3973 177.799 95.0389 178.76C95.54 174.585 93.7888 171.833 90.8042 170.125V170.122Z" fill="#5F91D6"/>
<path d="M99.5488 165.429C99.7801 165.445 100.006 165.467 100.226 165.492C100.826 165.283 101.427 165.005 102.019 164.672C100.535 164.064 98.9706 163.531 97.4866 163.236C98.1226 164.012 98.8109 164.746 99.5461 165.429H99.5488Z" fill="#5F91D6"/>
<path d="M94.7166 150.4C93.3674 149.94 92.3624 149.639 92.3679 149.758C92.4891 151.659 92.7396 153.578 93.271 155.416C93.9043 153.826 94.3807 152.138 94.7166 150.4Z" fill="#5F91D6"/>
<path d="M83.403 146.473C81.6546 152.184 82.365 158.698 84.5264 164.921C87.0842 163.853 89.1217 162.156 90.7077 160.053C90.6003 159.645 90.4956 159.224 90.4048 158.775C89.2208 152.883 88.951 145.358 90.1955 138.546C87.1971 139.744 84.6971 142.252 83.4057 146.473H83.403Z" fill="#5F91D6"/>
<path d="M89.0037 166.93C89.1799 164.663 90.1546 163.305 91.6056 162.584C91.4927 162.344 91.3853 162.088 91.2835 161.826C89.6315 163.79 87.5774 165.374 85.0774 166.418C85.0994 166.476 85.1214 166.531 85.1435 166.589C86.1595 166.768 87.1479 166.999 88.0923 167.283C88.3924 167.159 88.6981 167.041 89.0064 166.93H89.0037Z" fill="#5F91D6"/>
<path d="M85.8826 168.352H85.8701V168.365L85.8826 168.352Z" fill="#5F91D6"/>
<path d="M84.5538 184.497C83.9701 180.257 84.094 175.763 85.4735 172.592C85.5698 172.369 85.6717 172.168 85.7763 171.986C85.5671 171.589 85.3633 171.19 85.1651 170.788C80.2889 174.53 81.1617 179.626 84.5538 184.5V184.497Z" fill="#5F91D6"/>
<path d="M83.5711 88.4037C83.3371 87.558 83.2407 86.6958 83.3123 85.8254C83.0672 85.7262 82.8057 85.6188 82.5579 85.5059C82.4835 85.7097 82.3762 85.9769 82.233 86.3322C81.831 87.3377 81.4841 88.4368 80.9912 89.4284C81.5061 89.6956 82.0678 89.9711 82.6597 90.2355C82.9351 89.613 83.238 89.0014 83.5711 88.4037Z" fill="#5F91D6"/>
<path d="M83.9234 92.4355C83.3589 94.3748 83.1166 96.3664 83.2213 98.3469C83.6618 96.325 84.5649 94.5015 85.9168 92.9727C85.256 92.8405 84.5869 92.6559 83.9234 92.4383V92.4355Z" fill="#5F91D6"/>
<path d="M79.9419 96.5026V104.666C80.7541 106.968 82.2162 108.816 84.0857 110.184C84.2812 109.92 84.4822 109.658 84.6914 109.402C84.3473 108.562 84.0444 107.712 83.7828 106.85C82.475 104.752 81.5554 102.398 81.1864 99.7405C80.9056 97.7196 81.035 95.7206 81.4755 93.7905C80.8422 94.6165 80.3246 95.5251 79.9446 96.5081L79.9419 96.5026Z" fill="#5F91D6"/>
<path d="M82.9018 165.491C80.0025 157.421 79.4518 148.869 83.7581 142.316C85.3247 139.934 87.2493 138.296 89.3584 137.286C85.2972 134.254 81.9271 130.474 80.6468 125.766C79.9859 125.545 79.9391 124.733 80.231 123.67C80.2035 123.467 80.1759 123.266 80.1567 123.062C79.7629 118.72 81.0653 114.692 83.3588 111.222C82.0014 110.217 80.834 108.937 79.9419 107.359V166.061C80.9882 165.951 81.9766 165.761 82.9018 165.494V165.491Z" fill="#5F91D6"/>
<path d="M108.894 68.7799C110.813 68.1353 112.88 67.6175 114.962 67.3695L104.334 59.7861C106.314 62.3617 107.853 65.3752 108.794 68.4383C108.83 68.554 108.858 68.667 108.891 68.7827L108.894 68.7799Z" fill="#5F91D6"/>
<path d="M81.7869 85.041C81.813 85.0687 81.8392 85.0872 81.8624 85.1056C81.8363 85.0841 81.8072 85.0625 81.7869 85.041Z" fill="#5F91D6"/>
<path d="M82.0124 91.7084C81.3076 91.4058 80.6137 91.073 79.9419 90.7236V94.4069C80.5063 93.4331 81.2002 92.5254 82.0124 91.7084Z" fill="#5F91D6"/>
<path d="M171.238 107.511C171.477 109.681 171.541 111.899 171.406 114.056C174.286 113.177 177.279 113.218 179.958 114.835C179.085 113.505 177.95 112.304 176.552 111.304L171.238 107.511Z" fill="#5F91D6"/>
<path d="M166.221 120.137C167.479 120.925 168.46 121.107 168.71 120.057C168.975 118.955 169.173 117.84 169.313 116.716C168.531 117.074 167.788 117.493 167.083 117.961C166.849 118.688 166.563 119.415 166.224 120.14L166.221 120.137Z" fill="#5F91D6"/>
<path d="M160.717 126.039C164.131 129.374 167.438 133.435 169.621 137.864L174.569 134.333C170.335 132.184 165.629 129.193 161.361 125.708C161.149 125.826 160.935 125.937 160.717 126.039Z" fill="#5F91D6"/>
<path d="M100.041 187.442C99.1741 186.673 98.3343 185.869 97.5304 185.031C97.6543 185.772 96.8365 186.387 96.1812 185.794C95.771 185.423 95.358 185.029 94.945 184.618C94.3502 185.935 93.5049 187.69 92.5605 189.326C95.0634 189.461 97.6543 188.885 100.041 187.439V187.442Z" fill="#5F91D6"/>
<path d="M86.7758 173.801C86.4867 174.654 86.3738 175.753 86.3188 176.518C86.0737 180.021 86.1563 183.804 86.8419 187.353C87.0374 187.57 87.2384 187.785 87.4421 188C88.4664 188.495 89.5485 188.862 90.6691 189.087C91.831 187.273 92.9324 185.381 93.7584 183.393C91.2748 180.714 88.8519 177.419 86.7731 173.801H86.7758Z" fill="#5F91D6"/>
<path d="M91.2446 153.387C91.3135 155.059 91.4814 156.75 91.8283 158.364C92.0266 158.028 92.2166 157.684 92.3983 157.334C91.9137 156.081 91.5255 154.764 91.2446 153.389V153.387Z" fill="#5F91D6"/>
<path d="M93.9124 99.5123C93.1222 97.2563 92.0952 94.9342 90.7708 92.8076C89.6557 93.1905 88.4497 93.2814 87.1997 93.1602C88.9316 95.3418 91.3022 97.4987 93.9097 99.5123H93.9124Z" fill="#5F91D6"/>
<path d="M94.7637 161.915C94.1772 161.027 93.6458 160.097 93.1777 159.126C92.9272 159.555 92.6629 159.97 92.3848 160.375C92.5858 160.966 92.817 161.538 93.0869 162.086C93.6128 161.978 94.1772 161.926 94.7664 161.915H94.7637Z" fill="#5F91D6"/>
<path d="M90.6883 136.225C90.9003 135.344 91.1426 134.481 91.4125 133.641C91.3519 132.947 91.3271 132.25 91.3409 131.553C90.7957 130.149 90.3469 128.689 89.9945 127.204C89.2428 126.725 88.4416 126.157 87.7147 125.51C86.0875 125.962 84.317 126.108 82.4475 125.984C82.7146 126.749 83.0532 127.51 83.4773 128.262C85.2697 131.427 87.8 134.049 90.6883 136.228V136.225Z" fill="#5F91D6"/>
<path d="M88.8905 105.241C90.3856 104.044 92.4176 102.733 94.6202 101.78C94.5487 101.519 94.4771 101.254 94.4 100.996C93.1637 100.015 91.9577 98.9967 90.7958 97.9312C89.5155 96.7582 87.9406 95.2907 86.5639 93.6387C86.4152 93.8011 86.2693 93.9691 86.1316 94.1425C84.2676 96.4939 83.6426 99.195 83.8161 101.987C84.3419 103.881 85.2037 105.726 86.429 107.458C87.2054 106.673 88.0287 105.932 88.8905 105.241Z" fill="#5F91D6"/>
<path d="M84.3167 116.469C84.749 116.127 85.2749 116.172 85.5998 116.634C85.7457 116.841 85.9082 117.039 86.0872 117.232C85.955 116.893 85.8338 116.538 85.7265 116.166C85.3878 114.984 85.2584 113.695 85.385 112.453C85.1758 112.348 84.9693 112.241 84.7683 112.125C83.1576 114.599 82.0535 117.359 81.7754 120.19C82.7804 118.392 83.9258 116.78 84.3195 116.466L84.3167 116.469Z" fill="#5F91D6"/>
<path d="M96.0192 165.444C96.5286 165.405 97.0325 165.381 97.5253 165.372C96.8094 164.622 96.1376 163.832 95.5209 162.996C94.8711 162.977 94.2543 163.023 93.6926 163.164C93.789 163.318 93.8826 163.477 93.9872 163.626C94.604 164.498 95.2896 165.084 96.0192 165.444Z" fill="#5F91D6"/>
<path d="M80.1704 69.5393C81.1837 68.3961 82.8026 67.2309 84.5841 66.4817C83.3175 65.1374 82.241 63.683 81.3681 62.1294C80.4678 63.9034 79.9419 65.9335 79.9419 68.162V69.8175C80.0162 69.7238 80.0878 69.6329 80.1704 69.5393Z" fill="#5F91D6"/>
<path d="M108.233 72.8603C108.131 72.1066 107.99 71.3556 107.812 70.6074C106.388 71.1961 105 71.8975 103.679 72.6897C105.163 73.0226 106.683 73.1023 108.23 72.8603H108.233Z" fill="#5F91D6"/>
<path d="M109.676 72.5447C110.119 72.418 110.565 72.2638 111.011 72.0792C112.85 71.3217 114.557 70.1262 116.028 68.647C113.806 68.7599 111.493 69.2612 109.232 70.0628C109.428 70.903 109.582 71.7321 109.676 72.5447Z" fill="#5F91D6"/>
<path d="M80.655 85.9002C80.9359 85.2308 81.1837 84.5257 81.5857 83.9141C81.9078 83.4238 82.6925 83.3467 82.9954 83.9141C83.0862 84.0849 83.2982 84.264 83.5791 84.4513C83.5818 84.4375 83.5873 84.4265 83.5901 84.4127C82.2547 83.0795 80.9359 81.5232 79.9419 79.8594V87.6797C80.1787 87.0874 80.4182 86.4952 80.655 85.903V85.9002Z" fill="#5F91D6"/>
<path d="M101.299 186.175C101.385 186.259 101.476 186.337 101.561 186.421L101.778 186.259C101.619 186.233 101.459 186.207 101.299 186.175Z" fill="#5F91D6"/>
<path d="M158.583 134.295C158.545 135.386 158.55 136.506 158.591 137.643C160.326 138.938 161.923 140.559 163.294 142.374L168.162 138.902C166.287 134.628 163.413 130.614 159.979 127.211C159.148 129.452 158.669 131.856 158.586 134.298L158.583 134.295Z" fill="#5F91D6"/>
<path d="M165.544 103.446C165.544 103.446 165.556 103.468 165.561 103.481C165.592 103.5 165.623 103.516 165.654 103.535L165.547 103.449L165.544 103.446Z" fill="#5F91D6"/>
<path d="M92.8997 77.3976C93.2548 77.3095 93.6045 77.2353 93.9514 77.1693C93.9459 77.1445 93.9404 77.1197 93.9377 77.0922C93.8055 76.4678 93.6513 75.8104 93.4724 75.1475C93.3044 75.6013 93.1557 76.1322 93.0291 76.7566C92.985 76.9685 92.9437 77.183 92.9024 77.3976H92.8997Z" fill="#5F91D6"/>
<path d="M129.288 90.0209C129.692 90.3871 130.083 90.7478 130.458 91.1057C132.76 91.9593 134.962 93.0606 136.997 94.418C137.22 94.1785 137.454 93.9527 137.702 93.7435C135.675 91.0975 133.982 88.3304 132.691 86.1827C132.443 85.767 132.652 85.0594 133.181 84.9823C135.26 84.6629 137.473 84.6987 139.737 85.0401L130.535 78.4761C130.995 82.2564 130.273 86.3727 129.29 90.0237L129.288 90.0209Z" fill="#5F91D6"/>
<path d="M119.321 90.1235C123.176 94.3444 126.515 99.116 128.828 104.251C129.36 105.432 129.808 106.707 130.172 108.04C130.475 107.8 130.78 107.563 131.089 107.335C130.161 106.019 129.373 104.625 128.765 103.191C128.553 102.695 128.702 102.167 129.255 101.991C130.83 101.476 132.479 101.041 134.159 100.721C134.349 99.6447 134.629 98.6232 135.004 97.676C133.746 96.1149 132.482 94.7464 131.491 93.7029C131.009 93.199 130.513 92.6924 130.007 92.1886C129.541 92.0151 129.07 91.8526 128.597 91.6985C128.467 91.7866 128.319 91.8389 128.165 91.8196C125.78 91.5525 122.399 91.1368 119.321 90.1235Z" fill="#5F91D6"/>
<path d="M152.482 94.133L143.253 87.5467C141.579 87.1886 134.767 86.4697 134.866 86.6239C136.19 88.7367 137.559 90.8467 139.134 92.7887C140.653 91.9981 142.531 91.6621 144.822 91.9375C147.429 92.2516 150.183 93.4057 152.597 95.086C152.699 94.9896 152.798 94.8905 152.9 94.7941C152.757 94.5737 152.617 94.3533 152.482 94.1302V94.133Z" fill="#5F91D6"/>
<path d="M150.095 105C150.189 108.016 151.359 111.005 153.085 113.704C153.925 113.275 154.704 112.76 155.384 112.167C154.239 109.358 152.485 106.829 150.095 104.997V105Z" fill="#5F91D6"/>
<path d="M151.413 96.3191C149.869 95.2421 148.17 94.4129 146.394 93.9474C144.015 93.3276 141.978 93.4626 140.328 94.1788C142.515 96.5946 145.579 99.3244 148.8 100.379C149.329 99.0985 150.097 97.8452 151.141 96.6276C151.232 96.5202 151.325 96.421 151.416 96.3164L151.413 96.3191Z" fill="#5F91D6"/>
<path d="M152.364 116.486C151.623 116.759 150.841 116.946 150.023 117.034C149.302 117.112 148.583 117.134 147.867 117.112C150.924 118.412 153.812 120.213 156.334 122.183C156.392 121.888 156.441 121.593 156.488 121.293C154.96 119.74 153.564 118.131 152.364 116.486Z" fill="#5F91D6"/>
<path d="M111.683 88.8775C113.029 88.6571 114.444 88.5745 115.851 88.5855C114.293 87.6544 113.029 86.4452 112.321 84.864C111.974 84.5858 111.622 84.3131 111.267 84.0459C111.603 85.5719 111.721 87.2027 111.683 88.8775Z" fill="#5F91D6"/>
<path d="M96.0987 101.128C96.1263 101.147 96.1538 101.166 96.1786 101.185C97.167 100.852 98.172 100.613 99.166 100.5C97.938 99.2876 96.8284 97.9929 95.8537 96.6294C95.683 96.4503 95.515 96.2685 95.3498 96.084C95.336 96.2355 95.3223 96.387 95.3113 96.5385C95.2672 97.1555 95.2589 97.767 95.2755 98.3758C95.4269 98.8083 95.5673 99.2463 95.6995 99.687C95.8399 100.158 95.9721 100.643 96.0987 101.13V101.128Z" fill="#5F91D6"/>
<path d="M91.9825 90.2026C91.6961 90.3076 91.4153 90.4209 91.1372 90.5369C91.2336 90.6723 91.3327 90.8077 91.4263 90.9431C91.6466 90.7966 91.8558 90.6309 92.0541 90.4375C92.032 90.3601 92.0045 90.2828 91.9825 90.2026Z" fill="#5F91D6"/>
<path d="M89.705 91.2271C89.4077 91.3908 89.1158 91.5628 88.835 91.7459C89.2204 91.7265 89.5921 91.671 89.9528 91.5822C89.8702 91.4629 89.7904 91.3436 89.705 91.2271Z" fill="#5F91D6"/>
<path d="M96.7428 78.4967C96.5638 78.7116 96.3904 78.9292 96.2224 79.1495C96.3436 80.5819 96.3573 82.0061 96.261 83.3531C96.8639 83.5376 97.4724 83.7029 98.0754 83.8379C99.6476 81.6755 101.531 80.3395 103.604 79.6426C101.682 78.8934 99.6614 78.3617 97.6487 78.1606C97.343 78.2626 97.0402 78.3755 96.74 78.4967H96.7428Z" fill="#5F91D6"/>
<path d="M155.982 123.717C153.126 121.516 150.048 119.737 146.948 118.527C146.54 119.351 146.031 120.15 145.406 120.918C145.307 121.04 145.208 121.155 145.106 121.274C147.909 123.251 151.753 125.282 155.368 125.64C155.602 125.02 155.806 124.378 155.982 123.72V123.717Z" fill="#5F91D6"/>
<path d="M85.958 91.41C86.3985 91.52 86.8363 91.6053 87.2713 91.6658C87.822 91.2119 88.425 90.7938 89.0803 90.4197C88.7499 90.0126 88.403 89.622 88.045 89.2451C87.1227 89.5504 86.2333 89.9411 85.3936 90.4169C85.5643 90.747 85.7515 91.0771 85.958 91.41Z" fill="#5F91D6"/>
<path d="M92.6538 78.7971C92.9429 78.6139 93.2375 78.4336 93.5404 78.2588C93.2623 78.3032 92.987 78.3587 92.7144 78.4197C92.6924 78.5446 92.6758 78.6722 92.6566 78.7971H92.6538Z" fill="#5F91D6"/>
<path d="M144.046 136.992C143.41 136.114 142.721 135.271 141.983 134.469C140.637 134.26 139.293 133.916 137.977 133.478C139.266 135.833 140.141 138.334 140.398 140.893C140.519 141.05 140.637 141.207 140.753 141.364C141.606 139.697 142.716 138.18 144.046 136.995V136.992Z" fill="#5F91D6"/>
<path d="M93.9537 127.89C93.9702 127.896 93.9868 127.901 94.0033 127.904C95.9416 124.965 97.5827 125.802 98.907 128.199C99.287 128.141 99.6587 128.061 100.025 127.959C98.26 126.643 96.5116 125.185 94.8458 123.602C94.3172 124.615 93.8684 125.695 93.5132 126.819C93.6674 127.172 93.8161 127.53 93.9537 127.89Z" fill="#5F91D6"/>
<path d="M89.9668 118.276C89.931 118.969 89.9145 119.665 89.9227 120.361C90.3798 120.724 90.8699 121.038 91.3875 121.277C91.5114 121.335 91.6353 121.382 91.7592 121.434C91.9134 121.263 92.0649 121.09 92.2108 120.914C91.4316 120.061 90.6827 119.181 89.9668 118.273V118.276Z" fill="#5F91D6"/>
<path d="M96.1016 128.279C96.4017 128.308 96.7018 128.328 96.9992 128.334C96.7101 128.171 96.4099 128.143 96.1016 128.279Z" fill="#5F91D6"/>
<path d="M100.209 136.744C100.008 135.629 99.7879 134.516 99.5071 133.419C99.1133 131.891 98.6122 130.461 98.0395 129.483C97.0566 129.563 96.0571 129.508 95.0631 129.323C94.942 129.516 94.8209 129.734 94.6997 129.979C95.344 131.943 95.8754 133.965 96.2581 136.017C97.5852 136.1 98.9151 136.35 100.212 136.741L100.209 136.744Z" fill="#5F91D6"/>
<path d="M87.9985 118.223C88.3014 118.685 88.6428 119.12 89.0173 119.519C89.0035 118.839 89.0118 118.168 89.0366 117.511C88.6648 117.731 88.3152 117.97 87.9985 118.223Z" fill="#5F91D6"/>
<path d="M98.2957 108.423C99.5842 110.646 101.231 112.739 103.139 114.662C103.868 114.83 104.584 115.034 105.281 115.276C103.954 112.299 101.355 109.778 98.2957 108.423Z" fill="#5F91D6"/>
<path d="M94.4545 114.369C94.5123 114.361 94.5701 114.35 94.6252 114.341C94.8097 114.313 94.9914 114.294 95.1759 114.271C95.1896 114.198 95.2007 114.126 95.2144 114.056C94.8345 114.095 94.4545 114.126 94.0718 114.142C94.1984 114.221 94.3278 114.296 94.4545 114.372V114.369Z" fill="#5F91D6"/>
<path d="M121.063 169.702C121.262 169.049 121.498 168.391 121.787 167.732C123.695 163.344 126.848 161.548 130.339 161.449C124.296 157.573 116.674 154.488 116.25 161.185C116.209 161.832 116.201 162.479 116.22 163.121C116.886 164.463 117.66 165.713 118.503 166.818C119.287 167.842 120.146 168.807 121.066 169.705L121.063 169.702Z" fill="#5F91D6"/>
<path d="M105.289 112.628C105.468 112.857 105.633 113.094 105.79 113.336C106.085 111.962 106.388 110.287 106.388 108.654C102.993 106.929 99.7301 104.951 96.6546 102.712C96.5996 102.731 96.5473 102.75 96.4922 102.77C96.7207 103.825 96.9135 104.902 97.0566 105.993C97.2466 106.422 97.4476 106.849 97.6651 107.274C100.713 108.356 103.511 110.339 105.292 112.628H105.289Z" fill="#5F91D6"/>
<path d="M138.206 132.473C139.01 132.724 139.82 132.934 140.635 133.103C140.208 132.694 139.767 132.296 139.316 131.909C138.85 131.512 138.487 131.785 138.206 132.47V132.473Z" fill="#5F91D6"/>
<path d="M140.312 148.358C141.317 148.496 142.303 148.584 143.261 148.622C142.655 147.168 141.92 145.749 141.078 144.389C140.634 145.67 140.373 147.014 140.31 148.358H140.312Z" fill="#5F91D6"/>
<path d="M84.7187 91.0548C84.6884 91.0004 84.6582 90.9431 84.6279 90.8887C84.5866 90.9173 84.5453 90.9488 84.5012 90.9775C84.5728 91.0033 84.6444 91.0319 84.716 91.0577L84.7187 91.0548Z" fill="#5F91D6"/>
<path d="M120.422 172.955C120.472 172.402 120.551 171.84 120.662 171.278C119.219 170.052 117.914 168.694 116.788 167.207C117.374 169.418 118.42 171.482 120.02 173.245L120.422 172.958V172.955Z" fill="#5F91D6"/>
<path d="M143.996 122.47C142.669 123.784 141.226 124.825 139.695 125.624C141.95 128.023 144.605 130.364 147.738 131.13C148.423 131.298 149.062 131.367 149.665 131.359C148.302 128.417 146.581 125.552 144.577 122.891C144.382 122.753 144.189 122.61 143.996 122.47Z" fill="#5F91D6"/>
<path d="M140.32 149.725C140.419 151.416 140.849 153.077 141.664 154.581C141.667 154.587 141.672 154.592 141.675 154.601C142.705 154.367 143.734 154.223 144.753 154.196C144.728 153.526 144.616 152.791 144.404 151.978C144.227 151.306 144.021 150.64 143.787 149.976C142.661 149.992 141.496 149.904 140.32 149.728V149.725Z" fill="#5F91D6"/>
<path d="M101.253 77.4706C102.239 77.7275 103.211 78.059 104.16 78.4568C103.94 78.1778 103.714 77.9043 103.475 77.6391C102.759 77.4927 102.013 77.443 101.253 77.4734V77.4706Z" fill="#5F91D6"/>
<path d="M106.185 79.1008C106.317 79.087 106.446 79.0787 106.578 79.0704C106.328 78.8687 106.069 78.6864 105.799 78.5234C105.934 78.7113 106.058 78.9074 106.185 79.098V79.1008Z" fill="#5F91D6"/>
<path d="M95.1187 73.2397C95.4712 74.4116 95.7492 75.6521 95.9502 76.9147C95.964 76.9147 95.975 76.9147 95.9888 76.9147C95.9888 76.9147 95.9888 76.9147 95.9915 76.9147C96.8699 75.919 97.8418 74.9975 98.8798 74.153C98.7972 74.1117 98.7174 74.065 98.632 74.0237C97.1011 73.2728 95.9695 72.9867 95.116 73.2425L95.1187 73.2397Z" fill="#5F91D6"/>
<path d="M99.155 76.007C99.8874 75.844 100.623 75.7363 101.352 75.6976C101.03 75.4517 100.7 75.2169 100.353 74.9932C99.9397 75.3219 99.5405 75.6617 99.155 76.007Z" fill="#5F91D6"/>
<path d="M113.274 80.0568C118.415 81.7281 123.654 85.2166 127.793 88.7161C128.379 87.8681 128.544 86.5134 128.781 84.7733C129.103 82.3724 129.271 79.6741 128.74 77.1961L121.361 71.9316C117.963 73.8755 114.279 76.896 113.274 80.0596V80.0568Z" fill="#5F91D6"/>
<path d="M115.474 86.1133C117.204 87.5044 119.269 88.4107 121.408 89.0084C122.388 89.1379 123.297 89.2811 124.095 89.4161C124.632 89.5042 125.164 89.6089 125.698 89.7246C126.243 89.6998 126.678 89.5924 127.028 89.4078C122.922 85.8048 118.164 82.6177 113.043 81.1055C112.839 82.8106 113.498 84.5294 115.474 86.1161V86.1133Z" fill="#5F91D6"/>
<path d="M110.201 80.4509C110.099 80.4344 110 80.4262 109.898 80.4097C110.24 81.0011 110.526 81.6255 110.763 82.2774C111.11 82.5332 111.454 82.7946 111.793 83.0586C111.669 82.2774 111.661 81.5072 111.754 80.7563C111.242 80.6352 110.724 80.5307 110.204 80.4482L110.201 80.4509Z" fill="#5F91D6"/>
<path d="M156.296 96.8496C156.296 96.8496 156.293 96.8635 156.29 96.8718C156.604 97.1964 156.929 97.5128 157.259 97.8207C157.309 97.7625 157.356 97.7042 157.405 97.6459L156.296 96.8496Z" fill="#5F91D6"/>
<path d="M89.2124 115.234C89.2675 114.75 89.3363 114.274 89.4162 113.809C88.9591 113.719 88.5076 113.611 88.0615 113.485C88.436 114.085 88.8215 114.668 89.2124 115.234Z" fill="#5F91D6"/>
<path d="M91.324 77.866C91.6021 76.1719 92.0592 74.4613 92.7062 72.748C92.274 71.6048 91.7508 70.5277 91.1175 69.6353C91.0845 69.8418 91.0487 70.0457 91.0129 70.2523C90.8367 73.0207 90.4209 75.7697 89.7354 78.4885C90.2585 78.2544 90.7899 78.0478 91.3268 77.866H91.324Z" fill="#5F91D6"/>
<path d="M107.61 115.419C108.39 113.976 108.888 112.375 109.015 110.678C108.75 110.315 108.483 109.937 108.216 109.552C108.153 109.522 108.087 109.491 108.023 109.461C107.954 111.447 107.517 113.518 106.958 115.449C107.175 115.438 107.39 115.425 107.61 115.422V115.419Z" fill="#5F91D6"/>
<path d="M86.2941 88.7836C86.597 88.6488 86.8999 88.5278 87.2 88.415C86.8586 88.1014 86.5034 87.8016 86.1372 87.521C85.76 88.1262 85.4158 88.7451 85.1074 89.375C85.4901 89.1632 85.8839 88.9651 86.2941 88.7863V88.7836Z" fill="#5F91D6"/>
<path d="M87.5218 56.1768C87.2795 56.2925 87.0427 56.4137 86.8087 56.5431C86.6876 57.2015 86.5994 57.8571 86.5664 58.4989C87.3484 59.5759 88.2239 60.7329 89.1849 61.9063C89.0417 60.5676 88.8462 59.2289 88.6011 57.8929C88.3396 57.3557 88.0312 56.8379 87.665 56.3531C87.6182 56.2925 87.5686 56.2374 87.5218 56.1768Z" fill="#5F91D6"/>
<path d="M88.1775 63.3365C88.1775 63.3365 88.1996 63.3558 88.2106 63.3669C87.8912 62.9719 87.5746 62.5768 87.2634 62.1763C87.4975 62.5989 87.7976 62.9912 88.1775 63.3365Z" fill="#5F91D6"/>
<path d="M88.8151 81.7809C88.8011 81.7714 88.7842 81.7619 88.7701 81.7524C88.7588 81.7904 88.7476 81.8251 88.7363 81.8631C88.7617 81.8346 88.787 81.8093 88.8151 81.7809Z" fill="#5F91D6"/>
<path d="M152.628 97.2373C152.314 97.6582 152.014 98.101 151.736 98.5687C151.306 99.2976 150.97 100.038 150.714 100.786C151.865 100.899 153.019 100.75 154.139 100.255C154.181 99.8147 154.236 99.3306 154.302 98.8052C153.776 98.2523 153.217 97.7269 152.625 97.2373H152.628Z" fill="#5F91D6"/>
<path d="M145.502 149.86C146.006 151.282 146.392 152.799 146.463 154.265C146.469 154.265 146.471 154.265 146.474 154.265C147.306 152.75 147.834 151.042 148.03 149.29C147.229 149.565 146.381 149.75 145.502 149.86Z" fill="#5F91D6"/>
<path d="M95.2477 141.002C94.9173 140.823 94.5897 140.642 94.2593 140.455C94.5649 141.029 94.9118 141.582 95.3056 142.111C95.2918 141.739 95.2725 141.371 95.2477 141.002Z" fill="#5F91D6"/>
<path d="M93.7477 132.429C93.6128 132.833 93.4861 133.243 93.365 133.656C93.6981 134.233 94.0588 134.794 94.4471 135.339C94.2433 134.376 94.012 133.402 93.7505 132.429H93.7477Z" fill="#5F91D6"/>
<path d="M93.5959 123.163C93.2077 123.102 92.8277 123.022 92.4533 122.923C92.2385 123.119 92.0183 123.303 91.7925 123.476C92.0981 123.991 92.39 124.513 92.6653 125.044C92.9351 124.398 93.2435 123.768 93.5959 123.16V123.163Z" fill="#5F91D6"/>
<path d="M92.9543 129.793C92.9213 129.694 92.8827 129.595 92.8497 129.499C92.8056 129.752 92.7643 130.005 92.7285 130.258C92.8029 130.101 92.88 129.95 92.9543 129.796V129.793Z" fill="#5F91D6"/>
<path d="M145.04 138.473C143.674 139.641 142.562 141.117 141.758 142.756C142.834 144.299 143.63 145.607 143.991 146.343C144.321 147.02 144.676 147.783 145.012 148.599C146.213 148.505 147.237 148.249 148.11 147.863C148.118 146.612 147.956 145.365 147.609 144.172C147.019 142.147 146.138 140.244 145.037 138.473H145.04Z" fill="#5F91D6"/>
<path d="M109.602 157.977C112.173 154.562 112.371 151.028 111.105 147.882C107.743 149.27 103.635 148.984 100.414 147.482C99.1222 146.882 97.9603 146.102 96.9333 145.185C96.9168 145.543 96.8948 145.901 96.8672 146.257C96.7901 147.24 96.6772 148.218 96.5286 149.182C101.548 151.044 106.223 154.085 109.604 157.977H109.602Z" fill="#5F91D6"/>
<path d="M150.276 103.114C151.05 103.642 151.793 104.248 152.493 104.948C153.3 105.753 154.021 106.62 154.668 107.532C154.574 107.182 154.489 106.83 154.415 106.469C153.448 104.967 152.116 103.758 150.276 103.111V103.114Z" fill="#5F91D6"/>
<path d="M150.563 133.438C148.556 134.398 146.414 134.753 144.241 134.685C144.607 135.119 144.963 135.562 145.304 136.013C146.942 134.932 148.85 134.349 150.979 134.509C150.935 134.39 150.893 134.272 150.849 134.154C150.758 133.914 150.657 133.678 150.56 133.438H150.563Z" fill="#5F91D6"/>
<path d="M154.335 115.504C155.092 116.537 155.904 117.565 156.769 118.581C156.788 118.245 156.802 117.906 156.808 117.57C156.653 116.408 156.406 115.251 156.07 114.122C155.541 114.639 154.957 115.102 154.332 115.504H154.335Z" fill="#5F91D6"/>
<path d="M152.655 102.342C152.11 102.444 151.573 102.493 151.042 102.501C152.184 102.999 153.222 103.687 154.123 104.573C154.035 103.728 154.002 102.864 154.026 101.981C153.589 102.13 153.132 102.254 152.655 102.342Z" fill="#5F91D6"/>
<path d="M154.779 127.011C152.144 126.81 149.443 125.89 147.014 124.472C148.336 126.438 149.511 128.488 150.508 130.576C150.607 130.788 150.712 131.008 150.817 131.237C151.219 131.154 151.599 131.036 151.959 130.882C153.127 129.824 154.06 128.502 154.781 127.011H154.779Z" fill="#5F91D6"/>
<path d="M157.986 125.355C157.967 125.43 157.945 125.508 157.923 125.583C158.008 125.569 158.094 125.551 158.176 125.534C158.113 125.473 158.05 125.413 157.986 125.355Z" fill="#5F91D6"/>
<defs>
<filter id="filter0_d_2162_1405" x="0" y="0" width="244" height="245" filterUnits="userSpaceOnUse" color-interpolation-filters="sRGB">
<feFlood flood-opacity="0" result="BackgroundImageFix"/>
<feColorMatrix in="SourceAlpha" type="matrix" values="0 0 0 0 0 0 0 0 0 0 0 0 0 0 0 0 0 0 127 0" result="hardAlpha"/>
<feOffset dy="4"/>
<feGaussianBlur stdDeviation="2"/>
<feComposite in2="hardAlpha" operator="out"/>
<feColorMatrix type="matrix" values="0 0 0 0 0 0 0 0 0 0 0 0 0 0 0 0 0 0 0.25 0"/>
<feBlend mode="normal" in2="BackgroundImageFix" result="effect1_dropShadow_2162_1405"/>
<feBlend mode="normal" in="SourceGraphic" in2="effect1_dropShadow_2162_1405" result="shape"/>
</filter>
</defs>
</svg>
